<svg width="137" height="26" viewBox="0 0 137 26" fill="none" xmlns="http://www.w3.org/2000/svg">
    <path fill-rule="evenodd" clip-rule="evenodd"
        d="M78.6239 4.2841H72.3115V0H78.6239V4.2841ZM42.7817 25.5935H49.0931V0.000851711H42.7817V25.5935ZM12.6029 7.35924C13.4918 8.48759 13.9362 10.2196 13.9362 12.5541C13.9362 15.0529 13.4654 16.9097 12.5272 18.1234C11.5879 19.3392 10.1127 19.945 8.09961 19.945H6.62457V5.66884H8.55251C10.3649 5.66884 11.713 6.23196 12.6029 7.35924ZM17.4327 22.1419C19.6854 19.8415 20.8117 16.5642 20.8117 12.311C20.8117 8.35856 19.7411 5.33825 17.6008 3.24579C15.4595 1.15439 12.421 0.108167 8.4852 0.108167H0V25.5942H7.93155C12.0134 25.5942 15.1801 24.4434 17.4327 22.1419ZM133.37 18.6295C131.366 18.6295 129.739 20.2804 129.739 22.3153C129.739 24.3502 131.366 26 133.37 26C135.375 26 137 24.3502 137 22.3153C137 20.2804 135.375 18.6295 133.37 18.6295ZM58.5888 19.779C58.1695 18.9236 57.9594 17.6791 57.9594 16.0473C57.9594 14.4135 58.1695 13.1859 58.5888 12.3637C59.0091 11.5425 59.7015 11.1297 60.6702 11.1297C61.661 11.1297 62.3596 11.5446 62.7693 12.3732C63.178 13.1998 63.3819 14.4241 63.3819 16.0473C63.3819 17.6791 63.1812 18.9236 62.7777 19.779C62.3743 20.6354 61.6819 21.063 60.7027 21.063C59.7129 21.063 59.0091 20.6354 58.5888 19.779ZM67.3933 23.3198C69.0029 21.5814 69.8057 19.1562 69.8057 16.0473C69.8057 14.0669 69.4328 12.3349 68.6847 10.8546C67.9377 9.37215 66.8743 8.2342 65.497 7.43966C64.1206 6.64512 62.5319 6.2473 60.7363 6.2473C57.8301 6.2473 55.5733 7.10582 53.9638 8.82287C52.3541 10.5399 51.5503 12.9481 51.5503 16.0473C51.5503 19.0783 52.3709 21.4822 54.013 23.2611C55.6531 25.04 57.8628 25.9294 60.6386 25.9294C63.5332 25.9294 65.7848 25.0592 67.3933 23.3198ZM72.3132 25.594H78.6256V15.7993V6.58373H72.3132V25.594ZM91.4129 20.7449C92.265 20.7449 93.2799 20.5252 94.464 20.089V24.8722C93.6129 25.2518 92.804 25.5238 92.0349 25.6848C91.2658 25.848 90.3632 25.9291 89.3305 25.9291C87.2112 25.9291 85.6835 25.3884 84.7453 24.3091C83.8112 23.2298 83.3426 21.5725 83.3426 19.336V11.4994H81.1321V6.58501H83.3426V1.73032L89.7035 0.60727V6.58501H93.7308V11.4994H89.7035V18.8988C89.7035 20.1295 90.274 20.7449 91.4129 20.7449ZM109.074 20.089C107.89 20.5252 106.875 20.7449 106.023 20.7449C104.883 20.7449 104.312 20.1295 104.312 18.8988V11.4994H108.342V6.58501H104.312V0.60727L97.9526 1.65674V6.58501H95.7409V11.4994H97.9526V19.336C97.9526 21.5725 98.4212 23.2298 99.3573 24.3091C100.293 25.3884 101.821 25.9291 103.94 25.9291C104.975 25.9291 105.875 25.848 106.645 25.6848C107.414 25.5238 108.224 25.2518 109.074 24.8722V20.089ZM117.038 13.7317C117.125 12.6908 117.418 11.9283 117.918 11.4409C118.42 10.9546 119.04 10.7114 119.782 10.7114C120.591 10.7114 121.234 10.9844 121.711 11.5347C122.191 12.0819 122.441 12.8146 122.461 13.7317H117.038ZM125.94 8.48888C124.439 6.99579 122.311 6.24815 119.557 6.24815C116.662 6.24815 114.435 7.10667 112.874 8.82373C111.313 10.5408 110.533 13.0044 110.533 16.2146C110.533 19.3234 111.376 21.7208 113.06 23.4038C114.744 25.0867 117.109 25.9293 120.155 25.9293C121.617 25.9293 122.876 25.828 123.931 25.6264C124.979 25.427 125.994 25.0664 126.979 24.546L126.009 20.2619C125.294 20.5584 124.613 20.7866 123.97 20.937C123.041 21.1556 122.022 21.2655 120.912 21.2655C119.696 21.2655 118.735 20.9636 118.031 20.36C117.327 19.7553 116.952 18.9213 116.909 17.8591H128.191V14.9401C128.191 12.132 127.441 9.98091 125.94 8.48888ZM30.0672 11.4409C29.5672 11.9283 29.274 12.6908 29.1879 13.7317H34.6116C34.5895 12.8146 34.3404 12.0819 33.8603 11.5347C33.3822 10.9844 32.7393 10.7114 31.9324 10.7114C31.1895 10.7114 30.5684 10.9546 30.0672 11.4409ZM31.7064 6.24815C34.4612 6.24815 36.5889 6.99579 38.0903 8.48888C39.5906 9.98091 40.3408 12.132 40.3408 14.9401V17.8591H29.0588C29.1018 18.9213 29.4759 19.7553 30.1809 20.36C30.8848 20.9636 31.846 21.2655 33.0616 21.2655C34.1712 21.2655 35.1894 21.1556 36.1203 20.937C36.7622 20.7866 37.4431 20.5584 38.1586 20.2619L39.1295 24.546C38.1439 25.0664 37.1288 25.427 36.0803 25.6264C35.0254 25.828 33.7667 25.9293 32.3042 25.9293C29.2583 25.9293 26.8933 25.0867 25.2101 23.4038C23.5248 21.7208 22.6821 19.3234 22.6821 16.2146C22.6821 13.0044 23.4638 10.5408 25.024 8.82373C26.5843 7.10667 28.8107 6.24815 31.7064 6.24815Z"
        fill="#787891" />
</svg>
