<svg width="32" height="32" viewBox="0 0 32 32" fill="none" xmlns="http://www.w3.org/2000/svg">
    <path
        d="M25.7789 27.3163H4.93705C4.67854 27.3438 4.43963 27.4639 4.26655 27.6534C4.09346 27.8429 3.99849 28.0884 4.00002 28.3423C4.00002 28.6218 4.1137 28.8898 4.31605 29.0874C4.51841 29.285 4.79285 29.396 5.07903 29.396H25.9209C26.2071 29.396 26.4815 29.285 26.6839 29.0874C26.8862 28.8898 26.9999 28.6218 26.9999 28.3423C27.0019 28.1924 26.9703 28.0438 26.9072 27.9071C26.8441 27.7704 26.751 27.6488 26.6346 27.551C26.5182 27.4532 26.3813 27.3815 26.2334 27.3409C26.0856 27.3004 25.9305 27.292 25.7789 27.3163Z"
        fill="#B0B0BF" />
    <path
        d="M14.5347 24.3503C14.6317 24.4434 14.7473 24.5161 14.8743 24.5638C15.0013 24.6114 15.137 24.6332 15.2729 24.6276C15.4041 24.6294 15.5344 24.6059 15.6563 24.5583C15.7781 24.5107 15.8891 24.44 15.9828 24.3503L25.2963 15.8651C25.3968 15.7695 25.4766 15.6552 25.5312 15.529C25.5857 15.4028 25.6138 15.2672 25.6138 15.1303C25.6138 14.9933 25.5857 14.8577 25.5312 14.7315C25.4766 14.6053 25.3968 14.491 25.2963 14.3954C25.0949 14.204 24.8249 14.0969 24.5439 14.0969C24.2628 14.0969 23.9928 14.204 23.7914 14.3954L16.3519 21.1891V2.94318C16.3378 2.69287 16.2277 2.45694 16.0435 2.28226C15.8594 2.10758 15.6147 2.00696 15.3581 2.00037C15.2178 1.99667 15.0781 2.02047 14.9473 2.07037C14.8166 2.12027 14.6974 2.19525 14.5968 2.2909C14.4962 2.38654 14.4163 2.5009 14.3617 2.62722C14.3071 2.75354 14.2791 2.88926 14.2791 3.02636V21.411L6.83964 14.3122C6.6263 14.174 6.36958 14.1143 6.11535 14.1439C5.86112 14.1735 5.62595 14.2905 5.45187 14.4738C5.27779 14.6571 5.17613 14.8949 5.16507 15.1447C5.15401 15.3945 5.23427 15.64 5.3915 15.8374L14.5347 24.3503Z"
        fill="#B0B0BF" />
</svg>
