<svg width="87" height="20" viewBox="0 0 87 20" fill="none" xmlns="http://www.w3.org/2000/svg">
    <g clip-path="url(#clip0_2_393)">
        <path
            d="M17.6766 11.01V19.6189H15.0582V18.6911C15.0582 12.9317 15.0582 7.17228 15.0582 1.41288C15.0582 1.07302 15.022 0.729256 14.9985 0.393302C14.975 0.0573482 15.1227 -0.0237104 15.4426 0.00265806C16.0358 0.0645812 16.6323 0.090021 17.2287 0.0788335C17.6522 0.0632078 17.7451 0.140363 17.7432 0.551516C17.7285 3.2118 17.7353 5.87209 17.7353 8.57339C17.8693 8.58023 18.0434 8.59683 18.2175 8.59683C21.3632 8.59683 24.5079 8.58804 27.6526 8.60855C28.1182 8.60855 28.219 8.46596 28.2151 8.02942C28.1955 5.58789 28.2053 3.14637 28.2053 0.704841V0.14329H30.857V19.6052H28.2043V19.0749C28.2043 16.5357 28.2043 13.9965 28.2111 11.4573C28.2111 11.1155 28.1437 10.9612 27.7592 10.9632C24.5314 10.9729 21.3036 10.9632 18.0757 10.9632C17.9535 10.969 17.8282 10.9944 17.6766 11.01Z"
            fill="#F5F5F5" />
        <path
            d="M34.7749 13.5094C34.8853 14.5402 35.3454 15.5022 36.0787 16.2361C36.8387 17.0105 37.8169 17.4256 38.9153 17.5965C40.5429 17.8485 41.8575 17.1854 43.1076 16.2966C43.3961 16.0915 43.6211 15.7976 43.9067 15.5153C44.4017 15.987 44.8575 16.3943 45.2673 16.8357C45.3593 16.9334 45.3651 17.2527 45.281 17.3563C44.2726 18.5526 43.0039 19.4296 41.4898 19.7685C40.4027 20.0268 39.2754 20.0692 38.1719 19.8935C37.3894 19.7626 36.7047 19.4599 35.9985 19.1972C35.4674 19.0018 34.9881 18.5731 34.5812 18.1561C34.0188 17.578 33.4534 16.9656 33.0612 16.2703C32.6954 15.6238 32.5115 14.861 32.3247 14.1305C31.95 12.6656 32.0821 11.2007 32.5203 9.77776C33.0211 8.14194 34.0129 6.84793 35.4547 5.87621C36.9639 4.85467 38.5955 4.68474 40.3453 4.8703C41.8253 5.02753 42.8592 5.8889 43.8891 6.83133C45.4894 8.29625 45.8865 10.2221 45.9579 12.2408C46.0097 13.693 46.1799 13.4762 44.743 13.484C41.5817 13.4996 38.4194 13.484 35.2551 13.4899C35.0986 13.4879 34.9402 13.5016 34.7749 13.5094ZM43.3961 11.2681C43.1321 10.5454 42.955 9.90081 42.6665 9.30215C42.4468 8.82372 42.1294 8.39646 41.7345 8.0478C41.3397 7.69914 40.8761 7.43681 40.3737 7.27764C39.1853 6.887 38.0751 7.11259 37.0285 7.70637C36.6483 7.93361 36.3031 8.21452 36.0034 8.5404C35.8205 8.73572 35.7882 9.05996 35.621 9.27383C35.1632 9.8598 34.9157 10.5151 34.7895 11.273L43.3961 11.2681Z"
            fill="#F5F5F5" />
        <path
            d="M2.72025 13.5586C3.06064 15.8048 4.56501 17.2589 6.75897 17.5783C8.22617 17.7922 9.54176 17.4191 10.6764 16.4503C10.9649 16.2052 11.2457 15.9474 11.5518 15.7266C11.6428 15.6622 11.8619 15.6446 11.9343 15.7061C12.3754 16.087 12.7999 16.4874 13.2058 16.9044C13.2763 16.9767 13.3125 17.1974 13.2596 17.2589C12.1837 18.4582 10.9405 19.4407 9.34711 19.7864C8.45792 19.9687 7.54721 20.0233 6.64257 19.9485C5.17048 19.8343 3.79522 19.3626 2.68895 18.3205C2.1901 17.8498 1.63648 17.4064 1.25696 16.8488C0.877447 16.2911 0.670086 15.6358 0.435334 15.002C-0.138831 13.4316 -0.0928577 11.8143 0.271008 10.2166C0.55123 8.98534 1.16112 7.8532 2.03556 6.94105C2.67917 6.25742 3.39615 5.6861 4.2569 5.32574C4.76969 5.10317 5.30771 4.94379 5.85909 4.8511C8.07456 4.5171 10.0739 5.08842 11.6878 6.62072C12.7002 7.56192 13.3529 8.82574 13.5335 10.1951C13.6509 11.1082 13.7086 12.0282 13.8201 12.9413C13.872 13.3681 13.693 13.4795 13.3046 13.4785C10.7449 13.4785 8.18606 13.4834 5.62726 13.4873C4.89366 13.4873 4.16006 13.4873 3.42646 13.4873C3.20932 13.4931 2.98239 13.5322 2.72025 13.5586ZM11.1381 11.2274C10.9718 9.22925 9.48111 7.14516 7.12088 7.06996C4.69119 6.99183 2.9863 9.16284 2.75546 11.2274H11.1381Z"
            fill="#F5F5F5" />
        <path
            d="M57.2777 10.7764C57.1124 10.207 57.0008 9.73335 56.8375 9.27728C56.4286 8.13855 55.5405 7.62681 54.3922 7.43441C52.4731 7.11213 50.6753 7.40804 48.9889 8.39442C48.9645 8.40907 48.9273 8.3993 48.8178 8.40614C48.5684 7.75181 48.2906 7.08088 48.0734 6.39139C48.0421 6.29373 48.269 6.0154 48.4216 5.96168C49.3704 5.62866 50.3153 5.2302 51.2964 5.0593C52.3175 4.88155 53.3808 4.87374 54.4264 4.90206C55.8544 4.92573 57.2204 5.48899 58.2489 6.47831C58.7224 6.93146 58.9884 7.61411 59.3034 8.21668C59.8228 9.21184 59.6946 10.3008 59.6946 11.3672C59.6946 14.1144 59.6946 16.8616 59.6946 19.6254H57.1691V18.101C56.8062 18.3695 56.546 18.6244 56.235 18.7846C55.4935 19.1586 54.757 19.6079 53.9637 19.7963C53.2272 19.9702 52.4202 19.8432 51.6446 19.853C50.8229 19.8637 50.0796 19.5991 49.3421 19.267C47.9169 18.6146 47.1902 17.473 46.8781 15.9749C46.5788 14.5305 47.0229 13.2618 47.912 12.2257C48.4304 11.6211 49.2814 11.2715 50.0248 10.8965C51.1359 10.3369 52.384 10.459 53.5715 10.4082C54.5399 10.3642 55.5209 10.6035 56.4971 10.7207C56.6878 10.7305 56.8825 10.7422 57.2777 10.7764ZM52.9739 17.7103C53.7818 17.7572 54.6162 17.515 55.383 17.0872C55.8033 16.8668 56.1778 16.5685 56.4863 16.2083C57.1016 15.427 57.2855 14.4992 57.171 13.5197C57.1562 13.4341 57.1235 13.3526 57.0752 13.2805C57.0268 13.2083 56.9638 13.1471 56.8903 13.1007C56.6243 12.9553 56.3333 12.8612 56.0325 12.8233C54.9702 12.7257 53.905 12.6632 52.8389 12.6085C51.7522 12.5538 50.8308 12.9503 50.0727 13.714C49.1396 14.6535 49.4448 16.2005 50.2351 16.8782C50.955 17.4994 51.8979 17.7552 52.9729 17.7113L52.9739 17.7103Z"
            fill="#F5F5F5" />
        <path
            d="M86.5225 19.6184H83.9549V19.0237C83.9549 16.3868 83.9324 13.75 83.9666 11.1131C83.9793 10.1004 83.723 9.19798 83.1283 8.40498C82.9081 8.0994 82.6248 7.84464 82.2974 7.65794C81.97 7.47125 81.6062 7.35699 81.2307 7.32289C80.6181 7.26085 80.0005 7.26576 79.3889 7.33754C78.0988 7.50357 76.8291 8.70968 76.613 9.98123C76.4595 10.8379 76.3716 11.7051 76.3499 12.5751C76.3137 14.6895 76.3391 16.8058 76.3401 18.9231V19.6282H73.7617V0.0959764H74.9022C75.1624 0.0959764 75.4245 0.115509 75.6847 0.0959764C76.3694 0.0500757 76.344 0.0442152 76.3401 0.702451C76.3293 2.7797 76.3401 4.85695 76.3401 6.9342L76.4839 7.06311C76.6091 6.88635 76.7284 6.7047 76.8614 6.53282C77.7946 5.32866 79.0701 4.81398 80.549 4.80812C81.3315 4.80812 82.1551 4.82375 82.9024 5.0347C84.2072 5.40483 85.1902 6.25839 85.8427 7.46743C86.3806 8.46455 86.5371 9.53296 86.5273 10.6512C86.5127 13.6308 86.5225 16.6046 86.5225 19.6184Z"
            fill="#F5F5F5" />
        <path
            d="M67.3557 7.73518C66.5976 7.73518 65.8826 7.7137 65.1695 7.74299C64.7851 7.7596 64.6462 7.65705 64.6707 7.25469C64.7059 6.65798 64.6795 6.05639 64.6795 5.39913H67.4055C67.4055 4.92645 67.4055 4.50944 67.4055 4.0934C67.3997 3.47716 67.3664 2.85994 67.3967 2.24566C67.4026 2.11479 67.6266 1.8931 67.7606 1.88529C68.3925 1.84525 69.0322 1.85989 69.664 1.86673C69.9692 1.86673 70.0553 2.02299 70.0455 2.33941C70.0162 3.32872 70.0348 4.31998 70.0348 5.36202H72.8714V7.73616H70.0866C70.0651 8.09262 70.0308 8.3817 70.0308 8.67077C70.0361 11.0797 70.0452 13.4864 70.0582 15.8909C70.064 16.1745 70.1595 16.4491 70.3309 16.6753C70.5024 16.9016 70.7411 17.068 71.0129 17.1507C71.2085 17.2151 71.3826 17.3323 71.5763 17.3978C71.77 17.4632 71.9676 17.4954 72.2043 17.5472V19.8188C71.0843 19.8666 69.9634 19.9252 68.9891 19.2514C68.3759 18.8285 67.8653 18.264 67.7273 17.5169C67.5526 16.6223 67.4516 15.7149 67.4251 14.8039C67.385 12.6739 67.4251 10.5429 67.4192 8.41295C67.4192 8.19028 67.3782 7.96957 67.3557 7.73518Z"
            fill="#F5F5F5" />
        <path
            d="M63.9486 19.6409H61.3203V0.113624C62.1654 -0.0172421 63.0751 0.0159611 63.9486 0.102879V19.6409Z"
            fill="#F5F5F5" />
    </g>
    <defs>
        <clipPath id="clip0_2_393">
            <rect width="86.5306" height="20" fill="white" />
        </clipPath>
    </defs>
</svg>
