<svg width="131" height="27" viewBox="0 0 131 27" fill="none" xmlns="http://www.w3.org/2000/svg">
    <path
        d="M15.3122 3.99049H12.0733V24.7717C13.1819 24.4456 14.2905 23.9457 15.3122 23.2935V3.99049ZM11.5081 6.94682H8.2692V24.9673H11.5081V6.94682ZM20.8118 20.0981C22.3117 17.8374 23.0943 15.2941 23.0943 12.7073C23.0943 9.20753 21.6596 6.16426 19.138 4.27308V1.05591H15.8774V2.88187C11.2473 1.49066 5.83459 3.51227 2.74784 8.14239C-0.599764 13.1855 -0.012847 19.5547 3.85646 23.1849C0.726234 19.5764 0.57407 13.642 3.76951 8.79452C6.70409 4.36004 11.5951 2.18627 15.8774 2.99056V22.9023C17.0947 22.0328 18.2033 20.9241 19.1163 19.6199V4.31656C20.5075 5.62082 21.4857 7.40331 21.8987 9.44665C22.0509 10.2075 22.1378 10.99 22.1378 11.7943C22.1378 14.4246 21.3118 17.12 19.725 19.5112C16.573 24.25 11.1603 26.5759 6.66062 25.2717C11.4646 27.2498 17.4642 25.1412 20.8118 20.0981ZM7.68229 9.90314H4.44338V23.5109C4.63901 23.7283 4.83465 23.9239 5.05203 24.0978C5.50852 24.4674 6.0737 24.75 6.72583 24.9673H7.68229V9.90314ZM19.1163 22.7936C18.2033 23.6631 17.2034 24.4022 16.1382 24.9673H19.1163V22.7936Z"
        fill="#858599" />
    <path
        d="M36.2023 17.9463C35.9849 17.3159 35.7023 16.7942 35.311 16.3594C34.9415 15.9247 34.485 15.5986 33.9415 15.3595C33.4198 15.1204 32.8329 15.0117 32.1808 15.0117C31.5287 15.0117 30.9417 15.1204 30.42 15.3595C29.8766 15.5986 29.4201 15.9247 29.0288 16.3594C28.6376 16.7942 28.355 17.3376 28.1376 17.968C27.9202 18.5984 27.8115 19.3158 27.8115 20.1201C27.8115 20.9244 27.9202 21.6417 28.1376 22.2504C28.355 22.8807 28.6376 23.4024 29.0288 23.8372C29.4201 24.272 29.8766 24.598 30.3983 24.8371C30.92 25.0762 31.5287 25.1849 32.1591 25.1849C32.8112 25.1849 33.3981 25.0762 33.9198 24.8371C34.4633 24.598 34.9197 24.272 35.2893 23.8372C35.6806 23.4024 35.9631 22.859 36.1805 22.2286C36.3979 21.5982 36.5066 20.8809 36.5066 20.0766C36.5283 19.2723 36.4196 18.5549 36.2023 17.9463ZM34.3328 21.4243C34.2241 21.8156 34.072 22.1417 33.8763 22.4025C33.6807 22.6634 33.4416 22.859 33.159 23.0112C32.8764 23.1416 32.5721 23.2068 32.2243 23.2068C31.8765 23.2068 31.5721 23.1416 31.2896 22.9894C31.007 22.859 30.7678 22.6416 30.5505 22.3808C30.3331 22.1199 30.1809 21.7939 30.0722 21.4026C29.9636 21.0113 29.8983 20.5765 29.8983 20.0766C29.8983 19.5766 29.9418 19.1419 30.0722 18.7506C30.1809 18.3593 30.3331 18.0332 30.5287 17.7724C30.7244 17.5115 30.9635 17.3159 31.2461 17.1855C31.5287 17.0551 31.8547 16.9898 32.1808 16.9898C32.5286 16.9898 32.8329 17.055 33.1373 17.2072C33.4198 17.3376 33.659 17.555 33.8763 17.8159C34.072 18.0767 34.2459 18.4028 34.3546 18.7941C34.4633 19.1853 34.5285 19.6201 34.5285 20.1201C34.485 20.5983 34.4415 21.033 34.3328 21.4243ZM41.5932 15.0117C41.441 14.9465 41.2671 14.903 41.0715 14.8595C40.8759 14.8161 40.6367 14.7943 40.3759 14.7943C40.0281 14.7943 39.7455 14.8378 39.4847 14.903C39.2238 14.9682 39.0064 15.0987 38.8325 15.2508C38.6586 15.403 38.5282 15.5986 38.4195 15.8595C38.3326 16.0986 38.2891 16.4029 38.2891 16.7507V17.642H37.3978V19.4679H38.2891V25.0328H40.2237V19.4679H41.4845V17.642H40.2237V17.0333C40.2237 16.9464 40.2455 16.8594 40.2455 16.7942C40.2672 16.7072 40.2889 16.642 40.3542 16.5986C40.3976 16.5551 40.4846 16.5116 40.5715 16.4899C40.6585 16.4681 40.7889 16.4464 40.9411 16.4464C41.0932 16.4464 41.2019 16.4681 41.3106 16.4899C41.4193 16.5116 41.528 16.5551 41.6149 16.5986V15.0117H41.5932ZM53.2663 17.0985V15.1421H45.6364V17.0985H48.4623V25.011H50.4404V17.0985H53.2663ZM60.6137 25.011V20.8374C60.6137 20.3157 60.5702 19.8375 60.4615 19.4245C60.3528 19.0114 60.1789 18.6636 59.9615 18.3593C59.7442 18.0767 59.4616 17.8376 59.1138 17.6854C58.766 17.5333 58.3747 17.4463 57.8965 17.4463C57.7008 17.4463 57.5052 17.4681 57.353 17.4898C57.1791 17.5115 57.027 17.5768 56.8748 17.6202C56.7226 17.6854 56.5922 17.7507 56.4618 17.8376C56.3313 17.9246 56.2444 17.9898 56.1574 18.0767V14.7509L54.2011 15.729V25.0328H56.1574V20.9896C56.1574 20.6635 56.1792 20.4026 56.2444 20.1853C56.3096 19.9679 56.3748 19.794 56.4835 19.6636C56.5922 19.5331 56.7226 19.4462 56.8748 19.381C57.027 19.3158 57.2009 19.294 57.4182 19.294C57.8747 19.294 58.2008 19.4245 58.3964 19.707C58.5921 19.9896 58.679 20.4244 58.679 21.0113V25.011H60.6137ZM67.8306 19.8375C67.7001 19.381 67.4828 18.968 67.2219 18.6202C66.9611 18.2724 66.635 17.9898 66.2437 17.7941C65.8524 17.5985 65.4177 17.4898 64.9177 17.4898C64.4395 17.4898 64.0265 17.5768 63.6135 17.7724C63.2222 17.968 62.8744 18.2289 62.5701 18.5767C62.2657 18.9245 62.0484 19.3158 61.8745 19.794C61.7006 20.2722 61.6136 20.7939 61.6136 21.3591C61.6136 21.7721 61.6571 22.1199 61.7223 22.4677C61.7875 22.7938 61.8962 23.0981 62.0266 23.359C62.157 23.6198 62.3092 23.8807 62.5048 24.0763C62.7005 24.2937 62.9179 24.4893 63.157 24.6415C63.3961 24.8154 63.6787 24.9458 64.0047 25.0328C64.3308 25.1415 64.7003 25.1849 65.0916 25.1849C65.3307 25.1849 65.5916 25.1632 65.8307 25.098C66.0698 25.0545 66.3307 24.9676 66.5481 24.8589C66.7872 24.7502 67.0045 24.6198 67.2002 24.4893C67.3958 24.3372 67.5697 24.1633 67.7219 23.9676L66.3307 22.8155C66.2655 22.9025 66.1785 22.9677 66.0916 23.0329C66.0046 23.0981 65.8959 23.1633 65.7872 23.2068C65.6785 23.2503 65.5481 23.2938 65.4394 23.3155C65.3307 23.3372 65.2003 23.3372 65.0699 23.3372C64.896 23.3372 64.7221 23.3155 64.5482 23.272C64.3743 23.2285 64.2221 23.1416 64.07 23.0329C63.9395 22.9242 63.8091 22.7721 63.7222 22.5982C63.6352 22.4243 63.57 22.2069 63.5482 21.946H67.961C67.961 21.8808 67.9827 21.7939 67.9827 21.6852C67.9827 21.5765 67.9827 21.4678 67.9827 21.3156C68.0479 20.7939 67.961 20.294 67.8306 19.8375ZM63.6135 20.4896C63.6352 20.294 63.6787 20.1201 63.7439 19.9679C63.8091 19.8157 63.8961 19.6636 63.983 19.5549C64.0917 19.4462 64.2004 19.3375 64.3525 19.2723C64.483 19.2071 64.6569 19.1636 64.8308 19.1636C65.0481 19.1636 65.2438 19.2071 65.3959 19.2723C65.5481 19.3592 65.6785 19.4462 65.7872 19.5766C65.8959 19.707 65.9829 19.8375 66.0263 20.0114C66.0916 20.1635 66.1133 20.3374 66.135 20.4896H63.6135ZM77.9821 15.1639L75.504 19.294L73.0476 15.1639H70.7869L74.5258 21.1635V25.0328H76.5039V21.1417L80.2428 15.1856H77.9821V15.1639ZM85.4598 19.8375C85.3294 19.381 85.112 18.968 84.8512 18.6202C84.5903 18.2724 84.2642 17.9898 83.873 17.7941C83.4817 17.5985 83.0469 17.4898 82.547 17.4898C82.0687 17.4898 81.634 17.5768 81.2427 17.7724C80.8514 17.968 80.5036 18.2289 80.1993 18.5767C79.895 18.9245 79.6776 19.3158 79.5037 19.794C79.3298 20.2722 79.2428 20.7939 79.2428 21.3591C79.2428 21.7721 79.2863 22.1199 79.3515 22.4677C79.4167 22.7938 79.5254 23.0981 79.6559 23.359C79.7863 23.6198 79.9385 23.8807 80.1341 24.0763C80.3297 24.2937 80.5471 24.4893 80.7862 24.6415C81.0253 24.8154 81.3079 24.9458 81.634 25.0328C81.9601 25.1415 82.3296 25.1849 82.7209 25.1849C82.96 25.1849 83.2208 25.1632 83.46 25.098C83.7208 25.0545 83.9599 24.9676 84.1773 24.8589C84.4164 24.7502 84.6338 24.6198 84.8294 24.4893C85.0251 24.3372 85.199 24.1633 85.3511 23.9676L83.9599 22.8155C83.8947 22.9025 83.8078 22.9677 83.7208 23.0329C83.6339 23.0981 83.5252 23.1633 83.4165 23.2068C83.3078 23.2503 83.1774 23.2938 83.0687 23.3155C82.96 23.3372 82.8296 23.3372 82.6991 23.3372C82.5252 23.3372 82.3513 23.3155 82.1774 23.272C82.0035 23.2285 81.8514 23.1416 81.6992 23.0329C81.5688 22.9242 81.4383 22.7721 81.3514 22.5982C81.2644 22.4243 81.1992 22.2069 81.1775 21.946H85.5902C85.5902 21.8808 85.612 21.7939 85.612 21.6852C85.612 21.5765 85.612 21.4678 85.612 21.3156C85.6772 20.7939 85.612 20.294 85.4598 19.8375ZM81.2427 20.4896C81.2644 20.294 81.3079 20.1201 81.3731 19.9679C81.4383 19.8157 81.5253 19.6636 81.6123 19.5549C81.7209 19.4462 81.8296 19.3375 81.9818 19.2723C82.1122 19.2071 82.2861 19.1636 82.46 19.1636C82.6774 19.1636 82.873 19.2071 83.0252 19.2723C83.1774 19.3592 83.3078 19.4462 83.4165 19.5766C83.5252 19.707 83.6121 19.8375 83.6556 20.0114C83.7208 20.1635 83.7425 20.3374 83.7643 20.4896H81.2427ZM92.7202 25.011V20.0548C92.7202 19.6418 92.655 19.2723 92.5028 18.9462C92.3507 18.6202 92.155 18.3593 91.8942 18.1419C91.6333 17.9246 91.3073 17.7507 90.9377 17.642C90.5682 17.5333 90.1552 17.4681 89.6987 17.4681C89.1552 17.4681 88.677 17.5333 88.264 17.642C87.851 17.7507 87.3945 17.9463 86.938 18.2289L87.6771 19.5766C88.0466 19.381 88.3727 19.2506 88.6553 19.1853C88.9161 19.1201 89.2857 19.0984 89.6987 19.0984C90.0465 19.0984 90.3073 19.1853 90.4812 19.3592C90.6551 19.5331 90.7638 19.7723 90.7638 20.0331V20.4026C90.6116 20.3157 90.416 20.2505 90.1986 20.207C89.9813 20.1418 89.6987 20.1201 89.3509 20.1201C88.9378 20.1201 88.5466 20.1635 88.177 20.2722C87.8075 20.3809 87.5032 20.5331 87.2206 20.7287C86.9597 20.9244 86.7423 21.1852 86.5902 21.4895C86.438 21.7939 86.3511 22.1634 86.3511 22.5547C86.3511 23.0112 86.438 23.4024 86.5902 23.7285C86.7423 24.0546 86.9597 24.3372 87.2206 24.5545C87.4814 24.7719 87.764 24.9241 88.1118 25.0328C88.4379 25.1415 88.7857 25.1849 89.1335 25.1849C89.3074 25.1849 89.4595 25.1632 89.6334 25.1415C89.7856 25.1197 89.9595 25.0545 90.1117 24.9893C90.2638 24.9241 90.3943 24.8589 90.503 24.7719C90.6116 24.7067 90.7203 24.6198 90.8073 24.5111V25.011H92.7202ZM90.7638 22.859C90.7203 22.946 90.6334 23.0329 90.5464 23.1199C90.4595 23.2068 90.3508 23.272 90.2421 23.3372C90.1334 23.4024 90.003 23.4459 89.8508 23.4894C89.7204 23.5329 89.5682 23.5546 89.3943 23.5546C89.1987 23.5546 89.0031 23.5329 88.8726 23.4677C88.7205 23.4024 88.6118 23.3372 88.5248 23.2503C88.4379 23.1633 88.3727 23.0546 88.3292 22.946C88.2857 22.8373 88.264 22.7068 88.264 22.5764C88.264 22.2721 88.3509 22.0547 88.5466 21.8808C88.7422 21.7069 89.0248 21.6417 89.3726 21.6417C89.5465 21.6417 89.6987 21.6417 89.8291 21.6634C89.9595 21.6852 90.0682 21.7069 90.1769 21.7286C90.2856 21.7504 90.3725 21.7939 90.4595 21.8156C90.5464 21.8591 90.6334 21.9025 90.7203 21.946V22.859H90.7638ZM98.9589 17.9898C98.8285 17.8593 98.6546 17.7289 98.4155 17.6202C98.1764 17.5115 97.9155 17.4681 97.5894 17.4681C97.4373 17.4681 97.2851 17.4898 97.1329 17.5115C96.9808 17.5333 96.8504 17.5985 96.7199 17.6637C96.5895 17.7289 96.4808 17.7941 96.3721 17.8811C96.2634 17.968 96.1765 18.0332 96.0895 18.1202V17.642H94.1331V25.0328H96.0895V21.033C96.0895 20.4896 96.1765 20.0983 96.3721 19.8157C96.5678 19.5549 96.8938 19.4245 97.3503 19.4245C97.5677 19.4245 97.7851 19.4679 97.959 19.5549C98.1546 19.6418 98.3285 19.7505 98.4807 19.9027L98.9589 17.9898Z"
        fill="#858599" />
    <path
        d="M35.4417 8.9902H30.3551V6.62079H34.3113V4.70787H30.3551V3.01234H35.2243V1.07769H28.377V10.9466H35.4417V8.9902ZM43.0716 1.07769L40.5935 5.20784L38.1372 1.07769H35.8547L39.5936 7.07728V10.9466H41.5717V7.05555L45.3106 1.09943H43.0716V1.07769ZM55.7664 8.9902H50.6798V6.62079H54.6361V4.70787H50.6798V3.01234H55.549V1.07769H48.7017V10.9466H55.7664V8.9902ZM63.5268 10.9248V6.75122C63.5268 6.22952 63.4833 5.75129 63.3746 5.33827C63.2659 4.92526 63.092 4.55571 62.8746 4.27312C62.6573 3.99053 62.3747 3.75142 62.0269 3.59926C61.6791 3.44709 61.2878 3.36014 60.8096 3.36014C60.6357 3.36014 60.44 3.38188 60.2878 3.40361C60.1139 3.42535 59.9618 3.49057 59.7879 3.55578C59.6357 3.62099 59.5053 3.68621 59.3749 3.77316C59.2662 3.86011 59.1575 3.92532 59.0705 4.01227V3.53404H57.1141V10.9248H59.0705V6.88164C59.0705 6.55558 59.0923 6.29473 59.1575 6.07735C59.2227 5.85997 59.2879 5.68607 59.3966 5.55565C59.5053 5.42522 59.6357 5.33827 59.7879 5.27305C59.94 5.20784 60.114 5.18611 60.3313 5.18611C60.7878 5.18611 61.1139 5.31653 61.3095 5.59912C61.5052 5.88171 61.5921 6.31646 61.5921 6.90338V10.9031H63.5268V10.9248ZM69.2655 8.66413C69.0481 8.85977 68.8525 9.01193 68.6786 9.09889C68.5047 9.18584 68.3308 9.22931 68.1569 9.22931C68.0482 9.22931 67.9395 9.20757 67.8526 9.18583C67.7656 9.1641 67.6787 9.12062 67.6352 9.05541C67.57 8.99019 67.5265 8.90325 67.5048 8.77282C67.483 8.66413 67.4613 8.51197 67.4613 8.33807V5.36H69.2438V3.53404H67.4613V0.664673L65.5049 1.64287V3.55578H64.2658V5.38174H65.5049V8.88151C65.5049 9.20757 65.5484 9.5119 65.6571 9.77275C65.744 10.0336 65.8744 10.2727 66.0483 10.4684C66.2222 10.664 66.4179 10.8162 66.6787 10.9248C66.9178 11.0335 67.2004 11.0988 67.483 11.0988C67.7873 11.0988 68.0699 11.0553 68.3525 10.9683C68.6134 10.8814 68.8308 10.7727 69.0047 10.6423L69.2655 8.66413ZM75.1999 3.90358C75.0695 3.77316 74.8956 3.64273 74.6564 3.53404C74.4173 3.42535 74.1565 3.38188 73.8304 3.38188C73.6783 3.38188 73.5261 3.40362 73.3739 3.42535C73.2218 3.44709 73.0913 3.51231 72.9609 3.57752C72.8305 3.64273 72.7001 3.70795 72.6131 3.7949C72.5044 3.88185 72.4175 3.94706 72.3305 4.03401V3.55578H70.3741V10.9466H72.3305V6.92512C72.3305 6.38168 72.4175 5.9904 72.6131 5.70781C72.8087 5.44696 73.1348 5.31653 73.5913 5.31653C73.8087 5.31653 74.0043 5.36001 74.2 5.44696C74.3956 5.53391 74.5695 5.64259 74.7217 5.79476L75.1999 3.90358ZM81.5908 5.75129C81.4603 5.27306 81.243 4.88178 80.9821 4.53398C80.7213 4.18617 80.3952 3.90359 80.0039 3.70795C79.6126 3.51231 79.1779 3.40361 78.6779 3.40361C78.1997 3.40361 77.7649 3.49057 77.3737 3.68621C76.9824 3.88185 76.6128 4.14269 76.3303 4.4905C76.0259 4.8383 75.8085 5.22958 75.6346 5.70781C75.4607 6.18604 75.3738 6.70774 75.3738 7.27292C75.3738 7.68594 75.4173 8.05548 75.4825 8.38154C75.5477 8.70761 75.6564 9.01193 75.7868 9.27278C75.9172 9.53364 76.0694 9.79449 76.265 10.0119C76.4607 10.2292 76.6781 10.4249 76.9172 10.577C77.1563 10.7509 77.4389 10.8814 77.7649 10.9683C78.091 11.077 78.4605 11.1205 78.8518 11.1205C79.0909 11.1205 79.3518 11.0987 79.5909 11.0335C79.8518 10.9901 80.0909 10.9031 80.3082 10.7944C80.5474 10.6857 80.7647 10.577 80.9604 10.4249C81.156 10.2727 81.3299 10.0988 81.4821 9.90318L80.0909 8.75108C80.0257 8.83803 79.9387 8.90325 79.8518 8.96846C79.7648 9.03367 79.6561 9.09889 79.5474 9.14236C79.4387 9.18584 79.3083 9.22931 79.1996 9.25105C79.0909 9.27279 78.9605 9.27278 78.8301 9.27278C78.6562 9.27278 78.4823 9.25105 78.3084 9.18583C78.1345 9.14236 77.9823 9.05541 77.8302 8.94672C77.6997 8.83803 77.5693 8.68587 77.4823 8.51197C77.3954 8.33806 77.3302 8.12069 77.3084 7.85984H81.7212C81.7212 7.79462 81.7429 7.70768 81.7429 7.59899C81.7429 7.4903 81.7429 7.38161 81.7429 7.22944C81.7864 6.70774 81.7212 6.20778 81.5908 5.75129ZM77.3737 6.40342C77.3954 6.20778 77.4389 6.03388 77.5041 5.88171C77.5693 5.72955 77.6563 5.57738 77.7432 5.46869C77.8519 5.36 77.9606 5.25132 78.1127 5.18611C78.2432 5.12089 78.4171 5.07742 78.591 5.07742C78.8083 5.07742 79.004 5.12089 79.1562 5.18611C79.3083 5.25132 79.4387 5.36001 79.5474 5.49043C79.6561 5.62086 79.7431 5.75128 79.7865 5.92518C79.8518 6.07735 79.8735 6.25125 79.8952 6.40342H77.3737ZM89.0685 5.53391C88.9164 5.03394 88.7207 4.62092 88.4599 4.29486C88.199 3.96879 87.8947 3.72968 87.5469 3.57752C87.1991 3.42536 86.8295 3.36014 86.4383 3.36014C86.1339 3.36014 85.8513 3.40361 85.5905 3.5123C85.3296 3.62099 85.0905 3.77316 84.8732 3.96879V3.5123H82.9168V13.6203L84.8732 12.6421V10.4684C85.0471 10.6205 85.2644 10.7727 85.547 10.8814C85.8079 10.9901 86.1122 11.0553 86.4383 11.0553C86.8948 11.0553 87.3078 10.9683 87.6556 10.7727C88.0034 10.577 88.3077 10.3379 88.5468 9.99013C88.7859 9.66407 88.9816 9.25105 89.112 8.79456C89.2424 8.33807 89.3076 7.8381 89.3076 7.27292C89.3076 6.64253 89.2207 6.03388 89.0685 5.53391ZM87.0252 8.77282C86.8295 9.09889 86.547 9.25105 86.1557 9.25105C86.0035 9.25105 85.8731 9.22931 85.7427 9.20757C85.6122 9.18584 85.5035 9.14236 85.3949 9.07715C85.2862 9.01193 85.1775 8.96846 85.1123 8.88151C85.0253 8.8163 84.9384 8.70761 84.8514 8.59892V5.83824C85.0253 5.62086 85.1992 5.46869 85.3731 5.36C85.5688 5.27305 85.7861 5.20784 86.047 5.20784C86.46 5.20784 86.7861 5.38175 86.9817 5.75129C87.1991 6.12083 87.3078 6.66427 87.3078 7.35987C87.3295 7.99026 87.2426 8.46849 87.0252 8.77282ZM95.242 3.90358C95.1116 3.77316 94.9377 3.64273 94.6986 3.53404C94.4595 3.42535 94.1986 3.38188 93.8725 3.38188C93.7204 3.38188 93.5682 3.40362 93.4161 3.42535C93.2639 3.44709 93.1335 3.51231 93.003 3.57752C92.8726 3.64273 92.7639 3.70795 92.6552 3.7949C92.5465 3.88185 92.4596 3.94706 92.3727 4.03401V3.55578H90.4163V10.9466H92.3727V6.92512C92.3727 6.38168 92.4596 5.9904 92.6552 5.70781C92.8509 5.44696 93.1769 5.31653 93.6334 5.31653C93.8508 5.31653 94.0682 5.36001 94.2421 5.44696C94.4377 5.53391 94.6116 5.64259 94.7638 5.79476L95.242 3.90358ZM101.785 5.75129C101.655 5.27306 101.437 4.88178 101.176 4.53398C100.916 4.18617 100.589 3.90359 100.198 3.70795C99.8069 3.51231 99.3722 3.40361 98.8722 3.40361C98.4157 3.40361 97.981 3.49057 97.568 3.68621C97.1767 3.88185 96.8289 4.14269 96.5245 4.4905C96.2202 4.8383 96.0028 5.22958 95.8289 5.70781C95.655 6.18604 95.5681 6.70774 95.5681 7.27292C95.5681 7.68594 95.6116 8.05548 95.6768 8.38154C95.742 8.70761 95.8507 9.01193 95.9811 9.27278C96.1115 9.53364 96.2637 9.79449 96.4593 10.0119C96.655 10.2292 96.8723 10.4249 97.1115 10.577C97.3506 10.7509 97.6332 10.8814 97.9592 10.9683C98.2853 11.077 98.6548 11.1205 99.0679 11.1205C99.307 11.1205 99.5678 11.0987 99.8069 11.0335C100.046 10.9901 100.307 10.9031 100.524 10.7944C100.763 10.6857 100.981 10.577 101.176 10.4249C101.372 10.2727 101.546 10.0988 101.698 9.90318L100.307 8.75108C100.242 8.83803 100.155 8.90325 100.068 8.96846C99.9808 9.03367 99.8721 9.09889 99.7635 9.14236C99.6548 9.18584 99.5243 9.22931 99.4157 9.25105C99.307 9.27279 99.1765 9.27278 99.0461 9.27278C98.8722 9.27278 98.6983 9.25105 98.5244 9.18583C98.3505 9.14236 98.1983 9.05541 98.0462 8.94672C97.9158 8.83803 97.7853 8.68587 97.6984 8.51197C97.6114 8.33806 97.5462 8.12069 97.5245 7.85984H101.937C101.937 7.79462 101.959 7.70768 101.959 7.59899C101.959 7.4903 101.959 7.38161 101.959 7.22944C101.981 6.70774 101.915 6.20778 101.785 5.75129ZM97.568 6.40342C97.5897 6.20778 97.6332 6.03388 97.6766 5.88171C97.7419 5.72955 97.8288 5.57738 97.9158 5.46869C98.0244 5.36 98.1331 5.25132 98.2853 5.18611C98.4157 5.12089 98.5896 5.07742 98.7635 5.07742C98.9809 5.07742 99.1765 5.12089 99.3287 5.18611C99.4809 5.25132 99.6113 5.36001 99.72 5.49043C99.8287 5.62086 99.9156 5.75128 99.9591 5.92518C100.024 6.07735 100.046 6.25125 100.068 6.40342H97.568ZM109.524 10.9248V6.75122C109.524 6.22952 109.458 5.75129 109.372 5.33827C109.263 4.92526 109.089 4.55571 108.872 4.27312C108.654 3.99053 108.372 3.75142 108.024 3.59926C107.676 3.44709 107.285 3.36014 106.806 3.36014C106.633 3.36014 106.437 3.38188 106.263 3.40361C106.089 3.42535 105.937 3.49057 105.763 3.55578C105.611 3.62099 105.48 3.68621 105.35 3.77316C105.241 3.86011 105.133 3.92532 105.046 4.01227V3.53404H103.089V10.9248H105.046V6.88164C105.046 6.55558 105.067 6.29473 105.133 6.07735C105.198 5.85997 105.263 5.68607 105.372 5.55565C105.48 5.42522 105.611 5.33827 105.763 5.27305C105.915 5.20784 106.089 5.18611 106.306 5.18611C106.763 5.18611 107.089 5.31653 107.285 5.59912C107.48 5.88171 107.567 6.31646 107.567 6.90338V10.9031H109.524V10.9248ZM116.741 5.75129C116.61 5.27306 116.393 4.88178 116.132 4.53398C115.871 4.18617 115.545 3.90359 115.154 3.70795C114.762 3.51231 114.328 3.40361 113.828 3.40361C113.35 3.40361 112.936 3.49057 112.523 3.68621C112.132 3.88185 111.784 4.14269 111.48 4.4905C111.176 4.8383 110.958 5.22958 110.784 5.70781C110.611 6.18604 110.524 6.70774 110.524 7.27292C110.524 7.68594 110.567 8.05548 110.632 8.38154C110.698 8.70761 110.806 9.01193 110.937 9.27278C111.067 9.53364 111.219 9.79449 111.415 10.0119C111.61 10.2292 111.828 10.4249 112.067 10.577C112.306 10.7509 112.589 10.8814 112.915 10.9683C113.241 11.077 113.61 11.1205 114.002 11.1205C114.241 11.1205 114.502 11.0987 114.741 11.0335C115.002 10.9901 115.241 10.9031 115.458 10.7944C115.697 10.6857 115.915 10.577 116.11 10.4249C116.306 10.2727 116.48 10.0988 116.632 9.90318L115.241 8.75108C115.175 8.83803 115.089 8.90325 115.002 8.96846C114.915 9.03367 114.806 9.09889 114.697 9.14236C114.589 9.18584 114.458 9.22931 114.349 9.25105C114.241 9.27279 114.11 9.27278 113.98 9.27278C113.806 9.27278 113.632 9.25105 113.458 9.18583C113.284 9.14236 113.132 9.05541 112.98 8.94672C112.85 8.83803 112.719 8.68587 112.632 8.51197C112.545 8.33806 112.48 8.12069 112.458 7.85984H116.871C116.871 7.79462 116.893 7.70768 116.893 7.59899C116.893 7.4903 116.893 7.38161 116.893 7.22944C116.958 6.70774 116.871 6.20778 116.741 5.75129ZM112.523 6.40342C112.545 6.20778 112.589 6.03388 112.632 5.88171C112.697 5.72955 112.784 5.57738 112.871 5.46869C112.98 5.36 113.089 5.25132 113.241 5.18611C113.371 5.12089 113.545 5.07742 113.719 5.07742C113.936 5.07742 114.132 5.12089 114.284 5.18611C114.436 5.25132 114.567 5.36001 114.675 5.49043C114.784 5.62086 114.871 5.75128 114.915 5.92518C114.98 6.07735 115.002 6.25125 115.023 6.40342H112.523ZM124.414 10.9248V3.53404H122.458V7.57725C122.458 8.12069 122.371 8.53371 122.175 8.8163C121.979 9.09889 121.653 9.22931 121.197 9.22931C120.74 9.22931 120.414 9.09889 120.219 8.8163C120.023 8.53371 119.936 8.09896 119.936 7.51204V3.5123H117.98V7.68594C117.98 8.79456 118.219 9.64233 118.675 10.2075C119.132 10.7727 119.827 11.077 120.719 11.077C121.11 11.077 121.458 11.0118 121.74 10.8814C122.045 10.751 122.262 10.5988 122.436 10.4249V10.9248H124.414ZM131 3.90358C130.87 3.77316 130.696 3.64273 130.457 3.53404C130.218 3.42535 129.957 3.38188 129.631 3.38188C129.479 3.38188 129.327 3.40362 129.175 3.42535C129.022 3.44709 128.892 3.51231 128.762 3.57752C128.631 3.64273 128.522 3.70795 128.414 3.7949C128.305 3.88185 128.218 3.94706 128.131 4.03401V3.55578H126.175V10.9466H128.131V6.92512C128.131 6.38168 128.218 5.9904 128.414 5.70781C128.609 5.44696 128.935 5.31653 129.392 5.31653C129.609 5.31653 129.827 5.36001 130.001 5.44696C130.196 5.53391 130.37 5.64259 130.522 5.79476L131 3.90358Z"
        fill="#858599" />
    <path
        d="M101.676 16.7069C101.632 16.7504 101.567 16.7504 101.502 16.7504H101.089V16.2939H101.502C101.567 16.2939 101.632 16.3157 101.676 16.3591C101.719 16.4026 101.741 16.4461 101.741 16.5331C101.762 16.62 101.719 16.6852 101.676 16.7069ZM101.98 16.3157C101.958 16.2505 101.915 16.207 101.871 16.1635C101.828 16.12 101.762 16.0983 101.697 16.0766C101.632 16.0548 101.567 16.0548 101.502 16.0548H100.806V17.6199H101.067V17.0113H101.371L101.676 17.6199H102.002L101.676 16.9895C101.784 16.9678 101.849 16.9026 101.915 16.8374C101.98 16.7504 102.002 16.6635 102.002 16.5331C102.023 16.4461 102.002 16.3809 101.98 16.3157ZM102.48 17.3591C102.415 17.5112 102.328 17.6417 102.219 17.7504C102.11 17.859 101.98 17.946 101.828 18.0112C101.676 18.0764 101.523 18.0982 101.349 18.0982C101.176 18.0982 101.023 18.0764 100.871 18.0112C100.719 17.946 100.589 17.859 100.48 17.7504C100.371 17.6417 100.284 17.5112 100.219 17.3591C100.154 17.2069 100.132 17.0547 100.132 16.8808C100.132 16.7069 100.154 16.5548 100.219 16.4026C100.284 16.2505 100.371 16.12 100.48 16.0113C100.589 15.9027 100.719 15.8157 100.871 15.7505C101.023 15.6853 101.176 15.6635 101.349 15.6635C101.523 15.6635 101.676 15.6853 101.828 15.7505C101.98 15.8157 102.11 15.9027 102.219 16.0113C102.328 16.12 102.415 16.2505 102.48 16.4026C102.545 16.5548 102.567 16.7069 102.567 16.8808C102.567 17.0547 102.545 17.2069 102.48 17.3591ZM102.697 16.3157C102.632 16.1418 102.523 15.9896 102.393 15.8592C102.262 15.7288 102.11 15.6201 101.936 15.5549C101.762 15.4896 101.567 15.4462 101.371 15.4462C101.176 15.4462 100.98 15.4896 100.806 15.5549C100.632 15.6201 100.48 15.7288 100.35 15.8592C100.219 15.9896 100.11 16.1418 100.045 16.3157C99.98 16.4896 99.9365 16.6852 99.9365 16.8808C99.9365 17.0765 99.98 17.2721 100.045 17.446C100.11 17.6199 100.219 17.7721 100.35 17.9025C100.48 18.0329 100.632 18.1416 100.806 18.2068C100.98 18.2721 101.176 18.3155 101.371 18.3155C101.567 18.3155 101.762 18.2721 101.936 18.2068C102.11 18.1416 102.262 18.0329 102.393 17.9025C102.523 17.7721 102.632 17.6199 102.697 17.446C102.762 17.2721 102.806 17.0765 102.806 16.8808C102.806 16.6635 102.762 16.4896 102.697 16.3157Z"
        fill="#858599" />
</svg>
