<svg width="468" height="62" viewBox="0 0 468 62" fill="none" xmlns="http://www.w3.org/2000/svg">
    <g clip-path="url(#clip0_65_114)">
        <path
            d="M39.2465 0C36.3534 0.00227871 33.4891 0.579854 30.8172 1.69975C28.1452 2.81964 25.7179 4.45992 23.6738 6.52694C21.6297 8.59395 20.0088 11.0472 18.9038 13.7467C17.7987 16.4461 17.2311 19.3389 17.2334 22.2598H61.2538C61.2584 19.3387 60.6925 16.4454 59.5886 13.7453C58.4847 11.0452 56.8645 8.59129 54.8205 6.5239C52.7766 4.4565 50.349 2.81619 47.6767 1.69676C45.0044 0.577336 42.1397 0.000756936 39.2465 0Z"
            fill="#F5F5F5" />
        <path
            d="M39.298 44.5196C33.4571 44.5089 27.859 42.1591 23.732 37.9859C19.6051 33.8127 17.2865 28.157 17.2849 22.2598H1.04644e-05C-0.00759268 32.7908 4.12827 42.8937 11.4979 50.3463C18.8676 57.7989 28.8674 61.9907 39.298 61.9999V44.5196Z"
            fill="#F5F5F5" />
        <path
            d="M74.2862 22.2599H73.8335V20.0901H72.905V19.6445H75.1975V20.0901H74.2633L74.2862 22.2599Z"
            fill="#F5F5F5" />
        <path
            d="M77.1345 21.6464L78.2177 19.6328H78.5902V22.254H78.1432V20.6049L77.2262 22.2656H77.0027L76.1029 20.6049V22.2366H75.6501V19.6444H76.0284L77.1345 21.6464Z"
            fill="#F5F5F5" />
        <path fill-rule="evenodd" clip-rule="evenodd"
            d="M100.558 61.6871V0.352539H101.131V61.6871H100.558Z" fill="#F5F5F5" />
        <path
            d="M149.816 44.6697H145.386L142.893 38.6751H129.138L126.657 44.6697H122.227L133.15 18.7529H138.881L149.816 44.6697ZM135.603 23.0521L130.697 34.8967H141.317L136.4 23.0521H135.603Z"
            fill="#F5F5F5" />
        <path
            d="M168.282 52.43C165.401 52.43 163.177 51.8012 161.611 50.5436C160.88 49.9851 160.268 49.2848 159.809 48.4839C159.35 47.683 159.055 46.7977 158.94 45.8799H162.952C163.647 47.9321 165.435 48.9582 168.316 48.9582C169.794 49.0403 171.251 48.58 172.42 47.6621C172.927 47.2041 173.326 46.6364 173.586 46.0012C173.846 45.366 173.96 44.6797 173.921 43.9936V41.2682H173.703C172.929 42.0679 171.99 42.6861 170.952 43.0793C169.642 43.5926 168.237 43.8149 166.834 43.7311C165.43 43.6472 164.061 43.2591 162.82 42.5933C161.431 41.8306 160.259 40.7209 159.416 39.3703C158.576 37.9625 158.132 36.3501 158.132 34.7066C158.132 33.0631 158.576 31.4507 159.416 30.0428C160.247 28.6828 161.422 27.5705 162.82 26.8199C164.225 26.0442 165.804 25.6458 167.405 25.6626C168.648 25.656 169.88 25.8938 171.033 26.3628C172.075 26.7612 173.014 27.3944 173.778 28.2144H174.001L174.402 26.0677H177.738V44.0051C177.773 45.5653 177.376 47.1043 176.592 48.449C175.813 49.7507 174.662 50.7836 173.291 51.4116C171.718 52.1272 170.006 52.4753 168.282 52.43ZM167.949 40.2788C168.992 40.293 170.022 40.0528 170.952 39.5786C171.843 39.1454 172.592 38.465 173.113 37.6171C173.655 36.7395 173.935 35.7232 173.921 34.6892C173.942 33.6561 173.661 32.6396 173.113 31.7671C172.602 30.9006 171.851 30.2045 170.952 29.7651C170.022 29.2909 168.992 29.0507 167.949 29.065C166.896 29.0528 165.855 29.2927 164.912 29.7651C164.009 30.2187 163.253 30.923 162.734 31.7953C162.214 32.6676 161.952 33.6716 161.977 34.6892C161.941 35.7043 162.199 36.7081 162.721 37.5768C163.242 38.4455 164.004 39.1414 164.912 39.5786C165.855 40.051 166.896 40.2909 167.949 40.2788Z"
            fill="#F5F5F5" />
        <path
            d="M182.14 44.6704V26.0502H185.469L185.876 27.8266H186.094C186.47 27.2702 186.973 26.8136 187.561 26.4957C188.211 26.1797 188.927 26.0268 189.647 26.0502H193.785V29.6029H190.049C188.94 29.5292 187.848 29.9016 187.011 30.6387C186.653 31.0315 186.378 31.4934 186.201 31.9966C186.025 32.4998 185.951 33.0339 185.985 33.5666V44.6704H182.14Z"
            fill="#F5F5F5" />
        <path
            d="M204.714 45.0812C202.951 45.0979 201.212 44.664 199.659 43.8198C198.156 42.9812 196.895 41.7604 196.003 40.2786C195.095 38.7884 194.624 37.069 194.644 35.3197C194.62 33.5772 195.092 31.8643 196.003 30.384C196.903 28.9121 198.18 27.7127 199.699 26.9122C201.33 26.0637 203.143 25.6325 204.978 25.6566C206.731 25.6199 208.466 26.0173 210.032 26.8139C211.496 27.5601 212.726 28.7019 213.586 30.1121C214.466 31.5034 214.925 33.1247 214.904 34.7758C214.906 35.4726 214.831 36.1674 214.68 36.8473H198.415C198.682 38.2548 199.456 39.5125 200.588 40.3769C201.762 41.2611 203.192 41.7308 204.657 41.7136C207.098 41.7136 208.928 40.9228 210.147 39.3412H214.216C213.45 41.0059 212.247 42.4269 210.737 43.4494C208.941 44.6001 206.839 45.1694 204.714 45.0812ZM211.087 33.7863C211.016 32.9059 210.684 32.0673 210.136 31.3793C209.557 30.627 208.803 30.0307 207.941 29.6434C207.009 29.2165 205.995 29.0012 204.972 29.0127C203.426 28.9695 201.909 29.4368 200.651 30.3435C199.493 31.1692 198.693 32.4118 198.415 33.8153L211.087 33.7863Z"
            fill="#F5F5F5" />
        <path
            d="M224.555 45.0807C222.163 45.0807 220.331 44.5502 219.059 43.4894C218.439 42.9661 217.945 42.3069 217.615 41.5619C217.286 40.8169 217.129 40.0057 217.156 39.1902C217.123 38.3672 217.274 37.5472 217.597 36.791C217.921 36.0347 218.409 35.3616 219.025 34.8216C220.266 33.7106 222.135 33.1571 224.63 33.1609H231.369V32.6749C231.392 32.1526 231.286 31.6329 231.062 31.1616C230.838 30.6904 230.503 30.282 230.086 29.9727C229.072 29.2497 227.845 28.8967 226.607 28.9716C223.848 28.9716 222.213 29.8242 221.701 31.5292H217.85C217.928 30.6918 218.189 29.8823 218.614 29.159C219.039 28.4356 219.618 27.8164 220.308 27.3457C221.798 26.2116 223.887 25.6445 226.572 25.6445C229.258 25.6445 231.346 26.2791 232.837 27.5482C233.603 28.1714 234.214 28.9669 234.621 29.8712C235.028 30.7755 235.219 31.7634 235.181 32.7559V44.6756H231.845L231.404 42.5926H231.186C230.465 43.3679 229.574 43.9624 228.584 44.3284C227.304 44.8461 225.934 45.1018 224.555 45.0807ZM225.128 41.7825C227.083 41.7825 228.607 41.3427 229.713 40.4516C230.257 40.0217 230.692 39.4664 230.98 38.8322C231.268 38.198 231.402 37.5033 231.369 36.8063V36.2276H224.658C223.671 36.159 222.691 36.4325 221.879 37.003C221.581 37.2487 221.344 37.5602 221.185 37.9134C221.026 38.2666 220.95 38.652 220.962 39.0398C220.956 39.4273 221.048 39.81 221.227 40.1527C221.406 40.4954 221.668 40.7872 221.988 41.0013C222.925 41.5734 224.012 41.8457 225.105 41.7825H225.128Z"
            fill="#F5F5F5" />
        <path
            d="M245.198 44.6701C244.079 44.7331 242.979 44.3627 242.121 43.6344C241.748 43.2564 241.457 42.8037 241.267 42.3054C241.078 41.8071 240.994 41.2743 241.02 40.7413V29.6027H237.651V26.0499H241.02V20.6455H244.832V26.0499H249.778V29.6027H244.832V39.8212C244.832 40.5908 245.256 40.9785 246.11 40.9785H249.778V44.6759L245.198 44.6701Z"
            fill="#F5F5F5" />
        <path
            d="M269.562 45.0805C267.909 45.0977 266.282 44.6712 264.847 43.8445C263.412 43.0179 262.221 41.8209 261.395 40.3763C260.528 38.8493 260.071 37.1197 260.071 35.3596C260.071 33.5994 260.528 31.8698 261.395 30.3429C262.237 28.9135 263.433 27.7292 264.864 26.9057C266.296 26.0822 267.914 25.6476 269.562 25.6444C270.821 25.6227 272.071 25.8774 273.224 26.3908C274.275 26.8268 275.224 27.4814 276.009 28.3119H276.238V18.7529H280.084V44.6697H276.754L276.347 42.3031H276.129C275.345 43.181 274.378 43.8726 273.298 44.3283C272.119 44.8414 270.846 45.0977 269.562 45.0805ZM270.072 41.5624C271.135 41.571 272.183 41.304 273.115 40.7871C274.062 40.2822 274.854 39.5259 275.407 38.5999C275.972 37.6103 276.259 36.4841 276.238 35.3422C276.259 34.2098 275.967 33.094 275.396 32.1192C274.844 31.1936 274.051 30.439 273.103 29.9378C272.173 29.4164 271.124 29.1473 270.06 29.1567C268.986 29.1516 267.927 29.4203 266.983 29.9378C266.069 30.4553 265.308 31.208 264.776 32.1192C264.205 33.094 263.913 34.2098 263.934 35.3422C263.916 36.4852 264.207 37.6115 264.776 38.5999C265.315 39.5145 266.084 40.2691 267.005 40.7871C267.948 41.2984 269.002 41.5649 270.072 41.5624Z"
            fill="#F5F5F5" />
        <path
            d="M291.099 45.0807C288.703 45.0807 286.871 44.5502 285.603 43.4894C284.979 42.9681 284.483 42.3096 284.151 41.5643C283.819 40.819 283.661 40.0069 283.688 39.1902C283.654 38.367 283.804 37.5466 284.128 36.7902C284.451 36.0338 284.94 35.3608 285.557 34.8216C286.798 33.7106 288.667 33.1571 291.162 33.1609H297.901V32.6749C297.924 32.1526 297.818 31.6329 297.594 31.1616C297.37 30.6904 297.035 30.282 296.618 29.9727C295.604 29.2497 294.377 28.8967 293.139 28.9716C290.377 28.9716 288.739 29.8242 288.227 31.5292H284.382C284.46 30.6925 284.721 29.8837 285.145 29.1605C285.569 28.4373 286.146 27.8176 286.835 27.3457C288.325 26.2116 290.413 25.6445 293.099 25.6445C295.785 25.6445 297.877 26.2791 299.374 27.5482C300.14 28.1714 300.751 28.9669 301.158 29.8712C301.565 30.7755 301.757 31.7634 301.718 32.7559V44.6756H298.389L297.947 42.5926H297.73C297.013 43.3637 296.131 43.9577 295.151 44.3284C293.863 44.8485 292.485 45.1042 291.099 45.0807ZM291.672 41.7825C293.626 41.7825 295.151 41.3427 296.257 40.4516C296.801 40.0217 297.235 39.4664 297.524 38.8322C297.812 38.198 297.945 37.5033 297.913 36.8063V36.2276H291.208C290.219 36.16 289.237 36.4334 288.422 37.003C288.126 37.2496 287.889 37.5613 287.73 37.9142C287.571 38.2672 287.494 38.6522 287.505 39.0398C287.5 39.4273 287.591 39.81 287.77 40.1527C287.95 40.4954 288.211 40.7872 288.531 41.0013C289.469 41.5713 290.556 41.8435 291.649 41.7825H291.672Z"
            fill="#F5F5F5" />
        <path
            d="M319.582 26.0498H323.869L314.528 49.1544C314.202 50.0185 313.644 50.7739 312.917 51.3359C312.106 51.8824 311.139 52.1428 310.166 52.0765H305.581V48.489H309.427C309.738 48.5122 310.047 48.4331 310.31 48.2633C310.561 48.0883 310.76 47.8458 310.883 47.5632L311.725 45.5959L303.243 26.0498H307.53L313.393 40.1163H314.235L319.582 26.0498Z"
            fill="#F5F5F5" />
        <path
            d="M338.839 44.6701C337.72 44.7331 336.619 44.3627 335.761 43.6344C335.388 43.2564 335.097 42.8037 334.908 42.3054C334.718 41.8071 334.634 41.2743 334.661 40.7413V29.6027H331.291V26.0499H334.661V20.6455H338.472V26.0499H343.418V29.6027H338.472V39.8212C338.472 40.5908 338.902 40.9785 339.756 40.9785H343.418V44.6759L338.839 44.6701Z"
            fill="#F5F5F5" />
        <path
            d="M355.27 45.0806C353.448 45.0994 351.649 44.6663 350.032 43.8192C348.509 43.021 347.23 41.8212 346.329 40.3474C345.422 38.8424 344.953 37.1098 344.977 35.3481C344.949 33.5986 345.419 31.8778 346.329 30.3892C347.23 28.9158 348.51 27.7162 350.032 26.9175C351.649 26.0722 353.448 25.641 355.27 25.6619C357.083 25.6296 358.876 26.0553 360.485 26.9001C362.007 27.6988 363.286 28.8985 364.187 30.3719C365.102 31.8588 365.574 33.5804 365.546 35.3307C365.57 37.0933 365.099 38.8267 364.187 40.3301C363.287 41.8038 362.007 43.0036 360.485 43.8018C358.88 44.6607 357.087 45.1003 355.27 45.0806ZM355.27 41.5626C356.39 41.5747 357.496 41.3084 358.491 40.7872C359.461 40.2969 360.274 39.5384 360.835 38.6C361.429 37.6206 361.735 36.4908 361.717 35.3423C361.738 34.2044 361.432 33.0848 360.835 32.1193C360.276 31.1806 359.463 30.4234 358.491 29.9379C357.498 29.4122 356.391 29.1438 355.27 29.1568C354.125 29.144 352.994 29.412 351.974 29.9379C351.248 30.3446 350.61 30.8949 350.1 31.556C349.589 32.2172 349.215 32.9755 349.001 33.7857C348.787 34.5959 348.737 35.4414 348.854 36.2715C348.971 37.1017 349.253 37.8995 349.682 38.6173C350.257 39.5438 351.066 40.2988 352.026 40.8046C353.032 41.3138 354.144 41.5737 355.27 41.5626Z"
            fill="#F5F5F5" />
        <path
            d="M397.101 44.6697H377.833V18.7529H397.101V22.4967H381.936V29.7874H396.264V33.4906H381.936V40.9317H397.101V44.6697Z"
            fill="#F5F5F5" />
        <path
            d="M403.331 44.6701H398.643L405.675 35.1574L398.883 26.0498H403.531L408.185 32.4552H409.062L413.681 26.0498H418.369L411.572 35.1574L418.604 44.6701H413.95L409.044 37.9001H408.202L403.331 44.6701Z"
            fill="#F5F5F5" />
        <path
            d="M429 45.0805C427.178 45.0993 425.379 44.6661 423.762 43.8191C422.24 43.0224 420.962 41.8221 420.065 40.3473C419.154 38.8439 418.683 37.1105 418.707 35.3479C418.684 33.5933 419.164 31.8694 420.088 30.3833C420.986 28.909 422.263 27.7089 423.785 26.9115C425.403 26.0663 427.201 25.6351 429.023 25.6559C431.208 25.5901 433.355 26.2396 435.144 27.5075C436.834 28.6917 438.064 30.4325 438.622 32.4317H434.668C434.238 31.404 433.474 30.5549 432.502 30.0246C431.437 29.434 430.237 29.1385 429.023 29.1682C427.889 29.1594 426.771 29.4274 425.762 29.9493C424.801 30.4512 423.991 31.2046 423.418 32.1308C422.825 33.0979 422.521 34.2167 422.541 35.3537C422.518 36.475 422.808 37.5802 423.377 38.543C423.947 39.5059 424.773 40.2875 425.762 40.7986C426.772 41.316 427.89 41.5818 429.023 41.574C430.237 41.6128 431.439 41.3188 432.502 40.7234C433.479 40.1308 434.24 39.2331 434.668 38.1659H438.622C438.066 40.2067 436.84 41.9961 435.144 43.2404C433.346 44.5064 431.191 45.1518 429 45.0805Z"
            fill="#F5F5F5" />
        <path
            d="M450.577 45.0812C448.814 45.0979 447.075 44.664 445.522 43.8198C444.016 42.9845 442.755 41.763 441.866 40.2786C440.958 38.7884 440.487 37.069 440.508 35.3197C440.484 33.5772 440.955 31.8643 441.866 30.384C442.765 28.911 444.042 27.7113 445.563 26.9122C447.194 26.0637 449.006 25.6325 450.841 25.6566C452.594 25.6199 454.33 26.0173 455.896 26.8139C457.359 27.5616 458.588 28.703 459.449 30.1121C460.33 31.5034 460.788 33.1247 460.767 34.7758C460.769 35.4726 460.694 36.1674 460.544 36.8473H444.279C444.545 38.2548 445.319 39.5125 446.451 40.3769C447.625 41.2611 449.055 41.7308 450.52 41.7136C452.961 41.7136 454.791 40.9228 456.01 39.3412H460.079C459.313 41.0075 458.108 42.4288 456.595 43.4494C455.051 44.5373 453.045 45.0812 450.577 45.0812ZM456.95 33.7863C456.879 32.9059 456.548 32.0673 455.999 31.3793C455.42 30.6247 454.663 30.028 453.798 29.6434C452.868 29.2159 451.857 29.0005 450.835 29.0127C449.288 28.9703 447.769 29.4375 446.508 30.3435C445.354 31.1715 444.556 32.4134 444.279 33.8153L456.95 33.7863Z"
            fill="#F5F5F5" />
        <path d="M468 44.6697H464.154V18.7529H468V44.6697Z" fill="#F5F5F5" />
    </g>
    <defs>
        <clipPath id="clip0_65_114">
            <rect width="468" height="62" fill="white" />
        </clipPath>
    </defs>
</svg>
