<svg width="511" height="306" viewBox="0 0 511 306" fill="none" xmlns="http://www.w3.org/2000/svg">
    <path
        d="M255.922 201.244C382.31 201.244 484.768 182.242 484.768 158.803C484.768 135.364 382.31 116.362 255.922 116.362C129.534 116.362 27.0762 135.364 27.0762 158.803C27.0762 182.242 129.534 201.244 255.922 201.244Z"
        fill="url(#paint0_linear_241_3704)" />
    <path
        d="M255.922 201.244C382.31 201.244 484.768 182.242 484.768 158.803C484.768 135.364 382.31 116.362 255.922 116.362C129.534 116.362 27.0762 135.364 27.0762 158.803C27.0762 182.242 129.534 201.244 255.922 201.244Z"
        stroke="url(#paint1_linear_241_3704)" stroke-miterlimit="10" />
    <path
        d="M288.773 178.537C378.143 108.469 435.884 40.1352 417.74 25.9101C399.596 11.6851 312.44 56.9552 223.07 127.024C133.7 197.092 75.9592 265.426 94.1028 279.651C112.246 293.876 199.403 248.606 288.773 178.537Z"
        fill="url(#paint2_linear_241_3704)" />
    <path
        d="M407.997 24.6352C409.537 24.5477 411.085 24.6991 412.55 25.0807C414.016 25.4623 415.372 26.0664 416.54 26.859C424.554 33.142 415.669 52.7012 392.157 80.5395C367.842 109.289 330.644 143.758 287.567 177.585C211.189 237.468 133.955 280.927 103.899 280.927C102.359 281.015 100.811 280.863 99.3454 280.482C97.8794 280.1 96.5238 279.496 95.3559 278.703C87.3421 272.42 96.2273 252.848 119.739 225.023C144.054 196.26 181.252 161.804 224.329 127.977C300.707 68.0939 377.941 24.6352 407.997 24.6352ZM407.997 23.2956C378.009 23.2956 301.408 65.6424 223.132 127.026C133.699 197.131 75.9621 265.454 94.1085 279.654C95.4293 280.591 96.9763 281.311 98.658 281.771C100.34 282.231 102.122 282.423 103.899 282.334C133.887 282.334 210.488 239.973 288.763 178.603C378.146 108.525 435.882 40.2022 417.736 25.9749C416.417 25.0355 414.871 24.3139 413.189 23.8535C411.506 23.3932 409.723 23.2035 407.945 23.2956H407.997Z"
        fill="url(#paint3_linear_241_3704)" />
    <path
        d="M417.74 279.651C435.884 265.426 378.143 197.092 288.773 127.024C199.403 56.9552 112.246 11.6852 94.1028 25.9102C75.9593 40.1353 133.7 108.469 223.07 178.537C312.439 248.606 399.597 293.876 417.74 279.651Z"
        fill="url(#paint4_linear_241_3704)" />
    <path
        d="M417.74 279.651C435.884 265.426 378.143 197.092 288.773 127.024C199.403 56.9552 112.246 11.6852 94.1028 25.9102C75.9593 40.1353 133.7 108.469 223.07 178.537C312.439 248.606 399.597 293.876 417.74 279.651Z"
        stroke="url(#paint5_linear_241_3704)" stroke-miterlimit="10" />
    <path d="M255 23L255 305" stroke="url(#paint6_linear_241_3704)" stroke-miterlimit="10"
        stroke-dasharray="2 2" />
    <path opacity="0.8"
        d="M251 239C251 241.209 252.791 243 255 243C257.209 243 259 241.209 259 239C259 236.791 257.209 235 255 235C252.791 235 251 236.791 251 239Z"
        fill="url(#paint7_radial_241_3704)" />
    <path opacity="0.8"
        d="M250 150C250 152.761 252.239 155 255 155C257.761 155 260 152.761 260 150C260 147.239 257.761 145 255 145C252.239 145 250 147.239 250 150Z"
        fill="url(#paint8_radial_241_3704)" />
    <path
        d="M89 279.5C89 283.09 91.9101 286 95.5 286C99.0899 286 102 283.09 102 279.5C102 275.91 99.0899 273 95.5 273C91.9101 273 89 275.91 89 279.5Z"
        fill="url(#paint9_radial_241_3704)" />
    <path opacity="0.8"
        d="M396 75C396 77.2091 397.791 79 400 79C402.209 79 404 77.2091 404 75C404 72.7909 402.209 71 400 71C397.791 71 396 72.7909 396 75Z"
        fill="url(#paint10_radial_241_3704)" />
    <path opacity="0.8"
        d="M212 72.5C212 73.3284 212.672 74 213.5 74C214.328 74 215 73.3284 215 72.5C215 71.6716 214.328 71 213.5 71C212.672 71 212 71.6716 212 72.5Z"
        fill="url(#paint11_radial_241_3704)" />
    <path opacity="0.8"
        d="M0 85C0 86.1046 0.89543 87 2 87C3.10457 87 4 86.1046 4 85C4 83.8954 3.10457 83 2 83C0.89543 83 0 83.8954 0 85Z"
        fill="url(#paint12_radial_241_3704)" />
    <path opacity="0.8"
        d="M499 205C499 208.314 501.686 211 505 211C508.314 211 511 208.314 511 205C511 201.686 508.314 199 505 199C501.686 199 499 201.686 499 205Z"
        fill="url(#paint13_radial_241_3704)" />
    <defs>
        <linearGradient id="paint0_linear_241_3704" x1="264.64" y1="208.21" x2="264.64" y2="123.166"
            gradientUnits="userSpaceOnUse">
            <stop stop-color="#B0B0BF" stop-opacity="0.5" />
            <stop offset="1" stop-color="#B0B0BF" stop-opacity="0" />
        </linearGradient>
        <linearGradient id="paint1_linear_241_3704" x1="255.922" y1="201.927" x2="255.922"
            y2="115.692" gradientUnits="userSpaceOnUse">
            <stop stop-color="#B0B0BF" />
            <stop offset="0.04" stop-color="#B0B0BF" stop-opacity="0.81" />
            <stop offset="0.09" stop-color="#B0B0BF" stop-opacity="0.62" />
            <stop offset="0.15" stop-color="#B0B0BF" stop-opacity="0.45" />
            <stop offset="0.21" stop-color="#B0B0BF" stop-opacity="0.31" />
            <stop offset="0.28" stop-color="#B0B0BF" stop-opacity="0.2" />
            <stop offset="0.36" stop-color="#B0B0BF" stop-opacity="0.11" />
            <stop offset="0.46" stop-color="#B0B0BF" stop-opacity="0.05" />
            <stop offset="0.61" stop-color="#B0B0BF" stop-opacity="0.01" />
            <stop offset="1" stop-color="#B0B0BF" stop-opacity="0" />
        </linearGradient>
        <linearGradient id="paint2_linear_241_3704" x1="300.486" y1="180.044" x2="250.373"
            y2="116.126" gradientUnits="userSpaceOnUse">
            <stop stop-color="#B0B0BF" stop-opacity="0.5" />
            <stop offset="1" stop-color="#B0B0BF" stop-opacity="0" />
        </linearGradient>
        <linearGradient id="paint3_linear_241_3704" x1="366.612" y1="2.4637" x2="216.025"
            y2="335.143" gradientUnits="userSpaceOnUse">
            <stop stop-color="#B0B0BF" stop-opacity="0" />
            <stop offset="0.28" stop-color="#B0B0BF" stop-opacity="0.01" />
            <stop offset="0.43" stop-color="#B0B0BF" stop-opacity="0.05" />
            <stop offset="0.55" stop-color="#B0B0BF" stop-opacity="0.12" />
            <stop offset="0.65" stop-color="#B0B0BF" stop-opacity="0.23" />
            <stop offset="0.74" stop-color="#B0B0BF" stop-opacity="0.36" />
            <stop offset="0.83" stop-color="#B0B0BF" stop-opacity="0.52" />
            <stop offset="0.91" stop-color="#B0B0BF" stop-opacity="0.71" />
            <stop offset="0.98" stop-color="#B0B0BF" stop-opacity="0.92" />
            <stop offset="1" stop-color="#B0B0BF" />
        </linearGradient>
        <linearGradient id="paint4_linear_241_3704" x1="223.826" y1="187.674" x2="273.94"
            y2="123.757" gradientUnits="userSpaceOnUse">
            <stop stop-color="#B0B0BF" stop-opacity="0.5" />
            <stop offset="1" stop-color="#B0B0BF" stop-opacity="0" />
        </linearGradient>
        <linearGradient id="paint5_linear_241_3704" x1="89.9274" y1="152.775" x2="421.928"
            y2="152.775" gradientUnits="userSpaceOnUse">
            <stop stop-color="#B0B0BF" />
            <stop offset="0.04" stop-color="#B0B0BF" stop-opacity="0.81" />
            <stop offset="0.09" stop-color="#B0B0BF" stop-opacity="0.62" />
            <stop offset="0.15" stop-color="#B0B0BF" stop-opacity="0.45" />
            <stop offset="0.21" stop-color="#B0B0BF" stop-opacity="0.31" />
            <stop offset="0.28" stop-color="#B0B0BF" stop-opacity="0.2" />
            <stop offset="0.36" stop-color="#B0B0BF" stop-opacity="0.11" />
            <stop offset="0.46" stop-color="#B0B0BF" stop-opacity="0.05" />
            <stop offset="0.61" stop-color="#B0B0BF" stop-opacity="0.01" />
            <stop offset="1" stop-color="#B0B0BF" stop-opacity="0" />
        </linearGradient>
        <linearGradient id="paint6_linear_241_3704" x1="255" y1="164" x2="256" y2="164"
            gradientUnits="userSpaceOnUse">
            <stop stop-color="#B0B0BF" stop-opacity="0.03" />
            <stop offset="0.04" stop-color="#B0B0BF" stop-opacity="0.25" />
            <stop offset="0.09" stop-color="#B0B0BF" stop-opacity="0.45" />
            <stop offset="0.14" stop-color="#B0B0BF" stop-opacity="0.62" />
            <stop offset="0.18" stop-color="#B0B0BF" stop-opacity="0.76" />
            <stop offset="0.24" stop-color="#B0B0BF" stop-opacity="0.87" />
            <stop offset="0.3" stop-color="#B0B0BF" stop-opacity="0.94" />
            <stop offset="0.38" stop-color="#B0B0BF" stop-opacity="0.99" />
            <stop offset="0.5" stop-color="#B0B0BF" />
            <stop offset="0.62" stop-color="#B0B0BF" stop-opacity="0.99" />
            <stop offset="0.7" stop-color="#B0B0BF" stop-opacity="0.94" />
            <stop offset="0.76" stop-color="#B0B0BF" stop-opacity="0.87" />
            <stop offset="0.82" stop-color="#B0B0BF" stop-opacity="0.76" />
            <stop offset="0.86" stop-color="#B0B0BF" stop-opacity="0.62" />
            <stop offset="0.91" stop-color="#B0B0BF" stop-opacity="0.45" />
            <stop offset="0.96" stop-color="#B0B0BF" stop-opacity="0.25" />
            <stop offset="1" stop-color="#B0B0BF" stop-opacity="0" />
        </linearGradient>
        <radialGradient id="paint7_radial_241_3704" cx="0" cy="0" r="1"
            gradientUnits="userSpaceOnUse"
            gradientTransform="translate(255 239) rotate(180) scale(4)">
            <stop stop-color="#F5F5F5" stop-opacity="0.63" />
            <stop offset="1" stop-color="#F5F5F5" stop-opacity="0" />
        </radialGradient>
        <radialGradient id="paint8_radial_241_3704" cx="0" cy="0" r="1"
            gradientUnits="userSpaceOnUse"
            gradientTransform="translate(255 150) rotate(180) scale(5)">
            <stop stop-color="#F5F5F5" />
            <stop offset="1" stop-color="#F5F5F5" stop-opacity="0" />
        </radialGradient>
        <radialGradient id="paint9_radial_241_3704" cx="0" cy="0" r="1"
            gradientUnits="userSpaceOnUse"
            gradientTransform="translate(95.5 279.5) rotate(180) scale(6.5)">
            <stop stop-color="#F5F5F5" stop-opacity="0.99" />
            <stop offset="1" stop-color="#F5F5F5" stop-opacity="0" />
        </radialGradient>
        <radialGradient id="paint10_radial_241_3704" cx="0" cy="0" r="1"
            gradientUnits="userSpaceOnUse"
            gradientTransform="translate(400 75) rotate(180) scale(4)">
            <stop stop-color="#F5F5F5" />
            <stop offset="1" stop-color="#F5F5F5" stop-opacity="0" />
        </radialGradient>
        <radialGradient id="paint11_radial_241_3704" cx="0" cy="0" r="1"
            gradientUnits="userSpaceOnUse"
            gradientTransform="translate(213.5 72.5) rotate(180) scale(1.5)">
            <stop stop-color="#B0B0BF" />
            <stop offset="1" stop-color="#F5F5F5" stop-opacity="0" />
        </radialGradient>
        <radialGradient id="paint12_radial_241_3704" cx="0" cy="0" r="1"
            gradientUnits="userSpaceOnUse" gradientTransform="translate(2 85) rotate(180) scale(2)">
            <stop stop-color="#F5F5F5" />
            <stop offset="1" stop-color="#F5F5F5" stop-opacity="0" />
        </radialGradient>
        <radialGradient id="paint13_radial_241_3704" cx="0" cy="0" r="1"
            gradientUnits="userSpaceOnUse"
            gradientTransform="translate(505 205) rotate(180) scale(6)">
            <stop stop-color="#F5F5F5" />
            <stop offset="1" stop-color="#F5F5F5" stop-opacity="0" />
        </radialGradient>
    </defs>
</svg>
