<svg xmlns="http://www.w3.org/2000/svg" viewBox="0 0 1000.1 1001"><defs><style>.cls-1{fill:#535f68;}.cls-2{fill:#24282d;}.cls-3{fill:#7f8a95;}.cls-4{fill:#506168;}</style></defs><title>Female </title><g id="Слой_1" data-name="Слой 1"><rect class="cls-1" width="1000.1" height="1000.1"/></g><g id="Слой_8" data-name="Слой 8"><path class="cls-2" d="M668,760.64S598,631,501,669c-.17.07-.33.31-.49.71-.15-.4-.31-.64-.48-.71-97-38-167,91.64-167,91.64S-11,807,38,1001c6.32-.67,461.1-.94,462.48-1s456.17.28,462.49,1C1012,807,668,760.64,668,760.64Z" transform="translate(0.16)"/></g><g id="Слой_9" data-name="Слой 9"><path class="cls-3" d="M600,636.33c-31.58,1.86-92.21.27-100.67,0v0l-.5,0-.5,0v0c-8.46.24-69.09,1.83-100.67,0C376.33,867.67,463,1001,463,1001l35.84-.93,35.84.93S621.34,867.67,600,636.33Z" transform="translate(0.16)"/></g><g id="Слой_10" data-name="Слой 10"><path class="cls-4" d="M499.34,636.36v0l-.5,0-.5,0v0c-8.46.24-69.09,1.83-100.67,0q-1,11-1.71,21.69C421.12,705.51,479.31,772,602.49,745.3a773.66,773.66,0,0,0-2.48-109C568.43,638.19,507.8,636.6,499.34,636.36Z" transform="translate(0.16)"/></g><g id="Слой_11" data-name="Слой 11"><path class="cls-2" d="M267.63,625c17.87,9,225.07,88,444.81,0,51.89-64.67,35.45-180.67,35.45-180.67s22.61,5.17,37.78,38.11c12.33-10.44,0-294.94-146-312.11-21.34-91.33-330-141.33-418,102-30.92,115.52,38,168.67,0,324.67C246.5,596,276,564.5,276,564.5S284.5,601,267.63,625Z" transform="translate(0.16)"/></g><g id="Слой_7" data-name="Слой 7"><path class="cls-3" d="M619.67,638.33c64-68,68-308.66,6-384.49C536.33,379.67,365.37,399,340.33,442.33,323.8,471,333,582,370,631c31.1,38.76,77.9,71.6,123.86,71.6C542.33,702.6,587.26,672.76,619.67,638.33Z" transform="translate(0.16)"/></g></svg>