<?xml version="1.0" encoding="iso-8859-1"?>
<!-- Generator: Adobe Illustrator 21.0.0, SVG Export Plug-In . SVG Version: 6.00 Build 0)  -->
<svg xmlns="http://www.w3.org/2000/svg" xmlns:xlink="http://www.w3.org/1999/xlink" version="1.1" id="Capa_1" x="0px" y="0px" viewBox="0 0 512.009 512.009" style="enable-background:new 0 0 512.009 512.009;" xml:space="preserve" width="512" height="512">
<style>
        path, circle {
            fill: #ffffff
        }
    </style>
<path d="M482.401,200.951c-8.633-9.101-16.787-17.696-20.538-26.753c-4.148-10.016-4.769-22.701-5.426-36.132  c-1.039-21.255-2.217-45.346-19.251-62.915c-16.494-17.015-39.62-17.625-60.023-18.163c-12.54-0.331-24.384-0.643-33.44-4.395  c-10.016-4.148-19.425-12.68-29.386-21.713c-15.765-14.294-33.632-30.496-58.1-30.875C255.968,0.002,255.701,0,255.433,0  c-23.271,0-39.843,15.72-54.483,29.608c-9.1,8.633-17.695,16.787-26.751,20.539c-10.016,4.148-22.702,4.769-36.133,5.425  c-21.254,1.04-45.345,2.217-62.914,19.251c-17.016,16.495-17.625,39.621-18.163,60.024c-0.33,12.539-0.642,24.383-4.394,33.438  c-4.148,10.016-12.681,19.425-21.713,29.386c-14.295,15.764-30.497,33.632-30.876,58.101c-0.367,23.694,15.555,40.478,29.602,55.285  c8.633,9.101,16.787,17.696,20.538,26.753c4.148,10.016,4.769,22.701,5.426,36.132c1.039,21.255,2.217,45.346,19.251,62.915  c16.494,17.015,39.62,17.625,60.023,18.163c12.54,0.331,24.384,0.643,33.44,4.395c10.016,4.148,19.425,12.68,29.386,21.713  c15.765,14.294,33.632,30.496,58.1,30.875c0.269,0.004,0.536,0.006,0.804,0.006c23.271,0,39.843-15.72,54.483-29.608  c9.1-8.633,17.695-16.787,26.751-20.539c10.016-4.148,22.702-4.769,36.133-5.425c21.254-1.04,45.345-2.217,62.914-19.25  c17.016-16.495,17.625-39.621,18.163-60.024c0.33-12.54,0.642-24.383,4.394-33.439c4.148-10.016,12.681-19.425,21.713-29.386  c14.295-15.764,30.497-33.632,30.876-58.101C512.37,232.542,496.448,215.759,482.401,200.951z M184.826,319.523  c0,7.154-5.052,13.312-12.067,14.71c-7.02,1.4-14.043-2.352-16.786-8.958l-23.991-57.784v52.272c0,8.284-6.716,15-15,15  s-15-6.716-15-15V192.245c0-7.154,5.052-13.312,12.067-14.71c7.017-1.402,14.043,2.352,16.786,8.958l23.991,57.784v-52.272  c0-8.284,6.716-15,15-15s15,6.716,15,15V319.523z M250.219,305.004c8.284,0,15,6.716,15,15s-6.716,15-15,15h-28.988  c-8.284,0-15-6.716-15-15V192.005c0-8.284,6.716-15,15-15h28.988c8.284,0,15,6.716,15,15s-6.716,15-15,15h-13.988v34h14.138  c8.284,0,15,6.716,15,15s-6.716,15-15,15h-14.138v33.999H250.219z M410.991,194.446l-18.917,127.519  c-0.981,6.613-6.221,11.779-12.847,12.666c-0.669,0.09-1.337,0.133-1.998,0.133c-5.887,0-11.313-3.469-13.729-8.973l-17.549-39.99  l-17.007,39.85c-2.38,5.578-7.847,9.113-13.789,9.113c-0.636,0-1.278-0.041-1.922-0.124c-6.659-0.857-11.938-6.035-12.923-12.676  l-18.918-127.519c-1.215-8.194,4.442-15.823,12.637-17.039c8.201-1.216,15.823,4.442,17.039,12.636l11.126,74.996l9.75-22.846  c1.772-4.152,5.2-7.08,9.182-8.37c3.333-1.093,7.053-0.942,10.3,0.376c3.597,1.46,6.528,4.299,8.089,7.854l10.526,23.987  l11.273-75.997c1.216-8.194,8.846-13.857,17.039-12.636C406.548,178.623,412.206,186.251,410.991,194.446z"/>
</svg>
