<?xml version="1.0" encoding="utf-8"?>
<!-- Generator: Adobe Illustrator 22.0.1, SVG Export Plug-In . SVG Version: 6.00 Build 0)  -->
<svg version="1.1" id="Layer_1" xmlns="http://www.w3.org/2000/svg" xmlns:xlink="http://www.w3.org/1999/xlink" x="0px" y="0px"
	 viewBox="0 0 512 344" style="enable-background:new 0 0 512 344;" xml:space="preserve">
<style type="text/css">
	.st0{fill:#F5F5F5;}
	.st1{fill:#FF4B55;}
	.st2{fill:#41479B;}
	.st3{fill:#FFE15A;}
</style>
<path class="st0" d="M13.7,13.3C5.3,20.3,0,30.8,0,42.6v258.8c0,11.8,5.3,22.3,13.7,29.4L256,172L13.7,13.3z"/>
<path class="st1" d="M13.7,330.7c6.7,5.6,15.3,9,24.6,9h435.3c21.2,0,38.3-17.2,38.3-38.3V172H256L13.7,330.7z"/>
<path class="st2" d="M473.7,4.3H38.3c-9.4,0-18,3.4-24.6,9L256,172h256V42.6C512,21.4,494.8,4.3,473.7,4.3z"/>
<g>
	<circle class="st3" cx="92.7" cy="172" r="28.7"/>
	<polygon class="st3" points="92.7,172 81.9,129 92.7,114.6 103.4,129 	"/>
	<polygon class="st3" points="92.7,172 103.4,215 92.7,229.4 81.9,215 	"/>
	<polygon class="st3" points="92.7,172 49.7,182.8 35.3,172 49.7,161.2 	"/>
	<polygon class="st3" points="92.7,172 135.7,161.2 150.1,172 135.7,182.8 	"/>
	<polygon class="st3" points="92.7,172 115.5,134 133.3,131.4 130.7,149.2 	"/>
	<polygon class="st3" points="92.7,172 69.9,210 52.1,212.6 54.7,194.8 	"/>
	<polygon class="st3" points="92.7,172 54.7,149.2 52.1,131.4 69.9,134 	"/>
	<polygon class="st3" points="92.7,172 130.7,194.8 133.3,212.6 115.5,210 	"/>
	<path class="st3" d="M23.7,47.7l1.5,11.2l-10.1,5c-1.3,0.7-1,2.6,0.4,2.9l11.1,2l1.7,11.1c0.2,1.4,2.1,1.8,2.8,0.5l5.4-9.9
		l11.1,1.9c1.4,0.2,2.4-1.5,1.3-2.5l-7.8-8.1l5.2-10c0.7-1.3-0.7-2.7-2-2.1l-10.2,4.9l-7.9-8C25.2,45.4,23.5,46.3,23.7,47.7z"/>
	<path class="st3" d="M28.1,264.9L26.2,276l-11.1,1.8c-1.4,0.2-1.8,2.2-0.5,2.8l10,5.2L22.9,297c-0.2,1.4,1.5,2.3,2.6,1.3l8.1-7.9
		l10.1,5.1c1.3,0.7,2.7-0.7,2-2l-5-10.1l7.9-8c1-1,0.1-2.8-1.3-2.6l-11.1,1.6l-5.2-10C30.3,263.2,28.3,263.5,28.1,264.9z"/>
	<path class="st3" d="M202.7,155.6l-6.5,9.2l-10.8-3.1c-1.4-0.4-2.5,1.2-1.6,2.4l6.8,9l-6.3,9.3c-0.8,1.2,0.4,2.8,1.7,2.3l10.7-3.6
		l6.9,8.9c0.9,1.2,2.7,0.5,2.7-1l-0.2-11.3l10.6-3.8c1.4-0.5,1.3-2.4-0.1-2.9l-10.8-3.3l-0.3-11.3
		C205.4,154.9,203.6,154.4,202.7,155.6z"/>
</g>
</svg>
