<svg width="512" height="340" xmlns="http://www.w3.org/2000/svg">

 <g>
  <title>background</title>
  <rect fill="none" id="canvas_background" height="342" width="514" y="-1" x="-1"/>
 </g>
 <g>
  <title>Layer 1</title>
  <path id="svg_1" fill="#F5F5F5" d="m473.654999,2.276001l-435.309998,0c-21.178001,0 -38.345001,17.167 -38.345001,38.345001l0,258.759003c0,21.177002 17.167,38.345001 38.345001,38.345001l435.309998,0c21.177002,0 38.345001,-17.166992 38.345001,-38.345001l0,-258.759003c0,-21.178001 -17.166992,-38.345001 -38.345001,-38.345001z"/>
  <g id="svg_2">
   <path id="svg_3" fill="#FF4B55" d="m2.109,28.080002l507.781015,0c-5.196014,-15.016998 -19.451996,-25.804001 -36.235016,-25.804001l-435.309998,0c-16.784,0 -31.039001,10.787003 -36.236001,25.804001z"/>
   <rect x="0" id="svg_4" fill="#FF4B55" height="25.803" width="512" y="105.49"/>
   <rect x="0" id="svg_5" fill="#FF4B55" height="25.803" width="512" y="53.88"/>
   <path id="svg_6" fill="#FF4B55" d="m0,174.074005c0,4.875 3.953,8.828003 8.828,8.828003l503.172,0l0,-25.804001l-512,0l0,16.975998z"/>
   <rect x="0" id="svg_7" fill="#FF4B55" height="25.804" width="512" y="260.32"/>
   <path id="svg_8" fill="#FF4B55" d="m509.890991,311.920013l-507.781991,0c5.197,15.016998 19.452998,25.803986 36.236001,25.803986l435.309998,0c16.783997,0 31.039001,-10.786987 36.235992,-25.803986z"/>
   <rect x="0" id="svg_9" fill="#FF4B55" height="25.803" width="512" y="208.71"/>
  </g>
  <path id="svg_10" fill="#41479B" d="m8.828,182.902008l220.690005,0c4.875,0 8.828003,-3.953003 8.828003,-8.828003l0,-162.971008c0,-4.875999 -3.953003,-8.828003 -8.828003,-8.828003l-191.173004,0c-21.178001,0.001007 -38.345001,17.168007 -38.345001,38.346008l0,133.453003c0,4.876007 3.953,8.828003 8.828,8.828003z"/>
  <g id="svg_11">
   <path id="svg_12" fill="#F5F5F5" d="m24.789,22.537003l1.954,5.860001l6.176998,0.046997c0.800003,0.007004 1.131001,1.027 0.488003,1.502007l-4.969002,3.668999l1.864,5.889c0.242001,0.762001 -0.626999,1.393997 -1.278,0.927994l-5.025,-3.590996l-5.025,3.592003c-0.651001,0.465996 -1.518,-0.166 -1.278,-0.928001l1.864,-5.889l-4.969001,-3.668999c-0.643,-0.476006 -0.312,-1.496002 0.488,-1.501999l6.177,-0.047005l1.954,-5.860001c0.251999,-0.760002 1.323999,-0.760002 1.577999,-0.000999z"/>
   <path id="svg_13" fill="#F5F5F5" d="m24.789,53.190994l1.954,5.860001l6.176998,0.046997c0.800003,0.007004 1.131001,1.026001 0.488003,1.501999l-4.969002,3.669998l1.864,5.889008c0.242001,0.761993 -0.626999,1.393997 -1.278,0.927994l-5.025,-3.590988l-5.025,3.591995c-0.651001,0.465012 -1.518,-0.166 -1.278,-0.927994l1.864,-5.889008l-4.969001,-3.669998c-0.643,-0.475998 -0.312,-1.494995 0.488,-1.501999l6.177,-0.046997l1.954,-5.860001c0.251999,-0.759003 1.323999,-0.759003 1.577999,-0.001007z"/>
   <path id="svg_14" fill="#F5F5F5" d="m24.789,83.845993l1.954,5.860001l6.176998,0.046997c0.800003,0.007004 1.131001,1.026001 0.488003,1.501999l-4.969002,3.669998l1.864,5.889008c0.242001,0.761993 -0.626999,1.393997 -1.278,0.927994l-5.025,-3.590988l-5.025,3.591995c-0.651001,0.465012 -1.518,-0.164993 -1.278,-0.927994l1.864,-5.889008l-4.969001,-3.669998c-0.643,-0.475998 -0.312,-1.494995 0.488,-1.501999l6.177,-0.046997l1.954,-5.860001c0.251999,-0.759995 1.323999,-0.759995 1.577999,-0.001007z"/>
   <path id="svg_15" fill="#F5F5F5" d="m24.789,114.5l1.954,5.860001l6.176998,0.046997c0.800003,0.007004 1.131001,1.027008 0.488003,1.501999l-4.969002,3.669998l1.864,5.889008c0.242001,0.761993 -0.626999,1.393997 -1.278,0.927994l-5.025,-3.591003l-5.025,3.591995c-0.651001,0.465012 -1.518,-0.166 -1.278,-0.927994l1.864,-5.889008l-4.969001,-3.669998c-0.643,-0.473999 -0.312,-1.494995 0.488,-1.501999l6.177,-0.046997l1.954,-5.860001c0.251999,-0.759995 1.323999,-0.759995 1.577999,-0.000992z"/>
   <path id="svg_16" fill="#F5F5F5" d="m24.789,145.154007l1.954,5.860001l6.176998,0.046997c0.800003,0.007004 1.131001,1.026001 0.488003,1.501999l-4.969002,3.669998l1.864,5.889008c0.242001,0.761993 -0.626999,1.393997 -1.278,0.927994l-5.025,-3.591003l-5.025,3.591995c-0.651001,0.465012 -1.518,-0.166 -1.278,-0.927994l1.864,-5.889008l-4.969001,-3.669998c-0.643,-0.475998 -0.312,-1.494995 0.488,-1.501999l6.177,-0.046997l1.954,-5.860001c0.251999,-0.759003 1.323999,-0.759003 1.577999,-0.000992z"/>
   <path id="svg_17" fill="#F5F5F5" d="m48.582001,37.566002l1.953999,5.859993l6.177002,0.047012c0.799999,0.006989 1.131001,1.026993 0.487999,1.501999l-4.968998,3.669998l1.863998,5.888992c0.242001,0.762009 -0.626999,1.394012 -1.278,0.928009l-5.025002,-3.59201l-5.024998,3.59201c-0.651001,0.464996 -1.518002,-0.166 -1.278,-0.928009l1.863998,-5.888992l-4.968998,-3.669998c-0.643002,-0.475998 -0.312,-1.49501 0.487999,-1.501999l6.176998,-0.047012l1.954002,-5.859993c0.251999,-0.758003 1.324997,-0.758003 1.577999,0z"/>
   <path id="svg_18" fill="#F5F5F5" d="m48.582001,68.220993l1.953999,5.860001l6.177002,0.046997c0.799999,0.007004 1.131001,1.027008 0.487999,1.501999l-4.968998,3.669998l1.863998,5.889008c0.242001,0.761993 -0.626999,1.393997 -1.278,0.927994l-5.025002,-3.591995l-5.024998,3.591995c-0.651001,0.464996 -1.518002,-0.164993 -1.278,-0.927994l1.863998,-5.889008l-4.968998,-3.669998c-0.643002,-0.473999 -0.312,-1.494995 0.487999,-1.501999l6.176998,-0.046997l1.954002,-5.860001c0.251999,-0.758987 1.324997,-0.758987 1.577999,0z"/>
   <path id="svg_19" fill="#F5F5F5" d="m48.582001,98.875l1.953999,5.860001l6.177002,0.046997c0.799999,0.007004 1.131001,1.026001 0.487999,1.501999l-4.968998,3.669998l1.863998,5.889008c0.242001,0.761993 -0.626999,1.393997 -1.278,0.927994l-5.025002,-3.591995l-5.024998,3.591995c-0.651001,0.464996 -1.518002,-0.166 -1.278,-0.927994l1.863998,-5.889008l-4.968998,-3.669998c-0.643002,-0.475998 -0.312,-1.494995 0.487999,-1.501999l6.176998,-0.046997l1.954002,-5.860001c0.251999,-0.759003 1.324997,-0.759003 1.577999,0z"/>
   <path id="svg_20" fill="#F5F5F5" d="m48.582001,129.529007l1.953999,5.860001l6.177002,0.046997c0.799999,0.007004 1.131001,1.026001 0.487999,1.501999l-4.968998,3.669998l1.863998,5.889008c0.242001,0.761993 -0.626999,1.393997 -1.278,0.927994l-5.025002,-3.591995l-5.024998,3.591995c-0.651001,0.466003 -1.518002,-0.166 -1.278,-0.927994l1.863998,-5.889008l-4.968998,-3.669998c-0.643002,-0.475998 -0.312,-1.494995 0.487999,-1.501999l6.176998,-0.046997l1.954002,-5.860001c0.251999,-0.758011 1.324997,-0.758011 1.577999,0z"/>
   <path id="svg_21" fill="#F5F5F5" d="m72.375,22.537003l1.954002,5.860001l6.176994,0.046997c0.800003,0.007004 1.131004,1.027 0.488007,1.502007l-4.969002,3.668999l1.863998,5.889c0.241997,0.762001 -0.626999,1.393997 -1.278,0.927994l-5.025002,-3.591995l-5.025002,3.591995c-0.650993,0.466003 -1.517998,-0.166 -1.278,-0.927994l1.864006,-5.889l-4.969002,-3.668999c-0.643002,-0.476006 -0.312,-1.496002 0.487999,-1.502007l6.177002,-0.046997l1.953995,-5.860001c0.252007,-0.759003 1.325005,-0.759003 1.578003,0z"/>
   <path id="svg_22" fill="#F5F5F5" d="m72.375,53.190994l1.954002,5.860001l6.176994,0.046997c0.800003,0.007004 1.131004,1.026001 0.488007,1.501999l-4.969002,3.669998l1.863998,5.889008c0.241997,0.761993 -0.626999,1.393997 -1.278,0.927994l-5.025002,-3.591995l-5.025002,3.591995c-0.650993,0.464996 -1.517998,-0.166 -1.278,-0.927994l1.864006,-5.889008l-4.969002,-3.669998c-0.643002,-0.475998 -0.312,-1.494995 0.487999,-1.501999l6.177002,-0.046997l1.953995,-5.860001c0.252007,-0.757996 1.325005,-0.757996 1.578003,0z"/>
   <path id="svg_23" fill="#F5F5F5" d="m72.375,83.845993l1.954002,5.860001l6.176994,0.046997c0.800003,0.007004 1.131004,1.026001 0.488007,1.501999l-4.969002,3.669998l1.863998,5.889008c0.241997,0.761993 -0.626999,1.393997 -1.278,0.927994l-5.025002,-3.591995l-5.025002,3.591995c-0.650993,0.464996 -1.517998,-0.164993 -1.278,-0.927994l1.864006,-5.889008l-4.969002,-3.669998c-0.643002,-0.475998 -0.312,-1.494995 0.487999,-1.501999l6.177002,-0.046997l1.953995,-5.860001c0.252007,-0.758987 1.325005,-0.758987 1.578003,0z"/>
   <path id="svg_24" fill="#F5F5F5" d="m72.375,114.5l1.954002,5.860001l6.176994,0.046997c0.800003,0.007004 1.131004,1.027008 0.488007,1.501999l-4.969002,3.669998l1.863998,5.889008c0.241997,0.761993 -0.626999,1.393997 -1.278,0.927994l-5.025002,-3.591995l-5.025002,3.591995c-0.650993,0.464996 -1.517998,-0.166 -1.278,-0.927994l1.864006,-5.889008l-4.969002,-3.669998c-0.643002,-0.473999 -0.312,-1.494995 0.487999,-1.501999l6.177002,-0.046997l1.953995,-5.860001c0.252007,-0.759003 1.325005,-0.759003 1.578003,0z"/>
   <path id="svg_25" fill="#F5F5F5" d="m72.375,145.154007l1.954002,5.860001l6.176994,0.046997c0.800003,0.007004 1.131004,1.026001 0.488007,1.501999l-4.969002,3.669998l1.863998,5.889008c0.241997,0.761993 -0.626999,1.393997 -1.278,0.927994l-5.025002,-3.591995l-5.025002,3.591995c-0.650993,0.464996 -1.517998,-0.166 -1.278,-0.927994l1.864006,-5.889008l-4.969002,-3.669998c-0.643002,-0.475998 -0.312,-1.494995 0.487999,-1.501999l6.177002,-0.046997l1.953995,-5.860001c0.252007,-0.758011 1.325005,-0.758011 1.578003,0z"/>
   <path id="svg_26" fill="#F5F5F5" d="m96.168999,37.566002l1.954002,5.859993l6.176994,0.047012c0.800003,0.006989 1.131004,1.026993 0.488007,1.501999l-4.969002,3.669998l1.863998,5.888992c0.241997,0.762009 -0.626999,1.394012 -1.278,0.928009l-5.025002,-3.59201l-5.025002,3.59201c-0.650993,0.464996 -1.517998,-0.166 -1.278,-0.928009l1.864006,-5.888992l-4.969002,-3.669998c-0.642998,-0.475998 -0.312004,-1.49501 0.487999,-1.501999l6.177002,-0.047012l1.953995,-5.859993c0.251007,-0.758003 1.325005,-0.758003 1.578003,0z"/>
   <path id="svg_27" fill="#F5F5F5" d="m96.168999,68.220993l1.954002,5.860001l6.176994,0.046997c0.800003,0.007004 1.131004,1.027008 0.488007,1.501999l-4.969002,3.669998l1.863998,5.889008c0.241997,0.761993 -0.626999,1.393997 -1.278,0.927994l-5.025002,-3.591995l-5.025002,3.591995c-0.650993,0.464996 -1.517998,-0.164993 -1.278,-0.927994l1.864006,-5.889008l-4.969002,-3.669998c-0.642998,-0.473999 -0.312004,-1.494995 0.487999,-1.501999l6.177002,-0.046997l1.953995,-5.860001c0.251007,-0.758987 1.325005,-0.758987 1.578003,0z"/>
   <path id="svg_28" fill="#F5F5F5" d="m96.168999,98.875l1.954002,5.860001l6.176994,0.046997c0.800003,0.007004 1.131004,1.026001 0.488007,1.501999l-4.969002,3.669998l1.863998,5.889008c0.241997,0.761993 -0.626999,1.393997 -1.278,0.927994l-5.025002,-3.591995l-5.025002,3.591995c-0.650993,0.464996 -1.517998,-0.166 -1.278,-0.927994l1.864006,-5.889008l-4.969002,-3.669998c-0.642998,-0.475998 -0.312004,-1.494995 0.487999,-1.501999l6.177002,-0.046997l1.953995,-5.860001c0.251007,-0.759003 1.325005,-0.759003 1.578003,0z"/>
   <path id="svg_29" fill="#F5F5F5" d="m96.168999,129.529007l1.954002,5.860001l6.176994,0.046997c0.800003,0.007004 1.131004,1.026001 0.488007,1.501999l-4.969002,3.669998l1.863998,5.889008c0.241997,0.761993 -0.626999,1.393997 -1.278,0.927994l-5.025002,-3.591995l-5.025002,3.591995c-0.650993,0.466003 -1.517998,-0.166 -1.278,-0.927994l1.864006,-5.889008l-4.969002,-3.669998c-0.642998,-0.475998 -0.312004,-1.494995 0.487999,-1.501999l6.177002,-0.046997l1.953995,-5.860001c0.251007,-0.758011 1.325005,-0.758011 1.578003,0z"/>
   <path id="svg_30" fill="#F5F5F5" d="m119.961998,22.537003l1.954002,5.860001l6.177002,0.046997c0.800003,0.007004 1.130997,1.027 0.487991,1.502007l-4.968994,3.668999l1.863998,5.889c0.241997,0.762001 -0.626999,1.393997 -1.278,0.927994l-5.026001,-3.590996l-5.025002,3.591995c-0.651001,0.466003 -1.517998,-0.166 -1.278,-0.927994l1.864006,-5.889l-4.969002,-3.668999c-0.643005,-0.476006 -0.312004,-1.496002 0.487999,-1.502007l6.177002,-0.046997l1.953995,-5.860001c0.253006,-0.760002 1.326004,-0.760002 1.579002,-0.000999z"/>
   <path id="svg_31" fill="#F5F5F5" d="m119.961998,53.190994l1.954002,5.860001l6.177002,0.046997c0.800003,0.007004 1.130997,1.026001 0.487991,1.501999l-4.968994,3.669998l1.863998,5.889008c0.241997,0.761993 -0.626999,1.393997 -1.278,0.927994l-5.026001,-3.591995l-5.025002,3.591995c-0.651001,0.464996 -1.517998,-0.166 -1.278,-0.927994l1.864006,-5.889008l-4.969002,-3.669998c-0.643005,-0.475998 -0.312004,-1.494995 0.487999,-1.501999l6.177002,-0.046997l1.953995,-5.860001c0.253006,-0.757996 1.326004,-0.757996 1.579002,0z"/>
   <path id="svg_32" fill="#F5F5F5" d="m119.961998,83.845993l1.954002,5.860001l6.177002,0.046997c0.800003,0.007004 1.130997,1.026001 0.487991,1.501999l-4.968994,3.669998l1.863998,5.889008c0.241997,0.761993 -0.626999,1.393997 -1.278,0.927994l-5.026001,-3.593002l-5.025002,3.59201c-0.651001,0.464996 -1.517998,-0.166 -1.278,-0.928009l1.864006,-5.888992l-4.969002,-3.669998c-0.643005,-0.475998 -0.312004,-1.49501 0.487999,-1.501999l6.177002,-0.047012l1.953995,-5.860001c0.253006,-0.75798 1.326004,-0.75798 1.579002,0.001007z"/>
   <path id="svg_33" fill="#F5F5F5" d="m119.961998,114.5l1.954002,5.860001l6.177002,0.046997c0.800003,0.007004 1.130997,1.027008 0.487991,1.501999l-4.968994,3.669998l1.863998,5.889008c0.241997,0.761993 -0.626999,1.393997 -1.278,0.927994l-5.026001,-3.591995l-5.025002,3.591995c-0.651001,0.464996 -1.517998,-0.166 -1.278,-0.927994l1.864006,-5.889008l-4.969002,-3.669998c-0.643005,-0.473999 -0.312004,-1.494995 0.487999,-1.501999l6.177002,-0.046997l1.953995,-5.860001c0.253006,-0.759003 1.326004,-0.759003 1.579002,0z"/>
   <path id="svg_34" fill="#F5F5F5" d="m119.961998,145.154007l1.954002,5.860001l6.177002,0.046997c0.800003,0.007004 1.130997,1.026001 0.487991,1.501999l-4.968994,3.669998l1.863998,5.889008c0.241997,0.761993 -0.626999,1.393997 -1.278,0.927994l-5.026001,-3.591995l-5.025002,3.591995c-0.651001,0.464996 -1.517998,-0.166 -1.278,-0.927994l1.864006,-5.889008l-4.969002,-3.669998c-0.643005,-0.475998 -0.312004,-1.494995 0.487999,-1.501999l6.177002,-0.046997l1.953995,-5.860001c0.253006,-0.758011 1.326004,-0.758011 1.579002,0z"/>
   <path id="svg_35" fill="#F5F5F5" d="m143.755005,37.566002l1.953995,5.859993l6.177002,0.047012c0.800003,0.006989 1.130997,1.026993 0.488007,1.501999l-4.969009,3.669998l1.864014,5.888992c0.241989,0.762009 -0.627014,1.394012 -1.278,0.928009l-5.025009,-3.59201l-5.024994,3.59201c-0.651001,0.464996 -1.518005,-0.166 -1.278,-0.928009l1.863998,-5.888992l-4.969009,-3.669998c-0.64299,-0.475998 -0.311996,-1.49501 0.488007,-1.501999l6.177002,-0.047012l1.953995,-5.859993c0.252991,-0.758003 1.324997,-0.758003 1.578003,0z"/>
   <path id="svg_36" fill="#F5F5F5" d="m143.755005,68.220993l1.953995,5.860001l6.177002,0.046997c0.800003,0.007004 1.130997,1.027008 0.488007,1.501999l-4.969009,3.669998l1.864014,5.889008c0.241989,0.761993 -0.627014,1.393997 -1.278,0.927994l-5.025009,-3.591995l-5.024994,3.591995c-0.651001,0.464996 -1.518005,-0.164993 -1.278,-0.927994l1.863998,-5.889008l-4.969009,-3.669998c-0.64299,-0.473999 -0.311996,-1.494995 0.488007,-1.501999l6.177002,-0.046997l1.953995,-5.860001c0.252991,-0.758987 1.324997,-0.758987 1.578003,0z"/>
   <path id="svg_37" fill="#F5F5F5" d="m143.755005,98.875l1.953995,5.860001l6.177002,0.046997c0.800003,0.007004 1.130997,1.026001 0.488007,1.501999l-4.969009,3.669998l1.864014,5.889008c0.241989,0.761993 -0.627014,1.393997 -1.278,0.927994l-5.025009,-3.591995l-5.024994,3.591995c-0.651001,0.464996 -1.518005,-0.166 -1.278,-0.927994l1.863998,-5.889008l-4.969009,-3.669998c-0.64299,-0.475998 -0.311996,-1.494995 0.488007,-1.501999l6.177002,-0.046997l1.953995,-5.860001c0.252991,-0.759003 1.324997,-0.759003 1.578003,0z"/>
   <path id="svg_38" fill="#F5F5F5" d="m143.755005,129.529007l1.953995,5.860001l6.177002,0.046997c0.800003,0.007004 1.130997,1.026001 0.488007,1.501999l-4.969009,3.669998l1.864014,5.889008c0.241989,0.761993 -0.627014,1.393997 -1.278,0.927994l-5.025009,-3.591995l-5.024994,3.591995c-0.651001,0.466003 -1.518005,-0.166 -1.278,-0.927994l1.863998,-5.889008l-4.969009,-3.669998c-0.64299,-0.475998 -0.311996,-1.494995 0.488007,-1.501999l6.177002,-0.046997l1.953995,-5.860001c0.252991,-0.758011 1.324997,-0.758011 1.578003,0z"/>
   <path id="svg_39" fill="#F5F5F5" d="m167.548996,22.537003l1.953995,5.860001l6.177002,0.046997c0.800003,0.007004 1.130997,1.027 0.488007,1.502007l-4.969009,3.668999l1.864014,5.889c0.241989,0.762001 -0.627014,1.393997 -1.278015,0.927994l-5.024994,-3.591995l-5.024994,3.591995c-0.651001,0.466003 -1.518005,-0.166 -1.278,-0.927994l1.863998,-5.889l-4.969009,-3.668999c-0.64299,-0.476006 -0.311996,-1.496002 0.488007,-1.502007l6.177002,-0.046997l1.953995,-5.860001c0.251007,-0.759003 1.325012,-0.759003 1.578003,0z"/>
   <path id="svg_40" fill="#F5F5F5" d="m167.548996,53.190994l1.953995,5.860001l6.177002,0.046997c0.800003,0.007004 1.130997,1.026001 0.488007,1.501999l-4.969009,3.669998l1.864014,5.889008c0.241989,0.761993 -0.627014,1.393997 -1.278015,0.927994l-5.024994,-3.591995l-5.024994,3.591995c-0.651001,0.464996 -1.518005,-0.166 -1.278,-0.927994l1.863998,-5.889008l-4.969009,-3.669998c-0.64299,-0.475998 -0.311996,-1.494995 0.488007,-1.501999l6.177002,-0.046997l1.953995,-5.860001c0.251007,-0.757996 1.325012,-0.757996 1.578003,0z"/>
   <path id="svg_41" fill="#F5F5F5" d="m167.548996,83.845993l1.953995,5.860001l6.177002,0.046997c0.800003,0.007004 1.130997,1.026001 0.488007,1.501999l-4.969009,3.669998l1.864014,5.889008c0.241989,0.761993 -0.627014,1.393997 -1.278015,0.927994l-5.024994,-3.591995l-5.024994,3.591995c-0.651001,0.464996 -1.518005,-0.164993 -1.278,-0.927994l1.863998,-5.889008l-4.969009,-3.669998c-0.64299,-0.475998 -0.311996,-1.494995 0.488007,-1.501999l6.177002,-0.046997l1.953995,-5.860001c0.251007,-0.758987 1.325012,-0.758987 1.578003,0z"/>
   <path id="svg_42" fill="#F5F5F5" d="m167.548996,114.5l1.953995,5.860001l6.177002,0.046997c0.800003,0.007004 1.130997,1.027008 0.488007,1.501999l-4.969009,3.669998l1.864014,5.889008c0.241989,0.761993 -0.627014,1.393997 -1.278015,0.927994l-5.024994,-3.591995l-5.024994,3.591995c-0.651001,0.464996 -1.518005,-0.166 -1.278,-0.927994l1.863998,-5.889008l-4.969009,-3.669998c-0.64299,-0.473999 -0.311996,-1.494995 0.488007,-1.501999l6.177002,-0.046997l1.953995,-5.860001c0.251007,-0.759003 1.325012,-0.759003 1.578003,0z"/>
   <path id="svg_43" fill="#F5F5F5" d="m167.548996,145.154007l1.953995,5.860001l6.177002,0.046997c0.800003,0.007004 1.130997,1.026001 0.488007,1.501999l-4.969009,3.669998l1.864014,5.889008c0.241989,0.761993 -0.627014,1.393997 -1.278015,0.927994l-5.024994,-3.591995l-5.024994,3.591995c-0.651001,0.464996 -1.518005,-0.166 -1.278,-0.927994l1.863998,-5.889008l-4.969009,-3.669998c-0.64299,-0.475998 -0.311996,-1.494995 0.488007,-1.501999l6.177002,-0.046997l1.953995,-5.860001c0.251007,-0.758011 1.325012,-0.758011 1.578003,0z"/>
   <path id="svg_44" fill="#F5F5F5" d="m191.341995,37.566002l1.953995,5.859993l6.177002,0.047012c0.800003,0.006989 1.130997,1.026993 0.488007,1.501999l-4.969009,3.669998l1.863998,5.888992c0.242004,0.762009 -0.626999,1.394012 -1.278,0.928009l-5.024994,-3.59201l-5.024994,3.59201c-0.651001,0.464996 -1.518005,-0.166 -1.278,-0.928009l1.863998,-5.888992l-4.969009,-3.669998c-0.64299,-0.475998 -0.311996,-1.49501 0.488007,-1.501999l6.177002,-0.047012l1.953995,-5.859993c0.252014,-0.758003 1.325012,-0.758003 1.578003,0z"/>
   <path id="svg_45" fill="#F5F5F5" d="m191.341995,68.220993l1.953995,5.860001l6.177002,0.046997c0.800003,0.007004 1.130997,1.027008 0.488007,1.501999l-4.969009,3.669998l1.863998,5.889008c0.242004,0.761993 -0.626999,1.393997 -1.278,0.927994l-5.024994,-3.591995l-5.024994,3.591995c-0.651001,0.464996 -1.518005,-0.164993 -1.278,-0.927994l1.863998,-5.889008l-4.969009,-3.669998c-0.64299,-0.473999 -0.311996,-1.494995 0.488007,-1.501999l6.177002,-0.046997l1.953995,-5.860001c0.252014,-0.758987 1.325012,-0.758987 1.578003,0z"/>
   <path id="svg_46" fill="#F5F5F5" d="m191.341995,98.875l1.953995,5.860001l6.177002,0.046997c0.800003,0.007004 1.130997,1.026001 0.488007,1.501999l-4.969009,3.669998l1.863998,5.889008c0.242004,0.761993 -0.626999,1.393997 -1.278,0.927994l-5.024994,-3.591995l-5.024994,3.591995c-0.651001,0.464996 -1.518005,-0.166 -1.278,-0.927994l1.863998,-5.889008l-4.969009,-3.669998c-0.64299,-0.475998 -0.311996,-1.494995 0.488007,-1.501999l6.177002,-0.046997l1.953995,-5.860001c0.252014,-0.759003 1.325012,-0.759003 1.578003,0z"/>
   <path id="svg_47" fill="#F5F5F5" d="m191.341995,129.529007l1.953995,5.860001l6.177002,0.046997c0.800003,0.007004 1.130997,1.026001 0.488007,1.501999l-4.969009,3.669998l1.863998,5.889008c0.242004,0.761993 -0.626999,1.393997 -1.278,0.927994l-5.024994,-3.591995l-5.024994,3.591995c-0.651001,0.466003 -1.518005,-0.166 -1.278,-0.927994l1.863998,-5.889008l-4.969009,-3.669998c-0.64299,-0.475998 -0.311996,-1.494995 0.488007,-1.501999l6.177002,-0.046997l1.953995,-5.860001c0.252014,-0.758011 1.325012,-0.758011 1.578003,0z"/>
   <path id="svg_48" fill="#F5F5F5" d="m215.136002,22.537003l1.953995,5.860001l6.177002,0.046997c0.800003,0.007004 1.130997,1.027 0.488007,1.502007l-4.969009,3.668999l1.864014,5.889c0.241989,0.762001 -0.627014,1.393997 -1.278,0.927994l-5.025009,-3.591995l-5.024994,3.591995c-0.651001,0.466003 -1.518005,-0.166 -1.278,-0.927994l1.863998,-5.889l-4.969009,-3.668999c-0.64299,-0.476006 -0.311996,-1.496002 0.488007,-1.502007l6.177002,-0.046997l1.953995,-5.860001c0.251999,-0.759003 1.324005,-0.759003 1.578003,0z"/>
   <path id="svg_49" fill="#F5F5F5" d="m215.136002,53.190994l1.953995,5.860001l6.177002,0.046997c0.800003,0.007004 1.130997,1.026001 0.488007,1.501999l-4.969009,3.669998l1.864014,5.889008c0.241989,0.761993 -0.627014,1.393997 -1.278,0.927994l-5.025009,-3.591995l-5.024994,3.591995c-0.651001,0.464996 -1.518005,-0.166 -1.278,-0.927994l1.863998,-5.889008l-4.969009,-3.669998c-0.64299,-0.475998 -0.311996,-1.494995 0.488007,-1.501999l6.177002,-0.046997l1.953995,-5.860001c0.251999,-0.757996 1.324005,-0.757996 1.578003,0z"/>
   <path id="svg_50" fill="#F5F5F5" d="m215.136002,83.845993l1.953995,5.860001l6.177002,0.046997c0.800003,0.007004 1.130997,1.026001 0.488007,1.501999l-4.969009,3.669998l1.864014,5.889008c0.241989,0.761993 -0.627014,1.393997 -1.278,0.927994l-5.025009,-3.591995l-5.024994,3.591995c-0.651001,0.464996 -1.518005,-0.164993 -1.278,-0.927994l1.863998,-5.889008l-4.969009,-3.669998c-0.64299,-0.475998 -0.311996,-1.494995 0.488007,-1.501999l6.177002,-0.046997l1.953995,-5.860001c0.251999,-0.758987 1.324005,-0.758987 1.578003,0z"/>
   <path id="svg_51" fill="#F5F5F5" d="m215.136002,114.5l1.953995,5.860001l6.177002,0.046997c0.800003,0.007004 1.130997,1.027008 0.488007,1.501999l-4.969009,3.669998l1.864014,5.889008c0.241989,0.761993 -0.627014,1.393997 -1.278,0.927994l-5.025009,-3.591995l-5.024994,3.591995c-0.651001,0.464996 -1.518005,-0.166 -1.278,-0.927994l1.863998,-5.889008l-4.969009,-3.669998c-0.64299,-0.473999 -0.311996,-1.494995 0.488007,-1.501999l6.177002,-0.046997l1.953995,-5.860001c0.251999,-0.759003 1.324005,-0.759003 1.578003,0z"/>
   <path id="svg_52" fill="#F5F5F5" d="m215.136002,145.154007l1.953995,5.860001l6.177002,0.046997c0.800003,0.007004 1.130997,1.026001 0.488007,1.501999l-4.969009,3.669998l1.864014,5.889008c0.241989,0.761993 -0.627014,1.393997 -1.278,0.927994l-5.025009,-3.591995l-5.024994,3.591995c-0.651001,0.464996 -1.518005,-0.166 -1.278,-0.927994l1.863998,-5.889008l-4.969009,-3.669998c-0.64299,-0.475998 -0.311996,-1.494995 0.488007,-1.501999l6.177002,-0.046997l1.953995,-5.860001c0.251999,-0.758011 1.324005,-0.758011 1.578003,0z"/>
  </g>
  <g id="svg_53"/>
  <g id="svg_54"/>
  <g id="svg_55"/>
  <g id="svg_56"/>
  <g id="svg_57"/>
  <g id="svg_58"/>
  <g id="svg_59"/>
  <g id="svg_60"/>
  <g id="svg_61"/>
  <g id="svg_62"/>
  <g id="svg_63"/>
  <g id="svg_64"/>
  <g id="svg_65"/>
  <g id="svg_66"/>
  <g id="svg_67"/>
 </g>
</svg>