<?xml version="1.0" encoding="utf-8"?>
<!-- Generator: Adobe Illustrator 22.0.1, SVG Export Plug-In . SVG Version: 6.00 Build 0)  -->
<svg version="1.1" id="Layer_1" xmlns="http://www.w3.org/2000/svg" xmlns:xlink="http://www.w3.org/1999/xlink" x="0px" y="0px"
	 viewBox="0 0 511.9 337.3" style="enable-background:new 0 0 511.9 337.3;" xml:space="preserve">
<style type="text/css">
	.st0{fill:#FF4B55;}
	.st1{fill:#FFE15A;}
</style>
<path class="st0" d="M473.7,0H38.3C17.2,0,0,17.1,0,38.3v258.8c0,21.2,17.2,38.3,38.3,38.3h435.3c21.2,0,38.3-17.2,38.3-38.3V38.3
	C512,17.1,494.8,0,473.7,0z"/>
<path class="st1" d="M260.1,67.7l23.6,70.8l74.6,0.6c4.2,0,5.9,5.4,2.5,7.8l-60,44.3l22.5,71.1c1.3,4-3.3,7.3-6.7,4.8L256,223.8
	l-60.7,43.4c-3.4,2.4-7.9-0.9-6.7-4.8l22.5-71.1l-60-44.3c-3.4-2.5-1.6-7.8,2.5-7.8l74.6-0.6l23.6-70.8
	C253.2,63.7,258.8,63.7,260.1,67.7z"/>
</svg>
