<svg width="1519" height="1074" viewBox="0 0 1519 1074" fill="none" xmlns="http://www.w3.org/2000/svg">
<style>
    g {
        transform-box: fill-box;
        transform-origin: left bottom;
    }
</style>
<g filter="url(#filter0_d)">
    <path d="M1039 173.098L1144.65 105.5L1105.71 92.2017L1039 173.098ZM1039 173.098L1104.59 156.869L1144.65 105.5L1039 173.098ZM1144.69 166.589L1104.59 156.869L1039 173.098L1144.69 166.589ZM1039 173.098L1103.33 229.227L1144.69 166.589L1039 173.098ZM1039 173.098L1128.53 150.945L1144.67 127.65L1039 173.098ZM1144.68 154.897L1128.53 150.945L1039 173.098L1144.68 154.897Z" fill="url(#paint0_linear)"/>
    <path d="M1157.27 229.338L1160.52 229.345L1263.02 229.022L1157.27 229.338ZM1198.96 137.655L1217.06 151.748L1202.2 138.253L1198.96 137.655ZM1153.98 229.332L1157.27 229.338L1259.61 229.01L1153.98 229.332ZM1199.57 162.332L1202.85 162.776L1220.36 152.282L1199.57 162.332ZM1195.67 137.049L1213.72 151.206L1198.96 137.655L1195.67 137.049ZM1150.65 229.325L1153.98 229.332L1256.15 228.999L1150.65 229.325ZM1196.25 161.882L1199.57 162.332L1217.06 151.748L1196.25 161.882ZM1192.34 136.435L1210.33 150.657L1195.67 137.049L1192.34 136.435ZM1147.27 229.318L1150.65 229.325L1252.64 228.988L1147.27 229.318ZM1217.06 151.748L1220.36 152.282L1202.2 138.253L1217.06 151.748ZM1192.89 161.426L1196.25 161.882L1213.72 151.206L1192.89 161.426ZM1188.96 135.813L1206.9 150.1L1192.34 136.435L1188.96 135.813ZM1217.06 151.748L1199.57 162.332L1220.36 152.282L1217.06 151.748ZM1143.86 229.311L1147.27 229.318L1249.06 228.976L1143.86 229.311ZM1213.72 151.206L1217.06 151.748L1198.96 137.655L1213.72 151.206ZM1189.48 160.964L1192.89 161.426L1210.33 150.657L1189.48 160.964ZM1198.46 117.55L1255.37 144.391L1201.68 118.271L1198.46 117.55ZM1185.54 135.183L1203.42 149.536L1188.96 135.813L1185.54 135.183ZM1213.72 151.206L1196.25 161.882L1217.06 151.748L1213.72 151.206ZM1210.33 150.657L1213.72 151.206L1195.67 137.049L1210.33 150.657ZM1140.4 229.304L1143.86 229.311L1245.43 228.964L1140.4 229.304ZM1186.02 160.496L1189.48 160.964L1206.9 150.1L1186.02 160.496ZM1195.19 116.819L1252 143.743L1198.46 117.55L1195.19 116.819ZM1182.07 134.544L1199.89 148.963L1185.54 135.183L1182.07 134.544ZM1210.33 150.657L1192.89 161.426L1213.72 151.206L1210.33 150.657ZM1206.9 150.1L1210.33 150.657L1192.34 136.435L1206.9 150.1ZM1136.9 229.297L1140.4 229.304L1241.74 228.952L1136.9 229.297ZM1182.52 160.022L1186.02 160.496L1203.42 149.536L1182.52 160.022ZM1199.84 172.903L1203.13 173.28L1258.68 145.029L1199.84 172.903ZM1191.89 116.079L1248.58 143.086L1195.19 116.819L1191.89 116.079ZM1178.56 133.896L1196.3 148.383L1182.07 134.544L1178.56 133.896ZM1206.9 150.1L1189.48 160.964L1210.33 150.657L1206.9 150.1ZM1203.42 149.536L1206.9 150.1L1188.96 135.813L1203.42 149.536ZM1133.36 229.289L1136.9 229.297L1238 228.94L1133.36 229.289ZM1178.96 159.541L1182.52 160.022L1199.89 148.963L1178.96 159.541ZM1196.5 172.521L1199.84 172.903L1255.37 144.391L1196.5 172.521ZM1188.54 115.329L1245.11 142.418L1191.89 116.079L1188.54 115.329ZM1175 133.24L1192.67 147.793L1178.56 133.896L1175 133.24ZM1203.42 149.536L1186.02 160.496L1206.9 150.1L1203.42 149.536ZM1199.89 148.963L1203.42 149.536L1185.54 135.183L1199.89 148.963ZM1129.77 229.282L1133.36 229.289L1234.19 228.927L1129.77 229.282ZM1175.36 159.053L1178.96 159.541L1196.3 148.383L1175.36 159.053ZM1193.12 172.134L1196.5 172.521L1252 143.743L1193.12 172.134ZM1185.15 114.57L1241.59 141.74L1188.54 115.329L1185.15 114.57ZM1171.39 132.575L1188.99 147.196L1175 133.24L1171.39 132.575ZM1199.89 148.963L1182.52 160.022L1203.42 149.536L1199.89 148.963ZM1196.3 148.383L1199.89 148.963L1182.07 134.544L1196.3 148.383ZM1126.14 229.274L1129.77 229.282L1230.31 228.915L1126.14 229.274ZM1171.72 158.559L1175.36 159.053L1192.67 147.793L1171.72 158.559ZM1189.7 171.742L1193.12 172.134L1248.58 143.086L1189.7 171.742ZM1181.71 113.8L1238.01 141.051L1185.15 114.57L1181.71 113.8ZM1167.73 131.901L1185.25 146.59L1171.39 132.575L1167.73 131.901ZM1196.3 148.383L1178.96 159.541L1199.89 148.963L1196.3 148.383ZM1192.67 147.793L1196.3 148.383L1178.56 133.896L1192.67 147.793ZM1122.46 229.267L1126.14 229.274L1226.38 228.902L1122.46 229.267ZM1168.01 158.058L1171.72 158.559L1188.99 147.196L1168.01 158.058ZM1186.22 171.345L1189.7 171.742L1245.11 142.418L1186.22 171.345ZM1178.23 113.02L1234.38 140.352L1181.71 113.8L1178.23 113.02ZM1164.02 131.217L1181.45 145.975L1167.73 131.901L1164.02 131.217ZM1192.67 147.793L1175.36 159.053L1196.3 148.383L1192.67 147.793ZM1188.99 147.196L1192.67 147.793L1175 133.24L1188.99 147.196ZM1118.73 229.259L1122.46 229.267L1222.37 228.889L1118.73 229.259ZM1164.26 157.549L1168.01 158.058L1185.25 146.59L1164.26 157.549ZM1255.37 144.391L1258.68 145.029L1201.68 118.271L1255.37 144.391ZM1182.71 170.942L1186.22 171.345L1241.59 141.74L1182.71 170.942ZM1174.7 112.229L1230.69 139.641L1178.23 113.02L1174.7 112.229ZM1160.26 130.524L1177.6 145.35L1164.02 131.217L1160.26 130.524ZM1188.99 147.196L1171.72 158.559L1192.67 147.793L1188.99 147.196ZM1185.25 146.59L1188.99 147.196L1171.39 132.575L1185.25 146.59ZM1114.95 229.251L1118.73 229.259L1218.3 228.875L1114.95 229.251ZM1160.46 157.034L1164.26 157.549L1181.45 145.975L1160.46 157.034ZM1252 143.743L1255.37 144.391L1198.46 117.55L1252 143.743ZM1179.14 170.533L1182.71 170.942L1238.01 141.051L1179.14 170.533ZM1259.61 229.01L1157.27 229.338L1263.02 229.022L1259.61 229.01ZM1171.12 111.428L1226.94 138.919L1174.7 112.229L1171.12 111.428ZM1156.44 129.82L1173.69 144.717L1160.26 130.524L1156.44 129.82ZM1255.37 144.391L1199.84 172.903L1258.68 145.029L1255.37 144.391ZM1185.25 146.59L1168.01 158.058L1188.99 147.196L1185.25 146.59ZM1181.45 145.975L1185.25 146.59L1167.73 131.901L1181.45 145.975ZM1111.13 229.244L1114.95 229.251L1214.16 228.862L1111.13 229.244ZM1156.6 156.511L1160.46 157.034L1177.6 145.35L1156.6 156.511ZM1248.58 143.086L1252 143.743L1195.19 116.819L1248.58 143.086ZM1175.52 170.119L1179.14 170.533L1234.38 140.352L1175.52 170.119ZM1256.15 228.999L1153.98 229.332L1259.61 229.01L1256.15 228.999ZM1167.5 110.616L1223.13 138.186L1171.12 111.428L1167.5 110.616ZM1152.57 129.107L1169.73 144.074L1156.44 129.82L1152.57 129.107ZM1252 143.743L1196.5 172.521L1255.37 144.391L1252 143.743ZM1181.45 145.975L1164.26 157.549L1185.25 146.59L1181.45 145.975ZM1177.6 145.35L1181.45 145.975L1164.02 131.217L1177.6 145.35ZM1107.25 229.236L1111.13 229.244L1209.95 228.848L1107.25 229.236ZM1152.68 155.981L1156.6 156.511L1173.69 144.717L1152.68 155.981ZM1245.11 142.418L1248.58 143.086L1191.89 116.079L1245.11 142.418ZM1171.86 169.699L1175.52 170.119L1230.69 139.641L1171.86 169.699ZM1252.64 228.988L1150.65 229.325L1256.15 228.999L1252.64 228.988ZM1163.82 109.792L1219.26 137.441L1167.5 110.616L1163.82 109.792ZM1148.65 128.384L1165.7 143.421L1152.57 129.107L1148.65 128.384ZM1248.58 143.086L1193.12 172.134L1252 143.743L1248.58 143.086ZM1177.6 145.35L1160.46 157.034L1181.45 145.975L1177.6 145.35ZM1173.69 144.717L1177.6 145.35L1160.26 130.524L1173.69 144.717ZM1103.33 229.227L1107.25 229.236L1205.66 228.834L1103.33 229.227ZM1148.71 155.443L1152.68 155.981L1169.73 144.074L1148.71 155.443ZM1241.59 141.74L1245.11 142.418L1188.54 115.329L1241.59 141.74ZM1168.14 169.274L1171.86 169.699L1226.94 138.919L1168.14 169.274ZM1249.06 228.976L1147.27 229.318L1252.64 228.988L1249.06 228.976ZM1160.09 108.958L1215.32 136.684L1163.82 109.792L1160.09 108.958ZM1144.67 127.651L1161.61 142.759L1148.65 128.384L1144.67 127.651ZM1245.11 142.418L1189.7 171.742L1248.58 143.086L1245.11 142.418ZM1173.69 144.717L1156.6 156.511L1177.6 145.35L1173.69 144.717ZM1169.73 144.074L1173.69 144.717L1156.44 129.82L1169.73 144.074ZM1144.68 154.897L1148.71 155.443L1165.7 143.421L1144.68 154.897ZM1238.01 141.051L1241.59 141.74L1185.15 114.57L1238.01 141.051ZM1164.37 168.842L1168.14 169.274L1223.13 138.186L1164.37 168.842ZM1156.31 108.111L1211.32 135.914L1160.09 108.958L1156.31 108.111ZM1245.43 228.964L1143.86 229.311L1249.06 228.976L1245.43 228.964ZM1169.73 144.074L1152.68 155.981L1173.69 144.717L1169.73 144.074ZM1241.59 141.74L1186.22 171.345L1245.11 142.418L1241.59 141.74ZM1165.7 143.421L1169.73 144.074L1152.57 129.107L1165.7 143.421ZM1234.38 140.352L1238.01 141.051L1181.71 113.8L1234.38 140.352ZM1160.54 168.404L1164.37 168.842L1219.26 137.441L1160.54 168.404ZM1152.48 107.253L1207.26 135.132L1156.31 108.111L1152.48 107.253ZM1241.74 228.952L1140.4 229.304L1245.43 228.964L1241.74 228.952ZM1165.7 143.421L1148.71 155.443L1169.73 144.074L1165.7 143.421ZM1238.01 141.051L1182.71 170.942L1241.59 141.74L1238.01 141.051ZM1161.61 142.759L1165.7 143.421L1148.65 128.384L1161.61 142.759Z" fill="url(#paint1_linear)"/>
    <path d="M1198.92 133.527L1144.69 166.589L1103.33 229.227L1198.92 133.527Z" fill="url(#paint2_linear)"/>
    <path d="M1230.69 139.641L1234.38 140.351L1178.23 113.02L1230.69 139.641ZM1156.66 167.96L1160.54 168.404L1215.32 136.684L1156.66 167.96ZM1148.6 106.382L1203.12 134.336L1152.48 107.253L1148.6 106.382ZM1238 228.939L1136.9 229.296L1241.74 228.952L1238 228.939ZM1161.61 142.758L1144.68 154.897L1165.7 143.421L1161.61 142.758ZM1234.38 140.351L1179.14 170.533L1238.01 141.051L1234.38 140.351ZM1226.94 138.919L1230.69 139.641L1174.7 112.229L1226.94 138.919ZM1152.73 167.509L1156.66 167.96L1211.32 135.914L1152.73 167.509ZM1144.65 105.499L1198.92 133.527L1148.6 106.382L1144.65 105.499ZM1234.19 228.927L1133.36 229.289L1238 228.939L1234.19 228.927ZM1230.69 139.641L1175.52 170.119L1234.38 140.351L1230.69 139.641ZM1223.13 138.186L1226.94 138.919L1171.12 111.428L1223.13 138.186ZM1148.74 167.052L1152.73 167.509L1207.26 135.131L1148.74 167.052ZM1230.31 228.914L1129.77 229.282L1234.19 228.927L1230.31 228.914ZM1226.94 138.919L1171.86 169.699L1230.69 139.641L1226.94 138.919ZM1219.26 137.441L1223.13 138.186L1167.5 110.615L1219.26 137.441ZM1144.69 166.589L1148.74 167.052L1203.12 134.336L1144.69 166.589ZM1226.38 228.901L1126.14 229.274L1230.31 228.914L1226.38 228.901ZM1223.13 138.186L1168.14 169.273L1226.94 138.919L1223.13 138.186ZM1215.32 136.684L1219.26 137.441L1163.82 109.792L1215.32 136.684ZM1222.37 228.888L1122.46 229.266L1226.38 228.901L1222.37 228.888ZM1219.26 137.441L1164.37 168.842L1223.13 138.186L1219.26 137.441ZM1211.32 135.914L1215.32 136.684L1160.09 108.957L1211.32 135.914ZM1218.3 228.875L1118.73 229.259L1222.37 228.888L1218.3 228.875ZM1215.32 136.684L1160.54 168.404L1219.26 137.441L1215.32 136.684ZM1207.26 135.131L1211.32 135.914L1156.31 108.111L1207.26 135.131ZM1214.16 228.861L1114.95 229.251L1218.3 228.875L1214.16 228.861ZM1211.32 135.914L1156.66 167.96L1215.32 136.684L1211.32 135.914ZM1203.12 134.336L1207.26 135.131L1152.48 107.253L1203.12 134.336ZM1209.95 228.848L1111.13 229.243L1214.16 228.861L1209.95 228.848ZM1207.26 135.131L1152.73 167.509L1211.32 135.914L1207.26 135.131ZM1198.92 133.527L1203.12 134.336L1148.6 106.382L1198.92 133.527ZM1205.66 228.834L1107.25 229.235L1209.95 228.848L1205.66 228.834ZM1203.12 134.336L1148.74 167.052L1207.26 135.131L1203.12 134.336ZM1201.3 228.819L1103.33 229.227L1205.66 228.834L1201.3 228.819ZM1198.92 133.527L1144.69 166.589L1203.12 134.336L1198.92 133.527ZM1259.61 229.01L1263.02 229.021L1469 105.234L1259.61 229.01Z" fill="url(#paint3_linear)"/>
    <path d="M1144.65 105.5L1419.82 78.8677L1105.71 92.2017L1144.65 105.5Z" fill="url(#paint4_linear)"/>
    <path d="M1256.15 228.999L1259.61 229.01L1466.43 103.858L1256.15 228.999ZM1252.64 228.988L1256.15 228.999L1463.81 102.452L1252.64 228.988ZM1249.06 228.976L1252.64 228.988L1461.13 101.013L1249.06 228.976ZM1245.43 228.964L1249.06 228.976L1458.38 99.542L1245.43 228.964Z" fill="url(#paint5_linear)"/>
    <path d="M1419.82 78.8677L1196.83 50L1105.71 92.2018L1419.82 78.8677Z" fill="url(#paint6_linear)"/>
    <path d="M1241.74 228.952L1245.43 228.964L1455.57 98.0366L1241.74 228.952ZM1238 228.939L1241.74 228.952L1452.7 96.4966L1238 228.939ZM1234.19 228.927L1238 228.939L1449.76 94.9204L1234.19 228.927Z" fill="url(#paint7_linear)"/>
    <path d="M1198.92 133.527L1103.33 229.227L1419.82 78.8677L1198.92 133.527Z" fill="url(#paint8_linear)"/>
    <path d="M1230.31 228.915L1234.19 228.927L1446.75 93.3071L1230.31 228.915Z" fill="url(#paint9_linear)"/>
    <path d="M1103.33 229.227L1201.3 228.819L1419.82 78.8677L1103.33 229.227Z" fill="url(#paint10_linear)"/>
    <path d="M1226.38 228.902L1230.31 228.915L1443.67 91.6543L1226.38 228.902Z" fill="url(#paint11_linear)"/>
    <path d="M1144.65 105.5L1198.92 133.527L1419.82 78.8677L1144.65 105.5Z" fill="url(#paint12_linear)"/>
    <path d="M1222.37 228.888L1226.38 228.902L1440.51 89.9612L1222.37 228.888ZM1218.3 228.875L1222.37 228.888L1437.28 88.2265L1218.3 228.875ZM1214.16 228.862L1218.3 228.875L1433.96 86.4483L1214.16 228.862ZM1466.43 103.858L1259.61 229.01L1469 105.235L1466.43 103.858ZM1209.95 228.848L1214.16 228.862L1430.56 84.6251L1209.95 228.848ZM1463.81 102.451L1256.15 228.999L1466.43 103.858L1463.81 102.451ZM1205.66 228.834L1209.95 228.848L1427.07 82.7552L1205.66 228.834ZM1461.13 101.013L1252.64 228.988L1463.81 102.451L1461.13 101.013ZM1201.3 228.819L1205.66 228.834L1423.49 80.8367L1201.3 228.819ZM1458.38 99.5419L1249.06 228.976L1461.13 101.013L1458.38 99.5419ZM1455.57 98.0369L1245.43 228.964L1458.38 99.5419L1455.57 98.0369ZM1452.7 96.4969L1241.74 228.952L1455.57 98.0369L1452.7 96.4969ZM1449.76 94.9206L1238 228.94L1452.7 96.4969L1449.76 94.9206ZM1446.75 93.3069L1234.19 228.927L1449.76 94.9206L1446.75 93.3069ZM1443.67 91.6542L1230.31 228.914L1446.75 93.3069L1443.67 91.6542ZM1440.51 89.9612L1226.38 228.902L1443.67 91.6542L1440.51 89.9612ZM1437.28 88.2265L1222.37 228.888L1440.51 89.9612L1437.28 88.2265ZM1433.96 86.4483L1218.3 228.875L1437.28 88.2265L1433.96 86.4483ZM1430.56 84.6251L1214.16 228.862L1433.96 86.4483L1430.56 84.6251ZM1427.07 82.7552L1209.95 228.848L1430.56 84.6251L1427.07 82.7552ZM1423.49 80.8367L1205.66 228.834L1427.07 82.7552L1423.49 80.8367ZM1419.82 78.8677L1201.3 228.819L1423.49 80.8367L1419.82 78.8677Z" fill="url(#paint13_linear)"/>
</g>
<g filter="url(#filter1_d)" transform="scale(0.75)">
    <path d="M192.496 880.48L111.65 929.764L50 1023.14L192.496 880.48Z" fill="url(#paint14_linear)"/>
    <path d="M192.496 880.48L50 1023.14L521.785 799L192.496 880.48Z" fill="url(#paint15_linear)"/>
    <path d="M111.604 838.7L192.496 880.48L521.785 799L111.604 838.7Z" fill="url(#paint16_linear)"/>
</g>
<defs>
<filter id="filter0_d" x="989" y="0" width="530" height="279.345" filterUnits="userSpaceOnUse" color-interpolation-filters="sRGB">
    <feFlood flood-opacity="0" result="BackgroundImageFix"/>
    <feColorMatrix in="SourceAlpha" type="matrix" values="0 0 0 0 0 0 0 0 0 0 0 0 0 0 0 0 0 0 127 0"/>
    <feOffset/>
    <feGaussianBlur stdDeviation="25"/>
    <feColorMatrix type="matrix" values="0 0 0 0 0.988235 0 0 0 0 0.0705882 0 0 0 0 0.686275 0 0 0 1 0"/>
    <feBlend mode="normal" in2="BackgroundImageFix" result="effect1_dropShadow"/>
    <feBlend mode="normal" in="SourceGraphic" in2="effect1_dropShadow" result="shape"/>
</filter>
<filter id="filter1_d" x="0" y="749" width="571.785" height="324.138" filterUnits="userSpaceOnUse" color-interpolation-filters="sRGB">
    <feFlood flood-opacity="0" result="BackgroundImageFix"/>
    <feColorMatrix in="SourceAlpha" type="matrix" values="0 0 0 0 0 0 0 0 0 0 0 0 0 0 0 0 0 0 127 0"/>
    <feOffset/>
    <feGaussianBlur stdDeviation="25"/>
    <feColorMatrix type="matrix" values="0 0 0 0 0.988235 0 0 0 0 0.0705882 0 0 0 0 0.686275 0 0 0 1 0"/>
    <feBlend mode="normal" in2="BackgroundImageFix" result="effect1_dropShadow"/>
    <feBlend mode="normal" in="SourceGraphic" in2="effect1_dropShadow" result="shape"/>
</filter>
<linearGradient id="paint0_linear" x1="1039" y1="172.282" x2="1144.7" y2="172.104" gradientUnits="userSpaceOnUse">
    <stop stop-color="#FC12AF"/>
    <stop offset="1" stop-color="#AC48BC"/>
</linearGradient>
<linearGradient id="paint1_linear" x1="1103.33" y1="178.605" x2="1263.05" y2="178.149" gradientUnits="userSpaceOnUse">
    <stop stop-color="#FC12AF"/>
    <stop offset="1" stop-color="#AC48BC"/>
</linearGradient>
<linearGradient id="paint2_linear" x1="1103.33" y1="189.456" x2="1198.94" y2="189.247" gradientUnits="userSpaceOnUse">
<stop stop-color="#FC12AF"/>
<stop offset="1" stop-color="#AC48BC"/>
</linearGradient>
<linearGradient id="paint3_linear" x1="1103.33" y1="177.738" x2="1469.05" y2="175.384" gradientUnits="userSpaceOnUse">
<stop stop-color="#FC12AF"/>
<stop offset="1" stop-color="#AC48BC"/>
</linearGradient>
<linearGradient id="paint4_linear" x1="1105.71" y1="94.4318" x2="1419.66" y2="86.3471" gradientUnits="userSpaceOnUse">
<stop stop-color="#FC12AF"/>
<stop offset="1" stop-color="#AC48BC"/>
</linearGradient>
<linearGradient id="paint5_linear" x1="1245.43" y1="175.205" x2="1466.47" y2="174.382" gradientUnits="userSpaceOnUse">
<stop stop-color="#FC12AF"/>
<stop offset="1" stop-color="#AC48BC"/>
</linearGradient>
<linearGradient id="paint6_linear" x1="1105.71" y1="74.6634" x2="1419.79" y2="69.5594" gradientUnits="userSpaceOnUse">
<stop stop-color="#FC12AF"/>
<stop offset="1" stop-color="#AC48BC"/>
</linearGradient>
<linearGradient id="paint7_linear" x1="1234.19" y1="173.257" x2="1455.61" y2="172.459" gradientUnits="userSpaceOnUse">
<stop stop-color="#FC12AF"/>
<stop offset="1" stop-color="#AC48BC"/>
</linearGradient>
<linearGradient id="paint8_linear" x1="1103.33" y1="166.74" x2="1419.87" y2="165.285" gradientUnits="userSpaceOnUse">
<stop stop-color="#FC12AF"/>
<stop offset="1" stop-color="#AC48BC"/>
</linearGradient>
<linearGradient id="paint9_linear" x1="1230.31" y1="172.566" x2="1446.79" y2="171.811" gradientUnits="userSpaceOnUse">
<stop stop-color="#FC12AF"/>
<stop offset="1" stop-color="#AC48BC"/>
</linearGradient>
<linearGradient id="paint10_linear" x1="1103.33" y1="166.74" x2="1419.87" y2="165.285" gradientUnits="userSpaceOnUse">
<stop stop-color="#FC12AF"/>
<stop offset="1" stop-color="#AC48BC"/>
</linearGradient>
<linearGradient id="paint11_linear" x1="1226.38" y1="171.871" x2="1443.7" y2="171.12" gradientUnits="userSpaceOnUse">
<stop stop-color="#FC12AF"/>
<stop offset="1" stop-color="#AC48BC"/>
</linearGradient>
<linearGradient id="paint12_linear" x1="1144.65" y1="110.812" x2="1419.83" y2="107.787" gradientUnits="userSpaceOnUse">
<stop stop-color="#FC12AF"/>
<stop offset="1" stop-color="#AC48BC"/>
</linearGradient>
<linearGradient id="paint13_linear" x1="1201.3" y1="166.613" x2="1469.04" y2="165.571" gradientUnits="userSpaceOnUse">
<stop stop-color="#FC12AF"/>
<stop offset="1" stop-color="#AC48BC"/>
</linearGradient>
<linearGradient id="paint14_linear" x1="50" y1="963.852" x2="192.52" y2="963.541" gradientUnits="userSpaceOnUse">
<stop stop-color="#FC12AF"/>
<stop offset="1" stop-color="#AC48BC"/>
</linearGradient>
<linearGradient id="paint15_linear" x1="50" y1="929.99" x2="521.855" y2="927.821" gradientUnits="userSpaceOnUse">
<stop stop-color="#FC12AF"/>
<stop offset="1" stop-color="#AC48BC"/>
</linearGradient>
<linearGradient id="paint16_linear" x1="111.604" y1="846.618" x2="521.805" y2="842.11" gradientUnits="userSpaceOnUse">
<stop stop-color="#FC12AF"/>
<stop offset="1" stop-color="#AC48BC"/>
</linearGradient>
</defs>
</svg>
