<svg width="1632" height="5330" viewBox="0 0 1632 5330" fill="none" xmlns="http://www.w3.org/2000/svg">
<path d="M587.515 251.751L589.953 251.093L647.513 183.435L587.515 251.751ZM585.036 252.419L587.515 251.751L645.317 183.525L585.036 252.419ZM582.513 253.1L585.036 252.419L643.078 183.616L582.513 253.1Z" fill="#0098AF"/>
<path d="M621.34 0L559.826 26.9974L558.748 112.076L621.34 0ZM558.748 112.076L516 178.908L620.778 184.522L558.748 112.076Z" fill="#00A9C3"/>
<path d="M579.946 253.792L582.513 253.1L640.795 183.708L579.946 253.792ZM644.388 15.8165L646.422 107.18L646.465 17.2416L644.388 15.8165ZM577.333 254.496L579.946 253.792L638.467 183.803L577.333 254.496ZM645.317 183.525L587.515 251.75L647.513 183.435L645.317 183.525ZM642.273 14.3653L644.246 106.543L644.388 15.8165L642.273 14.3653ZM646.422 107.18L648.557 107.805L646.465 17.2416L646.422 107.18ZM574.674 255.213L577.333 254.496L636.092 183.9L574.674 255.213Z" fill="#0098AF"/>
<path d="M516 178.908L560.632 259L620.778 184.522L516 178.908Z" fill="#00A9C3"/>
<path d="M643.078 183.616L585.036 252.419L645.317 183.525L643.078 183.616ZM640.12 12.8873L642.028 105.893L642.273 14.3653L640.12 12.8873ZM644.246 106.543L646.422 107.18L644.388 15.8165L644.246 106.543ZM571.967 255.943L574.674 255.213L633.669 183.998L571.967 255.943ZM640.795 183.708L582.513 253.1L643.078 183.616L640.795 183.708ZM637.926 11.3816L639.767 105.231L640.12 12.8873L637.926 11.3816ZM642.028 105.893L644.246 106.543L642.273 14.3653L642.028 105.893ZM569.21 256.687L571.967 255.943L631.196 184.098L569.21 256.687ZM638.467 183.803L579.946 253.792L640.795 183.708L638.467 183.803ZM635.69 9.84759L637.462 104.555L637.926 11.3816L635.69 9.84759ZM639.767 105.231L642.028 105.893L640.12 12.8873L639.767 105.231ZM566.403 257.444L569.21 256.687L628.673 184.201L566.403 257.444ZM636.092 183.9L577.333 254.496L638.467 183.803L636.092 183.9ZM633.412 8.28439L635.111 103.867L635.69 9.84759L633.412 8.28439ZM637.462 104.555L639.767 105.231L637.926 11.3816L637.462 104.555ZM563.544 258.215L566.403 257.444L626.096 184.306L563.544 258.215ZM633.669 183.998L574.674 255.213L636.092 183.9L633.669 183.998ZM631.091 6.69116L632.713 103.164L633.412 8.28439L631.091 6.69116ZM635.111 103.867L637.462 104.555L635.69 9.84759L635.111 103.867Z" fill="#0098AF"/>
<path d="M622.624 100.209L621.34 0L558.748 112.076L622.624 100.209Z" fill="#00A9C3"/>
<path d="M560.632 259L563.544 258.215L623.465 184.413L560.632 259ZM631.196 184.098L571.967 255.943L633.669 183.998L631.196 184.098ZM628.724 5.067L630.267 102.448L631.091 6.69113L628.724 5.067ZM632.713 103.164L635.111 103.867L633.412 8.28435L632.713 103.164ZM628.673 184.201L569.21 256.687L631.196 184.098L628.673 184.201ZM626.311 3.41107L627.771 101.717L628.724 5.067L626.311 3.41107ZM630.267 102.448L632.713 103.164L631.091 6.69113L630.267 102.448Z" fill="#0098AF"/>
<path d="M620.778 184.522L622.624 100.209L558.748 112.076L620.778 184.522Z" fill="#00A9C3"/>
<path d="M626.096 184.306L566.403 257.444L628.673 184.201L626.096 184.306ZM623.85 1.72242L625.224 100.971L626.311 3.41109L623.85 1.72242ZM627.771 101.717L630.267 102.448L628.724 5.06702L627.771 101.717ZM623.465 184.413L563.544 258.215L626.096 184.306L623.465 184.413ZM621.34 0L622.624 100.209L623.85 1.72242L621.34 0ZM625.224 100.971L627.771 101.717L626.311 3.41109L625.224 100.971ZM620.778 184.522L560.632 259L623.465 184.413L620.778 184.522ZM622.624 100.209L625.224 100.971L623.85 1.72242L622.624 100.209ZM730.121 93.8894L735.245 185.521L731.741 94.786L730.121 93.8894Z" fill="#0098AF"/>
<path d="M620.778 184.522L716.693 187.024L622.624 100.209L620.778 184.522Z" fill="#00A9C3"/>
<path d="M735.245 185.521L736.864 185.389L731.741 94.786L735.245 185.521ZM728.464 92.9723L733.588 185.655L730.121 93.8894L728.464 92.9723ZM733.588 185.655L735.245 185.521L730.121 93.8894L733.588 185.655ZM726.77 92.034L731.891 185.792L728.464 92.9723L726.77 92.034ZM731.891 185.792L733.588 185.655L728.464 92.9723L731.891 185.792ZM725.035 91.0738L730.152 185.933L726.77 92.034L725.035 91.0738ZM730.152 185.933L731.891 185.792L726.77 92.034L730.152 185.933ZM723.259 90.0908L728.371 186.078L725.035 91.0738L723.259 90.0908ZM728.371 186.078L730.152 185.933L725.035 91.0738L728.371 186.078ZM721.441 89.0844L726.546 186.226L723.259 90.0908L721.441 89.0844Z" fill="#0098AF"/>
<path d="M716.693 187.024L711.657 83.6676L622.624 100.209L716.693 187.024Z" fill="#00A9C3"/>
<path d="M726.546 186.226L728.371 186.078L723.259 90.0908L726.546 186.226ZM719.579 88.0535L724.674 186.377L721.441 89.0843L719.579 88.0535ZM724.674 186.377L726.546 186.226L721.441 89.0843L724.674 186.377ZM717.672 86.9974L722.755 186.533L719.579 88.0535L717.672 86.9974ZM722.755 186.533L724.674 186.377L719.579 88.0535L722.755 186.533ZM715.716 85.915L720.787 186.692L717.672 86.9974L715.716 85.915ZM720.787 186.692L722.755 186.533L717.672 86.9974L720.787 186.692ZM713.712 84.8054L718.766 186.856L715.716 85.915L713.712 84.8054ZM718.766 186.856L720.787 186.692L715.716 85.915L718.766 186.856ZM711.657 83.6676L716.693 187.024L713.712 84.8054L711.657 83.6676ZM716.693 187.024L718.766 186.856L713.712 84.8054L716.693 187.024Z" fill="#0098AF"/>
<g filter="url(#filter0_d)">
<path d="M106.371 1068.92L173.516 1143.98L232.882 1120.71L106.371 1068.92ZM148.958 1009.82L106.371 1068.92L232.882 1120.71L148.958 1009.82ZM232.882 1120.71L305.741 1205.12L501.253 1201.82L232.882 1120.71ZM148.958 1009.82L232.882 1120.71L295.9 973.058L148.958 1009.82Z" fill="url(#paint0_linear)"/>
<path d="M321.456 949.881L323.185 948.313L185.949 771.342L321.456 949.881ZM319.651 951.519L321.456 949.881L180.917 768.902L319.651 951.519ZM180.917 768.902L321.456 949.881L185.949 771.342L180.917 768.902ZM317.763 953.231L319.651 951.519L175.645 766.345L317.763 953.231Z" fill="url(#paint1_linear)"/>
<path d="M104.822 732L66.6654 913.99L148.959 1009.82L104.822 732Z" fill="url(#paint2_linear)"/>
<path d="M175.645 766.345L319.651 951.519L180.917 768.902L175.645 766.345ZM315.787 955.023L317.763 953.231L170.116 763.664L315.787 955.023ZM170.116 763.664L317.763 953.231L175.645 766.345L170.116 763.664ZM313.716 956.901L315.787 955.023L164.311 760.849L313.716 956.901ZM164.311 760.849L315.787 955.023L170.116 763.664L164.311 760.849Z" fill="url(#paint3_linear)"/>
<path d="M232.882 1120.71L501.253 1201.82L295.9 973.058L232.882 1120.71Z" fill="url(#paint4_linear)"/>
<path d="M311.544 958.87L313.716 956.901L158.208 757.889L311.544 958.87ZM321.456 949.881L587.718 969.944L323.185 948.313L321.456 949.881ZM158.208 757.889L313.716 956.901L164.311 760.849L158.208 757.889ZM309.264 960.939L311.544 958.87L151.785 754.774L309.264 960.939ZM319.65 951.519L593.672 972.953L321.456 949.881L319.65 951.519ZM151.785 754.774L311.544 958.87L158.208 757.889L151.785 754.774ZM306.866 963.113L309.264 960.939L145.014 751.491L306.866 963.113ZM317.762 953.231L600.022 976.162L319.65 951.519L317.762 953.231ZM145.014 751.491L309.264 960.939L151.785 754.774L145.014 751.491Z" fill="url(#paint5_linear)"/>
<path d="M295.901 973.058L104.822 732L148.959 1009.82L295.901 973.058Z" fill="url(#paint6_linear)"/>
<path d="M304.342 965.403L306.866 963.113L137.868 748.026L304.342 965.403ZM315.787 955.023L606.809 979.591L317.763 953.231L315.787 955.023ZM137.868 748.026L306.866 963.113L145.014 751.491L137.868 748.026ZM301.681 967.816L304.342 965.403L130.314 744.362L301.681 967.816ZM587.718 969.944L582.124 967.118L323.185 948.313L587.718 969.944ZM130.314 744.362L304.342 965.403L137.868 748.026L130.314 744.362ZM313.716 956.901L614.078 983.264L315.787 955.023L313.716 956.901ZM298.871 970.364L301.681 967.816L122.316 740.484L298.871 970.364ZM122.316 740.484L301.681 967.816L130.314 744.362L122.316 740.484ZM593.672 972.953L587.718 969.944L321.456 949.881L593.672 972.953ZM311.544 958.87L621.883 987.208L313.716 956.901L311.544 958.87ZM295.901 973.058L298.871 970.364L113.834 736.37L295.901 973.058ZM113.834 736.37L298.871 970.364L122.316 740.484L113.834 736.37ZM600.022 976.162L593.672 972.953L319.651 951.519L600.022 976.162ZM309.264 960.939L630.287 991.454L311.544 958.87L309.264 960.939ZM104.822 732L295.901 973.058L113.834 736.37L104.822 732ZM606.809 979.591L600.022 976.162L317.763 953.231L606.809 979.591ZM306.866 963.113L639.36 996.038L309.264 960.939L306.866 963.113ZM614.078 983.264L606.809 979.591L315.787 955.023L614.078 983.264ZM304.342 965.403L649.186 1001L306.866 963.113L304.342 965.403ZM621.883 987.208L614.078 983.264L313.716 956.901L621.883 987.208ZM301.681 967.816L659.863 1006.4L304.342 965.403L301.681 967.816ZM630.287 991.454L621.883 987.208L311.544 958.87L630.287 991.454ZM298.871 970.364L671.505 1012.28L301.681 967.816L298.871 970.364ZM639.36 996.038L630.287 991.454L309.264 960.939L639.36 996.038Z" fill="url(#paint7_linear)"/>
<path d="M501.253 1201.82L684.251 1018.72L295.901 973.058L501.253 1201.82Z" fill="url(#paint8_linear)"/>
<path d="M295.901 973.058L684.251 1018.72L298.871 970.364L295.901 973.058ZM649.186 1001L639.36 996.038L306.866 963.113L649.186 1001ZM659.863 1006.4L649.186 1001L304.342 965.403L659.863 1006.4ZM671.505 1012.28L659.863 1006.4L301.681 967.816L671.505 1012.28ZM684.251 1018.72L671.505 1012.28L298.871 970.364L684.251 1018.72Z" fill="url(#paint9_linear)"/>
</g>
<g filter="url(#filter1_d)">
<path d="M480.281 538.904L453.907 552.235L455.994 570.828L480.281 538.904ZM493.797 555.463L480.281 538.904L455.994 570.828L493.797 555.463ZM455.994 570.828L426.536 585.068L412.624 640.732L455.994 570.828ZM493.797 555.463L455.994 570.828L493.057 599.902L493.797 555.463Z" fill="url(#paint10_linear)"/>
<path d="M455.994 570.828L412.624 640.732L493.057 599.902L455.994 570.828Z" fill="url(#paint11_linear)"/>
<path d="M412.624 640.732L450.622 706.504L493.057 599.902L412.624 640.732Z" fill="url(#paint12_linear)"/>
</g>
<g filter="url(#filter2_d)">
<path d="M1551.56 363.067L1523.48 353.844L1511.81 368.467L1551.56 363.067ZM1549.41 384.333L1551.56 363.067L1511.81 368.467L1549.41 384.333ZM1511.81 368.467L1480.91 357.706L1431.71 387.229L1511.81 368.467ZM1549.41 384.333L1511.81 368.467L1517.46 415.233L1549.41 384.333Z" fill="url(#paint13_linear)"/>
<path d="M1511.81 368.467L1431.71 387.229L1517.46 415.233L1511.81 368.467Z" fill="url(#paint14_linear)"/>
<path d="M1431.71 387.229L1412.08 460.605L1517.46 415.233L1431.71 387.229Z" fill="url(#paint15_linear)"/>
</g>
<g filter="url(#filter3_d)">
<path d="M1553.21 866.228L1517.13 884.463L1519.98 909.897L1553.21 866.228ZM1571.7 888.879L1553.21 866.228L1519.98 909.897L1571.7 888.879ZM1519.98 909.897L1479.69 929.376L1460.66 1005.52L1519.98 909.897ZM1571.7 888.879L1519.98 909.897L1570.68 949.669L1571.7 888.879Z" fill="url(#paint16_linear)"/>
<path d="M1519.98 909.897L1460.66 1005.52L1570.68 949.669L1519.98 909.897Z" fill="url(#paint17_linear)"/>
</g>
<g filter="url(#filter4_d)">
<path d="M1152 4429.1L1257.65 4361.5L1218.71 4348.2L1152 4429.1ZM1152 4429.1L1217.59 4412.87L1257.65 4361.5L1152 4429.1ZM1257.69 4422.59L1217.59 4412.87L1152 4429.1L1257.69 4422.59ZM1152 4429.1L1216.33 4485.23L1257.69 4422.59L1152 4429.1ZM1152 4429.1L1241.53 4406.94L1257.67 4383.65L1152 4429.1ZM1257.68 4410.9L1241.53 4406.94L1152 4429.1L1257.68 4410.9Z" fill="url(#paint18_linear)"/>
<path d="M1270.27 4485.34L1273.52 4485.35L1376.02 4485.02L1270.27 4485.34ZM1311.96 4393.66L1330.06 4407.75L1315.2 4394.25L1311.96 4393.66ZM1266.98 4485.33L1270.27 4485.34L1372.61 4485.01L1266.98 4485.33ZM1312.57 4418.33L1315.85 4418.78L1333.36 4408.28L1312.57 4418.33ZM1308.67 4393.05L1326.72 4407.21L1311.96 4393.66L1308.67 4393.05ZM1263.65 4485.32L1266.98 4485.33L1369.15 4485L1263.65 4485.32ZM1309.25 4417.88L1312.57 4418.33L1330.06 4407.75L1309.25 4417.88ZM1305.34 4392.44L1323.33 4406.66L1308.67 4393.05L1305.34 4392.44ZM1260.27 4485.32L1263.65 4485.32L1365.64 4484.99L1260.27 4485.32ZM1330.06 4407.75L1333.36 4408.28L1315.2 4394.25L1330.06 4407.75ZM1305.89 4417.43L1309.25 4417.88L1326.72 4407.21L1305.89 4417.43ZM1301.96 4391.81L1319.9 4406.1L1305.34 4392.44L1301.96 4391.81ZM1330.06 4407.75L1312.57 4418.33L1333.36 4408.28L1330.06 4407.75ZM1256.86 4485.31L1260.27 4485.32L1362.06 4484.98L1256.86 4485.31ZM1326.72 4407.21L1330.06 4407.75L1311.96 4393.66L1326.72 4407.21ZM1302.48 4416.96L1305.89 4417.43L1323.33 4406.66L1302.48 4416.96ZM1311.46 4373.55L1368.37 4400.39L1314.68 4374.27L1311.46 4373.55ZM1298.54 4391.18L1316.42 4405.54L1301.96 4391.81L1298.54 4391.18ZM1326.72 4407.21L1309.25 4417.88L1330.06 4407.75L1326.72 4407.21ZM1323.33 4406.66L1326.72 4407.21L1308.67 4393.05L1323.33 4406.66ZM1253.4 4485.3L1256.86 4485.31L1358.43 4484.96L1253.4 4485.3ZM1299.02 4416.5L1302.48 4416.96L1319.9 4406.1L1299.02 4416.5ZM1308.19 4372.82L1365 4399.74L1311.46 4373.55L1308.19 4372.82ZM1295.07 4390.54L1312.89 4404.96L1298.54 4391.18L1295.07 4390.54ZM1323.33 4406.66L1305.89 4417.43L1326.72 4407.21L1323.33 4406.66ZM1319.9 4406.1L1323.33 4406.66L1305.34 4392.44L1319.9 4406.1ZM1249.9 4485.3L1253.4 4485.3L1354.74 4484.95L1249.9 4485.3ZM1295.52 4416.02L1299.02 4416.5L1316.42 4405.54L1295.52 4416.02ZM1312.84 4428.9L1316.13 4429.28L1371.68 4401.03L1312.84 4428.9ZM1304.89 4372.08L1361.58 4399.09L1308.19 4372.82L1304.89 4372.08ZM1291.56 4389.9L1309.3 4404.38L1295.07 4390.54L1291.56 4389.9ZM1319.9 4406.1L1302.48 4416.96L1323.33 4406.66L1319.9 4406.1ZM1316.42 4405.54L1319.9 4406.1L1301.96 4391.81L1316.42 4405.54ZM1246.36 4485.29L1249.9 4485.3L1351 4484.94L1246.36 4485.29ZM1291.96 4415.54L1295.52 4416.02L1312.89 4404.96L1291.96 4415.54ZM1309.5 4428.52L1312.84 4428.9L1368.37 4400.39L1309.5 4428.52ZM1301.54 4371.33L1358.11 4398.42L1304.89 4372.08L1301.54 4371.33ZM1288 4389.24L1305.67 4403.79L1291.56 4389.9L1288 4389.24ZM1316.42 4405.54L1299.02 4416.5L1319.9 4406.1L1316.42 4405.54ZM1312.89 4404.96L1316.42 4405.54L1298.54 4391.18L1312.89 4404.96ZM1242.77 4485.28L1246.36 4485.29L1347.19 4484.93L1242.77 4485.28ZM1288.36 4415.05L1291.96 4415.54L1309.3 4404.38L1288.36 4415.05ZM1306.12 4428.13L1309.5 4428.52L1365 4399.74L1306.12 4428.13ZM1298.15 4370.57L1354.59 4397.74L1301.54 4371.33L1298.15 4370.57ZM1284.39 4388.58L1301.99 4403.2L1288 4389.24L1284.39 4388.58ZM1312.89 4404.96L1295.52 4416.02L1316.42 4405.54L1312.89 4404.96ZM1309.3 4404.38L1312.89 4404.96L1295.07 4390.54L1309.3 4404.38ZM1239.14 4485.27L1242.77 4485.28L1343.31 4484.91L1239.14 4485.27ZM1284.72 4414.56L1288.36 4415.05L1305.67 4403.79L1284.72 4414.56ZM1302.7 4427.74L1306.12 4428.13L1361.58 4399.09L1302.7 4427.74ZM1294.71 4369.8L1351.01 4397.05L1298.15 4370.57L1294.71 4369.8ZM1280.73 4387.9L1298.25 4402.59L1284.39 4388.58L1280.73 4387.9ZM1309.3 4404.38L1291.96 4415.54L1312.89 4404.96L1309.3 4404.38ZM1305.67 4403.79L1309.3 4404.38L1291.56 4389.9L1305.67 4403.79ZM1235.46 4485.27L1239.14 4485.27L1339.38 4484.9L1235.46 4485.27ZM1281.01 4414.06L1284.72 4414.56L1301.99 4403.2L1281.01 4414.06ZM1299.22 4427.34L1302.7 4427.74L1358.11 4398.42L1299.22 4427.34ZM1291.23 4369.02L1347.38 4396.35L1294.71 4369.8L1291.23 4369.02ZM1277.02 4387.22L1294.45 4401.97L1280.73 4387.9L1277.02 4387.22ZM1305.67 4403.79L1288.36 4415.05L1309.3 4404.38L1305.67 4403.79ZM1301.99 4403.2L1305.67 4403.79L1288 4389.24L1301.99 4403.2ZM1231.73 4485.26L1235.46 4485.27L1335.37 4484.89L1231.73 4485.26ZM1277.26 4413.55L1281.01 4414.06L1298.25 4402.59L1277.26 4413.55ZM1368.37 4400.39L1371.68 4401.03L1314.68 4374.27L1368.37 4400.39ZM1295.71 4426.94L1299.22 4427.34L1354.59 4397.74L1295.71 4426.94ZM1287.7 4368.23L1343.69 4395.64L1291.23 4369.02L1287.7 4368.23ZM1273.26 4386.52L1290.6 4401.35L1277.02 4387.22L1273.26 4386.52ZM1301.99 4403.2L1284.72 4414.56L1305.67 4403.79L1301.99 4403.2ZM1298.25 4402.59L1301.99 4403.2L1284.39 4388.58L1298.25 4402.59ZM1227.95 4485.25L1231.73 4485.26L1331.3 4484.88L1227.95 4485.25ZM1273.46 4413.03L1277.26 4413.55L1294.45 4401.97L1273.46 4413.03ZM1365 4399.74L1368.37 4400.39L1311.46 4373.55L1365 4399.74ZM1292.14 4426.53L1295.71 4426.94L1351.01 4397.05L1292.14 4426.53ZM1372.61 4485.01L1270.27 4485.34L1376.02 4485.02L1372.61 4485.01ZM1284.12 4367.43L1339.94 4394.92L1287.7 4368.23L1284.12 4367.43ZM1269.44 4385.82L1286.69 4400.72L1273.26 4386.52L1269.44 4385.82ZM1368.37 4400.39L1312.84 4428.9L1371.68 4401.03L1368.37 4400.39ZM1298.25 4402.59L1281.01 4414.06L1301.99 4403.2L1298.25 4402.59ZM1294.45 4401.97L1298.25 4402.59L1280.73 4387.9L1294.45 4401.97ZM1224.13 4485.24L1227.95 4485.25L1327.16 4484.86L1224.13 4485.24ZM1269.6 4412.51L1273.46 4413.03L1290.6 4401.35L1269.6 4412.51ZM1361.58 4399.09L1365 4399.74L1308.19 4372.82L1361.58 4399.09ZM1288.52 4426.12L1292.14 4426.53L1347.38 4396.35L1288.52 4426.12ZM1369.15 4485L1266.98 4485.33L1372.61 4485.01L1369.15 4485ZM1280.5 4366.62L1336.13 4394.19L1284.12 4367.43L1280.5 4366.62ZM1265.57 4385.11L1282.73 4400.07L1269.44 4385.82L1265.57 4385.11ZM1365 4399.74L1309.5 4428.52L1368.37 4400.39L1365 4399.74ZM1294.45 4401.97L1277.26 4413.55L1298.25 4402.59L1294.45 4401.97ZM1290.6 4401.35L1294.45 4401.97L1277.02 4387.22L1290.6 4401.35ZM1220.25 4485.24L1224.13 4485.24L1322.95 4484.85L1220.25 4485.24ZM1265.68 4411.98L1269.6 4412.51L1286.69 4400.72L1265.68 4411.98ZM1358.11 4398.42L1361.58 4399.09L1304.89 4372.08L1358.11 4398.42ZM1284.86 4425.7L1288.52 4426.12L1343.69 4395.64L1284.86 4425.7ZM1365.64 4484.99L1263.65 4485.32L1369.15 4485L1365.64 4484.99ZM1276.82 4365.79L1332.26 4393.44L1280.5 4366.62L1276.82 4365.79ZM1261.65 4384.38L1278.7 4399.42L1265.57 4385.11L1261.65 4384.38ZM1361.58 4399.09L1306.12 4428.13L1365 4399.74L1361.58 4399.09ZM1290.6 4401.35L1273.46 4413.03L1294.45 4401.97L1290.6 4401.35ZM1286.69 4400.72L1290.6 4401.35L1273.26 4386.52L1286.69 4400.72ZM1216.33 4485.23L1220.25 4485.24L1318.66 4484.83L1216.33 4485.23ZM1261.71 4411.44L1265.68 4411.98L1282.73 4400.07L1261.71 4411.44ZM1354.59 4397.74L1358.11 4398.42L1301.54 4371.33L1354.59 4397.74ZM1281.14 4425.27L1284.86 4425.7L1339.94 4394.92L1281.14 4425.27ZM1362.06 4484.98L1260.27 4485.32L1365.64 4484.99L1362.06 4484.98ZM1273.09 4364.96L1328.32 4392.68L1276.82 4365.79L1273.09 4364.96ZM1257.67 4383.65L1274.61 4398.76L1261.65 4384.38L1257.67 4383.65ZM1358.11 4398.42L1302.7 4427.74L1361.58 4399.09L1358.11 4398.42ZM1286.69 4400.72L1269.6 4412.51L1290.6 4401.35L1286.69 4400.72ZM1282.73 4400.07L1286.69 4400.72L1269.44 4385.82L1282.73 4400.07ZM1257.68 4410.9L1261.71 4411.44L1278.7 4399.42L1257.68 4410.9ZM1351.01 4397.05L1354.59 4397.74L1298.15 4370.57L1351.01 4397.05ZM1277.37 4424.84L1281.14 4425.27L1336.13 4394.19L1277.37 4424.84ZM1269.31 4364.11L1324.32 4391.91L1273.09 4364.96L1269.31 4364.11ZM1358.43 4484.96L1256.86 4485.31L1362.06 4484.98L1358.43 4484.96ZM1282.73 4400.07L1265.68 4411.98L1286.69 4400.72L1282.73 4400.07ZM1354.59 4397.74L1299.22 4427.34L1358.11 4398.42L1354.59 4397.74ZM1278.7 4399.42L1282.73 4400.07L1265.57 4385.11L1278.7 4399.42ZM1347.38 4396.35L1351.01 4397.05L1294.71 4369.8L1347.38 4396.35ZM1273.54 4424.4L1277.37 4424.84L1332.26 4393.44L1273.54 4424.4ZM1265.48 4363.25L1320.26 4391.13L1269.31 4364.11L1265.48 4363.25ZM1354.74 4484.95L1253.4 4485.3L1358.43 4484.96L1354.74 4484.95ZM1278.7 4399.42L1261.71 4411.44L1282.73 4400.07L1278.7 4399.42ZM1351.01 4397.05L1295.71 4426.94L1354.59 4397.74L1351.01 4397.05ZM1274.61 4398.76L1278.7 4399.42L1261.65 4384.38L1274.61 4398.76Z" fill="url(#paint19_linear)"/>
<path d="M1311.92 4389.53L1257.69 4422.59L1216.33 4485.23L1311.92 4389.53Z" fill="url(#paint20_linear)"/>
<path d="M1343.69 4395.64L1347.38 4396.35L1291.23 4369.02L1343.69 4395.64ZM1269.66 4423.96L1273.54 4424.4L1328.32 4392.68L1269.66 4423.96ZM1261.6 4362.38L1316.12 4390.34L1265.48 4363.25L1261.6 4362.38ZM1351 4484.94L1249.9 4485.3L1354.74 4484.95L1351 4484.94ZM1274.61 4398.76L1257.68 4410.9L1278.7 4399.42L1274.61 4398.76ZM1347.38 4396.35L1292.14 4426.53L1351.01 4397.05L1347.38 4396.35ZM1339.94 4394.92L1343.69 4395.64L1287.7 4368.23L1339.94 4394.92ZM1265.73 4423.51L1269.66 4423.96L1324.32 4391.91L1265.73 4423.51ZM1257.65 4361.5L1311.92 4389.53L1261.6 4362.38L1257.65 4361.5ZM1347.19 4484.93L1246.36 4485.29L1351 4484.94L1347.19 4484.93ZM1343.69 4395.64L1288.52 4426.12L1347.38 4396.35L1343.69 4395.64ZM1336.13 4394.19L1339.94 4394.92L1284.12 4367.43L1336.13 4394.19ZM1261.74 4423.05L1265.73 4423.51L1320.26 4391.13L1261.74 4423.05ZM1343.31 4484.91L1242.77 4485.28L1347.19 4484.93L1343.31 4484.91ZM1339.94 4394.92L1284.86 4425.7L1343.69 4395.64L1339.94 4394.92ZM1332.26 4393.44L1336.13 4394.19L1280.5 4366.62L1332.26 4393.44ZM1257.69 4422.59L1261.74 4423.05L1316.12 4390.34L1257.69 4422.59ZM1339.38 4484.9L1239.14 4485.27L1343.31 4484.91L1339.38 4484.9ZM1336.13 4394.19L1281.14 4425.27L1339.94 4394.92L1336.13 4394.19ZM1328.32 4392.68L1332.26 4393.44L1276.82 4365.79L1328.32 4392.68ZM1335.37 4484.89L1235.46 4485.27L1339.38 4484.9L1335.37 4484.89ZM1332.26 4393.44L1277.37 4424.84L1336.13 4394.19L1332.26 4393.44ZM1324.32 4391.91L1328.32 4392.68L1273.09 4364.96L1324.32 4391.91ZM1331.3 4484.87L1231.73 4485.26L1335.37 4484.89L1331.3 4484.87ZM1328.32 4392.68L1273.54 4424.4L1332.26 4393.44L1328.32 4392.68ZM1320.26 4391.13L1324.32 4391.91L1269.31 4364.11L1320.26 4391.13ZM1327.16 4484.86L1227.95 4485.25L1331.3 4484.87L1327.16 4484.86ZM1324.32 4391.91L1269.66 4423.96L1328.32 4392.68L1324.32 4391.91ZM1316.12 4390.34L1320.26 4391.13L1265.48 4363.25L1316.12 4390.34ZM1322.95 4484.85L1224.13 4485.24L1327.16 4484.86L1322.95 4484.85ZM1320.26 4391.13L1265.73 4423.51L1324.32 4391.91L1320.26 4391.13ZM1311.92 4389.53L1316.12 4390.34L1261.6 4362.38L1311.92 4389.53ZM1318.66 4484.83L1220.25 4485.24L1322.95 4484.85L1318.66 4484.83ZM1316.12 4390.34L1261.74 4423.05L1320.26 4391.13L1316.12 4390.34ZM1314.3 4484.82L1216.33 4485.23L1318.66 4484.83L1314.3 4484.82ZM1311.92 4389.53L1257.69 4422.59L1316.12 4390.34L1311.92 4389.53ZM1372.61 4485.01L1376.02 4485.02L1582 4361.23L1372.61 4485.01Z" fill="url(#paint21_linear)"/>
<path d="M1257.65 4361.5L1532.82 4334.87L1218.71 4348.2L1257.65 4361.5Z" fill="url(#paint22_linear)"/>
<path d="M1369.15 4485L1372.61 4485.01L1579.43 4359.86L1369.15 4485ZM1365.64 4484.99L1369.15 4485L1576.81 4358.45L1365.64 4484.99ZM1362.06 4484.98L1365.64 4484.99L1574.13 4357.01L1362.06 4484.98ZM1358.43 4484.96L1362.06 4484.98L1571.38 4355.54L1358.43 4484.96Z" fill="url(#paint23_linear)"/>
<path d="M1532.82 4334.87L1309.83 4306L1218.71 4348.2L1532.82 4334.87Z" fill="url(#paint24_linear)"/>
<path d="M1354.74 4484.95L1358.43 4484.96L1568.57 4354.04L1354.74 4484.95ZM1351 4484.94L1354.74 4484.95L1565.7 4352.5L1351 4484.94ZM1347.19 4484.93L1351 4484.94L1562.76 4350.92L1347.19 4484.93Z" fill="url(#paint25_linear)"/>
<path d="M1311.92 4389.53L1216.33 4485.23L1532.82 4334.87L1311.92 4389.53Z" fill="url(#paint26_linear)"/>
<path d="M1343.31 4484.91L1347.19 4484.93L1559.75 4349.31L1343.31 4484.91Z" fill="url(#paint27_linear)"/>
<path d="M1216.33 4485.23L1314.3 4484.82L1532.82 4334.87L1216.33 4485.23Z" fill="url(#paint28_linear)"/>
<path d="M1339.38 4484.9L1343.31 4484.91L1556.67 4347.65L1339.38 4484.9Z" fill="url(#paint29_linear)"/>
<path d="M1257.65 4361.5L1311.92 4389.53L1532.82 4334.87L1257.65 4361.5Z" fill="url(#paint30_linear)"/>
<path d="M1335.37 4484.89L1339.38 4484.9L1553.51 4345.96L1335.37 4484.89ZM1331.3 4484.88L1335.37 4484.89L1550.28 4344.23L1331.3 4484.88ZM1327.16 4484.86L1331.3 4484.88L1546.96 4342.45L1327.16 4484.86ZM1579.43 4359.86L1372.61 4485.01L1582 4361.23L1579.43 4359.86ZM1322.95 4484.85L1327.16 4484.86L1543.56 4340.63L1322.95 4484.85ZM1576.81 4358.45L1369.15 4485L1579.43 4359.86L1576.81 4358.45ZM1318.66 4484.83L1322.95 4484.85L1540.07 4338.76L1318.66 4484.83ZM1574.13 4357.01L1365.64 4484.99L1576.81 4358.45L1574.13 4357.01ZM1314.3 4484.82L1318.66 4484.83L1536.49 4336.84L1314.3 4484.82ZM1571.38 4355.54L1362.06 4484.98L1574.13 4357.01L1571.38 4355.54ZM1568.57 4354.04L1358.43 4484.96L1571.38 4355.54L1568.57 4354.04ZM1565.7 4352.5L1354.74 4484.95L1568.57 4354.04L1565.7 4352.5ZM1562.76 4350.92L1351 4484.94L1565.7 4352.5L1562.76 4350.92ZM1559.75 4349.31L1347.19 4484.93L1562.76 4350.92L1559.75 4349.31ZM1556.67 4347.65L1343.31 4484.91L1559.75 4349.31L1556.67 4347.65ZM1553.51 4345.96L1339.38 4484.9L1556.67 4347.65L1553.51 4345.96ZM1550.28 4344.23L1335.37 4484.89L1553.51 4345.96L1550.28 4344.23ZM1546.96 4342.45L1331.3 4484.88L1550.28 4344.23L1546.96 4342.45ZM1543.56 4340.63L1327.16 4484.86L1546.96 4342.45L1543.56 4340.63ZM1540.07 4338.76L1322.95 4484.85L1543.56 4340.63L1540.07 4338.76ZM1536.49 4336.84L1318.66 4484.83L1540.07 4338.76L1536.49 4336.84ZM1532.82 4334.87L1314.3 4484.82L1536.49 4336.84L1532.82 4334.87Z" fill="url(#paint31_linear)"/>
</g>
<g filter="url(#filter5_d)">
<path d="M305.496 5136.48L224.65 5185.76L163 5279.14L305.496 5136.48Z" fill="url(#paint32_linear)"/>
<path d="M305.496 5136.48L163 5279.14L634.785 5055L305.496 5136.48Z" fill="url(#paint33_linear)"/>
<path d="M224.604 5094.7L305.496 5136.48L634.785 5055L224.604 5094.7Z" fill="url(#paint34_linear)"/>
</g>
<circle cx="1439.5" cy="300.5" r="96.5" fill="url(#paint35_linear)"/>
<circle cx="392.5" cy="620.5" r="36.5" fill="url(#paint36_linear)"/>
<defs>
<filter id="filter0_d" x="16.6654" y="682" width="717.586" height="573.123" filterUnits="userSpaceOnUse" color-interpolation-filters="sRGB">
<feFlood flood-opacity="0" result="BackgroundImageFix"/>
<feColorMatrix in="SourceAlpha" type="matrix" values="0 0 0 0 0 0 0 0 0 0 0 0 0 0 0 0 0 0 127 0"/>
<feOffset/>
<feGaussianBlur stdDeviation="25"/>
<feColorMatrix type="matrix" values="0 0 0 0 0.988235 0 0 0 0 0.0705882 0 0 0 0 0.686275 0 0 0 1 0"/>
<feBlend mode="normal" in2="BackgroundImageFix" result="effect1_dropShadow"/>
<feBlend mode="normal" in="SourceGraphic" in2="effect1_dropShadow" result="shape"/>
</filter>
<filter id="filter1_d" x="362.624" y="488.905" width="181.173" height="267.599" filterUnits="userSpaceOnUse" color-interpolation-filters="sRGB">
<feFlood flood-opacity="0" result="BackgroundImageFix"/>
<feColorMatrix in="SourceAlpha" type="matrix" values="0 0 0 0 0 0 0 0 0 0 0 0 0 0 0 0 0 0 127 0"/>
<feOffset/>
<feGaussianBlur stdDeviation="25"/>
<feColorMatrix type="matrix" values="0 0 0 0 0.988235 0 0 0 0 0.0705882 0 0 0 0 0.686275 0 0 0 1 0"/>
<feBlend mode="normal" in2="BackgroundImageFix" result="effect1_dropShadow"/>
<feBlend mode="normal" in="SourceGraphic" in2="effect1_dropShadow" result="shape"/>
</filter>
<filter id="filter2_d" x="1362.08" y="303.844" width="239.482" height="206.762" filterUnits="userSpaceOnUse" color-interpolation-filters="sRGB">
<feFlood flood-opacity="0" result="BackgroundImageFix"/>
<feColorMatrix in="SourceAlpha" type="matrix" values="0 0 0 0 0 0 0 0 0 0 0 0 0 0 0 0 0 0 127 0"/>
<feOffset/>
<feGaussianBlur stdDeviation="25"/>
<feColorMatrix type="matrix" values="0 0 0 0 0.988235 0 0 0 0 0.0705882 0 0 0 0 0.686275 0 0 0 1 0"/>
<feBlend mode="normal" in2="BackgroundImageFix" result="effect1_dropShadow"/>
<feBlend mode="normal" in="SourceGraphic" in2="effect1_dropShadow" result="shape"/>
</filter>
<filter id="filter3_d" x="1410.66" y="816.228" width="211.039" height="239.293" filterUnits="userSpaceOnUse" color-interpolation-filters="sRGB">
<feFlood flood-opacity="0" result="BackgroundImageFix"/>
<feColorMatrix in="SourceAlpha" type="matrix" values="0 0 0 0 0 0 0 0 0 0 0 0 0 0 0 0 0 0 127 0"/>
<feOffset/>
<feGaussianBlur stdDeviation="25"/>
<feColorMatrix type="matrix" values="0 0 0 0 0.988235 0 0 0 0 0.0705882 0 0 0 0 0.686275 0 0 0 1 0"/>
<feBlend mode="normal" in2="BackgroundImageFix" result="effect1_dropShadow"/>
<feBlend mode="normal" in="SourceGraphic" in2="effect1_dropShadow" result="shape"/>
</filter>
<filter id="filter4_d" x="1102" y="4256" width="530" height="279.345" filterUnits="userSpaceOnUse" color-interpolation-filters="sRGB">
<feFlood flood-opacity="0" result="BackgroundImageFix"/>
<feColorMatrix in="SourceAlpha" type="matrix" values="0 0 0 0 0 0 0 0 0 0 0 0 0 0 0 0 0 0 127 0"/>
<feOffset/>
<feGaussianBlur stdDeviation="25"/>
<feColorMatrix type="matrix" values="0 0 0 0 0.988235 0 0 0 0 0.0705882 0 0 0 0 0.686275 0 0 0 1 0"/>
<feBlend mode="normal" in2="BackgroundImageFix" result="effect1_dropShadow"/>
<feBlend mode="normal" in="SourceGraphic" in2="effect1_dropShadow" result="shape"/>
</filter>
<filter id="filter5_d" x="113" y="5005" width="571.785" height="324.138" filterUnits="userSpaceOnUse" color-interpolation-filters="sRGB">
<feFlood flood-opacity="0" result="BackgroundImageFix"/>
<feColorMatrix in="SourceAlpha" type="matrix" values="0 0 0 0 0 0 0 0 0 0 0 0 0 0 0 0 0 0 127 0"/>
<feOffset/>
<feGaussianBlur stdDeviation="25"/>
<feColorMatrix type="matrix" values="0 0 0 0 0.988235 0 0 0 0 0.0705882 0 0 0 0 0.686275 0 0 0 1 0"/>
<feBlend mode="normal" in2="BackgroundImageFix" result="effect1_dropShadow"/>
<feBlend mode="normal" in="SourceGraphic" in2="effect1_dropShadow" result="shape"/>
</filter>
<linearGradient id="paint0_linear" x1="309.954" y1="976.824" x2="252.837" y2="1190.99" gradientUnits="userSpaceOnUse">
<stop stop-color="#FC12AF"/>
<stop offset="1" stop-color="#AC48BC"/>
</linearGradient>
<linearGradient id="paint1_linear" x1="251.759" y1="786.74" x2="214.781" y2="925.662" gradientUnits="userSpaceOnUse">
<stop stop-color="#FC12AF"/>
<stop offset="1" stop-color="#AC48BC"/>
</linearGradient>
<linearGradient id="paint2_linear" x1="150.8" y1="744.32" x2="85.5075" y2="992.859" gradientUnits="userSpaceOnUse">
<stop stop-color="#FC12AF"/>
<stop offset="1" stop-color="#AC48BC"/>
</linearGradient>
<linearGradient id="paint3_linear" x1="244.353" y1="782.296" x2="205.582" y2="927.953" gradientUnits="userSpaceOnUse">
<stop stop-color="#FC12AF"/>
<stop offset="1" stop-color="#AC48BC"/>
</linearGradient>
<linearGradient id="paint4_linear" x1="386.504" y1="997.335" x2="343.273" y2="1159.52" gradientUnits="userSpaceOnUse">
<stop stop-color="#FC12AF"/>
<stop offset="1" stop-color="#AC48BC"/>
</linearGradient>
<linearGradient id="paint5_linear" x1="344.784" y1="805.019" x2="302.825" y2="962.059" gradientUnits="userSpaceOnUse">
<stop stop-color="#FC12AF"/>
<stop offset="1" stop-color="#AC48BC"/>
</linearGradient>
<linearGradient id="paint6_linear" x1="203.957" y1="758.563" x2="138.011" y2="1006.93" gradientUnits="userSpaceOnUse">
<stop stop-color="#FC12AF"/>
<stop offset="1" stop-color="#AC48BC"/>
</linearGradient>
<linearGradient id="paint7_linear" x1="353.671" y1="798.679" x2="306.313" y2="975.881" gradientUnits="userSpaceOnUse">
<stop stop-color="#FC12AF"/>
<stop offset="1" stop-color="#AC48BC"/>
</linearGradient>
<linearGradient id="paint8_linear" x1="465.825" y1="960.194" x2="408.055" y2="1176.89" gradientUnits="userSpaceOnUse">
<stop stop-color="#FC12AF"/>
<stop offset="1" stop-color="#AC48BC"/>
</linearGradient>
<linearGradient id="paint9_linear" x1="468.489" y1="950.253" x2="451.248" y2="1014.7" gradientUnits="userSpaceOnUse">
<stop stop-color="#FC12AF"/>
<stop offset="1" stop-color="#AC48BC"/>
</linearGradient>
<linearGradient id="paint10_linear" x1="490.922" y1="603.6" x2="434.561" y2="571.147" gradientUnits="userSpaceOnUse">
<stop stop-color="#FC12AF"/>
<stop offset="1" stop-color="#AC48BC"/>
</linearGradient>
<linearGradient id="paint11_linear" x1="479.296" y1="623.738" x2="436.611" y2="599.168" gradientUnits="userSpaceOnUse">
<stop stop-color="#FC12AF"/>
<stop offset="1" stop-color="#AC48BC"/>
</linearGradient>
<linearGradient id="paint12_linear" x1="483.798" y1="649.041" x2="426.768" y2="616.21" gradientUnits="userSpaceOnUse">
<stop stop-color="#FC12AF"/>
<stop offset="1" stop-color="#AC48BC"/>
</linearGradient>
<linearGradient id="paint13_linear" x1="1513.34" y1="416.338" x2="1496.43" y2="353.537" gradientUnits="userSpaceOnUse">
<stop stop-color="#FC12AF"/>
<stop offset="1" stop-color="#AC48BC"/>
</linearGradient>
<linearGradient id="paint14_linear" x1="1490.88" y1="422.357" x2="1478.07" y2="374.8" gradientUnits="userSpaceOnUse">
<stop stop-color="#FC12AF"/>
<stop offset="1" stop-color="#AC48BC"/>
</linearGradient>
<linearGradient id="paint15_linear" x1="1476.17" y1="443.432" x2="1459.06" y2="379.891" gradientUnits="userSpaceOnUse">
<stop stop-color="#FC12AF"/>
<stop offset="1" stop-color="#AC48BC"/>
</linearGradient>
<linearGradient id="paint16_linear" x1="1567.76" y1="954.727" x2="1490.66" y2="910.333" gradientUnits="userSpaceOnUse">
<stop stop-color="#FC12AF"/>
<stop offset="1" stop-color="#AC48BC"/>
</linearGradient>
<linearGradient id="paint17_linear" x1="1551.86" y1="982.275" x2="1493.47" y2="948.665" gradientUnits="userSpaceOnUse">
<stop stop-color="#FC12AF"/>
<stop offset="1" stop-color="#AC48BC"/>
</linearGradient>
<linearGradient id="paint18_linear" x1="1152" y1="4428.28" x2="1257.7" y2="4428.1" gradientUnits="userSpaceOnUse">
<stop stop-color="#FC12AF"/>
<stop offset="1" stop-color="#AC48BC"/>
</linearGradient>
<linearGradient id="paint19_linear" x1="1216.33" y1="4434.61" x2="1376.05" y2="4434.15" gradientUnits="userSpaceOnUse">
<stop stop-color="#FC12AF"/>
<stop offset="1" stop-color="#AC48BC"/>
</linearGradient>
<linearGradient id="paint20_linear" x1="1216.33" y1="4445.46" x2="1311.94" y2="4445.25" gradientUnits="userSpaceOnUse">
<stop stop-color="#FC12AF"/>
<stop offset="1" stop-color="#AC48BC"/>
</linearGradient>
<linearGradient id="paint21_linear" x1="1216.33" y1="4433.74" x2="1582.05" y2="4431.38" gradientUnits="userSpaceOnUse">
<stop stop-color="#FC12AF"/>
<stop offset="1" stop-color="#AC48BC"/>
</linearGradient>
<linearGradient id="paint22_linear" x1="1218.71" y1="4350.43" x2="1532.66" y2="4342.35" gradientUnits="userSpaceOnUse">
<stop stop-color="#FC12AF"/>
<stop offset="1" stop-color="#AC48BC"/>
</linearGradient>
<linearGradient id="paint23_linear" x1="1358.43" y1="4431.21" x2="1579.47" y2="4430.38" gradientUnits="userSpaceOnUse">
<stop stop-color="#FC12AF"/>
<stop offset="1" stop-color="#AC48BC"/>
</linearGradient>
<linearGradient id="paint24_linear" x1="1218.71" y1="4330.66" x2="1532.79" y2="4325.56" gradientUnits="userSpaceOnUse">
<stop stop-color="#FC12AF"/>
<stop offset="1" stop-color="#AC48BC"/>
</linearGradient>
<linearGradient id="paint25_linear" x1="1347.19" y1="4429.26" x2="1568.61" y2="4428.46" gradientUnits="userSpaceOnUse">
<stop stop-color="#FC12AF"/>
<stop offset="1" stop-color="#AC48BC"/>
</linearGradient>
<linearGradient id="paint26_linear" x1="1216.33" y1="4422.74" x2="1532.87" y2="4421.29" gradientUnits="userSpaceOnUse">
<stop stop-color="#FC12AF"/>
<stop offset="1" stop-color="#AC48BC"/>
</linearGradient>
<linearGradient id="paint27_linear" x1="1343.31" y1="4428.57" x2="1559.79" y2="4427.81" gradientUnits="userSpaceOnUse">
<stop stop-color="#FC12AF"/>
<stop offset="1" stop-color="#AC48BC"/>
</linearGradient>
<linearGradient id="paint28_linear" x1="1216.33" y1="4422.74" x2="1532.87" y2="4421.29" gradientUnits="userSpaceOnUse">
<stop stop-color="#FC12AF"/>
<stop offset="1" stop-color="#AC48BC"/>
</linearGradient>
<linearGradient id="paint29_linear" x1="1339.38" y1="4427.87" x2="1556.7" y2="4427.12" gradientUnits="userSpaceOnUse">
<stop stop-color="#FC12AF"/>
<stop offset="1" stop-color="#AC48BC"/>
</linearGradient>
<linearGradient id="paint30_linear" x1="1257.65" y1="4366.81" x2="1532.83" y2="4363.79" gradientUnits="userSpaceOnUse">
<stop stop-color="#FC12AF"/>
<stop offset="1" stop-color="#AC48BC"/>
</linearGradient>
<linearGradient id="paint31_linear" x1="1314.3" y1="4422.61" x2="1582.04" y2="4421.57" gradientUnits="userSpaceOnUse">
<stop stop-color="#FC12AF"/>
<stop offset="1" stop-color="#AC48BC"/>
</linearGradient>
<linearGradient id="paint32_linear" x1="163" y1="5219.85" x2="305.52" y2="5219.54" gradientUnits="userSpaceOnUse">
<stop stop-color="#FC12AF"/>
<stop offset="1" stop-color="#AC48BC"/>
</linearGradient>
<linearGradient id="paint33_linear" x1="163" y1="5185.99" x2="634.855" y2="5183.82" gradientUnits="userSpaceOnUse">
<stop stop-color="#FC12AF"/>
<stop offset="1" stop-color="#AC48BC"/>
</linearGradient>
<linearGradient id="paint34_linear" x1="224.604" y1="5102.62" x2="634.805" y2="5098.11" gradientUnits="userSpaceOnUse">
<stop stop-color="#FC12AF"/>
<stop offset="1" stop-color="#AC48BC"/>
</linearGradient>
<linearGradient id="paint35_linear" x1="1439.5" y1="204" x2="1439.5" y2="397" gradientUnits="userSpaceOnUse">
<stop stop-color="#23275E"/>
<stop offset="0.296875" stop-color="#01042F"/>
<stop offset="1"/>
</linearGradient>
<linearGradient id="paint36_linear" x1="392.5" y1="584" x2="392.5" y2="657" gradientUnits="userSpaceOnUse">
<stop stop-color="#23275E"/>
<stop offset="0.296875" stop-color="#01042F"/>
<stop offset="1"/>
</linearGradient>
</defs>
</svg>
