<svg width="63" height="63" viewBox="0 0 63 63" fill="none" xmlns="http://www.w3.org/2000/svg">
<path d="M45.5303 45.7461C45.0208 45.7461 44.6074 46.159 44.6074 46.6689V61.1544H41.9845C41.4745 61.1544 41.0612 61.5672 41.0612 62.0772C41.0612 62.5867 41.4745 63.0001 41.9845 63.0001H51.3404C53.0212 63.0001 54.3882 61.6326 54.3882 59.9522V53.3764C54.3882 52.8665 53.9753 52.4536 53.4653 52.4536C52.9558 52.4536 52.5425 52.8665 52.5425 53.3764V59.9522C52.5425 60.6151 52.0032 61.1544 51.3404 61.1544H46.4536V46.6689C46.4536 46.159 46.0402 45.7461 45.5303 45.7461Z" fill="#FC12AF"/>
<path d="M33.2554 50.2998H29.3654C28.856 50.2998 28.4426 50.7132 28.4426 51.2231C28.4426 51.7326 28.856 52.146 29.3654 52.146H33.2554C33.7653 52.146 34.1782 51.7326 34.1782 51.2231C34.1782 50.7132 33.7653 50.2998 33.2554 50.2998Z" fill="#FC12AF"/>
<path d="M11.538 63H37.6773C38.1868 63 38.6002 62.5866 38.6002 62.0771C38.6002 61.5672 38.1868 61.1543 37.6773 61.1543H35.1352L35.6471 56.0781H36.5329C37.7095 56.0781 38.6665 55.1212 38.6665 53.9445V48.5011C38.6665 47.3654 37.7735 46.4367 36.6531 46.3738C37.163 45.4677 37.4413 44.4382 37.4413 43.3764C37.4413 42.5141 37.2606 41.6927 36.9371 40.9477L40.9068 35.5423L48.4569 38.4661C48.7145 38.5766 52.5425 40.2935 52.5425 44.8419V49.0697C52.5425 49.5792 52.9553 49.9926 53.4653 49.9926C53.9753 49.9926 54.3882 49.5792 54.3882 49.0697V44.8419C54.3882 38.9761 49.3678 36.8448 49.1539 36.7569C49.1356 36.7492 37.2904 32.1623 37.2717 32.1551C37.188 32.1119 37.1203 32.0633 37.1203 31.9509V29.1986C39.0376 27.7206 40.3627 25.5125 40.6785 22.9939C42.9905 22.8632 44.6905 21.0026 44.6905 18.8098C44.6905 17.7904 44.319 16.8175 43.6576 16.0634V12.3263C43.6576 5.52942 38.1282 0 31.3318 0C24.5349 0 19.0055 5.52942 19.0055 12.3263V16.1605C16.7127 18.7243 18.4662 22.7949 21.9841 22.9939C22.2936 25.4894 23.6077 27.8062 25.7447 29.3448V31.91C25.7447 32.0508 25.663 32.122 25.5462 32.1739L13.7418 36.7502C13.7361 36.7521 13.7303 36.7545 13.7245 36.7569C13.5106 36.8448 8.49023 38.9761 8.49023 44.8419V59.9522C8.49023 61.6325 9.85769 63 11.538 63ZM33.2803 61.1543H29.3409L28.829 56.0781H33.7922L33.2803 61.1543ZM36.8208 48.5011V53.9445C36.8208 54.1007 36.6891 54.2324 36.5329 54.2324C35.4039 54.2324 27.4207 54.2324 26.1162 54.2324C25.96 54.2324 25.8283 54.1003 25.8283 53.9445V48.5011C25.8283 48.3454 25.96 48.2137 26.1162 48.2137H36.5329C36.6891 48.2137 36.8208 48.3454 36.8208 48.5011ZM35.4995 32.8795L31.3318 36.481L27.2909 32.9895C27.4822 32.6685 27.5904 32.2969 27.5904 31.91V30.3767C28.7319 30.8554 30.0633 31.1323 31.4534 31.1323H31.4548C32.8002 31.1318 34.1402 30.8252 35.2746 30.3099V31.9509C35.2746 32.2791 35.3558 32.5964 35.4995 32.8795ZM31.3246 39.1054C33.686 39.1054 35.5956 41.0284 35.5956 43.3764C35.5956 44.4987 35.153 45.5716 34.3709 46.3675H28.2782C27.4962 45.5716 27.0535 44.4987 27.0535 43.3764C27.0535 41.0193 28.9771 39.1054 31.3246 39.1054ZM39.1241 34.8516L35.8691 39.2842C35.0857 38.4142 34.0715 37.7961 32.9876 37.4894L36.9948 34.0273L39.1241 34.8516ZM40.7535 21.1343V16.4864C43.535 16.8444 43.5254 20.7819 40.7535 21.1343ZM21.91 21.1338C20.6608 20.9756 19.8192 19.961 19.8192 18.8098C19.8192 17.6731 20.7843 16.7488 21.91 16.5306V21.1338ZM21.9494 14.6589C21.5952 14.6954 21.1761 14.794 20.8512 14.9132V12.3263C20.8512 6.54744 25.5529 1.8457 31.3318 1.8457C37.1106 1.8457 41.8119 6.54744 41.8119 12.3263V14.8396C41.4735 14.7272 41.1188 14.658 40.7535 14.6315V14.4623C40.7535 13.6409 40.642 13.6813 37.6235 10.4369C37.0674 9.8399 36.1542 9.71109 35.4495 10.1716C31.9888 12.4325 27.7226 13.6111 23.7355 13.3246C22.9064 13.2617 22.1316 13.8231 21.9494 14.6589ZM23.7562 21.8322V15.1761C28.0129 15.4448 32.5892 14.2129 36.3555 11.7841C37.8484 13.3876 38.6675 14.2379 38.9078 14.5397V21.8322C38.9078 25.9389 35.5596 29.2866 31.4529 29.2866C26.9367 29.2866 23.7562 25.8019 23.7562 21.8322ZM25.7317 34.0816L29.6726 37.4865C28.594 37.7898 27.5793 38.4007 26.7882 39.2755L23.5846 34.9136L25.7317 34.0816ZM10.3359 44.8419C10.3359 40.2772 14.1908 38.5641 14.421 38.4661L21.8024 35.6048L25.7173 40.9357C25.3904 41.6841 25.2078 42.5093 25.2078 43.3764C25.2078 44.4382 25.4861 45.4677 25.9961 46.3738C24.8757 46.4367 23.9826 47.3654 23.9826 48.5011V53.9445C23.9826 55.1212 24.9396 56.0781 26.1162 56.0781H26.9737L27.4856 61.1543H18.271V46.6689C18.271 46.1589 17.8577 45.746 17.3482 45.746C16.8382 45.746 16.4253 46.1589 16.4253 46.6689V61.1543H11.538C10.8752 61.1543 10.3359 60.615 10.3359 59.9522V44.8419Z" fill="#FC12AF"/>
</svg>
