<svg width="63" height="63" viewBox="0 0 63 63" fill="none" xmlns="http://www.w3.org/2000/svg">
<path d="M58.0781 46.2656C58.0781 40.1635 54.0885 34.9827 48.5828 33.1754C50.7396 31.7697 52.1719 29.3393 52.1719 26.5781C52.1719 22.236 48.639 18.7031 44.2969 18.7031C43.8805 18.7031 43.4749 18.7455 43.0762 18.8075C43.1314 18.648 43.2013 18.4925 43.2495 18.331L45.2812 17.8526V11.7278L43.2515 11.2494C43.0132 10.4501 42.6933 9.67838 42.2947 8.94305L43.3922 7.16822L39.0974 2.87241L37.3226 3.97097C36.5882 3.57427 35.8165 3.25336 35.0152 3.01416L34.5378 0.984375H28.4622L27.9848 3.01416C27.1845 3.25336 26.4118 3.57328 25.6774 3.97097L23.9026 2.87241L19.6078 7.16822L20.7053 8.94305C20.3077 9.67838 19.9877 10.4501 19.7485 11.2494L17.7188 11.7288V17.8546L19.7495 18.333C19.7977 18.4935 19.8676 18.649 19.9228 18.8085C19.5251 18.7455 19.1195 18.7031 18.7031 18.7031C14.361 18.7031 10.8281 22.236 10.8281 26.5781C10.8281 29.3393 12.2604 31.7697 14.4172 33.1754C8.91155 34.9827 4.92188 40.1635 4.92188 46.2656V50.2031H20.2063C18.6431 52.4377 17.7188 55.1506 17.7188 58.0781V62.0156H45.2812V58.0781C45.2812 55.1506 44.3569 52.4377 42.7937 50.2031H58.0781V46.2656ZM46.2656 35.4375C46.2656 37.0381 45.3639 38.3906 44.2969 38.3906C43.2298 38.3906 42.3281 37.0381 42.3281 35.4375C42.3281 35.1579 42.3675 34.8813 42.4266 34.6067C43.0428 34.5082 43.6669 34.4531 44.2969 34.4531C44.9357 34.4531 45.5588 34.5181 46.1701 34.6165C46.2272 34.8882 46.2656 35.1619 46.2656 35.4375ZM31.5 44.2969C28.2427 44.2969 25.5938 41.6479 25.5938 38.3906C25.5938 35.1333 28.2427 32.4844 31.5 32.4844C34.7573 32.4844 37.4062 35.1333 37.4062 38.3906C37.4062 41.6479 34.7573 44.2969 31.5 44.2969ZM23.8376 35.6324C23.9213 35.6728 24.006 35.7102 24.0886 35.7525C23.7943 36.5794 23.625 37.4643 23.625 38.3906C23.625 38.7834 23.6634 39.1673 23.7195 39.5453L22.4083 42.4305L20.0222 39.4488L23.8376 35.6324ZM31.5 30.5156C28.7851 30.5156 26.3872 31.8967 24.9706 33.9934C24.3328 33.6676 23.6703 33.3969 22.9911 33.1744C25.1468 31.7677 26.5781 29.3383 26.5781 26.5781C26.5781 26.395 26.5634 26.2159 26.5506 26.0367C27.0172 26.2425 27.4956 26.4206 27.9848 26.5673L28.4622 28.5971H34.5378L35.0152 26.5673C35.5044 26.4206 35.9828 26.2425 36.4494 26.0367C36.4366 26.2159 36.4219 26.395 36.4219 26.5781C36.4219 29.3393 37.8532 31.7677 40.0089 33.1744C39.3307 33.3959 38.6682 33.6686 38.0303 33.9944C36.6138 31.8977 34.2149 30.5156 31.5 30.5156ZM50.2031 26.5781C50.2031 29.8354 47.5542 32.4844 44.2969 32.4844C41.0396 32.4844 38.3906 29.8354 38.3906 26.5781C38.3906 23.3208 41.0396 20.6719 44.2969 20.6719C47.5542 20.6719 50.2031 23.3208 50.2031 26.5781ZM21.5017 17.2738L21.358 16.6881L19.6875 16.2944V13.2861L21.357 12.8933L21.5007 12.3076C21.7488 11.2957 22.1484 10.3281 22.6918 9.43425L23.0039 8.91942L22.1002 7.45959L24.192 5.3678L25.6518 6.27145L26.1667 5.95842C27.0585 5.41702 28.0261 5.01539 29.041 4.76733L29.6267 4.62361L30.0215 2.95312H32.9785L33.3713 4.62263L33.957 4.76634C34.9719 5.01539 35.9395 5.41603 36.8314 5.95744L37.3462 6.27047L38.806 5.36681L40.8978 7.45861L39.9952 8.91942L40.3072 9.43425C40.8506 10.3281 41.2502 11.2957 41.4983 12.3076L41.642 12.8933L43.3125 13.2871V16.2953L41.643 16.6881L41.4993 17.2738C41.3004 18.0879 40.9776 18.8813 40.569 19.6442C39.0068 20.4878 37.7606 21.8443 37.0568 23.4862L36.8324 23.622C35.9405 24.1635 34.9729 24.5651 33.958 24.8131L33.3723 24.9569L32.9795 26.6264H30.0225L29.6297 24.9559L29.044 24.8122C28.0311 24.5641 27.0634 24.1635 26.1696 23.6211L25.9452 23.4852C25.2413 21.8423 23.9951 20.4858 22.4329 19.6422C22.0234 18.8813 21.7005 18.0879 21.5017 17.2738ZM12.7969 26.5781C12.7969 23.3208 15.4458 20.6719 18.7031 20.6719C21.9604 20.6719 24.6094 23.3208 24.6094 26.5781C24.6094 29.8354 21.9604 32.4844 18.7031 32.4844C15.4458 32.4844 12.7969 29.8354 12.7969 26.5781ZM21.8147 34.8715L18.7031 37.9831L15.6004 34.8803C16.5907 34.6096 17.6282 34.4531 18.7031 34.4531C19.7613 34.4531 20.8067 34.5968 21.8147 34.8715ZM17.3841 39.4478L14.9979 42.4295L12.2496 36.3835C12.6728 36.1059 13.1178 35.8618 13.5765 35.6393L17.3841 39.4478ZM6.89062 46.2656C6.89062 42.8617 8.34652 39.7983 10.6588 37.6405L14.5333 46.1642L18.7031 40.951L22.8729 46.1642L24.6478 42.2592C25.2728 43.3617 26.1548 44.2988 27.213 44.9889C25.1852 45.6543 23.3651 46.7755 21.8728 48.2354H11.8125V42.3291H9.84375V48.2354H6.89062V46.2656ZM31.5 46.2656C33.2108 46.2656 34.8331 46.6387 36.3028 47.2963L31.5 58.526L26.6972 47.2953C28.1669 46.6387 29.7892 46.2656 31.5 46.2656ZM19.6875 58.0781C19.6875 53.9812 21.7852 50.3675 24.9618 48.2482L30.0077 60.0469H24.6094V54.1406H22.6406V60.0469H19.6875V58.0781ZM43.3125 60.0469H40.3594V54.1406H38.3906V60.0469H32.9923L38.0382 48.2482C41.2148 50.3675 43.3125 53.9812 43.3125 58.0781V60.0469ZM56.1094 48.2344H53.1562V42.3281H51.1875V48.2344H41.1262C39.6339 46.7745 37.8128 45.6533 35.786 44.9879C37.9427 43.5822 39.375 41.1518 39.375 38.3906C39.375 37.4653 39.2057 36.5804 38.9114 35.7545C39.3888 35.5094 39.882 35.2967 40.3869 35.1205C40.381 35.2259 40.3594 35.3312 40.3594 35.4375C40.3594 38.1514 42.1253 40.3594 44.2969 40.3594C46.4684 40.3594 48.2344 38.1514 48.2344 35.4375C48.2344 35.3351 48.2137 35.2347 48.2078 35.1323C52.8019 36.7516 56.1094 41.1242 56.1094 46.2656V48.2344Z" fill="#FC12AF"/>
<path d="M31.5 18.7031C33.6715 18.7031 35.4375 16.9372 35.4375 14.7656C35.4375 12.5941 33.6715 10.8281 31.5 10.8281C29.3285 10.8281 27.5625 12.5941 27.5625 14.7656C27.5625 16.9372 29.3285 18.7031 31.5 18.7031ZM31.5 12.7969C32.5858 12.7969 33.4688 13.6799 33.4688 14.7656C33.4688 15.8514 32.5858 16.7344 31.5 16.7344C30.4142 16.7344 29.5312 15.8514 29.5312 14.7656C29.5312 13.6799 30.4142 12.7969 31.5 12.7969Z" fill="#FC12AF"/>
<path d="M31.5 22.6406C35.8421 22.6406 39.375 19.1077 39.375 14.7656C39.375 10.4235 35.8421 6.89062 31.5 6.89062C27.1579 6.89062 23.625 10.4235 23.625 14.7656C23.625 19.1077 27.1579 22.6406 31.5 22.6406ZM31.5 8.85938C34.7573 8.85938 37.4062 11.5083 37.4062 14.7656C37.4062 18.0229 34.7573 20.6719 31.5 20.6719C28.2427 20.6719 25.5938 18.0229 25.5938 14.7656C25.5938 11.5083 28.2427 8.85938 31.5 8.85938Z" fill="#FC12AF"/>
</svg>
