<svg width="17" height="17" viewBox="0 0 17 17" fill="none" xmlns="http://www.w3.org/2000/svg">
<path d="M8.5 17C13.1944 17 17 13.1944 17 8.5C17 3.80558 13.1944 0 8.5 0C3.80558 0 0 3.80558 0 8.5C0 13.1944 3.80558 17 8.5 17Z" fill="#F0F0F0"/>
<path d="M1.75702 3.32495C1.08933 4.19364 0.585875 5.19488 0.292725 6.28259H4.71465L1.75702 3.32495Z" fill="#0052B4"/>
<path d="M16.707 6.28255C16.4139 5.19488 15.9104 4.19364 15.2427 3.32495L12.2852 6.28255H16.707Z" fill="#0052B4"/>
<path d="M0.292725 10.7173C0.585908 11.805 1.08937 12.8062 1.75702 13.6749L4.71455 10.7173H0.292725Z" fill="#0052B4"/>
<path d="M13.6749 1.75705C12.8062 1.08937 11.805 0.585908 10.7173 0.292725V4.71462L13.6749 1.75705Z" fill="#0052B4"/>
<path d="M3.32495 15.2427C4.19364 15.9104 5.19488 16.4138 6.28255 16.707V12.2852L3.32495 15.2427Z" fill="#0052B4"/>
<path d="M6.28252 0.292725C5.19485 0.585908 4.19361 1.08937 3.32495 1.75702L6.28252 4.71458V0.292725Z" fill="#0052B4"/>
<path d="M10.7173 16.707C11.805 16.4138 12.8062 15.9104 13.6749 15.2427L10.7173 12.2852V16.707Z" fill="#0052B4"/>
<path d="M12.2852 10.7173L15.2427 13.6749C15.9104 12.8062 16.4139 11.805 16.707 10.7173H12.2852Z" fill="#0052B4"/>
<path d="M16.928 7.39131H9.60875H9.60872V0.0719512C9.24578 0.0247031 8.87576 0 8.5 0C8.12417 0 7.75422 0.0247031 7.39131 0.0719512V7.39125V7.39128H0.0719512C0.0247031 7.75422 0 8.12424 0 8.5C0 8.87583 0.0247031 9.24578 0.0719512 9.60869H7.39125H7.39128V16.928C7.75422 16.9753 8.12417 17 8.5 17C8.87576 17 9.24578 16.9753 9.60869 16.928V9.60875V9.60872H16.928C16.9753 9.24578 17 8.87583 17 8.5C17 8.12424 16.9753 7.75422 16.928 7.39131Z" fill="#D80027"/>
<path d="M10.7173 10.7173L14.5103 14.5103C14.6847 14.3359 14.8511 14.1536 15.0099 13.9646L11.7626 10.7173H10.7173V10.7173Z" fill="#D80027"/>
<path d="M6.28252 10.7175H6.28245L2.4895 14.5105C2.66388 14.6849 2.8462 14.8514 3.03519 15.0101L6.28252 11.7627V10.7175Z" fill="#D80027"/>
<path d="M6.28262 6.28259V6.28253L2.48963 2.4895C2.31518 2.66388 2.14877 2.8462 1.98999 3.0352L5.23736 6.28256H6.28262V6.28259Z" fill="#D80027"/>
<path d="M10.7173 6.28266L14.5103 2.4896C14.3359 2.31515 14.1536 2.14873 13.9646 1.98999L10.7173 5.23736V6.28266Z" fill="#D80027"/>
</svg>
