<?xml version="1.0" encoding="utf-8"?>
<!-- Generator: Adobe Illustrator 22.1.0, SVG Export Plug-In . SVG Version: 6.00 Build 0)  -->
<svg version="1.1" id="Слой_1" xmlns="http://www.w3.org/2000/svg" xmlns:xlink="http://www.w3.org/1999/xlink" x="0px" y="0px"
	 viewBox="0 0 283.5 85" style="enable-background:new 0 0 283.5 85;" xml:space="preserve">
<style type="text/css">
	.st0{fill:#F6E146;}
	.st1{fill-rule:evenodd;clip-rule:evenodd;fill:#D24A43;}
	.st2{fill:#D24A43;}
	.st3{fill:#FFFFFF;}
</style>
<g>
	<g>
		<path class="st0" d="M158.3,12.3c2.7,0,4.6,1.2,5.7,3.5l4.3-3.2c-0.7-1.2-1.6-2.2-2.7-3.1c-1.9-1.4-4.3-2.1-7.1-2.1
			c-3.4,0-6.1,1.1-8.2,3.2c-2.1,2.1-3.2,4.9-3.2,8.2c0,3.3,1.1,6,3.2,8.2c2.1,2.1,4.9,3.2,8.2,3.2c2.8,0,5.1-0.7,7.1-2.2
			c1-0.7,1.8-1.6,2.4-2.7l-4-3.5c-0.9,2.4-2.7,3.5-5.5,3.5c-1.8,0-3.3-0.6-4.4-1.9c-1.1-1.3-1.7-2.8-1.7-4.6c0-1.9,0.5-3.4,1.5-4.7
			C155,12.9,156.4,12.3,158.3,12.3z M190.2,10.4c-1.6-2-3.8-3-6.7-3c-3.2,0-5.8,1.1-7.8,3.3c-2,2.2-3,4.9-3,8.1c0,3.2,1,5.9,3,8.1
			c2,2.2,4.6,3.3,7.8,3.3c2.9,0,5.2-1,6.8-3.1v2.5h5.3V8.1h-5.4V10.4z M188.5,23.4c-1.2,1.3-2.7,2-4.4,2c-1.8,0-3.2-0.7-4.4-2
			c-1.2-1.3-1.8-2.8-1.8-4.6c0-1.8,0.6-3.3,1.7-4.6c1.1-1.3,2.6-1.9,4.4-1.9c1.8,0,3.3,0.6,4.5,1.9c1.2,1.3,1.8,2.8,1.8,4.7
			C190.3,20.6,189.7,22.1,188.5,23.4z M212.6,18.3c-0.6-0.4-1.6-0.9-3.1-1.5c-1.4-0.6-2.5-1.1-3.2-1.6c-0.3-0.2-0.6-0.4-0.7-0.7
			c-0.1-0.2-0.2-0.5-0.2-0.8c0-1.3,0.7-2,2.1-2c1.5,0,2.3,0.7,2.3,2.1h5.1c-0.4-4.3-2.9-6.5-7.3-6.5c-2,0-3.7,0.6-5.2,1.9
			c-1.4,1.3-2.2,2.9-2.2,4.8c0,1.6,0.5,2.9,1.5,3.7c1,0.8,2.3,1.6,4,2.2c1.5,0.6,2.4,1,2.8,1.2c1.1,0.7,1.7,1.4,1.7,2.3
			c0,1.6-0.9,2.3-2.7,2.3c-1.9,0-2.9-1-2.9-3h-5.1c0,2.2,0.8,3.9,2.3,5.3c1.5,1.4,3.4,2,5.6,2c2.3,0,4.2-0.5,5.6-1.5
			c1.6-1.2,2.3-2.9,2.3-5.1c0-1-0.2-1.9-0.5-2.6C214.5,19.9,213.7,19,212.6,18.3z M219.9,29.6h5.4V8.1h-5.4V29.6z M241.8,7.6
			c-2.6,0-4.5,1-5.9,2.9V8.1h-5.2v21.5h5.4v-11c0-4.1,1.5-6.1,4.4-6.1c2.7,0,4.1,1.7,4.1,5.2v12h5.4V16.2c0-2.7-0.7-4.8-2.1-6.4
			C246.5,8.3,244.5,7.6,241.8,7.6z M274.2,10.6c-2.2-2.1-5-3.2-8.3-3.2c-3.3,0-6.1,1.1-8.3,3.2c-2.2,2.1-3.4,4.8-3.4,8.1
			c0,3.4,1.1,6.1,3.3,8.2c2.2,2.1,5,3.2,8.4,3.2c3.4,0,6.2-1.1,8.4-3.2c2.2-2.1,3.3-4.9,3.3-8.3C277.5,15.4,276.4,12.7,274.2,10.6z
			 M270.3,23.4c-1.1,1.2-2.6,1.8-4.5,1.8c-1.9,0-3.4-0.6-4.5-1.8c-1.1-1.2-1.7-2.7-1.7-4.6c0-1.9,0.5-3.4,1.7-4.7
			c1.1-1.2,2.6-1.8,4.5-1.8c1.9,0,3.4,0.6,4.5,1.8c1.1,1.2,1.6,2.8,1.6,4.7C271.9,20.7,271.4,22.2,270.3,23.4z"/>
	</g>
</g>
<path class="st1" d="M266.2,36.5H277v40.1h-10.8V36.5z"/>
<path class="st2" d="M72.3,36.6c-1.6-0.1-8.8,0-15,6.3l-24,22c-2.9,2.7-6.3,2.5-6.3,2.5l-0.5,0c-5.7,0-10.4-4.6-10.4-10.3
	c0-5.7,4.7-10.3,10.4-10.3l0,0c4.4,0.1,8.3,3,9.7,7.2l7.9-6.9c-3.6-6.2-10.4-10.3-17.8-10.3l0,0C15.1,36.7,6,45.8,6,56.9
	c0,11.2,9.1,20.3,20.3,20.4c0.2,0,0.4,0,0.7,0c2.4,0,8.1-0.5,13.1-5.2l24.1-22l0.2-0.2c3.3-3.5,7.2-3.3,7.3-3.3l0.4,0
	c5.7,0,10.4,4.6,10.4,10.3c0,5.7-4.7,10.3-10.4,10.3c-4.5,0-8.6-3-9.9-7.3l-7.9,7c3.6,6.2,10.4,10.3,17.8,10.3
	c11.3,0,20.5-9.1,20.5-20.4C92.6,45.7,83.5,36.6,72.3,36.6z"/>
<path class="st2" d="M255.6,36.6c-1.6-0.1-8.8,0-15,6.3l-24,22c-2.9,2.7-6.3,2.5-6.3,2.5l-0.5,0c-5.7,0-10.4-4.6-10.4-10.3
	c0-5.7,4.7-10.3,10.4-10.3l0,0c4.4,0.1,8.3,3,9.7,7.2l7.9-6.9c-3.6-6.2-10.4-10.3-17.8-10.3l0,0c-11.2,0.1-20.2,9.2-20.2,20.4
	c0,11.2,9.1,20.3,20.3,20.4c0.2,0,0.4,0,0.7,0c2.4,0,8.1-0.5,13.1-5.2l24.1-22l0.2-0.2c3.3-3.5,7.2-3.3,7.3-3.3l0.4,0
	c5.7,0,10.4,4.6,10.4,10.3c0,5.7-4.7,10.3-10.4,10.3c-4.5,0-8.6-3-9.9-7.3l-7.9,7c3.6,6.2,10.4,10.3,17.8,10.3
	c11.3,0,20.5-9.1,20.5-20.4C275.9,45.7,266.8,36.6,255.6,36.6z"/>
<path class="st3" d="M138.3,7.4h-10.7v34.8c-3-3.1-6.8-4.7-11.3-4.7c-5.5,0-10,1.9-13.5,5.8c-3.4,3.8-5.2,8.5-5.2,14
	c0,5.6,1.7,10.2,5.1,14c3.5,3.9,8.1,5.9,13.6,5.9c4.9,0,8.7-1.6,11.2-4.9v3.8h10.7V7.4z M124.9,64.8c-1.8,1.9-4.2,2.9-7.2,2.9
	c-2.8,0-5.1-1-6.9-3.1c-1.8-2-2.7-4.5-2.7-7.3c0-2.9,0.9-5.4,2.8-7.3c1.8-2,4.2-3,7.1-3c3.1,0,5.5,1,7.2,2.9
	c1.7,1.9,2.6,4.4,2.6,7.5C127.6,60.4,126.7,62.9,124.9,64.8z"/>
<path class="st3" d="M181.8,38.6h-10.9v20.2c0,5.9-2.1,8.8-6.4,8.8c-4,0-6-2.7-6-8.1v-21h-10.9v23.1c0,4.7,1.3,8.4,3.8,11.1
	c2.6,2.9,6.2,4.3,10.8,4.3c4.2,0,7.3-1.8,9.4-5.3v4.2h10.2V38.6z"/>
</svg>
