<?xml version="1.0" encoding="utf-8"?>
<!-- Generator: Adobe Illustrator 22.1.0, SVG Export Plug-In . SVG Version: 6.00 Build 0)  -->
<svg version="1.1" id="Capa_1" xmlns="http://www.w3.org/2000/svg" xmlns:xlink="http://www.w3.org/1999/xlink" x="0px" y="0px"
	 viewBox="0 0 86.6 40.8" style="enable-background:new 0 0 86.6 40.8;" xml:space="preserve">
<style type="text/css">
	.st0{fill:#FF0600;}
</style>
<path class="st0" d="M66.3,0c-1.6-0.1-8.8,0-15,6.3l-24,22c-2.9,2.7-6.3,2.5-6.3,2.5l-0.5,0c-5.7,0-10.4-4.6-10.4-10.3
	c0-5.7,4.7-10.3,10.4-10.3l0,0c4.4,0.1,8.3,3,9.7,7.2l7.9-6.9C34.4,4,27.7,0,20.2,0l0,0C9.1,0.2,0,9.2,0,20.4
	c0,11.2,9.1,20.3,20.3,20.4c0.2,0,0.4,0,0.7,0c2.4,0,8.1-0.5,13.1-5.2l24.1-22l0.2-0.2c3.3-3.5,7.2-3.3,7.3-3.3l0.4,0
	c5.7,0,10.4,4.6,10.4,10.3c0,5.7-4.7,10.3-10.4,10.3c-4.5,0-8.6-3-9.9-7.3l-7.9,7c3.6,6.2,10.4,10.3,17.8,10.3
	c11.3,0,20.5-9.1,20.5-20.4C86.6,9.2,77.5,0.1,66.3,0z"/>
</svg>
