<svg 
 xmlns="http://www.w3.org/2000/svg"
 xmlns:xlink="http://www.w3.org/1999/xlink"
 width="115px" height="103px">
<path fill-rule="evenodd"  fill="rgb(255, 255, 255)"
 d="M113.255,75.691 C105.613,85.492 96.066,92.844 84.565,97.622 C75.829,101.251 66.703,102.986 54.369,103.000 C34.740,102.483 16.202,93.799 1.945,76.325 C-0.833,72.920 -0.589,68.449 2.404,65.593 C5.340,62.791 9.903,62.642 12.963,65.286 C13.550,65.792 14.043,66.414 14.540,67.015 C24.189,78.679 36.533,85.633 51.616,87.030 C71.425,88.865 87.799,81.933 100.480,66.572 C103.017,63.499 106.071,62.312 109.365,63.290 C114.746,64.885 116.751,71.207 113.255,75.691 ZM93.956,38.963 C87.897,39.532 82.552,35.743 81.208,29.865 C80.983,28.878 80.947,27.834 80.931,26.815 C80.893,24.376 80.919,21.937 80.920,19.497 C80.920,16.960 80.893,14.423 80.925,11.886 C81.011,5.132 86.079,0.013 92.657,0.007 C99.238,0.001 104.400,5.126 104.474,11.834 C104.532,17.005 104.550,22.178 104.468,27.349 C104.371,33.439 99.806,38.413 93.956,38.963 ZM33.766,27.155 C33.675,33.493 29.044,38.581 23.040,38.975 C16.560,39.401 10.941,35.213 10.456,28.745 C9.983,22.449 10.036,16.057 10.546,9.763 C11.033,3.745 16.796,-0.392 22.973,0.031 C28.812,0.432 33.549,5.307 33.735,11.208 C33.823,13.985 33.750,16.767 33.750,19.547 C33.758,19.547 33.765,19.547 33.772,19.547 C33.772,22.083 33.802,24.619 33.766,27.155 Z"/>
</svg>
