<svg 
 xmlns="http://www.w3.org/2000/svg"
 xmlns:xlink="http://www.w3.org/1999/xlink"
 width="115px" height="103px">
<path fill-rule="evenodd"  fill="rgb(255, 255, 255)"
 d="M109.365,101.710 C106.071,102.687 103.017,101.501 100.480,98.428 C87.799,83.066 71.425,76.135 51.616,77.970 C36.533,79.367 24.189,86.321 14.540,97.985 C14.043,98.586 13.550,99.208 12.963,99.714 C9.903,102.358 5.340,102.209 2.404,99.407 C-0.589,96.551 -0.833,92.080 1.945,88.675 C16.202,71.201 34.740,62.517 54.369,62.000 C66.703,62.014 75.829,63.749 84.565,67.378 C96.066,72.156 105.613,79.508 113.255,89.309 C116.751,93.793 114.746,100.115 109.365,101.710 ZM93.956,38.963 C87.897,39.532 82.552,35.743 81.208,29.865 C80.983,28.878 80.947,27.834 80.931,26.815 C80.893,24.376 80.919,21.937 80.920,19.497 C80.920,16.960 80.893,14.423 80.925,11.886 C81.011,5.132 86.079,0.013 92.657,0.007 C99.238,0.001 104.400,5.126 104.474,11.834 C104.532,17.005 104.550,22.178 104.468,27.349 C104.371,33.439 99.806,38.413 93.956,38.963 ZM33.766,27.155 C33.675,33.493 29.044,38.581 23.040,38.975 C16.560,39.401 10.941,35.213 10.456,28.745 C9.983,22.449 10.036,16.057 10.546,9.763 C11.033,3.745 16.796,-0.392 22.973,0.031 C28.812,0.432 33.549,5.307 33.735,11.208 C33.823,13.985 33.750,16.767 33.750,19.547 C33.758,19.547 33.765,19.547 33.772,19.547 C33.772,22.083 33.802,24.619 33.766,27.155 Z"/>
</svg>
