<svg 
 xmlns="http://www.w3.org/2000/svg"
 xmlns:xlink="http://www.w3.org/1999/xlink"
 width="50px" height="13px">
<path fill-rule="evenodd"  fill="rgb(212, 43, 46)"
 d="M46.499,8.296 L47.326,13.000 L42.998,10.779 L38.671,13.000 L39.497,8.296 L35.996,4.966 L40.834,4.279 L42.998,-0.000 L45.162,4.279 L50.001,4.966 L46.499,8.296 ZM29.326,13.000 L24.998,10.779 L20.670,13.000 L21.497,8.296 L17.996,4.966 L22.834,4.279 L24.998,-0.000 L27.162,4.279 L32.001,4.966 L28.499,8.296 L29.326,13.000 ZM11.326,13.000 L6.998,10.779 L2.671,13.000 L3.497,8.296 L-0.004,4.966 L4.834,4.279 L6.998,-0.000 L9.162,4.279 L14.001,4.966 L10.499,8.296 L11.326,13.000 Z"/>
</svg>
