<svg xmlns="http://www.w3.org/2000/svg" viewBox="0 0 407.26 130.49"><defs><style>.cls-1{fill:#30353c;}.cls-2{fill:#30353c;}</style></defs><title>Ресурс 4_1</title><g id="Слой_2" data-name="Слой 2"><g id="Layer_1" data-name="Layer 1"><g id="_Группа_" data-name="&lt;Группа&gt;"><rect id="_Контур_" data-name="&lt;Контур&gt;" class="cls-1" x="87.37" y="19.99" width="20.5" height="92.35"/><g id="_Группа_2" data-name="&lt;Группа&gt;"><path id="_Контур_2" data-name="&lt;Контур&gt;" class="cls-1" d="M231.3,79.88C229,73.89,208.21,20,208.21,20H186l.39,1,35.28,91.37h19.3L276.44,20H254.11s-19.18,50-22.81,59.89"/><path class="cls-1" d="M164.48,93c-4.74,3.29-12.06,5-22.23,5H138.7V34.3h2.89c13.42,0,18.1,1.05,23.28,4.74C171.66,44.1,175.6,54,175.6,66.17s-4.08,22-11.12,26.86m16.24-64C172.09,22.5,161.6,20,143.09,20H118.24v92.35h23.53c18.31,0,27.91-1.84,36.27-7.06C190,97.76,196.14,84.05,196.13,66c0-16.56-5.2-29.19-15.41-37"/><path class="cls-1" d="M49.47,96.47c-3.75,1.62-9.95,1.42-20.81,1.42H20.52V74.05h8.3c8.7,0,15.79.33,20.06,1.64,5.19,1.6,7.88,4.87,7.88,10.32,0,6.32-3,8.62-7.29,10.46M20.54,34.2H27c10.52,0,17.57-.35,21.49,1.65,3.62,1.8,5.84,4.32,5.84,9.27,0,4.56-2,7.11-5.68,9.06C45.4,55.9,37.28,56.71,27.78,56.7H20.54Zm37,30.65c11.58-3.19,17.36-10.06,17.29-20.42A21.87,21.87,0,0,0,61.57,23.94c-7.07-3.22-14.5-4.28-30.31-4.27H0V112H35c14.78,0,22.21-1.19,29-4.57C72.56,103,77.33,95.34,77.32,86.2c.07-11.2-6.7-18.38-19.76-21.35"/></g><polyline id="_Контур_3" data-name="&lt;Контур&gt;" class="cls-2" points="331.6 24.25 331.58 75.27 342.27 75.27 352.08 75.28 352.09 24.26 342.28 24.25"/><g id="_Группа_3" data-name="&lt;Группа&gt;"><path class="cls-1" d="M320.36,34.4h10.25V65.29H320.36Zm38.26,30.89h-5.53V34.41h5.53c5.62,0,9.9,6.93,9.94,15.44.06,8.31-4.31,15.44-9.95,15.44"/></g><path class="cls-2" d="M341.82,126.29l0,0L280.57,65.24,341.83,4.17v0l61.26,61.08ZM276.41,65.24l.54.55,62.43,62.26,2.45,2.44,2.45-2.44,63-62.78L341.85,0"/><polyline id="_Контур_4" data-name="&lt;Контур&gt;" class="cls-2" points="341.82 94.69 312.3 65.24 283.32 65.24 334.34 116.13 334.88 116.68 341.82 123.59 400.35 65.24 371.37 65.24"/></g></g></g></svg>
