<svg xmlns="http://www.w3.org/2000/svg" xmlns:xlink="http://www.w3.org/1999/xlink" viewBox="0 0 250 60"><defs><style>.cls-1{fill:none;}.cls-2{fill:#30353c;}.cls-3{clip-path:url(#clip-path);}.cls-4{fill:#30353c;}</style><clipPath id="clip-path"><rect class="cls-1" x="0.06" width="249.94" height="59.94"/></clipPath></defs><title>Ресурс2</title><g id="Слой_2" data-name="Слой 2"><g id="Слой_1-2" data-name="Слой 1"><path class="cls-2" d="M39.29,32.92a7.24,7.24,0,0,0,4.24-1.12,4.09,4.09,0,0,0,1.85-3.61,13.17,13.17,0,0,0-2.82-8.1,17.25,17.25,0,0,0-14.1-6.92A17,17,0,0,0,11,30.32a15.94,15.94,0,0,0,5.13,12A17.88,17.88,0,0,0,29,47.23a26.2,26.2,0,0,0,7.88-1.18,12.83,12.83,0,0,0,6.54-4,4.52,4.52,0,0,0,1.15-2.84c0-2.48-1.37-3.73-4.1-3.73a18.78,18.78,0,0,0-4.62,1.57,16.77,16.77,0,0,1-6.34,1.57,9.22,9.22,0,0,1-5.32-1.48,5.67,5.67,0,0,1-2.5-4.26H39.29M23.91,22.54A6.94,6.94,0,0,1,28.53,21a6.88,6.88,0,0,1,4.58,1.59,5.74,5.74,0,0,1,2.08,4.08H21.54A7,7,0,0,1,23.91,22.54Z"/><path class="cls-2" d="M51.15,42.26q4.74,4.91,12.57,4.91a19,19,0,0,0,7.82-1.42q4.35-2,4.35-4.91a4.14,4.14,0,0,0-1.12-2.92,3.79,3.79,0,0,0-2.91-1.22,9.09,9.09,0,0,0-3.08.71,11.11,11.11,0,0,1-4,.71A7.25,7.25,0,0,1,59,35.76a8.55,8.55,0,0,1-1.79-5.68,8.85,8.85,0,0,1,1.73-5.61A6.48,6.48,0,0,1,64.36,22a11.63,11.63,0,0,1,4.13.74,9.55,9.55,0,0,0,3.17.74,4.23,4.23,0,0,0,3.08-1.18A3.9,3.9,0,0,0,76,19.38q0-3.31-4.23-5a20.86,20.86,0,0,0-7.37-1.19q-8.09,0-13,4.76a16.41,16.41,0,0,0-4.87,12.27,16.49,16.49,0,0,0,4.61,12"/><g class="cls-3"><path class="cls-2" d="M81,42.32a17.24,17.24,0,0,0,12.76,5,17.2,17.2,0,0,0,12.75-5,16.64,16.64,0,0,0,4.74-12.12A16.83,16.83,0,0,0,106.47,18q-4.81-4.9-12.69-4.9a17.07,17.07,0,0,0-12.66,4.93,16.66,16.66,0,0,0-4.91,12.21A16.46,16.46,0,0,0,81,42.32m7.5-17.62a6.14,6.14,0,0,1,5.26-2.54A6,6,0,0,1,99,24.76a8.89,8.89,0,0,1,1.67,5.44A9.05,9.05,0,0,1,99,35.7a6.09,6.09,0,0,1-5.25,2.6,6,6,0,0,1-5.19-2.6,8.92,8.92,0,0,1-1.67-5.5A9.21,9.21,0,0,1,88.52,24.7Z"/><path class="cls-4" d="M43.08,0C19.27,0,0,11.45,0,25.67c0,6,3.48,11.55,9.39,16a19.25,19.25,0,0,1-4.55-12C4.84,14.9,23.72,3,47,3,62,3,75.13,7.9,82.59,15.4,75.9,6.32,60.71,0,43.08,0"/></g><path class="cls-4" d="M125.82,12.29h4.62q7.31,0,7.31,5.61t-7.31,5.74h-4.62V12.29m0,27.64V32.57H133q7.58,0,11.93-3.85t4.36-10.82q0-7-4.81-10.93-4.56-3.73-12.31-3.73h-9.61q-4.17,0-5.77,1.54t-1.61,5.37V39.91q0,7,5.32,7T125.82,39.93Z"/><g class="cls-3"><path class="cls-4" d="M162.24,24.88a6,6,0,0,1,5-2.42,5.88,5.88,0,0,1,5,2.42,8.77,8.77,0,0,1,1.53,5.26,9,9,0,0,1-1.53,5.32,5.84,5.84,0,0,1-5,2.49,6,6,0,0,1-5.11-2.49,8.8,8.8,0,0,1-1.59-5.32,8.43,8.43,0,0,1,1.66-5.26m17,22q5.13,0,5.13-7V20.64q0-6.93-5.13-6.93a5.52,5.52,0,0,0-4.94,3A10.73,10.73,0,0,0,166,13.29a14.88,14.88,0,0,0-11.73,5.32,17.14,17.14,0,0,0-4.36,11.65A17.25,17.25,0,0,0,154,41.79a14.51,14.51,0,0,0,11.54,5.32,11,11,0,0,0,8.71-3.61A5.15,5.15,0,0,0,179.23,46.87Z"/><path class="cls-4" d="M208.4,17.49l-6.35,15.25-5.9-14.42a11.24,11.24,0,0,0-1.73-3.25,4.59,4.59,0,0,0-3.52-1.36,5.08,5.08,0,0,0-3.63,1.36,4.43,4.43,0,0,0-1.44,3.36,6.2,6.2,0,0,0,.58,2.67l10.44,22.51-4.27,8.57a7.73,7.73,0,0,0-.85,3.23,4.24,4.24,0,0,0,1.41,3.36A5.46,5.46,0,0,0,196.86,60q2.74,0,4.55-3.84l15.83-34.59a8.17,8.17,0,0,0,.83-3.31c0-3-1.71-4.55-5.12-4.55q-3,0-4.55,3.78"/></g><path class="cls-4" d="M243.54,37.53H233.3l13.76-16.31c1.4-1.65,2.11-3,2.11-4.2a2.25,2.25,0,0,0-1.61-2.4,18,18,0,0,0-4.93-.5H226q-6.6,0-6.6,4.32c0,2.91,2.17,4.37,6.53,4.37h8.91l-14.23,17a5.74,5.74,0,0,0-1.54,3.67q0,3,5.45,2.95h18.91Q250,46.4,250,42t-6.46-4.5"/></g></g></svg>
