<svg xmlns="http://www.w3.org/2000/svg" viewBox="0 0 523.38 116.09">
<defs><style>.cls-1{fill:none;}.cls-2{fill:#30353c;}.cls-3{fill:#30353c;}</style></defs><title>Ресурс 3</title>
<g id="Слой_2" data-name="Слой 2"><g id="Layer_1" data-name="Layer 1">
<path class="cls-1" d="M10.48,58.05a47.57,47.57,0,0,0,42.34,47.28V10.76A47.58,47.58,0,0,0,10.48,58.05Z"/>
<path class="cls-2" d="M52.82,10.76v94.57a47.22,47.22,0,0,0,10.45,0V10.76a48.89,48.89,0,0,0-10.45,0Z"/>
<path class="cls-2" d="M58.05,0c-1.76,0-3.51.08-5.23.24V105.33A47.57,47.57,0,0,1,10.48,58.05h37.7V11.51l.15,0-.15,0V.84a58.05,58.05,0,0,0,4.64,115c1.72.15,3.47.23,5.23.23s3.5-.08,5.22-.23V.24Q60.69,0,58.05,0Z"/>
<path class="cls-2" d="M105.62,58.05H67.91v57.2a58,58,0,0,0,48.18-57.2Z"/><path class="cls-3" d="M138,39.19h40.09V51.6H153v6h22.86V69.17H153v6h25.91V87.62H138Z"/>
<path class="cls-3" d="M198.61,61.85,182.67,39.19h17.5l7.33,13.16,7.19-13.16h16.55L215.7,62,233,87.62H215l-8.27-14.45L198.2,87.62H181.11Z"/>
<path class="cls-3" d="M236.05,39.19H251V87.62H236.05Z"/>
<path class="cls-3" d="M258.57,39.19H279.8l6.92,28.49h.14l6.92-28.49H315V87.62H300.9V56.55h-.14l-8.41,31.07H281.23l-8.41-31.07h-.14V87.62H258.57Z"/>
<path class="cls-3" d="M337.59,67.07H347c3.53,0,5.23,1.56,5.23,4.41,0,3.73-2.72,4.61-5.84,4.61h-8.75ZM322.67,87.62h27.47c8.55,0,17-5,17-14.72,0-7.12-4.07-10.58-8.41-12.07,3.59-2,6-4.62,6-9.5S362,39.19,349.19,39.19H322.67Zm14.92-36.9h7.87c3.06,0,5.09.88,5.09,3.33,0,3.12-2,4-5.09,4h-7.87Z"/>
<path class="cls-3" d="M388.94,70.32l4.68-14.92h.14l4.34,14.92Zm-20.41,17.3h15l2.18-6.92h15.39l2,6.92h15.47L401,39.19H386.36Z"/>
<path class="cls-3" d="M422,39.19h15.27L451.35,65.1h.13V39.19h14.11V87.62H451.07L436.22,61.17h-.14V87.62H422Z"/>
<path class="cls-3" d="M473.8,39.19h14.92V55.88h.14l13.29-16.69h18.38L503,58.11l20.42,29.51H504.8L492.86,68.76l-4.14,4.55V87.62H473.8Z"/>
</g></g></svg>
