<svg xmlns="http://www.w3.org/2000/svg" viewBox="0 0 198.86 30.12"><defs><style>.cls-1{fill:#30353c;}</style></defs><title>Ресурс 7</title><g id="Слой_2" data-name="Слой 2"><g id="Layer_1" data-name="Layer 1"><path class="cls-1" d="M83.32,15.66a10,10,0,0,0-5.51-1.47,11.16,11.16,0,0,0-1.42.06,11.38,11.38,0,0,0-5.33,1.92,9.11,9.11,0,0,0-3.73,6.08l-.07.78-.11.9a5.29,5.29,0,0,0,2.24,4.61A9.66,9.66,0,0,0,75,30.11c.49,0,1,0,1.35-.06a4.32,4.32,0,0,0,.74-.13,12.51,12.51,0,0,0,1.46-.34,11.31,11.31,0,0,0,1.07-.37,15,15,0,0,0,2.06-1.08,9.55,9.55,0,0,0,1.74-1.57,9.36,9.36,0,0,0,2.06-4.68l.14-1.54a5.11,5.11,0,0,0-2.34-4.68m-4.94,8.78a2.78,2.78,0,0,1-2,1.54,2.35,2.35,0,0,1-.71.07c-1.42,0-2.14-.84-2.14-2.52a14.8,14.8,0,0,1,1-3.83,2.82,2.82,0,0,1,1.82-1.45,4.18,4.18,0,0,1,.89-.1c1.31,0,2,.91,2,2.73a7.4,7.4,0,0,1-.89,3.56"/><path class="cls-1" d="M43.27,15.13c-1-.64-2.74-.94-5.22-.94h-.46c-.93,0-1.75,0-2.53.1q-6.24.65-7,4.94h6.11a1.93,1.93,0,0,1,.92-1.11,3.09,3.09,0,0,1,1.57-.37c1.24,0,1.84.37,1.84,1.08,0,.47-.32.83-1,1.1a12.13,12.13,0,0,1-2.42.47l-.67.1L32,20.84l-1.6.31a7.91,7.91,0,0,0-2.77,1.3,5.16,5.16,0,0,0-1.78,3,1.81,1.81,0,0,1-.1.44v.64A2.72,2.72,0,0,0,27,29a6.3,6.3,0,0,0,3.62,1.15h.32a10,10,0,0,0,4.16-.88A11.62,11.62,0,0,0,37.12,28v1.65h6.5l.07-.27A2.13,2.13,0,0,1,43,28.23l.18-1,1.38-7.33a13.1,13.1,0,0,0,.18-1.85,3.24,3.24,0,0,0-1.49-2.92M36.63,25.58a3.73,3.73,0,0,1-1.07.84,2.46,2.46,0,0,1-.5.17,3.06,3.06,0,0,1-.92.14c-1.14,0-1.71-.38-1.71-1.15v-.13a1.59,1.59,0,0,1,.82-1.21l1-.38a3.91,3.91,0,0,1,.85-.23c.14,0,.29,0,.43,0a13.55,13.55,0,0,0,2.19-.6,5.28,5.28,0,0,1-1,2.59"/><path class="cls-1" d="M63.41,15.77a9.27,9.27,0,0,0-5.78-1.58,10.79,10.79,0,0,0-7.36,2.35A10.08,10.08,0,0,0,47,22.35l-.07.71-.15.8a5.76,5.76,0,0,0,2,4.44,8.65,8.65,0,0,0,5.87,1.75A12.42,12.42,0,0,0,61,28.47a7.52,7.52,0,0,0,3.55-4.64H58.23a3,3,0,0,1-2.81,2.22c-1.52,0-2.31-.81-2.31-2.46a13.29,13.29,0,0,1,1-3.89,2.81,2.81,0,0,1,2.7-1.55,1.71,1.71,0,0,1,1.42.58A1.68,1.68,0,0,1,58.72,20l0,.37h6.39l0-.85a4.58,4.58,0,0,0-1.71-3.72"/><path class="cls-1" d="M23.38,2A12.12,12.12,0,0,0,16,0c-.67,0-1.28,0-1.84.07S13,.19,12.45.26a17.49,17.49,0,0,0-3,.85A12.56,12.56,0,0,0,4.83,4.25,9.24,9.24,0,0,0,2.7,8.66l-.07.93-.15,1.16a5.55,5.55,0,0,0,2.35,4.91,20.23,20.23,0,0,0,6.56,2.68,37.74,37.74,0,0,1,3.87,1.33,1.74,1.74,0,0,1,.92,1.42v.48c-.32,1.3-1.6,2-3.8,2a4.6,4.6,0,0,1-2.55-.74,2.6,2.6,0,0,1-1.17-2.3H.11A3.38,3.38,0,0,0,0,21.57a7.43,7.43,0,0,0,2.63,5.85,11.39,11.39,0,0,0,8,2.67,18.08,18.08,0,0,0,9.29-2.34,10.19,10.19,0,0,0,5-7.44L25,18.64A5.55,5.55,0,0,0,23,14.17a15.23,15.23,0,0,0-5.82-2.64l-2.87-.78a7.45,7.45,0,0,1-2.34-1,1.61,1.61,0,0,1-.64-1.26l0-.34c.21-1,1.21-1.53,2.95-1.53,2.2,0,3.33.75,3.33,2.31V9h8.48V8.55c0-2.93-.89-5.13-2.69-6.51"/><path class="cls-1" d="M175.36,15.23a6.11,6.11,0,0,0-3.77-1A8,8,0,0,0,165.66,17l.45-2.42h-5.79l-2.8,15.09h6.36l1.41-7.7a4.73,4.73,0,0,1,1.11-2.46,2.76,2.76,0,0,1,1.92-.6,1.57,1.57,0,0,1,1.77,1.78v.51l0,.47-1.48,8h6.29l1.7-9.08a8.35,8.35,0,0,0,.18-1.81,4.18,4.18,0,0,0-1.38-3.53"/><polygon class="cls-1" points="198.86 13.99 191.49 13.99 186.57 18.56 189.08 4.97 182.76 4.97 178.22 29.65 184.54 29.65 185.46 24.86 186.82 23.7 189.19 29.65 196.75 29.65 191.92 19.79 198.86 13.99"/><path class="cls-1" d="M114.73,15.16a5.87,5.87,0,0,0-3.73-1,8.13,8.13,0,0,0-6.08,2.75c-.56-1.84-2.09-2.75-4.62-2.75h-.14a6.55,6.55,0,0,0-3,.77,8.34,8.34,0,0,0-2.49,1.85l.39-2.25H89.32L86.55,29.65h6.3L94.26,22a5.15,5.15,0,0,1,1.07-2.35,2.46,2.46,0,0,1,1.77-.71,1.44,1.44,0,0,1,1.64,1.61l-.11,1.31-1.46,7.84h6.33l1.42-7.7a4.11,4.11,0,0,1,1.14-2.55,2.81,2.81,0,0,1,1.63-.51,1.91,1.91,0,0,1,1.36.37,1.67,1.67,0,0,1,.38,1.21,10,10,0,0,1-.17,1.48l-1.43,7.7h6.33l1.67-9a12.59,12.59,0,0,0,.18-2.15,4,4,0,0,0-1.28-3.33"/><path class="cls-1" d="M154.71,15.13c-1-.64-2.74-.94-5.19-.94H149c-.89,0-1.74,0-2.48.1-4.2.43-6.54,2.08-7,4.94h6.11a2,2,0,0,1,.93-1.11,3,3,0,0,1,1.56-.37c1.21,0,1.84.37,1.84,1.08,0,.47-.35.83-1,1.1a12.68,12.68,0,0,1-2.41.47l-.72.1-2.3.34-1.64.31a8.1,8.1,0,0,0-2.74,1.3,5.16,5.16,0,0,0-1.78,3c0,.06-.06.23-.11.44v.64A2.73,2.73,0,0,0,138.43,29a6.24,6.24,0,0,0,3.63,1.15h.28A9.74,9.74,0,0,0,148.56,28v1.65h6.53l.08-.27a2.07,2.07,0,0,1-.67-1.15l.17-1,1.39-7.33a14.78,14.78,0,0,0,.18-1.85,3.19,3.19,0,0,0-1.53-2.92M148.1,25.58a3.38,3.38,0,0,1-1.1.84,2.14,2.14,0,0,1-.46.17,3.33,3.33,0,0,1-.93.14c-1.13,0-1.7-.38-1.7-1.15v-.13a1.51,1.51,0,0,1,.81-1.21l.93-.38a5,5,0,0,1,.89-.23c.1,0,.25,0,.39,0a13.37,13.37,0,0,0,2.23-.6,5.29,5.29,0,0,1-1.06,2.59"/><path class="cls-1" d="M130.83,14.19a7.9,7.9,0,0,0-2.67.4c-.31.17-.64.34-1,.54a9.51,9.51,0,0,0-1.39,1l2-11.19h-6.36L117,29.65h5.69l.46-2.12c.64,1.64,2,2.49,4.09,2.58h.31a7.83,7.83,0,0,0,6.4-3,10.6,10.6,0,0,0,2.46-6.92,5.76,5.76,0,0,0-1.64-4.4,5.29,5.29,0,0,0-3.91-1.58m-1.78,10.14a3,3,0,0,1-1.84,1.38,3.58,3.58,0,0,1-.64.07c-1.43,0-2.14-.87-2.14-2.59a11.24,11.24,0,0,1,1.1-3.25,2.35,2.35,0,0,1,1.68-1.12,5,5,0,0,1,.71-.06c1.38,0,2,.84,2,2.52a5.56,5.56,0,0,1-.92,3"/></g></g></svg>
