<svg xmlns="http://www.w3.org/2000/svg" viewBox="0 0 434.75 196.87"><defs><style>.cls-1{fill:#30353c;}.cls-1,.cls-2{fill-rule:evenodd;}.cls-2{fill:#30353c;}</style></defs><title>Ресурс 8</title><g id="Слой_2" data-name="Слой 2"><g id="Layer_1" data-name="Layer 1"><path id="_Составной_контур_" data-name="&lt;Составной контур&gt;" class="cls-1" d="M217.37,29.43,188.14,58.86l29.23,29.42-29.23,29.24L129.29,58.86,188.14,0l29.23,29.43m88.09,29.43L246.8,0,217.37,29.43,246.8,58.86,217.37,88.28l29.43,29.24Z"/><path id="_Составной_контур_2" data-name="&lt;Составной контур&gt;" class="cls-1" d="M171.24,158.34v11.57a23.55,23.55,0,0,0-4.36-3.6,10.34,10.34,0,0,0-4.76-1.14,9.58,9.58,0,0,0-7.39,3.23,11.57,11.57,0,0,0-2.86,8.16,10.9,10.9,0,0,0,2.86,7.78,9.55,9.55,0,0,0,7.39,3.23,10.46,10.46,0,0,0,4.76-1.13,23.74,23.74,0,0,0,4.36-3.62v11.59a19.11,19.11,0,0,1-5.12,1.89,23.65,23.65,0,0,1-5.13.57,19.93,19.93,0,0,1-5.88-.76,16.49,16.49,0,0,1-4.94-2.27,19.74,19.74,0,0,1-6.84-7.4,22,22,0,0,1-2.27-10.07,22.45,22.45,0,0,1,1.51-8.16,19.27,19.27,0,0,1,4.37-6.65,19.57,19.57,0,0,1,6.27-4.36,20.94,20.94,0,0,1,7.78-1.33,23.65,23.65,0,0,1,5.13.57,18.49,18.49,0,0,1,5.12,1.9M98.91,195.92v-39.1h10.63V172h14.24V156.82h10.63v39.1H123.78V180H109.54v15.94Zm-6.07-37.58v11.57a18.7,18.7,0,0,0-4.37-3.6,10.33,10.33,0,0,0-4.75-1.14,9.66,9.66,0,0,0-7.41,3.23,11.6,11.6,0,0,0-2.84,8.16,10.93,10.93,0,0,0,2.84,7.78,10.21,10.21,0,0,0,7.41,3.23,10.45,10.45,0,0,0,4.75-1.13,18.82,18.82,0,0,0,4.37-3.62v11.59a19.17,19.17,0,0,1-5.13,1.89,21.84,21.84,0,0,1-4.94.57,20.44,20.44,0,0,1-6.07-.76,16.61,16.61,0,0,1-4.94-2.27,19.29,19.29,0,0,1-6.64-7.4,21.85,21.85,0,0,1-2.28-10.07,22.26,22.26,0,0,1,1.33-8.16,17.48,17.48,0,0,1,4.55-6.65A16.24,16.24,0,0,1,75,157.2a19.65,19.65,0,0,1,7.78-1.33,21.84,21.84,0,0,1,4.94.57A18.55,18.55,0,0,1,92.84,158.34ZM33.41,195.92v-39.1H57.34v8.54H43.86v6.84H56.57v8.35H43.86v6.64H57.34v8.73Zm163.08-40V165a9.28,9.28,0,0,0-7.4,3.23,11.87,11.87,0,0,0-2.85,8.16,12.37,12.37,0,0,0,2.85,8.35,9.62,9.62,0,0,0,7.4,3.23v8.92a18.72,18.72,0,0,1-8-1.52,18.27,18.27,0,0,1-6.83-4.36,17.48,17.48,0,0,1-4.55-6.65,18.64,18.64,0,0,1-1.52-8,17.8,17.8,0,0,1,1.52-7.78,17.48,17.48,0,0,1,4.55-6.65,21.63,21.63,0,0,1,6.83-4.56A22.33,22.33,0,0,1,196.49,155.87Zm-187.76,40v-30H0v-9.11H28.09v9.11H19.36v30Zm260.28,0h-9.87L256.67,179a31.28,31.28,0,0,0-.38-4c-.19-1.51-.19-3-.38-4.75a39.76,39.76,0,0,1-1.51,6.08,6.72,6.72,0,0,1-.19,1.14l-5.32,18.41h-7.21l-5.32-18.41a7.47,7.47,0,0,0-.38-1.14,36,36,0,0,1-1.33-6.08,34.07,34.07,0,0,0-.38,4.37c-.19,1.52-.38,2.85-.57,4.37l-2.28,16.89h-9.87l5.89-39.1h10.63L244,176.94c0,.19.19.38.19.76a26.54,26.54,0,0,1,1.14,4.56,9.54,9.54,0,0,1,.38-2.28,25.41,25.41,0,0,1,.76-3l6.08-20.12h10.43Zm-72.52,1V188a9.93,9.93,0,0,0,7.41-3.23,12.41,12.41,0,0,0,2.84-8.35,12.27,12.27,0,0,0-2.84-8.16,9.56,9.56,0,0,0-7.41-3.23v-9.11a22.29,22.29,0,0,1,8,1.51,21.63,21.63,0,0,1,6.83,4.56,18.21,18.21,0,0,1,4.56,6.65,21,21,0,0,1,1.51,7.78,22,22,0,0,1-1.51,8A17.51,17.51,0,0,1,211.3,191a18.27,18.27,0,0,1-6.83,4.36A18.69,18.69,0,0,1,196.49,196.87Z"/><path id="_Составной_контур_3" data-name="&lt;Составной контур&gt;" class="cls-2" d="M284.58,172.38H289v7h-4.37V188H289v8H274.71v-39.1H289v7.78h-4.37v7.78m42.91-15.56v6.26a16.75,16.75,0,0,0-.77,2.85,11.64,11.64,0,0,1-.75,2.47l-3.8,12.91h5.32v7.59h-7.6l-2.09,7H307.17l13.48-39.1ZM289,172.38a8.49,8.49,0,0,0,3-.76,3.46,3.46,0,0,0,1.51-3,3.69,3.69,0,0,0-1.33-3.23,9.9,9.9,0,0,0-3.22-.76v-7.78a38.54,38.54,0,0,1,5.69.38,15.78,15.78,0,0,1,4.56,1.51,8.68,8.68,0,0,1,4.37,7.79,7.43,7.43,0,0,1-1.71,5.31,10.12,10.12,0,0,1-5.51,3,8.83,8.83,0,0,1,6.65,3,9.89,9.89,0,0,1,2.27,6.83,10.22,10.22,0,0,1-1.33,5.51,8.12,8.12,0,0,1-3.79,3.8,15.33,15.33,0,0,1-4.94,1.52,47,47,0,0,1-6.26.37v-8a9,9,0,0,0,4.55-.95,3.31,3.31,0,0,0,1.71-3.23,4.17,4.17,0,0,0-1.52-3.41,9.34,9.34,0,0,0-4.74-1Zm109.16,23.54v-39.1h10.44v17.84l12.53-17.84h12.34L419,176l15.76,19.93H421.46l-12.91-17.46v17.46Zm-46.7,0v-39.1h10.25l14.81,20.12c.18.38.76,1.33,1.33,2.47a45.81,45.81,0,0,1,2.27,4.36c-.18-1.51-.37-3-.56-4.17,0-1.33-.2-2.47-.2-3.42V156.82h10.25v39.1H379.31l-14.8-20.12c-.19-.38-.76-1.33-1.34-2.47-.76-1.33-1.32-2.84-2.08-4.36a36.94,36.94,0,0,1,.38,4.36,19.54,19.54,0,0,1,.19,3.23v19.36Zm-23.92-7v-7.59h5.31l-4-12.91a8.06,8.06,0,0,1-.58-1.9,30.29,30.29,0,0,1-.75-3.23v-6.45h6.64l13.49,39.1H337l-2.08-7Z"/></g></g></svg>
