<?xml version="1.0" encoding="utf-8"?>
<!-- Generator: Adobe Illustrator 25.0.0, SVG Export Plug-In . SVG Version: 6.00 Build 0)  -->
<svg version="1.1" id="Layer_1" xmlns="http://www.w3.org/2000/svg" xmlns:xlink="http://www.w3.org/1999/xlink" x="0px" y="0px"
	 viewBox="0 0 99 83.1" style="enable-background:new 0 0 99 83.1;" xml:space="preserve">
<style type="text/css">
	.st0{fill-rule:evenodd;clip-rule:evenodd;fill:#FC12AF;}
</style>
<g>
	<path class="st0" d="M5.5,48.7c-1.6-10,9.4-17.1,15.8-24.9c4.3-5.3,8.6-11.4,15.2-13.1c6-1.6,11.3,5.2,17.5,4.6
		C62.1,14.5,71.2,0.6,76.3,7c5.7,7.2-12.3,16.6-9,25.1c4,10.5,24.3,8.5,26.3,19.6c1.5,8.7-12.4,11.8-19.9,16.4
		c-7.3,4.4-14.5,10-23,9.7c-8.6-0.3-15.2-6.7-22.5-11.3C20,61.1,7.1,58.4,5.5,48.7z"/>
</g>
</svg>
