<svg width="750" height="451" viewBox="0 0 750 451" fill="none" xmlns="http://www.w3.org/2000/svg">
<g filter="url(#filter0_d)">
<path fill-rule="evenodd" clip-rule="evenodd" d="M135.441 161.893C142.046 164.011 148.121 165.994 154.98 164.961C165.657 163.355 179.681 164.5 183.969 154.59C188.352 144.461 180.287 132.827 172.075 125.453C165.714 119.741 156.433 122.92 147.913 122.213C139.226 121.492 130.426 116.704 123.072 121.384C113.374 127.556 102.259 138.134 105.616 149.129C108.939 160.01 124.608 158.418 135.441 161.893Z" fill="#FC12AF"/>
</g>
<g filter="url(#filter1_d)">
<path fill-rule="evenodd" clip-rule="evenodd" d="M545.162 315.992C559.616 316.695 572.929 317.409 586.193 311.626C606.842 302.622 635.722 297.358 639.012 275.073C642.375 252.293 619.841 233.204 599.311 222.778C583.407 214.701 566.421 226.12 548.869 229.295C530.974 232.532 510.655 227.637 498.362 241.038C482.15 258.712 465.464 286.031 478.166 306.375C490.738 326.509 521.454 314.84 545.162 315.992Z" fill="#FC12AF"/>
</g>
<defs>
<filter id="filter0_d" x="0" y="0" width="293.82" height="287.106" filterUnits="userSpaceOnUse" color-interpolation-filters="sRGB">
<feFlood flood-opacity="0" result="BackgroundImageFix"/>
<feColorMatrix in="SourceAlpha" type="matrix" values="0 0 0 0 0 0 0 0 0 0 0 0 0 0 0 0 0 0 127 0"/>
<feOffset/>
<feGaussianBlur stdDeviation="50"/>
<feColorMatrix type="matrix" values="0 0 0 0 0.988235 0 0 0 0 0.0705882 0 0 0 0 0.686275 0 0 0 1 0"/>
<feBlend mode="normal" in2="BackgroundImageFix" result="effect1_dropShadow"/>
<feBlend mode="normal" in="SourceGraphic" in2="effect1_dropShadow" result="shape"/>
</filter>
<filter id="filter1_d" x="367" y="95" width="382.741" height="355.683" filterUnits="userSpaceOnUse" color-interpolation-filters="sRGB">
<feFlood flood-opacity="0" result="BackgroundImageFix"/>
<feColorMatrix in="SourceAlpha" type="matrix" values="0 0 0 0 0 0 0 0 0 0 0 0 0 0 0 0 0 0 127 0"/>
<feOffset/>
<feGaussianBlur stdDeviation="50"/>
<feColorMatrix type="matrix" values="0 0 0 0 0.988235 0 0 0 0 0.0705882 0 0 0 0 0.686275 0 0 0 1 0"/>
<feBlend mode="normal" in2="BackgroundImageFix" result="effect1_dropShadow"/>
<feBlend mode="normal" in="SourceGraphic" in2="effect1_dropShadow" result="shape"/>
</filter>
</defs>
</svg>
