<svg width="1184" height="1183" viewBox="0 0 1184 1183" fill="none" xmlns="http://www.w3.org/2000/svg">
<path d="M794.94 212.491L212.991 794.44M1007.07 424.623L425.123 1006.57M618.163 35.714L36.2141 617.663M830.295 247.846L248.346 829.795M1042.43 459.978L460.478 1041.93M653.518 71.0694L71.5694 653.018M865.65 283.201L283.701 865.15M1077.78 495.333L495.833 1077.28M688.874 106.425L106.925 688.374M901.006 318.557L319.057 900.506M1113.14 530.689L531.189 1112.64M724.229 141.78L142.28 723.729M936.361 353.912L354.412 935.861M1148.49 566.044L566.544 1147.99M759.584 177.135L177.635 759.084M971.716 389.267L389.767 971.216M1131.52 653.018L530.482 51.9774M919.39 865.15L318.35 264.109M707.258 1077.28L106.218 476.241M1096.17 688.374L495.126 87.3328M884.035 900.506L282.994 299.465M671.903 1112.64L70.8624 511.597M1060.81 723.729L459.771 122.688M848.68 935.861L247.639 334.82M636.548 1147.99L35.5071 546.952M1025.46 759.084L424.416 158.043M813.324 971.216L212.284 370.175M990.101 794.44L389.06 193.399M777.969 1006.57L176.928 405.531M954.746 829.795L353.705 228.754M742.614 1041.93L141.573 440.886" stroke="#00A9C3"/>
</svg>
