<svg width="637" height="645" viewBox="0 0 637 645" fill="none" xmlns="http://www.w3.org/2000/svg">
<g filter="url(#filter0_d)">
<path fill-rule="evenodd" clip-rule="evenodd" d="M488.751 478.217C494.667 476.273 500.877 473.232 506.744 475.32C512.651 477.422 515.106 484.063 518.995 488.982C523.399 494.552 529.475 499.024 530.973 505.965C532.734 514.122 534.97 525.776 527.889 530.19C519.968 535.126 510.423 525.717 501.164 524.544C496.575 523.962 492.199 525.865 487.639 525.089C482.019 524.134 475.98 523.545 471.896 519.568C467.33 515.121 464.097 508.843 464.419 502.477C464.742 496.107 469.07 490.72 473.587 486.217C477.735 482.081 483.185 480.046 488.751 478.217Z" fill="#FC12AF"/>
</g>
<g filter="url(#filter1_d)">
<path d="M333.133 267.881L334.862 266.313L197.626 89.3421L333.133 267.881ZM331.328 269.519L333.133 267.881L192.594 86.9017L331.328 269.519ZM192.594 86.9017L333.133 267.881L197.626 89.3421L192.594 86.9017ZM329.44 271.231L331.328 269.519L187.322 84.3451L329.44 271.231Z" fill="url(#paint0_linear)"/>
<path d="M116.499 50.0001L78.3424 231.99L160.636 327.822L116.499 50.0001Z" fill="url(#paint1_linear)"/>
<path d="M187.322 84.3452L331.328 269.519L192.594 86.9018L187.322 84.3452ZM327.464 273.023L329.44 271.231L181.793 81.664L327.464 273.023ZM181.793 81.664L329.44 271.231L187.322 84.3452L181.793 81.664ZM325.393 274.901L327.464 273.023L175.988 78.8489L325.393 274.901ZM175.988 78.8489L327.464 273.023L181.793 81.664L175.988 78.8489Z" fill="url(#paint2_linear)"/>
<path d="M323.221 276.871L325.393 274.901L169.885 75.8895L323.221 276.871ZM169.885 75.8895L325.393 274.901L175.988 78.8489L169.885 75.8895ZM320.941 278.939L323.221 276.871L163.462 72.7745L320.941 278.939ZM163.462 72.7745L323.221 276.871L169.885 75.8895L163.462 72.7745ZM318.543 281.114L320.941 278.939L156.691 69.4912L318.543 281.114ZM156.691 69.4912L320.941 278.939L163.462 72.7745L156.691 69.4912Z" fill="url(#paint3_linear)"/>
<path d="M307.578 291.059L116.499 50.0002L160.635 327.822L307.578 291.059Z" fill="url(#paint4_linear)"/>
<path d="M316.019 283.403L318.543 281.113L149.545 66.0256L316.019 283.403ZM149.545 66.0256L318.543 281.113L156.691 69.491L149.545 66.0256ZM313.358 285.816L316.019 283.403L141.991 62.3623L313.358 285.816ZM141.991 62.3623L316.019 283.403L149.545 66.0256L141.991 62.3623ZM310.548 288.364L313.358 285.816L133.993 58.4837L310.548 288.364ZM133.993 58.4837L313.358 285.816L141.991 62.3623L133.993 58.4837ZM307.577 291.058L310.548 288.364L125.51 54.3703L307.577 291.058ZM125.51 54.3703L310.548 288.364L133.993 58.4837L125.51 54.3703ZM116.499 50.0001L307.577 291.058L125.51 54.3703L116.499 50.0001Z" fill="url(#paint5_linear)"/>
</g>
<defs>
<filter id="filter0_d" x="359" y="369" width="277.947" height="275.823" filterUnits="userSpaceOnUse" color-interpolation-filters="sRGB">
<feFlood flood-opacity="0" result="BackgroundImageFix"/>
<feColorMatrix in="SourceAlpha" type="matrix" values="0 0 0 0 0 0 0 0 0 0 0 0 0 0 0 0 0 0 127 0"/>
<feOffset/>
<feGaussianBlur stdDeviation="50"/>
<feColorMatrix type="matrix" values="0 0 0 0 0.988235 0 0 0 0 0.0705882 0 0 0 0 0.686275 0 0 0 1 0"/>
<feBlend mode="normal" in2="BackgroundImageFix" result="effect1_dropShadow"/>
<feBlend mode="normal" in="SourceGraphic" in2="effect1_dropShadow" result="shape"/>
</filter>
<filter id="filter1_d" x="-6.10352e-05" y="0" width="420.471" height="412.095" filterUnits="userSpaceOnUse" color-interpolation-filters="sRGB">
<feFlood flood-opacity="0" result="BackgroundImageFix"/>
<feColorMatrix in="SourceAlpha" type="matrix" values="0 0 0 0 0 0 0 0 0 0 0 0 0 0 0 0 0 0 127 0"/>
<feOffset/>
<feGaussianBlur stdDeviation="25"/>
<feColorMatrix type="matrix" values="0 0 0 0 0.988235 0 0 0 0 0.0705882 0 0 0 0 0.686275 0 0 0 1 0"/>
<feBlend mode="normal" in2="BackgroundImageFix" result="effect1_dropShadow"/>
<feBlend mode="normal" in="SourceGraphic" in2="effect1_dropShadow" result="shape"/>
</filter>
<linearGradient id="paint0_linear" x1="263.436" y1="104.74" x2="226.458" y2="243.662" gradientUnits="userSpaceOnUse">
<stop stop-color="#FC12AF"/>
<stop offset="1" stop-color="#AC48BC"/>
</linearGradient>
<linearGradient id="paint1_linear" x1="162.477" y1="62.32" x2="97.1844" y2="310.859" gradientUnits="userSpaceOnUse">
<stop stop-color="#FC12AF"/>
<stop offset="1" stop-color="#AC48BC"/>
</linearGradient>
<linearGradient id="paint2_linear" x1="256.03" y1="100.296" x2="217.259" y2="245.953" gradientUnits="userSpaceOnUse">
<stop stop-color="#FC12AF"/>
<stop offset="1" stop-color="#AC48BC"/>
</linearGradient>
<linearGradient id="paint3_linear" x1="246.225" y1="93.4818" x2="204.404" y2="250.558" gradientUnits="userSpaceOnUse">
<stop stop-color="#FC12AF"/>
<stop offset="1" stop-color="#AC48BC"/>
</linearGradient>
<linearGradient id="paint4_linear" x1="215.634" y1="76.5633" x2="149.688" y2="324.932" gradientUnits="userSpaceOnUse">
<stop stop-color="#FC12AF"/>
<stop offset="1" stop-color="#AC48BC"/>
</linearGradient>
<linearGradient id="paint5_linear" x1="222.051" y1="78.2826" x2="174.848" y2="255.525" gradientUnits="userSpaceOnUse">
<stop stop-color="#FC12AF"/>
<stop offset="1" stop-color="#AC48BC"/>
</linearGradient>
</defs>
</svg>
