<svg 
 xmlns="http://www.w3.org/2000/svg"
 xmlns:xlink="http://www.w3.org/1999/xlink"
 width="41px" height="34px">
<path fill-rule="evenodd"  fill="rgb(255, 255, 255)"
 d="M40.719,20.274 C40.719,22.261 40.736,24.248 40.712,26.235 C40.698,27.482 40.154,28.405 38.929,28.935 C36.749,29.878 34.593,30.876 32.421,31.839 C31.396,32.293 30.357,32.718 29.326,33.160 C28.345,33.579 27.376,33.455 26.443,33.047 C23.251,31.649 20.061,30.247 16.889,28.807 C15.942,28.378 15.492,27.540 15.400,26.537 C15.364,26.148 15.388,25.754 15.399,25.363 C15.406,25.078 15.287,24.995 14.995,24.999 C13.499,25.018 11.997,25.096 10.507,24.998 C9.332,24.920 8.336,24.394 7.539,23.448 C6.069,21.704 4.503,20.037 2.980,18.335 C2.248,17.517 1.482,16.724 0.810,15.861 C0.230,15.115 0.101,14.235 0.496,13.351 C1.053,12.103 1.644,10.869 2.222,9.630 C3.396,7.112 4.576,4.596 5.744,2.075 C6.248,0.990 7.126,0.481 8.311,0.476 C11.575,0.464 14.838,0.493 18.101,0.461 C19.601,0.447 20.795,0.969 21.765,2.079 C23.248,3.776 24.763,5.446 26.251,7.138 C26.476,7.394 26.718,7.498 27.029,7.388 C28.113,7.005 29.102,7.336 30.073,7.766 C33.125,9.114 36.178,10.463 39.219,11.834 C40.241,12.294 40.684,13.182 40.707,14.226 C40.749,16.241 40.719,18.258 40.719,20.274 ZM16.800,25.604 C16.794,26.720 17.184,27.411 18.228,27.876 C18.619,28.050 19.023,28.196 19.413,28.369 C21.569,29.328 23.719,30.298 25.878,31.251 C26.662,31.597 27.201,31.242 27.203,30.404 C27.206,28.636 27.204,26.869 27.204,25.101 L27.210,25.101 C27.210,23.348 27.218,21.594 27.206,19.841 C27.199,18.960 26.753,18.306 25.954,17.944 C23.429,16.800 20.888,15.690 18.354,14.564 C17.232,14.065 16.786,14.374 16.794,15.562 C16.817,18.909 16.818,22.257 16.800,25.604 ZM7.997,3.318 C7.482,2.754 6.945,2.828 6.581,3.493 C6.490,3.659 6.407,3.829 6.327,4.001 C4.929,6.991 3.536,9.984 2.133,12.973 C1.627,14.053 1.729,14.751 2.531,15.639 C3.542,16.758 4.540,17.886 5.543,19.011 C6.391,19.962 7.231,20.918 8.085,21.863 C8.573,22.401 9.119,22.340 9.490,21.725 C9.543,21.638 9.586,21.545 9.629,21.453 C10.456,19.691 11.311,17.942 12.141,16.182 C12.673,15.055 13.269,13.955 13.741,12.800 C13.941,12.312 14.244,11.708 14.292,11.171 C14.294,11.147 14.295,11.124 14.296,11.100 C14.320,10.589 14.012,10.036 13.675,9.667 C12.559,8.447 11.472,7.201 10.372,5.967 C9.583,5.082 8.797,4.193 7.997,3.318 ZM24.813,7.665 C23.400,6.083 21.987,4.500 20.564,2.926 C19.989,2.289 19.276,1.932 18.380,1.941 C17.046,1.956 15.712,1.945 14.377,1.945 C14.377,1.937 14.377,1.930 14.377,1.922 C12.969,1.922 11.561,1.910 10.152,1.933 C9.931,1.937 9.605,2.045 9.523,2.202 C9.441,2.358 9.535,2.696 9.674,2.853 C11.485,4.922 13.306,6.984 15.154,9.022 C15.346,9.235 15.562,9.414 15.800,9.553 C15.926,9.720 16.074,9.873 16.251,10.008 C17.006,10.584 18.056,10.705 18.983,10.647 C20.081,10.577 21.042,10.197 22.044,9.783 C22.219,9.711 22.399,9.640 22.575,9.564 C22.834,9.489 23.080,9.388 23.295,9.252 C23.430,9.190 23.560,9.115 23.686,9.030 C23.849,8.963 24.006,8.879 24.159,8.776 C24.345,8.717 24.523,8.644 24.671,8.505 C24.851,8.466 24.956,8.329 24.985,8.175 C25.072,8.050 25.014,7.890 24.813,7.665 ZM36.686,12.258 C34.552,11.286 32.411,10.329 30.258,9.396 C29.566,9.095 28.914,8.622 28.033,8.763 C27.433,8.615 26.901,8.931 26.347,9.176 C24.028,10.205 21.705,11.225 19.395,12.273 C19.190,12.365 18.963,12.626 18.943,12.828 C18.926,12.993 19.164,13.255 19.355,13.355 C19.939,13.665 20.552,13.924 21.158,14.192 C23.021,15.015 24.888,15.827 26.749,16.655 C27.595,17.031 28.436,17.050 29.283,16.682 C30.149,16.305 31.011,15.919 31.874,15.535 C33.491,14.814 35.112,14.101 36.717,13.355 C36.919,13.261 37.163,12.984 37.155,12.800 C37.148,12.610 36.895,12.353 36.686,12.258 ZM39.299,15.328 C39.296,14.395 38.811,14.098 37.940,14.482 C35.350,15.627 32.756,16.763 30.176,17.930 C29.381,18.290 28.919,18.924 28.917,19.816 C28.914,21.570 28.916,23.323 28.917,25.076 C28.917,26.859 28.917,28.641 28.917,30.424 C28.917,31.264 29.396,31.587 30.193,31.250 C31.254,30.803 32.300,30.323 33.352,29.858 C34.903,29.173 36.462,28.502 38.004,27.798 C38.780,27.444 39.306,26.850 39.309,25.979 C39.322,22.429 39.310,18.879 39.299,15.328 ZM36.482,23.104 C35.900,23.290 35.474,22.984 35.494,22.394 C35.520,21.611 36.286,20.718 37.071,20.555 C37.528,20.460 37.923,20.826 37.900,21.324 C37.864,22.067 37.228,22.865 36.482,23.104 ZM36.453,19.552 C35.891,19.722 35.475,19.415 35.491,18.844 C35.514,18.082 36.228,17.208 36.981,17.020 C37.511,16.887 37.935,17.267 37.891,17.834 C37.835,18.559 37.188,19.331 36.453,19.552 ZM37.057,24.109 C37.522,24.001 37.973,24.437 37.884,24.962 C37.744,25.771 37.299,26.373 36.486,26.659 C35.891,26.869 35.458,26.535 35.496,25.917 C35.544,25.135 36.273,24.290 37.057,24.109 ZM31.625,25.227 C31.226,25.279 30.811,24.845 30.849,24.413 C30.916,23.639 31.595,22.845 32.354,22.653 C32.914,22.511 33.279,22.788 33.277,23.356 C33.276,24.153 32.418,25.125 31.625,25.227 ZM31.621,21.663 C31.220,21.716 30.774,21.281 30.853,20.846 C30.986,20.108 31.435,19.365 32.269,19.100 C32.870,18.909 33.270,19.184 33.277,19.792 C33.287,20.585 32.428,21.555 31.621,21.663 ZM32.316,26.213 C32.903,26.056 33.280,26.333 33.277,26.921 C33.272,27.719 32.421,28.674 31.615,28.784 C31.207,28.840 30.797,28.373 30.852,27.916 C30.941,27.176 31.604,26.405 32.316,26.213 ZM27.871,13.856 C27.737,13.850 27.612,13.835 27.500,13.810 C26.701,13.633 25.555,12.731 26.583,12.015 C27.302,11.514 28.554,11.499 29.280,11.982 C29.658,12.233 29.890,12.669 29.675,13.098 C29.391,13.662 28.534,13.882 27.871,13.856 ZM22.673,8.910 C21.917,8.848 20.546,8.196 21.046,7.252 C21.256,6.856 21.656,6.847 22.047,6.844 C22.664,6.849 23.175,7.087 23.570,7.537 C24.250,8.312 23.588,8.985 22.673,8.910 ZM18.312,6.966 C17.555,6.905 16.184,6.253 16.685,5.308 C16.895,4.912 17.295,4.902 17.686,4.900 C18.302,4.905 18.813,5.143 19.208,5.593 C19.889,6.368 19.227,7.041 18.312,6.966 ZM13.766,4.965 C13.197,4.934 12.639,4.732 12.234,4.283 C11.951,3.971 11.806,3.618 12.007,3.211 C12.197,2.830 12.559,2.770 12.997,2.760 C13.637,2.800 14.192,3.105 14.601,3.639 C14.812,3.913 14.941,4.299 14.679,4.559 C14.455,4.781 14.068,4.982 13.766,4.965 ZM11.241,10.275 C11.658,10.588 12.002,11.262 12.015,11.925 C11.947,12.110 11.876,12.445 11.707,12.724 C11.449,13.150 10.733,13.174 10.294,12.802 C9.727,12.319 9.431,11.296 9.897,10.504 C10.167,10.045 10.795,9.941 11.241,10.275 ZM7.725,18.436 C6.985,17.872 6.921,16.755 7.410,16.012 C7.510,15.858 7.640,15.714 7.813,15.646 C7.881,15.619 7.951,15.606 8.024,15.604 C8.204,15.599 8.389,15.665 8.539,15.768 C9.244,16.248 9.530,17.183 9.269,17.969 C9.034,18.678 8.328,18.895 7.725,18.436 ZM6.780,8.825 C6.419,8.274 6.189,7.676 6.470,6.984 C6.749,6.302 7.466,6.092 8.037,6.573 C8.386,6.867 8.724,7.617 8.716,8.229 C8.644,8.397 8.565,8.717 8.387,8.972 C8.017,9.501 7.181,9.438 6.780,8.825 ZM5.190,14.893 C4.628,14.884 4.148,14.424 3.918,13.950 C3.801,13.708 3.735,13.424 3.735,13.146 C3.734,12.598 3.982,12.069 4.577,11.910 C4.942,11.812 5.451,12.040 5.722,12.482 C6.045,13.007 6.165,13.573 5.984,14.187 C5.863,14.595 5.591,14.899 5.190,14.893 ZM19.468,23.781 C20.152,23.965 20.720,24.669 20.938,25.312 C21.002,25.498 21.028,25.706 21.016,25.906 C20.978,26.499 20.604,27.028 19.861,26.754 C19.110,26.477 18.303,25.420 18.290,24.649 C18.279,23.951 18.781,23.598 19.468,23.781 ZM23.493,19.065 C24.196,19.071 25.094,19.899 25.269,20.751 C25.335,21.074 25.354,21.455 25.235,21.748 C25.151,21.956 24.806,22.180 24.568,22.191 C23.572,22.235 22.421,20.543 22.740,19.596 C22.871,19.206 23.154,19.104 23.493,19.065 Z"/>
</svg>
