<?xml version="1.0" encoding="utf-8"?>
<!-- Generator: Adobe Illustrator 22.1.0, SVG Export Plug-In . SVG Version: 6.00 Build 0)  -->
<svg version="1.1" id="Слой_6" xmlns="http://www.w3.org/2000/svg" xmlns:xlink="http://www.w3.org/1999/xlink" x="0px" y="0px"
	 viewBox="0 0 697.2 793.8" style="enable-background:new 0 0 697.2 793.8;" xml:space="preserve">
<title>Безымянный-1</title>
<polygon fill="#30353c" points="579.2,590 516.5,665 171.8,665 123.8,595.3 123.8,590.7 "/>
<g id="star-rate">
	<polygon fill="#30353c" points="115.6,322.6 86.9,342.8 97.8,376.9 69.1,355.9 40.3,376.9 51.2,342.8 22.5,322.6 57.4,322.6 69.1,287.7 
		80.7,322.6 	"/>
</g>
<path fill="#30353c" d="M458.7,71.3c1.6,8.6,3.2,17.2,4.7,25.9c-4.4-0.7-8.8-1.3-13.2-1.8C453,87.4,455.8,79.3,458.7,71.3L458.7,71.3z"/>
<path fill="#30353c" d="M203.4,487.3L164,458.7l-39.4,28.7l14.9-46.8l-39.4-27.7H148l16-47.9l16,47.9h47.8l-39.4,27.7L203.4,487.3z"/>
<polygon fill="#30353c" points="180,412.9 164,365 148,412.9 100.2,412.9 139.5,440.5 124.6,487.4 164,458.6 203.4,487.4 188.5,440.5 227.8,412.9 
	"/>
<path fill="#30353c" d="M295.9,84.8c3.7-0.2,7-1.2,6.8-6.6l-0.2-6.9c-0.2-5.6-3.8-6.1-7.4-5.9c-3.3,0.2-6.7,0.5-10,0.7l0.9,19.3
	C289.4,85.2,292.7,85,295.9,84.8z"/>
<path fill="#30353c" d="M264.7,188c4.1-0.5,8.2-0.9,12.3-1.3c-2.5-8.1-5.1-16.2-7.8-24.4C267.7,170.8,266.2,179.4,264.7,188z"/>
<path fill="#30353c" d="M356,89.1c-2.2-8.4-4.4-16.7-6.7-25.1c-2.2,8.3-4.4,16.7-6.5,25.1l0,0C347.2,89,351.6,89,356,89.1z"/>
<path fill="#30353c" d="M511.7,123.4c8,1.7,9.1-1.3,11.5-19.6s2.2-21.8-6.2-23.6c-8.4-1.8-9.1,2-11.3,19.9C503.7,117.8,503.7,121.7,511.7,123.4z"/>
<path fill="#30353c" d="M677.3,74.3C562.3,7.8,368.2,0.6,349.3,0l0,0h-0.8h-0.8l0,0c-18.9,0.6-213,7.8-328,74.3C-95.9,651.1,332,788.7,348.3,793.7
	v0.2l0.3-0.1l0.3,0.1v-0.2C365.2,788.7,793.1,651.1,677.3,74.3z M492,97.5c2.7-25.2,6.2-30.8,26.2-26.7
	c20.4,4.4,22.2,11.4,18.7,36.1c-3.6,25.2-7,30.1-26.3,25.9C491.2,128.9,489.4,122.1,492,97.5z M500.3,163.4c-0.4,3.3-0.8,6.7-1.2,10
	c-5.9-1.7-11.9-3-17.9-3.8c-6.9-1.2-7.3,2.8-9.3,22.7c-0.1,0.8-0.2,1.5-0.2,2.3c-1.2,12.5,0.9,15.3,5.5,16.5c1.6,0.4,3.7,0.7,5.9,1
	l1.4-13c-2.5-0.5-5-0.9-7.5-1.3c0.3-2.9,0.6-5.8,0.9-8.7c6.6,1.1,13.1,2.4,19.6,3.7l-3.5,29.6c-5.7,0.3-11.4,0.1-17-0.7
	c-15.2-2.7-20.5-6.4-18.4-31.7c2.2-26,4-34.2,23-31C488,159.8,494.3,161.3,500.3,163.4z M449.2,60.3c6.9,0.8,13.7,1.8,20.6,2.8
	c3.9,21.1,7.6,42.1,11,63.2c-4.3-0.7-8.7-1.4-13.1-2.1c-0.8-5.3-1.6-10.6-2.5-15.9c-6.1-0.9-12.3-1.7-18.4-2.5
	c-1.6,5-3.2,10-4.8,14.9c-4.4-0.5-8.9-1-13.3-1.5C435.3,99.5,442.1,79.8,449.2,60.3z M450.9,154.9c-1.6,20.3-3.2,40.5-4.8,60.8
	c-4.7-0.7-9.5-1.3-14.2-1.8c-5.5-15-11.2-29.8-17.2-44.7c-0.7,14.2-1.5,28.5-2.2,42.7c-3.8-0.3-7.7-0.6-11.5-0.9
	c0.8-20.3,1.7-40.7,2.6-61c5.5,0.4,11,0.9,16.5,1.4c5.2,13.6,10.3,27.2,15.1,40.9c0.8-13,1.7-26,2.5-39.1
	C442.1,153.8,446.5,154.4,450.9,154.9z M383.7,88.3c0.7-26.2,2.8-34.6,23.3-33.2c6.8,0.5,13.6,1.5,20.2,3.1
	c-0.2,3.4-0.4,6.8-0.6,10.1c-6.4-1.1-12.9-1.9-19.5-2.3c-7.5-0.5-7.4,3.6-8.1,23.6l-0.1,2.3c-0.5,13.3,2.4,15.4,9.5,16
	c3.4,0.3,10.4,0.5,15.9,0.5l-0.5,9c-4.3,0.5-8.7,0.8-13.1,0.9c-0.2,1.1-0.3,2.2-0.5,3.3c4.5,1.3,5.2,3.5,5.1,6.3
	c-0.3,6.5-3.5,7.9-8.5,7.6c-2.6-0.3-5.2-0.7-7.8-1.3c0.3-1.9,0.6-3.9,1-5.8c1.8,0.3,3.6,0.5,5.4,0.8c0.9,0.1,1.3-0.2,1.3-1.4
	c0-0.3,0-1.2-1.6-1.3l-4.7-0.7l1.2-7.9C388.6,116.1,383.1,111.3,383.7,88.3z M377.8,148.8c4.5,0.2,8.9,0.4,13.4,0.6
	c-0.7,20.3-1.3,40.7-2,61c-4.3-0.2-8.5-0.4-12.8-0.6L377.8,148.8z M338.9,54.2c6.9-0.1,13.9-0.1,20.8,0c5.6,20.4,10.9,40.9,16,61.4
	c-4.4-0.2-8.8-0.3-13.2-0.3c-1.2-5.2-2.5-10.4-3.8-15.5c-6.2-0.1-12.4-0.1-18.6,0c-1.2,5.2-2.4,10.3-3.6,15.5
	c-4.5,0.1-8.9,0.2-13.4,0.3C328.2,95.1,333.5,74.6,338.9,54.2z M333.9,180.2c4-10.7,8.1-21.4,12.2-32c6.3,0,12.5,0,18.8,0.1
	c-0.3,20.4-0.5,40.7-0.7,61.1c-4.2-0.1-8.4-0.1-12.5-0.1c0.1-14.5,0.1-28.9,0.1-43.4c-4.4,11.4-8.6,22.9-12.8,34.4
	c-3.1,0-6.3,0.1-9.5,0.2c-4.2-11.2-8.5-22.4-12.9-33.6l1.1,43.1c-4.1,0.2-8.2,0.4-12.3,0.6c-0.7-20.4-1.5-40.7-2.2-61.1
	c5.9-0.4,11.7-0.6,17.6-0.9C325.3,159.2,329.6,169.7,333.9,180.2L333.9,180.2z M295.2,55.9c11.6-0.8,21.2,2.1,21.5,14.6
	c0,2.4,0.1,4.7,0.2,7c0.1,4.8-1.6,8.6-5.4,12.1c1.7,8.7,3.5,17.5,5.1,26.2c-4.7,0.2-9.5,0.4-14.2,0.6c-1.5-7.4-2.9-14.8-4.4-22.2
	c-1.1,0.2-2.5,0.2-11.4,0.9c0.3,7.4,0.7,14.9,1,22.3c-4.6,0.4-9.2,0.8-13.8,1.2l-3.5-60.9C278.6,57.1,286.9,56.4,295.2,55.9z
	 M296.9,211.2c-4.1,0.3-8.2,0.6-12.2,1c-1.5-5-2.9-10.1-4.4-15.1c-5.7,0.5-11.5,1.1-17.2,1.8c-0.8,5.3-1.6,10.5-2.3,15.8
	c-4.1,0.5-8.3,1-12.4,1.6c3.3-20.9,6.9-41.8,10.6-62.7c6.4-0.8,12.8-1.4,19.2-2C284.7,171.3,290.9,191.2,296.9,211.2z M224.7,63.7
	c0.9,10,1.8,20,2.7,30c1.6,17.9,2.5,21.7,10.8,20.5s8.7-4.4,7.3-23.1l-2.3-30c4.7-0.6,9.5-1.2,14.2-1.7c0.2,1.4,2,28.5,2.1,30.1
	c1.7,25.7-0.6,31.7-20.5,34.4c-19.9,2.9-23.1-3.1-25.6-27.9c-1-10-2-19.9-3-29.9C215.2,65.2,219.9,64.4,224.7,63.7z M216.3,194
	l0.2,2.3c1.3,12.5,4,14.4,8.7,14c1.6-0.2,3.7-0.6,5.9-1.1c-0.4-4.3-0.8-8.7-1.3-13l-7.5,1.3c-0.3-2.9-0.6-5.8-0.9-8.7
	c6.5-1.1,13.1-2.2,19.7-3.1c0.9,9.9,1.7,19.8,2.6,29.7c-5.4,2.2-10.9,3.9-16.6,5.1c-15.1,2.6-21.1,0.9-24.1-24.3
	c-3-25.9-3-34.5,16-37.8c6.2-1.2,12.6-1.8,18.9-1.9l0.9,10.1c-6.1,0.4-12.1,1.2-18.1,2.4C213.7,170.2,214.1,174.2,216.3,194
	L216.3,194z M179.3,70.8c6.7-1.4,13.4-2.2,20.2-2.6c0.4,3.4,0.7,6.7,1.1,10.1c-6.5,0.7-12.9,1.7-19.3,3.1c-7.4,1.6-6.6,5.5-4.1,25.3
	c0.1,0.8,0.2,1.5,0.3,2.3c1.7,13.1,4.9,14.4,11.9,13c3.4-0.7,10.3-2.4,15.6-3.9c0.3,3,0.6,6,0.9,9c-5.5,2.4-11.2,4.2-17,5.7
	c-16.2,3.4-23.3,2.2-26.9-22.8C158.3,84,159,75.2,179.3,70.8L179.3,70.8z M348.6,753.7c-0.4,0.1-292.7-105.3-308.3-434.8
	c93-70.3,295.7-68.8,308.3-68.7c12.6-0.2,216.3-1.7,309.7,68.7C642.6,648.5,349,753.8,348.6,753.7L348.6,753.7z"/>
<path fill="#30353c" d="M458.7,71.3c-2.9,8-5.7,16-8.5,24.1c4.4,0.5,8.8,1.2,13.2,1.8C461.9,88.6,460.3,79.9,458.7,71.3z"/>
</svg>
