<?xml version="1.0" encoding="utf-8"?>
<!-- Generator: Adobe Illustrator 22.1.0, SVG Export Plug-In . SVG Version: 6.00 Build 0)  -->
<svg version="1.1" xmlns="http://www.w3.org/2000/svg" xmlns:xlink="http://www.w3.org/1999/xlink" x="0px" y="0px"
	 viewBox="0 0 422 422" style="enable-background:new 0 0 422 422;" xml:space="preserve">
<g id="Слой_1">
    <style>
        path {
            fill: #2e3134
        }
    </style>
	<g id="Слой_3">
	</g>
	<g>
		<g>
			<path d="M141.2,254C141.2,254,141.2,254,141.2,254l-0.4,0.4L141.2,254z"/>
		</g>
		<g>
			<path d="M256.5,194.4l-31.4,31.4c16.3,7.2,28.2,15.3,28.2,28c0,15.6-13.5,25.8-38.7,25.8c-13.1,0-25.2-2.4-36.8-6.5l-20.2,20.2
				c16.9,10.6,36.2,16.2,56.4,16.2c28.3,0,55-11.1,75.1-31.2c1.7-1.7,3.3-3.4,4.9-5.2c2.9-7,4.4-14.5,4.4-22.6
				C298.3,222.2,279.4,205.9,256.5,194.4z"/>
		</g>
		<g>
			<path d="M197,347.9v25.7h31.7v-25.5c-4.9,0.5-9.8,0.7-14.8,0.7C208.2,348.9,202.6,348.6,197,347.9z"/>
		</g>
		<g>
			<path d="M131.3,147c0,0.7,0,1.4,0,2.1c0,0.1,0,0.2,0,0.3c0,0,0,0,0,0.1c0,0,0,0.1,0,0.1c0,0.2,0,0.3,0,0.5c0,0.6,0,1.3,0,1.9
				c0,0.5,0.1,1.1,0.1,1.6c0,0.2,0,0.4,0,0.6c2.4,29.5,27.2,44.6,53.8,55.8l31.6-31.6c-22.4-8.3-40.6-15.8-40.6-29.5
				c0,0,0-0.1,0-0.1c0-15.5,13.3-25.1,35.6-25.1c19.2,0,32.4,4.8,46.2,13.5l0.1-0.1c3.6,2.3,7.2,4.8,11.1,7.6l23.6-26.4
				c-16.4-16.1-35.8-28.3-64.1-31.3V58.4V35.6v-0.2H197v0.2v23v28.7C158.1,92.5,132.5,114.6,131.3,147z"/>
		</g>
		<g>
			<path d="M352.6,203c0-69-50.7-126.4-116.9-136.9v15.2c23.6,3.7,43,13.8,62,32.4l4.8,4.7l-4.4,5l-23.6,26.4l-4.2,4.8l-5.1-3.8
				c-2.2-1.6-4.4-3.2-6.5-4.6L128.1,276.7c-17.1-19.8-27.4-45.6-27.4-73.7c0-27.6,9.9-52.9,26.4-72.6c7.6-24.9,30.2-42.6,62.9-48.5
				V66.4C124.9,77.8,75.3,134.7,75.3,203c0,70.7,53.2,129.2,121.7,137.6v0.3c5.6,0.7,11.2,1,17,1c5,0,9.9-0.3,14.8-0.8v-0.3
				C298.3,333.4,352.6,274.4,352.6,203z M214,316.2c-25.1,0-48.3-8.2-67.1-22.1l23.9-23.9c-0.1,0-0.2-0.1-0.2-0.1l47.4-47.4
				c0.1,0,0.2,0.1,0.2,0.1l31.7-31.7c-0.1,0-0.2-0.1-0.2-0.1l55.4-55.4c13.9,18.8,22.2,42.1,22.2,67.3
				C327.2,265.4,276.4,316.2,214,316.2z"/>
		</g>
	</g>
</g>
</svg>
