<?xml version="1.0" encoding="utf-8"?>
<!-- Generator: Adobe Illustrator 22.1.0, SVG Export Plug-In . SVG Version: 6.00 Build 0)  -->
<svg version="1.1" xmlns="http://www.w3.org/2000/svg" xmlns:xlink="http://www.w3.org/1999/xlink" x="0px" y="0px"
	 viewBox="0 0 422 422" style="enable-background:new 0 0 422 422;" xml:space="preserve">
<g id="Слой_1">
    <style>
        path {
            fill: #2e3134
        }
    </style>
	<g>
		<g>
			<path d="M213.1,74.6c10.5,0,20.6-2.2,30-6.3c-9.7-2.2-19.8-3.3-30.1-3.3c-10.3,0-20.3,1.1-29.9,3.3
				C192.5,72.4,202.8,74.6,213.1,74.6z"/>
		</g>
	</g>
	<g>
		<path d="M254.5,194.7c25.5-19,59.7-21.5,87.6-6.4l20.1,10.9l0-125.4l-25.6-14c-23.9-13-53.2-10.9-75,5.5
			c-25.4,19-59.6,21.5-87.5,6.4l-19.9-10.9v125.4l25.5,14C203.5,213.1,232.7,211,254.5,194.7z"/>
	</g>
	<path d="M125.2,318.3v19h18.5v-7C137.2,326.8,131.1,322.8,125.2,318.3z"/>
	<g>
		<path d="M286.4,117.5l-89.2,89.2c5.2,1.2,10.6,1.9,15.9,1.9c7.2,0,14.4-1.1,21.3-3.4l69.2-69.2c9.7,13.1,16.6,28.4,19.9,44.9
			c6.5,1.6,12.8,4.1,18.9,7.4l8.2,4.5c-4.2-57.6-44-105.5-97.3-121.8c-12.4,7-26.2,10.6-40.2,10.6c-13.3,0-26.6-3.3-38.8-9.9
			l-1.5-0.8c-6.4,1.9-12.5,4.3-18.4,7.1v28.7c17.1-10.4,37.1-16.4,58.6-16.4C241,90.3,266.6,100.6,286.4,117.5z"/>
		<path d="M351,201l-11.9-6.5c-4.5-2.5-9.3-4.4-14.3-5.9c0.6,4.7,0.9,9.5,0.9,14.4c0,62.2-50.6,112.7-112.7,112.7
			c-25.1,0-48.2-8.2-67-22.1l78.9-78.9c-3.9,0.6-7.9,0.9-11.9,0.9c-7.3,0-14.6-1.1-21.6-3.1l-63.9,63.9
			c-17-19.7-27.3-45.4-27.3-73.4c0-22.4,6.6-43.3,17.9-60.9v-39.3C91.6,128,75,163.6,75,203c0,76.1,61.9,138,138,138
			s138-61.9,138-138C351,202.3,351,201.6,351,201z"/>
		<g>
			<path d="M125.2,273.6v35.8c5.8,4.8,12,9.1,18.5,12.9v-62.1l-16.2,16.2C126.8,275.5,126,274.5,125.2,273.6z"/>
			<path d="M143.7,205.4V57.5h-18.5v156.3h0v48.1c0.9,1.4,1.9,2.7,2.9,4.1l15.6-15.6L143.7,205.4
				C143.7,205.4,143.7,205.4,143.7,205.4z"/>
		</g>
	</g>
</g>
</svg>
