<svg 
 xmlns="http://www.w3.org/2000/svg"
 xmlns:xlink="http://www.w3.org/1999/xlink"
 width="21px" height="18px">
<path fill-rule="evenodd"  fill="rgb(127, 138, 149)"
 d="M20.544,17.077 C19.995,17.918 18.894,18.124 18.090,17.535 L12.166,13.774 C11.650,13.399 11.381,12.789 11.398,12.178 C10.468,13.228 9.243,13.930 7.869,14.186 C6.180,14.502 4.472,14.105 3.058,13.073 C1.643,12.040 0.689,10.493 0.373,8.714 C0.055,6.935 0.414,5.140 1.382,3.662 C3.382,0.610 7.387,-0.137 10.311,1.997 C12.964,3.936 13.827,7.594 12.468,10.536 C13.004,10.301 13.641,10.351 14.159,10.729 L20.085,14.490 C20.890,15.079 21.096,16.237 20.544,17.077 ZM11.085,6.714 C10.864,5.474 10.199,4.395 9.213,3.675 C7.176,2.186 4.382,2.706 2.986,4.834 C1.592,6.965 2.116,9.908 4.154,11.396 C6.192,12.885 8.985,12.365 10.380,10.236 C11.055,9.206 11.306,7.955 11.085,6.714 Z"/>
</svg>
