<?xml version="1.0" encoding="utf-8"?>
<!-- Generator: Adobe Illustrator 22.0.1, SVG Export Plug-In . SVG Version: 6.00 Build 0)  -->
<svg version="1.1" id="Layer_1" xmlns="http://www.w3.org/2000/svg" xmlns:xlink="http://www.w3.org/1999/xlink" x="0px" y="0px"
	 viewBox="0 0 512 341.7" style="enable-background:new 0 0 512 341.7;" xml:space="preserve">
<style type="text/css">
	.st0{fill:#F5F5F5;}
	.st1{fill:#FF4B55;}
	.st2{fill:#41479B;}
</style>
<path class="st0" d="M473.7,3H38.3C17.1,3,0,20.2,0,41.3v258.8c0,21.2,17.2,38.3,38.3,38.3h435.3c21.2,0,38.3-17.2,38.3-38.3V41.3
	C512,20.1,494.8,3,473.7,3z"/>
<g>
	<path class="st1" d="M0,300.1c0,21.2,17.2,38.3,38.3,38.3h435.3c21.2,0,38.3-17.2,38.3-38.3v-14.6H0V300.1z"/>
	<path class="st1" d="M473.7,3H38.3C17.1,3,0,20.2,0,41.3v14.6h512V41.3C512,20.1,494.8,3,473.7,3z"/>
</g>
<rect y="108.9" class="st2" width="512" height="123.6"/>
</svg>
