<svg width="512" height="341" xmlns="http://www.w3.org/2000/svg">

 <g>
  <title>background</title>
  <rect fill="none" id="canvas_background" height="343" width="514" y="-1" x="-1"/>
 </g>
 <g>
  <title>Layer 1</title>
  <path id="svg_1" fill="#41479B" d="m473.654999,3.276001l-435.309998,0c-21.178001,0 -38.345001,17.167 -38.345001,38.345001l0,258.759003c0,21.177002 17.167,38.345001 38.345001,38.345001l435.309998,0c21.177002,0 38.345001,-17.166992 38.345001,-38.345001l0,-258.759003c0,-21.178001 -17.166992,-38.345001 -38.345001,-38.345001z"/>
  <path id="svg_2" fill="#F5F5F5" d="m511.468994,35.281998c-3.022003,-18.159004 -18.796997,-32.006996 -37.813995,-32.006996l-9.97699,0l-163.540009,107.146996l0,-107.145996l-88.276001,0l0,107.147003l-163.540001,-107.147003l-9.977001,0c-19.017,0 -34.791998,13.847 -37.813998,32.007004l139.778007,91.580002l-140.309006,0l0,88.276001l140.309006,0l-139.778006,91.578003c3.022,18.158997 18.797001,32.006989 37.813997,32.006989l9.977001,0l163.540001,-107.147003l0,107.147003l88.276001,0l0,-107.147003l163.539978,107.147003l9.97702,0c19.016998,0 34.791992,-13.846985 37.813995,-32.006989l-139.778015,-91.580017l140.309021,0l0,-88.276001l-140.30899,0l139.777985,-91.578995z"/>
  <g id="svg_3">
   <polygon id="svg_4" fill="#FF4B55" points="282.4830017089844,3.2760009765625 229.51699829101562,3.2760009765625 229.51699829101562,144.51699829101562 0,144.51699829101562 0,197.48300170898438 229.51699829101562,197.48300170898438 229.51699829101562,338.7239990234375 282.4830017089844,338.7239990234375 282.4830017089844,197.48300170898438 512,197.48300170898438 512,144.51699829101562 282.4830017089844,144.51699829101562 "/>
   <path id="svg_5" fill="#FF4B55" d="m24.792999,336.252014l186.582993,-121.113983l-32.428009,0l-169.723983,110.171967c4.153,4.847015 9.490001,8.644989 15.568999,10.942017z"/>
   <path id="svg_6" fill="#FF4B55" d="m346.388,215.138l-32.428009,0l180.716003,117.304993c5.057007,-3.320984 9.277008,-7.807007 12.286987,-13.074982l-160.574982,-104.230011z"/>
   <path id="svg_7" fill="#FF4B55" d="m4.049,24.474998l157.729992,102.387001l32.428009,0l-178.732,-116.019997c-4.799001,3.571999 -8.726,8.241997 -11.426001,13.632996z"/>
   <path id="svg_8" fill="#FF4B55" d="m332.56601,126.862l170.035004,-110.375c-4.199005,-4.831001 -9.578003,-8.607002 -15.699005,-10.860001l-186.764008,121.235001l32.428009,0z"/>
  </g>
  <g id="svg_9"/>
  <g id="svg_10"/>
  <g id="svg_11"/>
  <g id="svg_12"/>
  <g id="svg_13"/>
  <g id="svg_14"/>
  <g id="svg_15"/>
  <g id="svg_16"/>
  <g id="svg_17"/>
  <g id="svg_18"/>
  <g id="svg_19"/>
  <g id="svg_20"/>
  <g id="svg_21"/>
  <g id="svg_22"/>
  <g id="svg_23"/>
 </g>
</svg>