<svg xmlns="http://www.w3.org/2000/svg" viewBox="0 0 1000.16 1000.1"><defs><style>.cls-1,.cls-6{fill:#535f68;}.cls-2{fill:#24282d;}.cls-3{fill:#7f8a95;}.cls-4{fill:#506168;}.cls-5{fill:#6b7b82;}.cls-6{font-size:400px;font-family:BebasNeueBold, Bebas Neue;font-weight:700;}</style></defs><title>Unknown</title><g id="Слой_1" data-name="Слой 1"><rect class="cls-1" width="1000.1" height="1000.1"/></g><g id="Слой_2" data-name="Слой 2"><path class="cls-2" d="M-.1,914.87s-4.9-28,70.5-74.74,203.87-77.91,203.87-77.91S374.37,608.23,500.5,658c8,0,0,342.11,0,342.11H-.1Z" transform="translate(0.16)"/><path class="cls-2" d="M999.93,914.87s4.91-28-70.49-74.74-203.88-77.91-203.88-77.91S625.46,608.23,499.34,658c-8,0,0,342.11,0,342.11H999.93Z" transform="translate(0.16)"/></g><g id="Слой_3" data-name="Слой 3"><path class="cls-3" d="M500.5,619.91l-135.13-8V752c0,22.36,75.07,51.72,105.1,86.42s30,70.91,30,70.91,0-36.2,30-70.91S635.64,774.4,635.64,752V611.9Z" transform="translate(0.16)"/></g><g id="Слой_5" data-name="Слой 5"><path class="cls-4" d="M365.37,613.05v27.5c30.48,54.59,108.73,149.67,270.27,105.18V613.05l-135.14,8Z" transform="translate(0.16)"/></g><g id="Слой_6" data-name="Слой 6"><path class="cls-3" d="M692.06,371.33s-15-251.66-197.57-252.24h-.63c-182.58.58-197.56,252.24-197.56,252.24s-40.54-21.19-25.2,77.58,48.22,69.57,48.22,69.57S341.45,698,493.86,702.58v0h.63v0C646.9,698,669,518.48,669,518.48s32.86,29.19,48.21-69.57S692.06,371.33,692.06,371.33Z" transform="translate(0.16)"/><path class="cls-5" d="M483.87,483c.59,0,3.27-1.14,1.89-1.14-.59,0-3.26,1.14-1.89,1.14Z" transform="translate(0.16)"/></g><g id="Слой_7" data-name="Слой 7"><text class="cls-6" transform="translate(424.25 576.59)">?</text></g></svg>