<svg 
 xmlns="http://www.w3.org/2000/svg"
 xmlns:xlink="http://www.w3.org/1999/xlink"
 width="76px" height="94px">
<defs>
<filter filterUnits="userSpaceOnUse" id="Filter_0" x="0px" y="0px" width="76px" height="94px"  >
    <feOffset in="SourceAlpha" dx="4.95" dy="4.95" />
    <feGaussianBlur result="blurOut" stdDeviation="2.236" />
    <feFlood flood-color="rgb(0, 0, 0)" result="floodOut" />
    <feComposite operator="atop" in="floodOut" in2="blurOut" />
    <feComponentTransfer><feFuncA type="linear" slope="0.21"/></feComponentTransfer>
    <feMerge>
    <feMergeNode/>
    <feMergeNode in="SourceGraphic"/>
  </feMerge>
</filter>
<linearGradient id="PSgrad_0" x1="0%" x2="0%" y1="100%" y2="0%">
  <stop offset="0%" stop-color="rgb(61,172,76)" stop-opacity="1" />
  <stop offset="100%" stop-color="rgb(157,221,169)" stop-opacity="1" />
</linearGradient>

</defs>
<g filter="url(#Filter_0)">
<path fill-rule="evenodd"  fill="rgb(61, 172, 76)"
 d="M45.239,63.573 C44.278,64.508 43.136,65.001 41.813,65.000 C40.373,64.999 38.933,65.000 37.494,65.000 C36.093,65.000 34.692,64.999 33.291,65.000 C31.422,65.002 29.990,64.138 28.940,62.553 C28.331,61.633 28.015,60.594 28.002,59.478 C27.995,58.895 28.091,58.310 28.151,57.727 C28.264,56.633 28.387,55.541 28.504,54.448 C28.639,53.185 28.769,51.921 28.906,50.659 C28.969,50.077 28.985,49.481 29.123,48.919 C29.553,47.181 30.551,45.909 32.107,45.130 C32.276,45.045 32.388,45.055 32.537,45.195 C33.838,46.418 35.367,47.077 37.114,47.106 C39.020,47.137 40.674,46.435 42.064,45.070 C42.224,44.913 42.352,44.899 42.536,44.975 C44.421,45.760 45.564,47.210 45.964,49.278 C46.112,50.040 46.128,50.830 46.209,51.607 C46.358,53.024 46.514,54.440 46.662,55.857 C46.785,57.023 46.981,58.188 47.001,59.357 C47.030,61.015 46.403,62.439 45.239,63.573 ZM39.088,44.050 C38.481,44.228 37.839,44.280 37.442,44.350 C34.479,44.225 32.415,42.904 30.942,40.549 C29.895,38.877 29.430,37.015 29.693,35.029 C30.116,31.830 31.793,29.585 34.690,28.479 C38.915,26.866 43.493,29.476 44.591,34.042 C45.609,38.277 43.092,42.874 39.088,44.050 Z"/>
</g>
<path fill="url(#PSgrad_0)"
 d="M45.239,63.573 C44.278,64.508 43.136,65.001 41.813,65.000 C40.373,64.999 38.933,65.000 37.494,65.000 C36.093,65.000 34.692,64.999 33.291,65.000 C31.422,65.002 29.990,64.138 28.940,62.553 C28.331,61.633 28.015,60.594 28.002,59.478 C27.995,58.895 28.091,58.310 28.151,57.727 C28.264,56.633 28.387,55.541 28.504,54.448 C28.639,53.185 28.769,51.921 28.906,50.659 C28.969,50.077 28.985,49.481 29.123,48.919 C29.553,47.181 30.551,45.909 32.107,45.130 C32.276,45.045 32.388,45.055 32.537,45.195 C33.838,46.418 35.367,47.077 37.114,47.106 C39.020,47.137 40.674,46.435 42.064,45.070 C42.224,44.913 42.352,44.899 42.536,44.975 C44.421,45.760 45.564,47.210 45.964,49.278 C46.112,50.040 46.128,50.830 46.209,51.607 C46.358,53.024 46.514,54.440 46.662,55.857 C46.785,57.023 46.981,58.188 47.001,59.357 C47.030,61.015 46.403,62.439 45.239,63.573 ZM39.088,44.050 C38.481,44.228 37.839,44.280 37.442,44.350 C34.479,44.225 32.415,42.904 30.942,40.549 C29.895,38.877 29.430,37.015 29.693,35.029 C30.116,31.830 31.793,29.585 34.690,28.479 C38.915,26.866 43.493,29.476 44.591,34.042 C45.609,38.277 43.092,42.874 39.088,44.050 Z"/>
</svg>
