<svg width="32" height="32" viewBox="0 0 32 32" fill="none" xmlns="http://www.w3.org/2000/svg">
    <path
        d="M5 8.32323C5 7.64982 5.25339 7.09426 5.76014 6.65657C6.26688 6.21885 6.92568 6 7.73649 6C8.53283 6 9.17712 6.21547 9.6694 6.64646C10.1762 7.09091 10.4295 7.67002 10.4295 8.38384C10.4295 9.0303 10.1834 9.56901 9.69112 10C9.18437 10.4444 8.51834 10.6667 7.69305 10.6667H7.67133C6.87499 10.6667 6.2307 10.4444 5.73842 10C5.24613 9.55556 5 8.99663 5 8.32323ZM5.28234 26V12.5051H10.1038V26H5.28234ZM12.7751 26H17.5965V18.4646C17.5965 17.9933 17.6544 17.6296 17.7703 17.3737C17.973 16.9158 18.2806 16.5286 18.6933 16.2121C19.1059 15.8956 19.6235 15.7374 20.2461 15.7374C21.8678 15.7374 22.6786 16.7542 22.6786 18.7879V26H27.5V18.2626C27.5 16.2694 26.9932 14.7576 25.9797 13.7273C24.9662 12.697 23.6269 12.1818 21.9619 12.1818C20.0941 12.1818 18.639 12.9293 17.5965 14.4242V14.4646H17.5748L17.5965 14.4242V12.5051H12.7751C12.804 12.936 12.8185 14.2761 12.8185 16.5253C12.8185 18.7744 12.804 21.9326 12.7751 26Z"
        fill="#F5F5F5" />
</svg>
