<svg width="32" height="32" viewBox="0 0 32 32" fill="none" xmlns="http://www.w3.org/2000/svg">
    <path
        d="M27.3398 9.27633C26.4626 9.65688 25.5349 9.90844 24.5857 10.0232C25.5872 9.42491 26.3376 8.48369 26.6979 7.37414C25.7568 7.93436 24.7266 8.32908 23.6521 8.54113C22.9339 7.76224 21.9774 7.24378 20.9328 7.06705C19.8881 6.89031 18.8144 7.0653 17.8799 7.56458C16.9454 8.06385 16.2031 8.85917 15.7694 9.82579C15.3356 10.7924 15.2349 11.8757 15.4832 12.9057C13.5803 12.8094 11.719 12.3139 10.0201 11.4514C8.3212 10.5889 6.82277 9.37866 5.62211 7.89928C5.20099 8.63468 4.97971 9.46751 4.98027 10.3149C4.97878 11.1019 5.17191 11.8771 5.54247 12.5714C5.91304 13.2657 6.44953 13.8576 7.10419 14.2944C6.34329 14.2737 5.59864 14.0695 4.93359 13.6992V13.7576C4.93929 14.8602 5.32569 15.9271 6.02743 16.7777C6.72916 17.6283 7.70315 18.2104 8.78465 18.4255C8.36834 18.5522 7.93611 18.619 7.50097 18.6239C7.19975 18.6204 6.89929 18.5931 6.60238 18.5422C6.91036 19.4908 7.50636 20.3197 8.30744 20.9137C9.10852 21.5077 10.0748 21.8373 11.0719 21.8565C9.38822 23.1813 7.30944 23.9044 5.16699 23.9104C4.77691 23.9116 4.38713 23.8883 4 23.8403C6.18744 25.2527 8.73659 26.0024 11.3404 25.9993C13.1372 26.0179 14.9197 25.6784 16.5838 25.0004C18.2479 24.3225 19.7602 23.3197 21.0324 22.0508C22.3047 20.7818 23.3113 19.272 23.9935 17.6097C24.6757 15.9473 25.0198 14.1657 25.0058 12.3688C25.0058 12.1705 25.0058 11.9604 25.0058 11.7503C25.9215 11.0674 26.7113 10.2303 27.3398 9.27633Z"
        fill="#F5F5F5" />
</svg>
