<svg width="32" height="32" viewBox="0 0 32 32" fill="none" xmlns="http://www.w3.org/2000/svg">
    <path fill-rule="evenodd" clip-rule="evenodd"
        d="M28.4618 8.83091C27.7122 7.49745 26.8986 7.25218 25.2422 7.15891C23.5875 7.04664 19.4265 7 15.8216 7C12.2099 7 8.04718 7.04664 6.39418 7.15718C4.74118 7.25218 3.92591 7.49573 3.16936 8.83091C2.39727 10.1626 2 12.4565 2 16.4948V16.5086C2 20.5297 2.39727 22.8408 3.16936 24.1587C3.92591 25.4922 4.73945 25.734 6.39246 25.8463C8.04718 25.943 12.2099 26 15.8216 26C19.4265 26 23.5875 25.943 25.2439 25.848C26.9004 25.7357 27.7139 25.4939 28.4635 24.1605C29.2425 22.8425 29.6364 20.5315 29.6364 16.5104V16.4965C29.6364 12.4565 29.2425 10.1626 28.4618 8.83091Z"
        fill="#F5F5F5" />
    <path fill-rule="evenodd" clip-rule="evenodd"
        d="M12.3652 21.682V11.3184L21.0016 16.5002L12.3652 21.682Z" fill="#141418" />
</svg>
