<svg width="25" height="25" viewBox="0 0 25 25" fill="none" xmlns="http://www.w3.org/2000/svg">
<path d="M21.3443 3.6587C16.4699 -1.21566 8.53617 -1.21566 3.6618 3.6587C1.30065 6.02079 0 9.16062 0 12.4999C0 15.8392 1.30065 18.979 3.6618 21.3402C6.09947 23.7779 9.30126 24.9962 12.503 24.9962C15.7047 24.9962 18.9066 23.7779 21.3442 21.3402C26.2186 16.4658 26.2186 8.534 21.3443 3.6587ZM19.9748 19.9707C15.8549 24.0907 9.15112 24.0907 5.0312 19.9707C3.03616 17.9757 1.93693 15.3221 1.93693 12.4999C1.93693 9.67776 3.03616 7.02412 5.0312 5.0281C9.15112 0.908188 15.8549 0.909164 19.9748 5.0281C24.0937 9.14802 24.0937 15.8518 19.9748 19.9707Z" fill="#01042F"/>
<path d="M16.6763 15.1773L13.9345 12.4394L16.6763 9.70154C17.054 9.32385 17.054 8.71081 16.6773 8.3321C16.2986 7.95245 15.6856 7.95343 15.3069 8.33112L12.5632 11.0709L9.81954 8.33112C9.44087 7.95343 8.82783 7.95245 8.44916 8.3321C8.07147 8.71076 8.07147 9.3238 8.45014 9.70154L11.1919 12.4394L8.45014 15.1773C8.07147 15.555 8.07147 16.168 8.44916 16.5467C8.63803 16.7365 8.88691 16.8305 9.13486 16.8305C9.38281 16.8305 9.63071 16.7355 9.81958 16.5477L12.5633 13.8078L15.3069 16.5477C15.4958 16.7365 15.7437 16.8305 15.9917 16.8305C16.2396 16.8305 16.4885 16.7355 16.6774 16.5467C17.055 16.168 17.055 15.555 16.6763 15.1773Z" fill="#01042F"/>
</svg>
