<svg width="1439" height="345" viewBox="0 0 1439 345" fill="none" xmlns="http://www.w3.org/2000/svg">
<g opacity="0.5" filter="url(#filter0_f)">
<path fill-rule="evenodd" clip-rule="evenodd" d="M1198.06 291.805C1385.89 267.608 1611.08 218.523 1764.39 279.008C1918.32 339.733 1820.87 469.436 1885.74 563.104C1953.49 660.929 2214.97 736.982 2149.6 835.228C2083.98 933.839 1808.29 937.55 1614.78 970.314C1478.62 993.369 1340.95 989.828 1198.06 996.338C1036.29 1003.71 862.86 1053.62 723.6 1010.92C583.599 967.989 593.847 864.489 522.976 789.335C436.278 697.396 192.356 617.507 262.508 521.955C333.647 425.059 624.603 447.23 807.104 402.334C944.665 368.493 1050.02 310.877 1198.06 291.805Z" fill="#FC12AF"/>
</g>
<defs>
<filter id="filter0_f" x="0" y="0" width="2410" height="1278" filterUnits="userSpaceOnUse" color-interpolation-filters="sRGB">
<feFlood flood-opacity="0" result="BackgroundImageFix"/>
<feBlend mode="normal" in="SourceGraphic" in2="BackgroundImageFix" result="shape"/>
<feGaussianBlur stdDeviation="125" result="effect1_foregroundBlur"/>
</filter>
</defs>
</svg>
