<svg width="203" height="20" viewBox="0 0 203 20" fill="none" xmlns="http://www.w3.org/2000/svg">
    <path
        d="M31.0273 1.72461H33.8762V8.46239H40.614V1.72461H43.5562V18.2402H40.614V11.0268H33.8762V18.2402H31.0273V1.72461Z"
        fill="#F5F5F5" />
    <path
        d="M51.7203 5.61426C55.138 5.61426 56.8447 8.08092 56.8447 11.4054C56.8447 11.9743 56.8447 12.4498 56.7514 12.8276H48.8714C49.0625 15.0098 50.578 16.3387 52.4803 16.3387C53.5247 16.3387 54.378 16.0543 55.3291 15.3876L56.2803 17.192C55.1425 17.952 53.6225 18.6143 52.0091 18.6143C48.5914 18.6143 45.9336 16.1476 45.9336 12.1609C46.1203 7.98759 48.8714 5.61426 51.7203 5.61426ZM54.378 11.0276C54.378 9.12981 53.5247 7.80092 51.8136 7.80092C50.2936 7.80092 49.0625 8.84537 48.8714 11.0276H54.378Z"
        fill="#F5F5F5" />
    <path
        d="M65.483 10.3605C65.483 9.12495 64.9141 7.89384 63.3008 7.89384C62.0652 7.89384 60.8341 8.46273 59.7897 9.03162L58.7452 7.13384C60.1674 6.28051 61.7808 5.52051 63.8697 5.52051C66.9052 5.52051 68.4252 7.41829 68.4252 10.8361V18.1427H66.0519L65.8608 16.7205H65.6697C64.6252 17.6716 63.2963 18.4272 61.8741 18.4272C59.7852 18.4272 58.1719 16.9072 58.1719 14.8183C58.1719 12.2583 60.4519 10.8361 65.483 10.3605ZM62.7274 16.245C63.6785 16.245 64.5319 15.6761 65.3852 14.8227V12.0716C61.9674 12.4494 60.923 13.3072 60.923 14.6361C61.0208 15.7694 61.7808 16.245 62.7274 16.245Z"
        fill="#F5F5F5" />
    <path
        d="M71.3678 0.489258H74.2167V15.2004C74.2167 15.9604 74.5012 16.1515 74.879 16.1515H75.2567L75.6345 18.2404C75.3501 18.3337 74.7812 18.4315 74.1145 18.4315C72.1234 18.4315 71.2656 17.0093 71.2656 14.9204V0.489258H71.3678Z"
        fill="#F5F5F5" />
    <path
        d="M78.0154 8.08047H76.2109V5.99158L78.1087 5.89825L78.3932 2.48047H80.8598V5.89825H84.0865V8.27158H80.8598V14.0627C80.8598 15.5827 81.4287 16.1516 82.5665 16.1516C82.9443 16.1516 83.5176 16.0582 83.8021 15.8671L84.3709 17.956C83.7087 18.1471 82.8509 18.3338 81.8065 18.3338C78.9576 18.3338 77.9132 16.5294 77.9132 13.8716L78.0154 8.08047Z"
        fill="#F5F5F5" />
    <path
        d="M86.0781 0.489258H88.927V5.04481L88.8337 7.51148C89.8781 6.56037 91.0159 5.6137 92.727 5.6137C95.3848 5.6137 96.5226 7.41815 96.5226 10.4537V18.2359H93.6737V10.9293C93.6737 8.93815 93.1048 8.17815 91.7759 8.17815C90.7315 8.17815 89.9715 8.74704 88.927 9.69815V18.3337H86.0781V0.489258Z"
        fill="#F5F5F5" />
    <path
        d="M106.586 1.43555C108.577 1.43555 110.195 2.38666 111.235 3.52444L109.621 5.32888C108.768 4.47555 107.817 3.90666 106.679 3.90666C103.928 3.90666 102.03 6.08888 102.03 9.88444C102.03 13.68 103.835 15.96 106.586 15.96C108.106 15.96 109.15 15.2978 110.003 14.3467L111.617 16.1511C110.195 17.6711 108.581 18.6178 106.492 18.6178C102.221 18.6178 99.0879 15.6755 99.0879 10.1689C98.9945 4.75999 102.315 1.43555 106.586 1.43555Z"
        fill="#F5F5F5" />
    <path
        d="M120.252 10.3605C120.252 9.12495 119.683 7.89384 118.07 7.89384C116.834 7.89384 115.603 8.46273 114.559 9.03162L113.514 7.13384C114.936 6.28051 116.55 5.52051 118.639 5.52051C121.674 5.52051 123.194 7.41829 123.194 10.8361V18.1427H120.728L120.536 16.7205H120.443C119.399 17.6716 118.07 18.4272 116.648 18.4272C114.559 18.4272 112.945 16.9072 112.945 14.8183C113.039 12.2583 115.123 10.8361 120.252 10.3605ZM117.594 16.245C118.545 16.245 119.399 15.6761 120.252 14.8227V12.0716C116.834 12.4494 115.79 13.3072 115.79 14.6361C115.79 15.7694 116.55 16.245 117.594 16.245Z"
        fill="#F5F5F5" />
    <path
        d="M126.039 5.8987H128.506L128.697 8.08092H128.79C129.644 6.46759 130.972 5.61426 132.301 5.61426C132.964 5.61426 133.346 5.70759 133.724 5.80537L133.155 8.36981C132.777 8.27648 132.395 8.1787 131.919 8.1787C130.968 8.1787 129.83 8.84092 129.07 10.7431V18.2409H126.221L126.039 5.8987Z"
        fill="#F5F5F5" />
    <path
        d="M139.517 5.61426C142.935 5.61426 144.642 8.08092 144.642 11.4054C144.642 11.9743 144.642 12.4498 144.548 12.8276H136.668C136.859 15.0098 138.375 16.3387 140.277 16.3387C141.322 16.3387 142.175 16.0543 143.126 15.3876L144.077 17.192C142.939 17.952 141.419 18.6143 139.806 18.6143C136.388 18.6143 133.73 16.1476 133.73 12.1609C133.73 8.17426 136.668 5.61426 139.517 5.61426ZM142.082 11.0276C142.082 9.12981 141.228 7.80092 139.517 7.80092C137.997 7.80092 136.766 8.84537 136.575 11.0276H142.082Z"
        fill="#F5F5F5" />
    <path
        d="M148.157 15.2988C149.01 15.2988 149.677 15.9611 149.677 16.9122C149.677 17.8633 149.014 18.5255 148.157 18.5255C147.299 18.5255 146.637 17.8633 146.637 16.9122C146.637 15.9611 147.299 15.2988 148.157 15.2988Z"
        fill="#F5F5F5" />
    <path
        d="M157.557 5.71094C159.171 5.71094 160.308 6.37316 161.166 7.23094L160.122 8.55983C159.362 7.8976 158.602 7.51538 157.655 7.51538C155.473 7.51538 153.86 9.41316 153.86 12.262C153.86 15.0132 155.38 16.9109 157.655 16.9109C158.793 16.9109 159.744 16.342 160.504 15.6754L161.455 17.0976C160.411 18.0487 158.891 18.7109 157.562 18.7109C154.242 18.7109 151.868 16.3376 151.868 12.3509C151.575 7.98649 154.424 5.71094 157.557 5.71094Z"
        fill="#F5F5F5" />
    <path
        d="M167.616 5.71094C170.558 5.71094 173.216 8.08427 173.216 12.1643C173.216 16.1509 170.558 18.5243 167.616 18.5243C164.673 18.5243 162.016 16.1509 162.016 12.1643C162.016 7.98649 164.673 5.71094 167.616 5.71094ZM167.616 16.8132C169.705 16.8132 171.127 14.9154 171.127 12.1643C171.127 9.31538 169.705 7.4176 167.616 7.4176C165.527 7.4176 164.105 9.31538 164.105 12.1643C164.105 14.9154 165.62 16.8132 167.616 16.8132Z"
        fill="#F5F5F5" />
    <path
        d="M175.969 5.99624H177.675L177.867 7.80068H177.96C179.004 6.6629 180.333 5.80957 181.755 5.80957C183.653 5.80957 184.604 6.6629 185.173 8.1829C186.409 6.76068 187.738 5.80957 189.16 5.80957C191.724 5.80957 192.862 7.51624 192.862 10.5562V18.3385H190.964V10.9296C190.964 8.55624 190.204 7.60957 188.782 7.60957C187.831 7.60957 186.884 8.27179 185.747 9.50735V18.334H183.755V10.9296C183.755 8.55624 182.995 7.60957 181.382 7.60957C180.431 7.60957 179.484 8.27179 178.347 9.50735V18.334H176.355V5.99624H175.969Z"
        fill="#F5F5F5" />
    <path
        d="M20.3024 5.42269C20.3024 7.12936 18.8802 8.36491 17.3602 8.36491C15.6535 8.36491 14.418 6.94269 14.418 5.42269C14.418 3.71602 15.8402 2.48047 17.3602 2.48047C19.0669 2.48047 20.3024 3.90714 20.3024 5.42269Z"
        fill="#F5F5F5" />
    <path
        d="M12.1387 11.027C10.9032 11.5959 9.3876 12.1648 7.96094 13.1159L9.48094 14.7293L12.5165 18.2404C12.5165 18.2404 16.5032 12.4493 26.7565 13.9693C26.6632 13.9693 21.0632 7.7026 12.1387 11.027Z"
        fill="#F5F5F5" />
    <path
        d="M10.5236 4.09362C10.5236 5.32918 9.47915 6.56029 8.05693 6.56029C6.82137 6.56029 5.68359 5.42251 5.68359 4.09362C5.68359 2.85806 6.72804 1.62695 8.15026 1.62695C9.47915 1.62695 10.5236 2.6714 10.5236 4.09362Z"
        fill="#F5F5F5" />
    <path
        d="M3.59557 8.93828C2.83557 9.31606 1.98224 9.88939 1.12891 10.6449L4.07113 14.0627C4.07113 14.0627 7.48891 9.22273 13.8489 9.03161C13.9422 8.93828 9.00446 6.08939 3.59557 8.93828Z"
        fill="#F5F5F5" />
    <path
        d="M194.961 4.81752C194.961 3.07085 196.365 1.67974 198.094 1.67974C198.507 1.67738 198.916 1.75693 199.298 1.91378C199.68 2.07064 200.026 2.30167 200.318 2.59351C200.61 2.88535 200.841 3.2322 200.998 3.61396C201.155 3.99571 201.234 4.4048 201.232 4.81752C201.232 6.54641 199.841 7.95529 198.094 7.95529C196.37 7.95529 194.961 6.54641 194.961 4.81752ZM195.379 4.81752C195.379 6.31085 196.592 7.53752 198.099 7.53752C199.61 7.53752 200.805 6.31085 200.805 4.81752C200.805 3.29307 199.605 2.11085 198.099 2.11085C196.588 2.11085 195.379 3.29307 195.379 4.81752ZM198.023 5.19974H197.374V6.61752H196.903V3.02196H198.365C198.988 3.02196 199.503 3.44863 199.503 4.11529C199.503 4.91529 198.792 5.18196 198.588 5.18196L199.548 6.61752H198.956L198.023 5.19974ZM197.374 3.44418V4.77307H198.365C198.703 4.77307 199.014 4.49307 199.014 4.12418C199.014 3.72418 198.703 3.44418 198.365 3.44418H197.374Z"
        fill="#F5F5F5" />
</svg>
