<svg width="18" height="16" viewBox="0 0 18 16" fill="none" xmlns="http://www.w3.org/2000/svg">
    <path
        d="M13.4377 0.000403086C12.2551 0.0171494 11.1265 0.507362 10.2961 1.365C9.46566 2.22264 9.00015 3.37874 9.00027 4.58322C9.00029 3.37871 8.53472 2.22261 7.70423 1.36498C6.87375 0.507351 5.74513 0.0171486 4.5625 0.000403086C2.02778 -0.0336699 -0.0505864 2.09692 0.000937798 4.67795C0.0237911 5.86197 0.497117 6.99072 1.32116 7.82629L8.93335 15.9697C8.94198 15.979 8.95236 15.9863 8.96386 15.9914C8.97536 15.9964 8.98775 15.999 9.00027 15.999C9.01278 15.999 9.02517 15.9964 9.03667 15.9914C9.04818 15.9863 9.05856 15.979 9.06718 15.9697L16.6797 7.82629C17.5035 6.99058 17.9767 5.86189 17.9996 4.67795C18.0515 2.09726 15.9724 -0.0336699 13.4377 0.000403086Z"
        fill="#F5F5F5" />
</svg>
