<svg width="68" height="40" viewBox="0 0 68 40" fill="none" xmlns="http://www.w3.org/2000/svg">
    <path
        d="M8.28609 17.672V13.816H10.7343V4.112H8.28609V0H20.6661V4.12H18.2179V13.824H20.6661V17.672H8.28609ZM32.4975 17.672V13.816H34.1269V9.832C34.1269 8.632 33.3081 8.104 32.0881 8.104C30.729 8.104 29.64 9.032 29.5008 10.36V13.816H31.2694V17.672H21.7551V13.816H23.3845V8.104H21.7551V4.248H29.3698V6.904L29.7792 6.504C31.0073 5.04 33.0461 4.248 34.9457 4.376C37.9343 4.376 40.3824 5.576 40.3824 8.76V13.808H42.02V17.672H32.4975ZM57.798 9.832L52.4922 10.36C52.4922 8.896 52.0828 7.44 50.3143 7.44C48.0053 7.44 47.8661 9.304 47.8661 11.032C47.8661 12.896 48.0053 14.752 50.3143 14.752C51.4033 14.888 52.4922 14.088 52.6232 12.888V12.624H57.929V13.024C57.1102 17.28 53.1718 17.944 50.4453 17.944C46.0893 17.944 41.7416 15.816 41.7416 11.032C41.7416 6.248 46.0975 4.12 50.4453 4.12C50.3143 4.248 57.2576 3.848 57.798 9.832ZM61.8755 15.544C61.8755 15.9649 61.7478 16.3763 61.5084 16.7263C61.2691 17.0762 60.929 17.349 60.531 17.51C60.133 17.6711 59.6951 17.7132 59.2726 17.6311C58.8501 17.549 58.4621 17.3463 58.1575 17.0487C57.8529 16.7511 57.6455 16.3719 57.5614 15.9592C57.4774 15.5464 57.5205 15.1185 57.6854 14.7296C57.8502 14.3408 58.1294 14.0085 58.4875 13.7746C58.8457 13.5408 59.2668 13.416 59.6975 13.416C59.9845 13.4126 60.2693 13.4653 60.5351 13.571C60.801 13.6767 61.0425 13.8333 61.2454 14.0316C61.4484 14.2299 61.6087 14.4659 61.7169 14.7256C61.8251 14.9853 61.879 15.2636 61.8755 15.544ZM24.6126 19.4C19.3069 19.4 16.3184 22.856 16.3184 29.632C16.3184 36.408 19.3069 39.864 24.6126 39.864C29.9184 39.864 32.9069 36.408 32.9069 29.632C32.9069 22.856 29.7792 19.4 24.6126 19.4ZM24.6126 35.744C22.7049 35.744 22.3037 33.88 22.3037 29.632C22.3037 25.384 22.7131 23.52 24.6126 23.52C26.5122 23.52 26.9216 25.384 26.9216 29.632C26.9216 33.88 26.5122 35.744 24.6126 35.744ZM42.1592 19.4C36.8535 19.4 33.8649 22.856 33.8649 29.632C33.8649 36.408 36.8535 39.864 42.1592 39.864C47.4649 39.864 50.4535 36.408 50.4535 29.632C50.4535 22.856 47.3257 19.4 42.1592 19.4ZM42.1592 35.744C40.2514 35.744 39.8502 33.88 39.8502 29.632C39.8502 25.384 40.2596 23.52 42.1592 23.52C44.0588 23.52 44.4682 25.384 44.4682 29.632C44.4682 33.88 44.0588 35.744 42.1592 35.744ZM59.7057 19.4C54.4 19.4 51.4114 22.856 51.4114 29.632C51.4114 36.408 54.4 39.864 59.7057 39.864C65.0114 39.864 68 36.408 68 29.632C68 22.856 64.8722 19.4 59.7057 19.4ZM59.7057 35.744C57.798 35.744 57.3967 33.88 57.3967 29.632C57.3967 25.384 57.8061 23.52 59.7057 23.52C61.6053 23.52 62.0147 25.384 62.0147 29.632C62.0147 33.88 61.6053 35.744 59.7057 35.744ZM13.8702 27.64C12.5028 26.576 10.8734 25.912 9.10488 26.04C7.7457 26.04 6.24732 26.44 5.29753 27.368L5.70692 24.176H14.2714V19.528H1.76039L0.401204 28.832L4.07754 30.696C5.02733 29.896 6.11632 29.368 7.34449 29.368C8.02408 29.368 8.57267 29.632 9.11306 30.032C9.79265 30.696 10.0629 31.624 10.0629 32.56C10.0629 32.96 10.0629 33.36 9.92366 33.624C9.78447 34.824 8.69548 35.616 7.4755 35.488C5.16653 35.488 5.29753 32.696 5.84612 31.632L0 34.688C0.409392 38.28 4.21674 40 7.34449 40C9.52246 40 11.5612 39.336 13.0596 38.008C13.6 37.48 14.1486 36.944 14.558 36.144C15.2376 35.08 15.5078 33.752 15.5078 32.552C15.7698 30.696 15.0902 28.968 13.8702 27.64Z"
        fill="#787891" />
</svg>
