<svg width="80" height="62" viewBox="0 0 80 62" fill="none" xmlns="http://www.w3.org/2000/svg">
<path d="M39.5016 0C33.6333 0 28.0053 2.3331 23.8557 6.48604C19.7062 10.639 17.375 16.2716 17.375 22.1447H61.625C61.6254 19.2368 61.0535 16.3573 59.9419 13.6706C58.8303 10.9838 57.2007 8.54261 55.1463 6.48624C53.092 4.42987 50.653 2.79865 47.9686 1.68573C45.2843 0.572813 42.4072 -3.12506e-08 39.5016 0Z" fill="#CDF52D"/>
<path d="M39.5016 44.286C33.6357 44.28 28.0117 41.9454 23.8635 37.7945C19.7154 33.6435 17.3819 28.0153 17.375 22.1445H0C0.000860163 32.629 4.163 42.6838 11.5709 50.0972C18.9788 57.5105 29.0257 61.6753 39.5016 61.6753V44.286Z" fill="#CDF52D"/>
<path d="M74.6743 22.1445H74.2152V19.9835H73.281V19.54H75.6138V19.9835H74.6743V22.1445Z" fill="#CDF52D"/>
<path d="M77.5387 21.533L78.6303 19.5322H79.0013V22.1367H78.5556V20.4912L77.6294 22.1447H77.4052L76.5004 20.5179V22.1447H76.0547V19.5402H76.4337L77.5387 21.533Z" fill="#CDF52D"/>
</svg>
