<svg width="30" height="30" viewBox="0 0 30 30" fill="none" xmlns="http://www.w3.org/2000/svg">
<g clip-path="url(#clip0)">
<path d="M15 0C12.0173 0.00334984 9.15781 1.18969 7.04875 3.29875C4.93969 5.40781 3.75335 8.26734 3.75 11.25C3.75 19.1766 13.6928 29.2106 14.1161 29.6339C14.3521 29.8654 14.6694 29.9951 15 29.9951C15.3306 29.9951 15.6479 29.8654 15.8839 29.6339C16.3072 29.2106 26.25 19.1766 26.25 11.25C26.2467 8.26734 25.0603 5.40781 22.9513 3.29875C20.8422 1.18969 17.9827 0.00334984 15 0V0ZM15 18.75C13.5166 18.75 12.0666 18.3101 10.8332 17.486C9.59985 16.6619 8.63856 15.4906 8.0709 14.1201C7.50325 12.7497 7.35472 11.2417 7.64411 9.78682C7.9335 8.33197 8.64781 6.99559 9.6967 5.9467C10.7456 4.89781 12.082 4.1835 13.5368 3.89411C14.9917 3.60472 16.4997 3.75325 17.8701 4.3209C19.2406 4.88856 20.4119 5.84985 21.236 7.08322C22.0601 8.31659 22.5 9.76664 22.5 11.25C22.5 13.2391 21.7098 15.1468 20.3033 16.5533C18.8968 17.9598 16.9891 18.75 15 18.75Z" fill="#00A9C3"/>
<path d="M20.279 9.44093L15.279 6.94093C15.1922 6.89753 15.0965 6.87494 14.9995 6.87494C14.9025 6.87494 14.8068 6.89753 14.72 6.94093L9.71997 9.44093L10.279 10.5591L11.8745 9.76125V13.75C11.8745 13.9158 11.9403 14.0747 12.0576 14.1919C12.1748 14.3091 12.3337 14.375 12.4995 14.375H17.4995C17.6653 14.375 17.8242 14.3091 17.9414 14.1919C18.0587 14.0747 18.1245 13.9158 18.1245 13.75V9.76125L19.72 10.5591L20.279 9.44093Z" fill="#00A9C3"/>
</g>
<defs>
<clipPath id="clip0">
<rect width="30" height="30" fill="white"/>
</clipPath>
</defs>
</svg>
