<svg width="127" height="20" viewBox="0 0 127 20" fill="none" xmlns="http://www.w3.org/2000/svg">
    <path
        d="M64.9355 3.83566C64.9695 4.4941 64.4433 5.05377 63.7643 5.0867C63.0853 5.11962 62.5082 4.60933 62.4743 3.95089C62.4403 3.30891 62.9495 2.74923 63.6115 2.69985H63.6625C64.3075 2.66693 64.8506 3.1443 64.9016 3.75336L64.9355 3.83566Z"
        fill="#F5F5F5" />
    <path
        d="M126.451 6.78182V15.8518H124.533V14.3374C123.837 15.4239 122.598 16.0823 121.274 16.0494C118.812 16.0494 116.945 14.0905 116.945 11.3086C116.945 8.52669 118.796 6.58429 121.274 6.58429C122.615 6.56782 123.854 7.22627 124.55 8.34561V6.79828L126.451 6.78182ZM124.55 11.3251C124.652 9.79419 123.446 8.4773 121.868 8.37854H121.698C120.069 8.37854 118.914 9.58019 118.914 11.3251C118.914 13.0699 120.086 14.288 121.698 14.288C123.277 14.288 124.55 13.037 124.55 11.5061C124.55 11.4567 124.55 11.3909 124.55 11.3251Z"
        fill="#F5F5F5" />
    <path
        d="M115.111 10.1406V15.869H113.193V10.5192C113.193 9.12003 112.548 8.37928 111.122 8.37928C109.492 8.37928 108.609 9.41632 108.609 11.1777V15.869H106.691V3.16113H108.609V8.28051C109.255 7.19409 110.46 6.5521 111.733 6.60149C113.821 6.58503 115.111 7.91837 115.111 10.1406Z"
        fill="#F5F5F5" />
    <path
        d="M104.654 11.3253C104.654 14.0908 102.804 16.0661 100.326 16.0661C99.0016 16.0826 97.7625 15.4406 97.0665 14.3542V20.0003H95.1484V6.83148H97.0665V8.37881C97.7625 7.27592 99.0186 6.60102 100.343 6.61748C102.804 6.61748 104.671 8.57634 104.671 11.3583L104.654 11.3253ZM102.719 11.3253C102.719 9.59693 101.565 8.37881 99.9352 8.37881C98.2547 8.49404 96.9986 9.92615 97.1175 11.5558C97.2363 13.0208 98.4245 14.1731 99.9352 14.2883C101.548 14.2719 102.719 13.0702 102.719 11.3253Z"
        fill="#F5F5F5" />
    <path d="M90.9375 3.16113H92.8895V15.869H90.9375V3.16113Z" fill="#F5F5F5" />
    <path
        d="M86.1549 12.757H80.9608L79.7557 15.8517H77.7188L82.3527 4.3125H84.814L89.414 15.8517H87.3771L86.1549 12.757ZM85.459 10.9957L83.5749 6.1726L81.6907 10.9957H85.459Z"
        fill="#F5F5F5" />
    <path
        d="M76.0876 6.78181V15.8518H74.1695V14.3374C73.4736 15.4238 72.2344 16.0823 70.9105 16.0494C68.4492 16.0494 66.582 14.0905 66.582 11.3086C66.582 8.52668 68.4322 6.58428 70.9105 6.58428C72.2344 6.56782 73.4905 7.24272 74.1695 8.34561V6.79827L76.0876 6.78181ZM74.1695 11.3251C74.2544 9.79418 73.0492 8.4773 71.4706 8.37853H71.2839C69.6544 8.37853 68.5001 9.58019 68.5001 11.3251C68.5001 13.0699 69.6713 14.288 71.2839 14.288C72.8625 14.288 74.1695 13.0535 74.1695 11.5226C74.1695 11.5226 74.1695 11.5226 74.1695 11.5061V11.3251Z"
        fill="#F5F5F5" />
    <path d="M62.7277 6.78247H64.6458V15.8525H62.7107L62.7277 6.78247Z" fill="#F5F5F5" />
    <path
        d="M60.5043 3.16113V15.869H58.5693V14.3546C57.8564 15.4411 56.6173 16.083 55.2933 16.0666C52.7811 16.0666 50.9648 14.1077 50.9648 11.3258C50.9648 8.54389 52.815 6.58503 55.2933 6.58503C56.6342 6.56857 57.8903 7.24347 58.5863 8.34636V3.16113H60.5043ZM58.5863 11.3258C58.6881 9.79493 57.4829 8.47804 55.8874 8.37928H55.7007C54.0711 8.37928 52.9169 9.58093 52.9169 11.3258C52.9169 13.0707 54.0881 14.2888 55.7007 14.2888C57.2793 14.3052 58.5693 13.0542 58.5863 11.5233C58.5863 11.4575 58.5863 11.3916 58.5863 11.3258Z"
        fill="#F5F5F5" />
    <path
        d="M49.3164 11.8353H41.7119C41.7629 13.3168 43.0359 14.4856 44.5636 14.4362H44.6315C45.65 14.502 46.6175 13.9588 47.0928 13.0864H49.0788C48.4337 14.9465 46.6005 16.181 44.5806 16.0823C41.8817 16.0329 39.7429 13.8765 39.7939 11.2592C39.8448 8.70774 41.9666 6.66657 44.5806 6.61719C47.602 6.61719 49.5201 8.88881 49.3164 11.8683V11.8353ZM41.8138 10.3045H47.2625C47.0249 9.05342 45.8876 8.16452 44.5806 8.19745C43.2566 8.16452 42.0854 9.05342 41.8138 10.3045Z"
        fill="#F5F5F5" />
    <path
        d="M37.5393 4.3291V15.8683H35.6043V6.84764L31.9378 12.2304H31.7511L28.1017 6.84764V15.8683H26.1836V4.3291H28.4412L31.853 9.31679L35.2648 4.3291H37.5393Z"
        fill="#F5F5F5" />
    <path
        d="M21.5327 17.9258C20.9726 18.255 20.2597 18.0904 19.9202 17.5472C18.7999 15.8846 17.5947 14.2879 16.3047 12.757C16.7969 12.1315 17.2552 11.506 17.6796 10.8311C19.1903 12.6088 20.6161 14.4525 21.9062 16.3784C22.2457 16.9052 22.0759 17.613 21.5158 17.9422V17.9258H21.5327Z"
        fill="#F5F5F5" />
    <path
        d="M18.0031 7.91733C18.3426 7.25888 18.7669 6.25476 19.0385 5.62924C19.6156 4.26298 17.409 3.40701 16.8658 4.78973C15.8983 7.16012 14.6252 9.38236 13.0806 11.44C11.0437 14.5347 5.54401 18.3042 3.26947 13.547C2.09825 11.2425 2.18312 7.93379 3.45619 6.28769C6.07021 3.50577 10.4496 7.06135 13.2333 9.48112C13.6577 8.82268 14.0481 8.14778 14.4045 7.43996C-1.14382 -6.63422 -4.58959 17.152 6.44365 18.0902C10.0422 18.0902 12.9108 15.4565 14.9477 12.8063C16.1189 11.2754 17.1374 9.62927 18.0031 7.91733Z"
        fill="#F5F5F5" />
    <path
        d="M20.8181 1.20166C20.8181 1.8601 20.2579 2.40331 19.579 2.40331C18.9 2.40331 18.3398 1.8601 18.3398 1.20166C18.3398 0.543214 18.9 0 19.579 0C20.2579 0 20.8181 0.526753 20.8181 1.20166Z"
        fill="#F5F5F5" />
</svg>
