<svg width="17" height="16" viewBox="0 0 17 16" fill="none" xmlns="http://www.w3.org/2000/svg">
    <path
        d="M12.2963 4.44445C13.5236 4.44445 14.5185 3.44952 14.5185 2.22222C14.5185 0.994923 13.5236 0 12.2963 0C11.069 0 10.074 0.994923 10.074 2.22222C10.074 3.44952 11.069 4.44445 12.2963 4.44445Z"
        fill="#F5F5F5" />
    <path
        d="M4.59283 7.11144C5.82013 7.11144 6.81505 6.11651 6.81505 4.88922C6.81505 3.66192 5.82013 2.66699 4.59283 2.66699C3.36553 2.66699 2.37061 3.66192 2.37061 4.88922C2.37061 6.11651 3.36553 7.11144 4.59283 7.11144Z"
        fill="#F5F5F5" />
    <path
        d="M8.44439 11.2596C9.67169 11.2596 10.6666 10.2315 10.6666 8.96329C10.6666 7.69508 9.67169 6.66699 8.44439 6.66699C7.21709 6.66699 6.22217 7.69508 6.22217 8.96329C6.22217 10.2315 7.21709 11.2596 8.44439 11.2596Z"
        fill="#F5F5F5" />
    <path
        d="M10.0441 12H6.84461C6.0509 12 5.28971 12.3082 4.72847 12.8567C4.16723 13.4052 3.85194 14.1492 3.85194 14.9249V16H13.0371V14.9249C13.0371 14.5408 12.9597 14.1604 12.8093 13.8055C12.6589 13.4506 12.4384 13.1282 12.1605 12.8566C11.8825 12.5849 11.5526 12.3695 11.1894 12.2225C10.8263 12.0756 10.4371 12 10.0441 12Z"
        fill="#F5F5F5" />
    <path
        d="M2.92043 16V14.9225C2.92158 14.0246 3.23752 13.1553 3.8135 12.4654C4.38948 11.7755 5.18921 11.3084 6.07408 11.1451C5.51308 10.564 5.19959 9.78866 5.19948 8.98182C5.19935 8.64819 5.25287 8.31671 5.35799 8H2.93792C2.55209 7.99995 2.17004 8.07575 1.81357 8.22306C1.4571 8.37037 1.13321 8.58631 0.860388 8.85855C0.587568 9.13079 0.371169 9.45399 0.223542 9.80969C0.0759153 10.1654 -4.78436e-05 10.5466 2.26072e-08 10.9316V16H1.36073L1.5 16H2L2.47548 16H2.92043Z"
        fill="#F5F5F5" />
    <path
        d="M13.8778 5.48145H10.6597C10.1431 5.48091 9.63518 5.61182 9.18527 5.86145C9.86688 6.0435 10.4687 6.44083 10.8982 6.99227C11.3276 7.54371 11.5607 8.21867 11.5618 8.91321C11.5621 9.72752 11.2418 10.5103 10.6679 11.0974C11.5745 11.2624 12.3938 11.734 12.9839 12.4306C13.5741 13.1271 13.8978 14.0047 13.899 14.9114V15.9992H14.356L14.5002 16H15.0002L15.4986 16H16.889V8.44142C16.889 8.05262 16.8111 7.66763 16.6597 7.30843C16.5084 6.94924 16.2866 6.62289 16.0069 6.34801C15.7273 6.07314 15.3954 5.85513 15.03 5.70644C14.6647 5.55776 14.2731 5.4813 13.8778 5.48145Z"
        fill="#F5F5F5" />
</svg>
