<svg width="417" height="811" viewBox="0 0 417 811" fill="none" xmlns="http://www.w3.org/2000/svg" xmlns:xlink="http://www.w3.org/1999/xlink">
<g filter="url(#filter0_i)">
<path fill-rule="evenodd" clip-rule="evenodd" d="M152.448 91.4652C114.817 91.4652 97.559 109.314 97.559 146.376V677.095C97.559 714.157 114.817 732.006 152.448 732.006H357.352C393.756 732.006 412.241 712.899 412.241 677.095V146.376C412.241 109.314 394.983 91.4652 357.352 91.4652H152.448Z" fill="#879A94"/>
</g>
<path d="M152.448 90.4329C133.487 90.4329 119.447 94.9288 110.159 104.295C100.873 113.66 96.5267 127.704 96.5267 146.376V677.095C96.5267 695.767 100.873 709.811 110.159 719.176C119.447 728.542 133.487 733.038 152.448 733.038H357.352C375.726 733.038 389.753 728.214 399.181 718.704C408.608 709.195 413.273 695.164 413.273 677.095V146.376C413.273 127.704 408.927 113.66 399.641 104.295C390.353 94.9288 376.313 90.4329 357.352 90.4329H152.448Z" stroke="#62726E" stroke-width="2.06462"/>
<path fill-rule="evenodd" clip-rule="evenodd" d="M152.694 94.9408C117.071 94.9408 101.032 111.103 101.032 146.581V676.889C101.032 712.368 117.071 728.53 152.694 728.53H357.6C391.988 728.53 409.262 711.119 409.262 676.889V146.581C409.262 111.103 393.223 94.9408 357.6 94.9408H152.694Z" fill="url(#paint0_linear)"/>
<g filter="url(#filter1_dd)">
<path fill-rule="evenodd" clip-rule="evenodd" d="M152.523 97.9199H357.77C391.615 97.9199 406.283 112.574 406.283 146.295V676.183C406.283 708.659 390.373 724.557 357.77 724.557H152.523C118.678 724.557 104.01 709.903 104.01 676.183V146.295C104.01 112.574 118.678 97.9199 152.523 97.9199Z" fill="url(#paint1_linear)"/>
</g>
<path fill-rule="evenodd" clip-rule="evenodd" d="M176.195 114.484C176.195 121.665 181.491 130.445 193.679 130.445H315.071C327.259 130.445 332.556 121.665 332.556 114.733C332.556 111.278 332.556 108 338.3 108H362.529C382.777 108 395 120.204 395 140.42V682.58C395 702.796 382.777 715 362.529 715H146.471C126.223 715 114 702.796 114 682.58V140.42C114 120.204 126.223 108 146.471 108H170.45C176.195 108 176.195 111.278 176.195 114.484Z" fill="url(#paint2_linear)"/>
<path fill-rule="evenodd" clip-rule="evenodd" d="M176.195 114.484C176.195 121.665 181.491 130.445 193.679 130.445H315.071C327.259 130.445 332.556 121.665 332.556 114.733C332.556 111.278 332.556 108 338.3 108H362.529C382.777 108 395 120.204 395 140.42V682.58C395 702.796 382.777 715 362.529 715H146.471C126.223 715 114 702.796 114 682.58V140.42C114 120.204 126.223 108 146.471 108H170.45C176.195 108 176.195 111.278 176.195 114.484Z" fill="url(#pattern0)"/>
<g filter="url(#filter2_i)">
<path fill-rule="evenodd" clip-rule="evenodd" d="M405.788 146.325C405.788 123.091 398.837 108.91 383.462 102.339C383.34 103.305 384.489 104.521 386.237 106.372C391.03 111.444 400.327 121.284 400.327 143.798V678.584C400.327 700.913 391.636 710.379 386.879 715.56C385.43 717.138 384.347 718.319 383.984 719.344C398.6 712.298 405.788 697.954 405.788 676.104V146.325ZM104.507 675.981C104.507 699.238 111.458 713.433 126.833 720.011C126.955 719.044 125.806 717.827 124.058 715.974C119.265 710.897 109.968 701.047 109.968 678.511V143.19C109.968 120.838 118.659 111.363 123.416 106.177C124.865 104.597 125.948 103.416 126.311 102.389C111.695 109.442 104.507 123.8 104.507 145.672V675.981Z" fill="white" fill-opacity="0.78"/>
</g>
<rect opacity="0.45" x="96.0683" y="666.96" width="4.96344" height="4.4706" fill="black"/>
<rect opacity="0.45" x="96.0683" y="151.548" width="4.96344" height="4.4706" fill="black"/>
<rect opacity="0.45" x="408.764" y="666.96" width="4.96344" height="4.4706" fill="black"/>
<rect opacity="0.45" x="408.764" y="151.548" width="4.96344" height="4.4706" fill="black"/>
<path opacity="0.447803" fill-rule="evenodd" clip-rule="evenodd" d="M158.608 728.035H163.075V733H158.608V728.035Z" fill="black"/>
<path opacity="0.447803" fill-rule="evenodd" clip-rule="evenodd" d="M346.714 90H351.181V94.9654H346.714V90Z" fill="black"/>
<g filter="url(#filter3_iii)">
<path fill-rule="evenodd" clip-rule="evenodd" d="M95.3242 257.124C94.8121 257.257 94.198 257.597 93.8702 258.081C93.8026 258.181 93.7492 258.496 93.7492 258.587C93.7492 263.161 93.7492 277.092 93.7492 300.38C93.7492 300.477 93.8244 300.969 93.8704 301.088C94.1358 301.775 94.5968 301.941 95.3242 302.338H96.2242C96.2242 301.086 96.2393 258.347 96.2242 257.124H95.3242Z" fill="#89A098"/>
</g>
<g filter="url(#filter4_iii)">
<path fill-rule="evenodd" clip-rule="evenodd" d="M95.3242 316.287C94.8121 316.42 94.198 316.761 93.8702 317.244C93.8026 317.344 93.7492 317.659 93.7492 317.75C93.7492 322.324 93.7492 336.255 93.7492 359.543C93.7492 359.641 93.8244 360.132 93.8704 360.251C94.1358 360.938 94.5968 361.104 95.3242 361.501H96.2242C96.2242 360.25 96.2393 317.511 96.2242 316.287H95.3242Z" fill="#89A098"/>
</g>
<g filter="url(#filter5_iii)">
<path fill-rule="evenodd" clip-rule="evenodd" d="M95.3242 211.909C94.4544 211.909 93.7492 212.678 93.7492 213.626V234.723C93.7492 235.672 94.4544 236.44 95.3242 236.44H96.2242C96.2242 235.15 96.2393 213.171 96.2242 211.909H95.3242Z" fill="#89A098"/>
</g>
<g filter="url(#filter6_iii)">
<path fill-rule="evenodd" clip-rule="evenodd" d="M415.116 281.414C415.986 281.414 416.691 283.713 416.691 286.549V349.633C416.691 352.468 415.986 354.767 415.116 354.767H414.216C414.216 350.909 414.201 285.186 414.216 281.414H415.116Z" fill="#89A098"/>
</g>
<g filter="url(#filter7_d)">
<path d="M170.293 760.328L189.918 723.635L50.0795 647.683L170.293 760.328Z" fill="url(#paint3_linear)"/>
<path d="M120.044 747.827L170.293 760.328L50.0793 647.683L120.044 747.827Z" fill="url(#paint4_linear)"/>
</g>
<g filter="url(#filter8_d)">
<path d="M239.867 163.833L311.438 125.483L222.534 120.689L239.867 163.833Z" fill="url(#paint5_linear)"/>
<path d="M311.438 125.483L311.417 50.5089L222.534 120.689L311.438 125.483Z" fill="url(#paint6_linear)"/>
</g>
<defs>
<filter id="filter0_i" x="95.4944" y="89.4006" width="318.811" height="644.67" filterUnits="userSpaceOnUse" color-interpolation-filters="sRGB">
<feFlood flood-opacity="0" result="BackgroundImageFix"/>
<feBlend mode="normal" in="SourceGraphic" in2="BackgroundImageFix" result="shape"/>
<feColorMatrix in="SourceAlpha" type="matrix" values="0 0 0 0 0 0 0 0 0 0 0 0 0 0 0 0 0 0 127 0" result="hardAlpha"/>
<feOffset/>
<feGaussianBlur stdDeviation="1.33333"/>
<feComposite in2="hardAlpha" operator="arithmetic" k2="-1" k3="1"/>
<feColorMatrix type="matrix" values="0 0 0 0 0 0 0 0 0 0 0 0 0 0 0 0 0 0 0.5 0"/>
<feBlend mode="normal" in2="shape" result="effect1_innerShadow"/>
</filter>
<filter id="filter1_dd" x="104.01" y="96.5866" width="302.273" height="629.304" filterUnits="userSpaceOnUse" color-interpolation-filters="sRGB">
<feFlood flood-opacity="0" result="BackgroundImageFix"/>
<feColorMatrix in="SourceAlpha" type="matrix" values="0 0 0 0 0 0 0 0 0 0 0 0 0 0 0 0 0 0 127 0"/>
<feOffset dy="1.33333"/>
<feColorMatrix type="matrix" values="0 0 0 0 0 0 0 0 0 0 0 0 0 0 0 0 0 0 0.5 0"/>
<feBlend mode="normal" in2="BackgroundImageFix" result="effect1_dropShadow"/>
<feColorMatrix in="SourceAlpha" type="matrix" values="0 0 0 0 0 0 0 0 0 0 0 0 0 0 0 0 0 0 127 0"/>
<feOffset dy="-1.33333"/>
<feColorMatrix type="matrix" values="0 0 0 0 0 0 0 0 0 0 0 0 0 0 0 0 0 0 0.5 0"/>
<feBlend mode="normal" in2="effect1_dropShadow" result="effect2_dropShadow"/>
<feBlend mode="normal" in="SourceGraphic" in2="effect2_dropShadow" result="shape"/>
</filter>
<pattern id="pattern0" patternContentUnits="objectBoundingBox" width="1" height="1">
<use xlink:href="#image0" transform="translate(-1.33896 -0.0248344) scale(0.00307833 0.00142195)"/>
</pattern>
<filter id="filter2_i" x="104.507" y="102.339" width="305.282" height="617.671" filterUnits="userSpaceOnUse" color-interpolation-filters="sRGB">
<feFlood flood-opacity="0" result="BackgroundImageFix"/>
<feBlend mode="normal" in="SourceGraphic" in2="BackgroundImageFix" result="shape"/>
<feColorMatrix in="SourceAlpha" type="matrix" values="0 0 0 0 0 0 0 0 0 0 0 0 0 0 0 0 0 0 127 0" result="hardAlpha"/>
<feOffset dx="4"/>
<feGaussianBlur stdDeviation="2.83333"/>
<feComposite in2="hardAlpha" operator="arithmetic" k2="-1" k3="1"/>
<feColorMatrix type="matrix" values="0 0 0 0 0 0 0 0 0 0 0 0 0 0 0 0 0 0 0.6 0"/>
<feBlend mode="normal" in2="shape" result="effect1_innerShadow"/>
</filter>
<filter id="filter3_iii" x="93.7492" y="255.79" width="2.48172" height="47.881" filterUnits="userSpaceOnUse" color-interpolation-filters="sRGB">
<feFlood flood-opacity="0" result="BackgroundImageFix"/>
<feBlend mode="normal" in="SourceGraphic" in2="BackgroundImageFix" result="shape"/>
<feColorMatrix in="SourceAlpha" type="matrix" values="0 0 0 0 0 0 0 0 0 0 0 0 0 0 0 0 0 0 127 0" result="hardAlpha"/>
<feOffset dx="1.33333"/>
<feComposite in2="hardAlpha" operator="arithmetic" k2="-1" k3="1"/>
<feColorMatrix type="matrix" values="0 0 0 0 1 0 0 0 0 1 0 0 0 0 1 0 0 0 0.644843 0"/>
<feBlend mode="normal" in2="shape" result="effect1_innerShadow"/>
<feColorMatrix in="SourceAlpha" type="matrix" values="0 0 0 0 0 0 0 0 0 0 0 0 0 0 0 0 0 0 127 0" result="hardAlpha"/>
<feOffset dy="2.66667"/>
<feGaussianBlur stdDeviation="0.666667"/>
<feComposite in2="hardAlpha" operator="arithmetic" k2="-1" k3="1"/>
<feColorMatrix type="matrix" values="0 0 0 0 0.384314 0 0 0 0 0.388235 0 0 0 0 0.388235 0 0 0 1 0"/>
<feBlend mode="normal" in2="effect1_innerShadow" result="effect2_innerShadow"/>
<feColorMatrix in="SourceAlpha" type="matrix" values="0 0 0 0 0 0 0 0 0 0 0 0 0 0 0 0 0 0 127 0" result="hardAlpha"/>
<feOffset dy="-2.66667"/>
<feGaussianBlur stdDeviation="0.666667"/>
<feComposite in2="hardAlpha" operator="arithmetic" k2="-1" k3="1"/>
<feColorMatrix type="matrix" values="0 0 0 0 0.384314 0 0 0 0 0.388235 0 0 0 0 0.388235 0 0 0 1 0"/>
<feBlend mode="normal" in2="effect2_innerShadow" result="effect3_innerShadow"/>
</filter>
<filter id="filter4_iii" x="93.7492" y="314.954" width="2.48172" height="47.881" filterUnits="userSpaceOnUse" color-interpolation-filters="sRGB">
<feFlood flood-opacity="0" result="BackgroundImageFix"/>
<feBlend mode="normal" in="SourceGraphic" in2="BackgroundImageFix" result="shape"/>
<feColorMatrix in="SourceAlpha" type="matrix" values="0 0 0 0 0 0 0 0 0 0 0 0 0 0 0 0 0 0 127 0" result="hardAlpha"/>
<feOffset dx="1.33333"/>
<feComposite in2="hardAlpha" operator="arithmetic" k2="-1" k3="1"/>
<feColorMatrix type="matrix" values="0 0 0 0 1 0 0 0 0 1 0 0 0 0 1 0 0 0 0.644843 0"/>
<feBlend mode="normal" in2="shape" result="effect1_innerShadow"/>
<feColorMatrix in="SourceAlpha" type="matrix" values="0 0 0 0 0 0 0 0 0 0 0 0 0 0 0 0 0 0 127 0" result="hardAlpha"/>
<feOffset dy="2.66667"/>
<feGaussianBlur stdDeviation="0.666667"/>
<feComposite in2="hardAlpha" operator="arithmetic" k2="-1" k3="1"/>
<feColorMatrix type="matrix" values="0 0 0 0 0.384314 0 0 0 0 0.388235 0 0 0 0 0.388235 0 0 0 1 0"/>
<feBlend mode="normal" in2="effect1_innerShadow" result="effect2_innerShadow"/>
<feColorMatrix in="SourceAlpha" type="matrix" values="0 0 0 0 0 0 0 0 0 0 0 0 0 0 0 0 0 0 127 0" result="hardAlpha"/>
<feOffset dy="-2.66667"/>
<feGaussianBlur stdDeviation="0.666667"/>
<feComposite in2="hardAlpha" operator="arithmetic" k2="-1" k3="1"/>
<feColorMatrix type="matrix" values="0 0 0 0 0.384314 0 0 0 0 0.388235 0 0 0 0 0.388235 0 0 0 1 0"/>
<feBlend mode="normal" in2="effect2_innerShadow" result="effect3_innerShadow"/>
</filter>
<filter id="filter5_iii" x="93.7492" y="210.576" width="2.48172" height="27.1978" filterUnits="userSpaceOnUse" color-interpolation-filters="sRGB">
<feFlood flood-opacity="0" result="BackgroundImageFix"/>
<feBlend mode="normal" in="SourceGraphic" in2="BackgroundImageFix" result="shape"/>
<feColorMatrix in="SourceAlpha" type="matrix" values="0 0 0 0 0 0 0 0 0 0 0 0 0 0 0 0 0 0 127 0" result="hardAlpha"/>
<feOffset dx="1.33333"/>
<feComposite in2="hardAlpha" operator="arithmetic" k2="-1" k3="1"/>
<feColorMatrix type="matrix" values="0 0 0 0 1 0 0 0 0 1 0 0 0 0 1 0 0 0 0.644843 0"/>
<feBlend mode="normal" in2="shape" result="effect1_innerShadow"/>
<feColorMatrix in="SourceAlpha" type="matrix" values="0 0 0 0 0 0 0 0 0 0 0 0 0 0 0 0 0 0 127 0" result="hardAlpha"/>
<feOffset dy="2.66667"/>
<feGaussianBlur stdDeviation="0.666667"/>
<feComposite in2="hardAlpha" operator="arithmetic" k2="-1" k3="1"/>
<feColorMatrix type="matrix" values="0 0 0 0 0.384314 0 0 0 0 0.388235 0 0 0 0 0.388235 0 0 0 1 0"/>
<feBlend mode="normal" in2="effect1_innerShadow" result="effect2_innerShadow"/>
<feColorMatrix in="SourceAlpha" type="matrix" values="0 0 0 0 0 0 0 0 0 0 0 0 0 0 0 0 0 0 127 0" result="hardAlpha"/>
<feOffset dy="-2.66667"/>
<feGaussianBlur stdDeviation="0.666667"/>
<feComposite in2="hardAlpha" operator="arithmetic" k2="-1" k3="1"/>
<feColorMatrix type="matrix" values="0 0 0 0 0.384314 0 0 0 0 0.388235 0 0 0 0 0.388235 0 0 0 1 0"/>
<feBlend mode="normal" in2="effect2_innerShadow" result="effect3_innerShadow"/>
</filter>
<filter id="filter6_iii" x="414.209" y="280.081" width="2.48172" height="76.0196" filterUnits="userSpaceOnUse" color-interpolation-filters="sRGB">
<feFlood flood-opacity="0" result="BackgroundImageFix"/>
<feBlend mode="normal" in="SourceGraphic" in2="BackgroundImageFix" result="shape"/>
<feColorMatrix in="SourceAlpha" type="matrix" values="0 0 0 0 0 0 0 0 0 0 0 0 0 0 0 0 0 0 127 0" result="hardAlpha"/>
<feOffset dx="1.33333"/>
<feComposite in2="hardAlpha" operator="arithmetic" k2="-1" k3="1"/>
<feColorMatrix type="matrix" values="0 0 0 0 1 0 0 0 0 1 0 0 0 0 1 0 0 0 0.644843 0"/>
<feBlend mode="normal" in2="shape" result="effect1_innerShadow"/>
<feColorMatrix in="SourceAlpha" type="matrix" values="0 0 0 0 0 0 0 0 0 0 0 0 0 0 0 0 0 0 127 0" result="hardAlpha"/>
<feOffset dy="2.66667"/>
<feGaussianBlur stdDeviation="0.666667"/>
<feComposite in2="hardAlpha" operator="arithmetic" k2="-1" k3="1"/>
<feColorMatrix type="matrix" values="0 0 0 0 0.384314 0 0 0 0 0.388235 0 0 0 0 0.388235 0 0 0 1 0"/>
<feBlend mode="normal" in2="effect1_innerShadow" result="effect2_innerShadow"/>
<feColorMatrix in="SourceAlpha" type="matrix" values="0 0 0 0 0 0 0 0 0 0 0 0 0 0 0 0 0 0 127 0" result="hardAlpha"/>
<feOffset dy="-2.66667"/>
<feGaussianBlur stdDeviation="0.666667"/>
<feComposite in2="hardAlpha" operator="arithmetic" k2="-1" k3="1"/>
<feColorMatrix type="matrix" values="0 0 0 0 0.384314 0 0 0 0 0.388235 0 0 0 0 0.388235 0 0 0 1 0"/>
<feBlend mode="normal" in2="effect2_innerShadow" result="effect3_innerShadow"/>
</filter>
<filter id="filter7_d" x="0.0792847" y="597.683" width="239.839" height="212.646" filterUnits="userSpaceOnUse" color-interpolation-filters="sRGB">
<feFlood flood-opacity="0" result="BackgroundImageFix"/>
<feColorMatrix in="SourceAlpha" type="matrix" values="0 0 0 0 0 0 0 0 0 0 0 0 0 0 0 0 0 0 127 0"/>
<feOffset/>
<feGaussianBlur stdDeviation="25"/>
<feColorMatrix type="matrix" values="0 0 0 0 0.988235 0 0 0 0 0.0705882 0 0 0 0 0.686275 0 0 0 1 0"/>
<feBlend mode="normal" in2="BackgroundImageFix" result="effect1_dropShadow"/>
<feBlend mode="normal" in="SourceGraphic" in2="effect1_dropShadow" result="shape"/>
</filter>
<filter id="filter8_d" x="172.534" y="0.508911" width="188.904" height="213.324" filterUnits="userSpaceOnUse" color-interpolation-filters="sRGB">
<feFlood flood-opacity="0" result="BackgroundImageFix"/>
<feColorMatrix in="SourceAlpha" type="matrix" values="0 0 0 0 0 0 0 0 0 0 0 0 0 0 0 0 0 0 127 0"/>
<feOffset/>
<feGaussianBlur stdDeviation="25"/>
<feColorMatrix type="matrix" values="0 0 0 0 0.988235 0 0 0 0 0.0705882 0 0 0 0 0.686275 0 0 0 1 0"/>
<feBlend mode="normal" in2="BackgroundImageFix" result="effect1_dropShadow"/>
<feBlend mode="normal" in="SourceGraphic" in2="effect1_dropShadow" result="shape"/>
</filter>
<linearGradient id="paint0_linear" x1="101.032" y1="94.9408" x2="101.032" y2="728.53" gradientUnits="userSpaceOnUse">
<stop stop-color="#5F5F5F"/>
<stop offset="0.0101238" stop-color="#222222"/>
<stop offset="1" stop-color="#252525"/>
</linearGradient>
<linearGradient id="paint1_linear" x1="104.01" y1="97.9199" x2="104.01" y2="724.557" gradientUnits="userSpaceOnUse">
<stop stop-color="#6D6D6D"/>
<stop offset="0.0161168"/>
<stop offset="0.984697"/>
<stop offset="1" stop-color="#5C5C5C"/>
</linearGradient>
<linearGradient id="paint2_linear" x1="253.997" y1="715" x2="153.173" y2="112.304" gradientUnits="userSpaceOnUse">
<stop stop-color="#FC12AF"/>
<stop offset="1" stop-color="#AC48BC"/>
</linearGradient>
<linearGradient id="paint3_linear" x1="119.471" y1="714.412" x2="148.698" y2="683.986" gradientUnits="userSpaceOnUse">
<stop stop-color="#FC12AF"/>
<stop offset="1" stop-color="#AC48BC"/>
</linearGradient>
<linearGradient id="paint4_linear" x1="103.051" y1="731.486" x2="120.945" y2="712.867" gradientUnits="userSpaceOnUse">
<stop stop-color="#FC12AF"/>
<stop offset="1" stop-color="#AC48BC"/>
</linearGradient>
<linearGradient id="paint5_linear" x1="246.061" y1="107.106" x2="270.422" y2="149.173" gradientUnits="userSpaceOnUse">
<stop stop-color="#FC12AF"/>
<stop offset="1" stop-color="#AC48BC"/>
</linearGradient>
<linearGradient id="paint6_linear" x1="254.699" y1="83.255" x2="287.246" y2="139.463" gradientUnits="userSpaceOnUse">
<stop stop-color="#FC12AF"/>
<stop offset="1" stop-color="#AC48BC"/>
</linearGradient>
</defs>
</svg>
