<svg width="448" height="894" viewBox="0 0 448 894" fill="none" xmlns="http://www.w3.org/2000/svg">
<g filter="url(#filter0_i)">
<path fill-rule="evenodd" clip-rule="evenodd" d="M81.4302 3.03265C29.2259 3.03265 5.28516 27.7934 5.28516 79.2072V815.446C5.28516 866.86 29.2259 891.621 81.4302 891.621H365.682C416.184 891.621 441.827 865.115 441.827 815.446V79.2072C441.827 27.7934 417.886 3.03265 365.682 3.03265H81.4302Z" fill="#879A94"/>
</g>
<path d="M81.4302 2.00035C55.1828 2.00035 35.8282 8.22427 23.048 21.1129C10.2695 33.9999 4.25285 53.3595 4.25285 79.2072V815.446C4.25285 841.294 10.2695 860.654 23.048 873.541C35.8282 886.429 55.1828 892.653 81.4302 892.653H365.682C391.105 892.653 410.446 885.98 423.426 872.886C436.404 859.794 442.859 840.448 442.859 815.446V79.2072C442.859 53.3595 436.842 33.9999 424.064 21.1129C411.284 8.22427 391.929 2.00035 365.682 2.00035H81.4302Z" stroke="#62726E" stroke-width="2.06462"/>
<path fill-rule="evenodd" clip-rule="evenodd" d="M81.7706 7.85413C32.3532 7.85413 10.1035 30.2749 10.1035 79.4923V815.161C10.1035 864.378 32.3532 886.799 81.7706 886.799H366.027C413.731 886.799 437.694 862.645 437.694 815.161V79.4923C437.694 30.2749 415.444 7.85413 366.027 7.85413H81.7706Z" fill="url(#paint0_linear)"/>
<g filter="url(#filter1_dd)">
<path fill-rule="evenodd" clip-rule="evenodd" d="M81.5339 11.987H366.263C413.214 11.987 433.562 32.3165 433.562 79.0946V814.181C433.562 859.234 411.491 881.288 366.263 881.288H81.5339C34.5829 881.288 14.2344 860.959 14.2344 814.181V79.0946C14.2344 32.3165 34.5829 11.987 81.5339 11.987Z" fill="url(#paint1_linear)"/>
</g>
<path d="M81.5222 18.1866C38.3954 18.1866 21.1201 35.4325 21.1201 78.4591V814.128C21.1201 857.154 38.3954 874.4 81.5222 874.4H366.275C407.676 874.4 426.677 855.43 426.677 814.128V78.4591C426.677 35.4325 409.402 18.1866 366.275 18.1866H81.5222Z" fill="black"/>
<rect opacity="0.45" x="3.21729" y="801.386" width="6.88551" height="6.20183" fill="black"/>
<rect opacity="0.45" x="3.21729" y="86.382" width="6.88551" height="6.20183" fill="black"/>
<rect opacity="0.45" x="437.004" y="801.386" width="6.88551" height="6.20183" fill="black"/>
<rect opacity="0.45" x="437.004" y="86.382" width="6.88551" height="6.20183" fill="black"/>
<path opacity="0.447803" fill-rule="evenodd" clip-rule="evenodd" d="M89.9751 886.112H96.1721V893H89.9751V886.112Z" fill="black"/>
<path opacity="0.447803" fill-rule="evenodd" clip-rule="evenodd" d="M350.925 1H357.122V7.88828H350.925V1Z" fill="black"/>
<g filter="url(#filter2_iii)">
<path fill-rule="evenodd" clip-rule="evenodd" d="M2.1849 232.842C1.47451 233.026 0.622656 233.499 0.167797 234.17C0.0741076 234.308 0 234.745 0 234.872C0 241.217 0 260.542 0 292.849C0 292.984 0.104309 293.666 0.168177 293.831C0.536261 294.784 1.17581 295.014 2.1849 295.565H3.43341C3.43341 293.829 3.45444 234.539 3.43341 232.842H2.1849Z" fill="#89A098"/>
</g>
<g filter="url(#filter3_iii)">
<path fill-rule="evenodd" clip-rule="evenodd" d="M2.1849 314.916C1.47451 315.101 0.622656 315.573 0.167797 316.244C0.0741076 316.382 0 316.82 0 316.946C0 323.291 0 342.617 0 374.923C0 375.058 0.104309 375.74 0.168177 375.905C0.536261 376.858 1.17581 377.089 2.1849 377.639H3.43341C3.43341 375.903 3.45444 316.613 3.43341 314.916H2.1849Z" fill="#89A098"/>
</g>
<g filter="url(#filter4_iii)">
<path fill-rule="evenodd" clip-rule="evenodd" d="M2.1849 170.118C0.978212 170.118 0 171.185 0 172.501V201.767C0 203.083 0.978212 204.149 2.1849 204.149H3.43341C3.43341 202.359 3.45444 171.868 3.43341 170.118H2.1849Z" fill="#89A098"/>
</g>
<g filter="url(#filter5_iii)">
<path fill-rule="evenodd" clip-rule="evenodd" d="M445.815 266.539C447.022 266.539 448 269.728 448 273.662V361.175C448 365.109 447.022 368.298 445.815 368.298H444.567C444.567 362.945 444.546 271.771 444.567 266.539H445.815Z" fill="#89A098"/>
</g>
<path fill-rule="evenodd" clip-rule="evenodd" d="M270.222 42.9737C273.645 42.9737 276.419 40.1981 276.419 36.7743C276.419 33.3504 273.645 30.5748 270.222 30.5748C266.8 30.5748 264.025 33.3504 264.025 36.7743C264.025 40.1981 266.8 42.9737 270.222 42.9737Z" fill="url(#paint2_linear)"/>
<g filter="url(#filter6_i)">
<path fill-rule="evenodd" clip-rule="evenodd" d="M270.174 39.3372C271.936 39.3372 273.364 37.9734 273.364 36.291C273.364 34.6086 271.936 33.2448 270.174 33.2448C268.413 33.2448 266.984 34.6086 266.984 36.291C266.984 37.9734 268.413 39.3372 270.174 39.3372Z" fill="url(#paint3_radial)"/>
</g>
<path d="M273.038 36.291C273.038 37.7788 271.77 39.0104 270.174 39.0104C268.579 39.0104 267.311 37.7788 267.311 36.291C267.311 34.8031 268.579 33.5716 270.174 33.5716C271.77 33.5716 273.038 34.8031 273.038 36.291Z" stroke="black" stroke-width="0.653671"/>
<g filter="url(#filter7_diiii)">
<path fill-rule="evenodd" clip-rule="evenodd" d="M270.173 39.0469C271.615 39.0469 272.783 37.9429 272.783 36.5809C272.783 35.219 271.615 34.1149 270.173 34.1149C268.732 34.1149 267.563 35.219 267.563 36.5809C267.563 37.9429 268.732 39.0469 270.173 39.0469Z" fill="url(#paint4_radial)"/>
</g>
<path opacity="0.772913" fill-rule="evenodd" clip-rule="evenodd" d="M270.174 37.016C270.814 37.016 271.334 36.4962 271.334 35.8551C271.334 35.2139 270.814 34.6942 270.174 34.6942C269.533 34.6942 269.014 35.2139 269.014 35.8551C269.014 36.4962 269.533 37.016 270.174 37.016Z" fill="url(#paint5_radial)"/>
<path opacity="0.283465" fill-rule="evenodd" clip-rule="evenodd" d="M271.622 39.6272C272.263 39.6272 272.782 39.1074 272.782 38.4663C272.782 37.8251 272.263 37.3054 271.622 37.3054C270.981 37.3054 270.462 37.8251 270.462 38.4663C270.462 39.1074 270.981 39.6272 271.622 39.6272Z" fill="url(#paint6_radial)"/>
<g filter="url(#filter8_di)">
<path fill-rule="evenodd" clip-rule="evenodd" d="M270.175 34.5418C270.81 34.5418 271.412 34.8258 271.325 34.618C271.239 34.4101 270.81 34.1139 270.175 34.1139C269.54 34.1139 269.127 34.4101 269.025 34.618C268.923 34.8258 269.54 34.5418 270.175 34.5418Z" fill="#68B9A3" fill-opacity="0.16999"/>
</g>
<g opacity="0.755422" filter="url(#filter9_di)">
<path fill-rule="evenodd" clip-rule="evenodd" d="M270.173 37.9081C270.653 37.9081 271.043 37.8056 271.043 38.0405C271.043 38.2755 270.653 38.4659 270.173 38.4659C269.692 38.4659 269.303 38.2755 269.303 38.0405C269.303 37.8056 269.692 37.9081 270.173 37.9081Z" fill="#52735A" fill-opacity="0.20419"/>
</g>
<g filter="url(#filter10_d)">
<path fill-rule="evenodd" clip-rule="evenodd" d="M270.174 37.3055C270.814 37.3055 271.334 36.8508 271.334 36.2899C271.334 35.7289 270.814 35.2742 270.174 35.2742C269.533 35.2742 269.014 35.7289 269.014 36.2899C269.014 36.8508 269.533 37.3055 270.174 37.3055Z" fill="white" fill-opacity="0.570171" style="mix-blend-mode:overlay"/>
</g>
<g filter="url(#filter11_d)">
<path fill-rule="evenodd" clip-rule="evenodd" d="M270.318 37.3055C270.878 37.3055 271.333 36.8508 271.333 36.2899C271.333 35.7289 270.878 35.2742 270.318 35.2742C269.757 35.2742 269.303 35.7289 269.303 36.2899C269.303 36.8508 269.757 37.3055 270.318 37.3055Z" fill="black" fill-opacity="0.570171" style="mix-blend-mode:overlay"/>
</g>
<g filter="url(#filter12_ii)">
<path fill-rule="evenodd" clip-rule="evenodd" d="M270.173 37.3059C270.653 37.3059 271.043 36.9161 271.043 36.4354C271.043 35.9546 270.653 35.5648 270.173 35.5648C269.692 35.5648 269.303 35.9546 269.303 36.4354C269.303 36.9161 269.692 37.3059 270.173 37.3059Z" fill="url(#paint7_radial)"/>
</g>
<g opacity="0.391966" filter="url(#filter13_f)">
<path fill-rule="evenodd" clip-rule="evenodd" d="M270.172 36.8399C270.493 36.8399 270.752 36.5828 270.752 36.8399C270.752 37.097 270.493 37.3054 270.172 37.3054C269.852 37.3054 269.593 37.097 269.593 36.8399C269.593 36.5828 269.852 36.8399 270.172 36.8399Z" fill="#A2B9A7"/>
</g>
<g opacity="0.755422" filter="url(#filter14_di)">
<path fill-rule="evenodd" clip-rule="evenodd" d="M270.173 36.7362C270.333 36.7362 270.463 36.6849 270.463 36.8024C270.463 36.92 270.333 37.0153 270.173 37.0153C270.013 37.0153 269.883 36.92 269.883 36.8024C269.883 36.6849 270.013 36.7362 270.173 36.7362Z" fill="#527073"/>
</g>
<g opacity="0.980352" filter="url(#filter15_di)">
<path fill-rule="evenodd" clip-rule="evenodd" d="M270.028 36.0834C270.266 36.0834 270.492 36.2435 270.459 36.0454C270.427 35.8472 270.266 35.5648 270.028 35.5648C269.79 35.5648 269.635 35.8472 269.597 36.0454C269.559 36.2435 269.79 36.0834 270.028 36.0834Z" fill="#E4D3F2" fill-opacity="0.526183"/>
</g>
<g opacity="0.657241" filter="url(#filter16_f)">
<path fill-rule="evenodd" clip-rule="evenodd" d="M270.028 38.1755C270.428 38.1755 270.753 37.9158 270.753 37.5954C270.753 37.275 270.428 37.0153 270.028 37.0153C269.627 37.0153 269.303 37.275 269.303 37.5954C269.303 37.9158 269.627 38.1755 270.028 38.1755Z" fill="#76DB82"/>
</g>
<path opacity="0.170243" fill-rule="evenodd" clip-rule="evenodd" d="M268.579 37.3077C269.62 37.3077 270.464 36.4634 270.464 35.4219C270.464 34.3804 269.62 33.5361 268.579 33.5361C267.538 33.5361 266.694 34.3804 266.694 35.4219C266.694 36.4634 267.538 37.3077 268.579 37.3077Z" fill="url(#paint8_radial)"/>
<g opacity="0.801364">
<g filter="url(#filter17_d)">
<rect x="196.013" y="33.3408" width="54.4288" height="7.08023" rx="3.54012" fill="#151414"/>
</g>
<mask id="mask0" mask-type="alpha" maskUnits="userSpaceOnUse" x="196" y="33" width="55" height="8">
<rect x="196.013" y="33.3408" width="54.4288" height="7.08023" rx="3.54012" fill="white"/>
</mask>
<g mask="url(#mask0)">
<path opacity="0.05" d="M163.114 27.9151L182.593 47.4026M166.721 27.9151L186.201 47.4026M170.329 27.9151L189.808 47.4026M173.936 27.9151L193.415 47.4026M177.543 27.9151L197.023 47.4026M200.63 47.4026L181.151 27.9151L161.671 47.4026M204.237 47.4026L184.758 27.9151L165.278 47.4026M207.845 47.4026L188.365 27.9151L168.886 47.4026M211.452 47.4026L191.973 27.9151L172.493 47.4026M215.059 47.4026L195.58 27.9151L176.1 47.4026M218.667 47.4026L199.187 27.9151L179.708 47.4026M222.274 47.4026L202.795 27.9151L183.315 47.4026M225.881 47.4026L206.402 27.9151L186.922 47.4026M229.489 47.4026L210.009 27.9151L190.53 47.4026M233.096 47.4026L213.617 27.9151L194.137 47.4026M236.704 47.4026L217.224 27.9151L197.744 47.4026M240.311 47.4026L220.831 27.9151L201.352 47.4026M243.918 47.4026L224.439 27.9151L204.959 47.4026M247.526 47.4026L228.046 27.9151L208.566 47.4026M251.133 47.4026L231.653 27.9151L212.174 47.4026M254.74 47.4026L235.261 27.9151L215.781 47.4026M258.348 47.4026L238.868 27.9151L219.388 47.4026M261.955 47.4026L242.475 27.9151L222.996 47.4026M260.512 27.9151L241.032 47.4026M256.905 27.9151L237.425 47.4026M253.297 27.9151L233.818 47.4026M249.69 27.9151L230.21 47.4026M246.083 27.9151L226.603 47.4026" stroke="white" stroke-width="0.688205"/>
</g>
</g>
<defs>
<filter id="filter0_i" x="3.2207" y="0.968018" width="440.671" height="892.718" filterUnits="userSpaceOnUse" color-interpolation-filters="sRGB">
<feFlood flood-opacity="0" result="BackgroundImageFix"/>
<feBlend mode="normal" in="SourceGraphic" in2="BackgroundImageFix" result="shape"/>
<feColorMatrix in="SourceAlpha" type="matrix" values="0 0 0 0 0 0 0 0 0 0 0 0 0 0 0 0 0 0 127 0" result="hardAlpha"/>
<feOffset/>
<feGaussianBlur stdDeviation="1.33333"/>
<feComposite in2="hardAlpha" operator="arithmetic" k2="-1" k3="1"/>
<feColorMatrix type="matrix" values="0 0 0 0 0 0 0 0 0 0 0 0 0 0 0 0 0 0 0.5 0"/>
<feBlend mode="normal" in2="shape" result="effect1_innerShadow"/>
</filter>
<filter id="filter1_dd" x="14.2344" y="10.6537" width="419.328" height="871.968" filterUnits="userSpaceOnUse" color-interpolation-filters="sRGB">
<feFlood flood-opacity="0" result="BackgroundImageFix"/>
<feColorMatrix in="SourceAlpha" type="matrix" values="0 0 0 0 0 0 0 0 0 0 0 0 0 0 0 0 0 0 127 0"/>
<feOffset dy="1.33333"/>
<feColorMatrix type="matrix" values="0 0 0 0 0 0 0 0 0 0 0 0 0 0 0 0 0 0 0.5 0"/>
<feBlend mode="normal" in2="BackgroundImageFix" result="effect1_dropShadow"/>
<feColorMatrix in="SourceAlpha" type="matrix" values="0 0 0 0 0 0 0 0 0 0 0 0 0 0 0 0 0 0 127 0"/>
<feOffset dy="-1.33333"/>
<feColorMatrix type="matrix" values="0 0 0 0 0 0 0 0 0 0 0 0 0 0 0 0 0 0 0.5 0"/>
<feBlend mode="normal" in2="effect1_dropShadow" result="effect2_dropShadow"/>
<feBlend mode="normal" in="SourceGraphic" in2="effect2_dropShadow" result="shape"/>
</filter>
<filter id="filter2_iii" x="0" y="231.508" width="3.44276" height="65.3901" filterUnits="userSpaceOnUse" color-interpolation-filters="sRGB">
<feFlood flood-opacity="0" result="BackgroundImageFix"/>
<feBlend mode="normal" in="SourceGraphic" in2="BackgroundImageFix" result="shape"/>
<feColorMatrix in="SourceAlpha" type="matrix" values="0 0 0 0 0 0 0 0 0 0 0 0 0 0 0 0 0 0 127 0" result="hardAlpha"/>
<feOffset dx="1.33333"/>
<feComposite in2="hardAlpha" operator="arithmetic" k2="-1" k3="1"/>
<feColorMatrix type="matrix" values="0 0 0 0 1 0 0 0 0 1 0 0 0 0 1 0 0 0 0.644843 0"/>
<feBlend mode="normal" in2="shape" result="effect1_innerShadow"/>
<feColorMatrix in="SourceAlpha" type="matrix" values="0 0 0 0 0 0 0 0 0 0 0 0 0 0 0 0 0 0 127 0" result="hardAlpha"/>
<feOffset dy="2.66667"/>
<feGaussianBlur stdDeviation="0.666667"/>
<feComposite in2="hardAlpha" operator="arithmetic" k2="-1" k3="1"/>
<feColorMatrix type="matrix" values="0 0 0 0 0.384314 0 0 0 0 0.388235 0 0 0 0 0.388235 0 0 0 1 0"/>
<feBlend mode="normal" in2="effect1_innerShadow" result="effect2_innerShadow"/>
<feColorMatrix in="SourceAlpha" type="matrix" values="0 0 0 0 0 0 0 0 0 0 0 0 0 0 0 0 0 0 127 0" result="hardAlpha"/>
<feOffset dy="-2.66667"/>
<feGaussianBlur stdDeviation="0.666667"/>
<feComposite in2="hardAlpha" operator="arithmetic" k2="-1" k3="1"/>
<feColorMatrix type="matrix" values="0 0 0 0 0.384314 0 0 0 0 0.388235 0 0 0 0 0.388235 0 0 0 1 0"/>
<feBlend mode="normal" in2="effect2_innerShadow" result="effect3_innerShadow"/>
</filter>
<filter id="filter3_iii" x="0" y="313.583" width="3.44276" height="65.3901" filterUnits="userSpaceOnUse" color-interpolation-filters="sRGB">
<feFlood flood-opacity="0" result="BackgroundImageFix"/>
<feBlend mode="normal" in="SourceGraphic" in2="BackgroundImageFix" result="shape"/>
<feColorMatrix in="SourceAlpha" type="matrix" values="0 0 0 0 0 0 0 0 0 0 0 0 0 0 0 0 0 0 127 0" result="hardAlpha"/>
<feOffset dx="1.33333"/>
<feComposite in2="hardAlpha" operator="arithmetic" k2="-1" k3="1"/>
<feColorMatrix type="matrix" values="0 0 0 0 1 0 0 0 0 1 0 0 0 0 1 0 0 0 0.644843 0"/>
<feBlend mode="normal" in2="shape" result="effect1_innerShadow"/>
<feColorMatrix in="SourceAlpha" type="matrix" values="0 0 0 0 0 0 0 0 0 0 0 0 0 0 0 0 0 0 127 0" result="hardAlpha"/>
<feOffset dy="2.66667"/>
<feGaussianBlur stdDeviation="0.666667"/>
<feComposite in2="hardAlpha" operator="arithmetic" k2="-1" k3="1"/>
<feColorMatrix type="matrix" values="0 0 0 0 0.384314 0 0 0 0 0.388235 0 0 0 0 0.388235 0 0 0 1 0"/>
<feBlend mode="normal" in2="effect1_innerShadow" result="effect2_innerShadow"/>
<feColorMatrix in="SourceAlpha" type="matrix" values="0 0 0 0 0 0 0 0 0 0 0 0 0 0 0 0 0 0 127 0" result="hardAlpha"/>
<feOffset dy="-2.66667"/>
<feGaussianBlur stdDeviation="0.666667"/>
<feComposite in2="hardAlpha" operator="arithmetic" k2="-1" k3="1"/>
<feColorMatrix type="matrix" values="0 0 0 0 0.384314 0 0 0 0 0.388235 0 0 0 0 0.388235 0 0 0 1 0"/>
<feBlend mode="normal" in2="effect2_innerShadow" result="effect3_innerShadow"/>
</filter>
<filter id="filter4_iii" x="0" y="168.785" width="3.44276" height="36.6975" filterUnits="userSpaceOnUse" color-interpolation-filters="sRGB">
<feFlood flood-opacity="0" result="BackgroundImageFix"/>
<feBlend mode="normal" in="SourceGraphic" in2="BackgroundImageFix" result="shape"/>
<feColorMatrix in="SourceAlpha" type="matrix" values="0 0 0 0 0 0 0 0 0 0 0 0 0 0 0 0 0 0 127 0" result="hardAlpha"/>
<feOffset dx="1.33333"/>
<feComposite in2="hardAlpha" operator="arithmetic" k2="-1" k3="1"/>
<feColorMatrix type="matrix" values="0 0 0 0 1 0 0 0 0 1 0 0 0 0 1 0 0 0 0.644843 0"/>
<feBlend mode="normal" in2="shape" result="effect1_innerShadow"/>
<feColorMatrix in="SourceAlpha" type="matrix" values="0 0 0 0 0 0 0 0 0 0 0 0 0 0 0 0 0 0 127 0" result="hardAlpha"/>
<feOffset dy="2.66667"/>
<feGaussianBlur stdDeviation="0.666667"/>
<feComposite in2="hardAlpha" operator="arithmetic" k2="-1" k3="1"/>
<feColorMatrix type="matrix" values="0 0 0 0 0.384314 0 0 0 0 0.388235 0 0 0 0 0.388235 0 0 0 1 0"/>
<feBlend mode="normal" in2="effect1_innerShadow" result="effect2_innerShadow"/>
<feColorMatrix in="SourceAlpha" type="matrix" values="0 0 0 0 0 0 0 0 0 0 0 0 0 0 0 0 0 0 127 0" result="hardAlpha"/>
<feOffset dy="-2.66667"/>
<feGaussianBlur stdDeviation="0.666667"/>
<feComposite in2="hardAlpha" operator="arithmetic" k2="-1" k3="1"/>
<feColorMatrix type="matrix" values="0 0 0 0 0.384314 0 0 0 0 0.388235 0 0 0 0 0.388235 0 0 0 1 0"/>
<feBlend mode="normal" in2="effect2_innerShadow" result="effect3_innerShadow"/>
</filter>
<filter id="filter5_iii" x="444.558" y="265.206" width="3.44276" height="104.425" filterUnits="userSpaceOnUse" color-interpolation-filters="sRGB">
<feFlood flood-opacity="0" result="BackgroundImageFix"/>
<feBlend mode="normal" in="SourceGraphic" in2="BackgroundImageFix" result="shape"/>
<feColorMatrix in="SourceAlpha" type="matrix" values="0 0 0 0 0 0 0 0 0 0 0 0 0 0 0 0 0 0 127 0" result="hardAlpha"/>
<feOffset dx="1.33333"/>
<feComposite in2="hardAlpha" operator="arithmetic" k2="-1" k3="1"/>
<feColorMatrix type="matrix" values="0 0 0 0 1 0 0 0 0 1 0 0 0 0 1 0 0 0 0.644843 0"/>
<feBlend mode="normal" in2="shape" result="effect1_innerShadow"/>
<feColorMatrix in="SourceAlpha" type="matrix" values="0 0 0 0 0 0 0 0 0 0 0 0 0 0 0 0 0 0 127 0" result="hardAlpha"/>
<feOffset dy="2.66667"/>
<feGaussianBlur stdDeviation="0.666667"/>
<feComposite in2="hardAlpha" operator="arithmetic" k2="-1" k3="1"/>
<feColorMatrix type="matrix" values="0 0 0 0 0.384314 0 0 0 0 0.388235 0 0 0 0 0.388235 0 0 0 1 0"/>
<feBlend mode="normal" in2="effect1_innerShadow" result="effect2_innerShadow"/>
<feColorMatrix in="SourceAlpha" type="matrix" values="0 0 0 0 0 0 0 0 0 0 0 0 0 0 0 0 0 0 127 0" result="hardAlpha"/>
<feOffset dy="-2.66667"/>
<feGaussianBlur stdDeviation="0.666667"/>
<feComposite in2="hardAlpha" operator="arithmetic" k2="-1" k3="1"/>
<feColorMatrix type="matrix" values="0 0 0 0 0.384314 0 0 0 0 0.388235 0 0 0 0 0.388235 0 0 0 1 0"/>
<feBlend mode="normal" in2="effect2_innerShadow" result="effect3_innerShadow"/>
</filter>
<filter id="filter6_i" x="266.984" y="33.2448" width="6.38002" height="8.09247" filterUnits="userSpaceOnUse" color-interpolation-filters="sRGB">
<feFlood flood-opacity="0" result="BackgroundImageFix"/>
<feBlend mode="normal" in="SourceGraphic" in2="BackgroundImageFix" result="shape"/>
<feColorMatrix in="SourceAlpha" type="matrix" values="0 0 0 0 0 0 0 0 0 0 0 0 0 0 0 0 0 0 127 0" result="hardAlpha"/>
<feOffset dy="2.33333"/>
<feGaussianBlur stdDeviation="1"/>
<feComposite in2="hardAlpha" operator="arithmetic" k2="-1" k3="1"/>
<feColorMatrix type="matrix" values="0 0 0 0 0 0 0 0 0 0 0 0 0 0 0 0 0 0 0.792969 0"/>
<feBlend mode="normal" in2="shape" result="effect1_innerShadow"/>
</filter>
<filter id="filter7_diiii" x="264.897" y="32.7816" width="10.5533" height="10.2653" filterUnits="userSpaceOnUse" color-interpolation-filters="sRGB">
<feFlood flood-opacity="0" result="BackgroundImageFix"/>
<feColorMatrix in="SourceAlpha" type="matrix" values="0 0 0 0 0 0 0 0 0 0 0 0 0 0 0 0 0 0 127 0"/>
<feOffset dy="1.33333"/>
<feGaussianBlur stdDeviation="1.33333"/>
<feColorMatrix type="matrix" values="0 0 0 0 0 0 0 0 0 0 0 0 0 0 0 0 0 0 0.558707 0"/>
<feBlend mode="normal" in2="BackgroundImageFix" result="effect1_dropShadow"/>
<feBlend mode="normal" in="SourceGraphic" in2="effect1_dropShadow" result="shape"/>
<feColorMatrix in="SourceAlpha" type="matrix" values="0 0 0 0 0 0 0 0 0 0 0 0 0 0 0 0 0 0 127 0" result="hardAlpha"/>
<feOffset dy="2"/>
<feGaussianBlur stdDeviation="2.33333"/>
<feComposite in2="hardAlpha" operator="arithmetic" k2="-1" k3="1"/>
<feColorMatrix type="matrix" values="0 0 0 0 0 0 0 0 0 0 0 0 0 0 0 0 0 0 0.5 0"/>
<feBlend mode="normal" in2="shape" result="effect2_innerShadow"/>
<feColorMatrix in="SourceAlpha" type="matrix" values="0 0 0 0 0 0 0 0 0 0 0 0 0 0 0 0 0 0 127 0" result="hardAlpha"/>
<feOffset/>
<feGaussianBlur stdDeviation="1"/>
<feComposite in2="hardAlpha" operator="arithmetic" k2="-1" k3="1"/>
<feColorMatrix type="matrix" values="0 0 0 0 0.159339 0 0 0 0 0.154934 0 0 0 0 0.535213 0 0 0 0.68266 0"/>
<feBlend mode="normal" in2="effect2_innerShadow" result="effect3_innerShadow"/>
<feColorMatrix in="SourceAlpha" type="matrix" values="0 0 0 0 0 0 0 0 0 0 0 0 0 0 0 0 0 0 127 0" result="hardAlpha"/>
<feOffset dy="-0.666667"/>
<feGaussianBlur stdDeviation="0.666667"/>
<feComposite in2="hardAlpha" operator="arithmetic" k2="-1" k3="1"/>
<feColorMatrix type="matrix" values="0 0 0 0 1 0 0 0 0 1 0 0 0 0 1 0 0 0 0.28275 0"/>
<feBlend mode="normal" in2="effect3_innerShadow" result="effect4_innerShadow"/>
<feColorMatrix in="SourceAlpha" type="matrix" values="0 0 0 0 0 0 0 0 0 0 0 0 0 0 0 0 0 0 127 0" result="hardAlpha"/>
<feOffset dy="1.33333"/>
<feGaussianBlur stdDeviation="0.666667"/>
<feComposite in2="hardAlpha" operator="arithmetic" k2="-1" k3="1"/>
<feColorMatrix type="matrix" values="0 0 0 0 0.013651 0 0 0 0 0.102693 0 0 0 0 0.720731 0 0 0 0.609621 0"/>
<feBlend mode="normal" in2="effect4_innerShadow" result="effect5_innerShadow"/>
</filter>
<filter id="filter8_di" x="266.347" y="32.7806" width="7.65334" height="5.91347" filterUnits="userSpaceOnUse" color-interpolation-filters="sRGB">
<feFlood flood-opacity="0" result="BackgroundImageFix"/>
<feColorMatrix in="SourceAlpha" type="matrix" values="0 0 0 0 0 0 0 0 0 0 0 0 0 0 0 0 0 0 127 0"/>
<feOffset dy="1.33333"/>
<feGaussianBlur stdDeviation="1.33333"/>
<feColorMatrix type="matrix" values="0 0 0 0 0 0 0 0 0 0 0 0 0 0 0 0 0 0 0.311736 0"/>
<feBlend mode="normal" in2="BackgroundImageFix" result="effect1_dropShadow"/>
<feBlend mode="normal" in="SourceGraphic" in2="effect1_dropShadow" result="shape"/>
<feColorMatrix in="SourceAlpha" type="matrix" values="0 0 0 0 0 0 0 0 0 0 0 0 0 0 0 0 0 0 127 0" result="hardAlpha"/>
<feOffset dy="0.666667"/>
<feGaussianBlur stdDeviation="0.666667"/>
<feComposite in2="hardAlpha" operator="arithmetic" k2="-1" k3="1"/>
<feColorMatrix type="matrix" values="0 0 0 0 1 0 0 0 0 1 0 0 0 0 1 0 0 0 0.5 0"/>
<feBlend mode="normal" in2="shape" result="effect2_innerShadow"/>
</filter>
<filter id="filter9_di" x="266.636" y="36.5525" width="7.07334" height="5.91347" filterUnits="userSpaceOnUse" color-interpolation-filters="sRGB">
<feFlood flood-opacity="0" result="BackgroundImageFix"/>
<feColorMatrix in="SourceAlpha" type="matrix" values="0 0 0 0 0 0 0 0 0 0 0 0 0 0 0 0 0 0 127 0"/>
<feOffset dy="1.33333"/>
<feGaussianBlur stdDeviation="1.33333"/>
<feColorMatrix type="matrix" values="0 0 0 0 0 0 0 0 0 0 0 0 0 0 0 0 0 0 0.311736 0"/>
<feBlend mode="normal" in2="BackgroundImageFix" result="effect1_dropShadow"/>
<feBlend mode="normal" in="SourceGraphic" in2="effect1_dropShadow" result="shape"/>
<feColorMatrix in="SourceAlpha" type="matrix" values="0 0 0 0 0 0 0 0 0 0 0 0 0 0 0 0 0 0 127 0" result="hardAlpha"/>
<feOffset/>
<feGaussianBlur stdDeviation="0.666667"/>
<feComposite in2="hardAlpha" operator="arithmetic" k2="-1" k3="1"/>
<feColorMatrix type="matrix" values="0 0 0 0 1 0 0 0 0 1 0 0 0 0 1 0 0 0 0.5 0"/>
<feBlend mode="normal" in2="shape" result="effect2_innerShadow"/>
</filter>
<filter id="filter10_d" x="265.014" y="31.2742" width="10.32" height="10.0313" filterUnits="userSpaceOnUse" color-interpolation-filters="sRGB">
<feFlood flood-opacity="0" result="BackgroundImageFix"/>
<feColorMatrix in="SourceAlpha" type="matrix" values="0 0 0 0 0 0 0 0 0 0 0 0 0 0 0 0 0 0 127 0"/>
<feOffset/>
<feGaussianBlur stdDeviation="2"/>
<feColorMatrix type="matrix" values="0 0 0 0 0 0 0 0 0 0 0 0 0 0 0 0 0 0 0.5 0"/>
<feBlend mode="normal" in2="BackgroundImageFix" result="effect1_dropShadow"/>
<feBlend mode="normal" in="SourceGraphic" in2="effect1_dropShadow" result="shape"/>
</filter>
<filter id="filter11_d" x="265.303" y="31.2742" width="10.03" height="10.0313" filterUnits="userSpaceOnUse" color-interpolation-filters="sRGB">
<feFlood flood-opacity="0" result="BackgroundImageFix"/>
<feColorMatrix in="SourceAlpha" type="matrix" values="0 0 0 0 0 0 0 0 0 0 0 0 0 0 0 0 0 0 127 0"/>
<feOffset/>
<feGaussianBlur stdDeviation="2"/>
<feColorMatrix type="matrix" values="0 0 0 0 0 0 0 0 0 0 0 0 0 0 0 0 0 0 0.5 0"/>
<feBlend mode="normal" in2="BackgroundImageFix" result="effect1_dropShadow"/>
<feBlend mode="normal" in="SourceGraphic" in2="effect1_dropShadow" result="shape"/>
</filter>
<filter id="filter12_ii" x="269.303" y="35.5648" width="1.74001" height="3.74108" filterUnits="userSpaceOnUse" color-interpolation-filters="sRGB">
<feFlood flood-opacity="0" result="BackgroundImageFix"/>
<feBlend mode="normal" in="SourceGraphic" in2="BackgroundImageFix" result="shape"/>
<feColorMatrix in="SourceAlpha" type="matrix" values="0 0 0 0 0 0 0 0 0 0 0 0 0 0 0 0 0 0 127 0" result="hardAlpha"/>
<feOffset dy="2"/>
<feGaussianBlur stdDeviation="2.33333"/>
<feComposite in2="hardAlpha" operator="arithmetic" k2="-1" k3="1"/>
<feColorMatrix type="matrix" values="0 0 0 0 0 0 0 0 0 0 0 0 0 0 0 0 0 0 0.5 0"/>
<feBlend mode="normal" in2="shape" result="effect1_innerShadow"/>
<feColorMatrix in="SourceAlpha" type="matrix" values="0 0 0 0 0 0 0 0 0 0 0 0 0 0 0 0 0 0 127 0" result="hardAlpha"/>
<feOffset dy="1.33333"/>
<feGaussianBlur stdDeviation="0.666667"/>
<feComposite in2="hardAlpha" operator="arithmetic" k2="-1" k3="1"/>
<feColorMatrix type="matrix" values="0 0 0 0 0.176471 0 0 0 0 0.329412 0 0 0 0 0.317647 0 0 0 0.254642 0"/>
<feBlend mode="normal" in2="effect1_innerShadow" result="effect2_innerShadow"/>
</filter>
<filter id="filter13_f" x="266.039" y="33.1719" width="8.26687" height="7.68716" filterUnits="userSpaceOnUse" color-interpolation-filters="sRGB">
<feFlood flood-opacity="0" result="BackgroundImageFix"/>
<feBlend mode="normal" in="SourceGraphic" in2="BackgroundImageFix" result="shape"/>
<feGaussianBlur stdDeviation="1.77686" result="effect1_foregroundBlur"/>
</filter>
<filter id="filter14_di" x="267.883" y="36.0584" width="4.58043" height="4.29022" filterUnits="userSpaceOnUse" color-interpolation-filters="sRGB">
<feFlood flood-opacity="0" result="BackgroundImageFix"/>
<feColorMatrix in="SourceAlpha" type="matrix" values="0 0 0 0 0 0 0 0 0 0 0 0 0 0 0 0 0 0 127 0"/>
<feOffset dy="1.33333"/>
<feGaussianBlur stdDeviation="1"/>
<feColorMatrix type="matrix" values="0 0 0 0 0 0 0 0 0 0 0 0 0 0 0 0 0 0 0.311736 0"/>
<feBlend mode="normal" in2="BackgroundImageFix" result="effect1_dropShadow"/>
<feBlend mode="normal" in="SourceGraphic" in2="effect1_dropShadow" result="shape"/>
<feColorMatrix in="SourceAlpha" type="matrix" values="0 0 0 0 0 0 0 0 0 0 0 0 0 0 0 0 0 0 127 0" result="hardAlpha"/>
<feOffset/>
<feGaussianBlur stdDeviation="0.666667"/>
<feComposite in2="hardAlpha" operator="arithmetic" k2="-1" k3="1"/>
<feColorMatrix type="matrix" values="0 0 0 0 1 0 0 0 0 1 0 0 0 0 1 0 0 0 0.5 0"/>
<feBlend mode="normal" in2="shape" result="effect2_innerShadow"/>
</filter>
<filter id="filter15_di" x="268.259" y="35.5648" width="3.53623" height="3.24638" filterUnits="userSpaceOnUse" color-interpolation-filters="sRGB">
<feFlood flood-opacity="0" result="BackgroundImageFix"/>
<feColorMatrix in="SourceAlpha" type="matrix" values="0 0 0 0 0 0 0 0 0 0 0 0 0 0 0 0 0 0 127 0"/>
<feOffset dy="1.33333"/>
<feGaussianBlur stdDeviation="0.666667"/>
<feColorMatrix type="matrix" values="0 0 0 0 0 0 0 0 0 0 0 0 0 0 0 0 0 0 0.311736 0"/>
<feBlend mode="normal" in2="BackgroundImageFix" result="effect1_dropShadow"/>
<feBlend mode="normal" in="SourceGraphic" in2="effect1_dropShadow" result="shape"/>
<feColorMatrix in="SourceAlpha" type="matrix" values="0 0 0 0 0 0 0 0 0 0 0 0 0 0 0 0 0 0 127 0" result="hardAlpha"/>
<feOffset dy="0.666667"/>
<feGaussianBlur stdDeviation="0.666667"/>
<feComposite in2="hardAlpha" operator="arithmetic" k2="-1" k3="1"/>
<feColorMatrix type="matrix" values="0 0 0 0 1 0 0 0 0 1 0 0 0 0 1 0 0 0 0.5 0"/>
<feBlend mode="normal" in2="shape" result="effect2_innerShadow"/>
</filter>
<filter id="filter16_f" x="261.073" y="28.7852" width="17.9101" height="17.6204" filterUnits="userSpaceOnUse" color-interpolation-filters="sRGB">
<feFlood flood-opacity="0" result="BackgroundImageFix"/>
<feBlend mode="normal" in="SourceGraphic" in2="BackgroundImageFix" result="shape"/>
<feGaussianBlur stdDeviation="4.11502" result="effect1_foregroundBlur"/>
</filter>
<filter id="filter17_d" x="194.679" y="33.3408" width="57.0955" height="9.7469" filterUnits="userSpaceOnUse" color-interpolation-filters="sRGB">
<feFlood flood-opacity="0" result="BackgroundImageFix"/>
<feColorMatrix in="SourceAlpha" type="matrix" values="0 0 0 0 0 0 0 0 0 0 0 0 0 0 0 0 0 0 127 0"/>
<feOffset dy="1.33333"/>
<feGaussianBlur stdDeviation="0.666667"/>
<feColorMatrix type="matrix" values="0 0 0 0 1 0 0 0 0 1 0 0 0 0 1 0 0 0 0.217589 0"/>
<feBlend mode="normal" in2="BackgroundImageFix" result="effect1_dropShadow"/>
<feBlend mode="normal" in="SourceGraphic" in2="effect1_dropShadow" result="shape"/>
</filter>
<linearGradient id="paint0_linear" x1="10.1035" y1="7.85413" x2="10.1035" y2="886.799" gradientUnits="userSpaceOnUse">
<stop stop-color="#5F5F5F"/>
<stop offset="0.0101238" stop-color="#222222"/>
<stop offset="1" stop-color="#252525"/>
</linearGradient>
<linearGradient id="paint1_linear" x1="14.2344" y1="11.987" x2="14.2344" y2="881.288" gradientUnits="userSpaceOnUse">
<stop stop-color="#6D6D6D"/>
<stop offset="0.0161168"/>
<stop offset="0.984697"/>
<stop offset="1" stop-color="#5C5C5C"/>
</linearGradient>
<linearGradient id="paint2_linear" x1="276.419" y1="42.9737" x2="276.419" y2="30.5748" gradientUnits="userSpaceOnUse">
<stop stop-color="#1F1F1F"/>
<stop offset="1" stop-color="#0F0F0F"/>
</linearGradient>
<radialGradient id="paint3_radial" cx="0" cy="0" r="1" gradientUnits="userSpaceOnUse" gradientTransform="translate(269.032 38.8679) rotate(104.437) scale(4.75579 4.15623)">
<stop stop-color="#154882"/>
<stop offset="1"/>
</radialGradient>
<radialGradient id="paint4_radial" cx="0" cy="0" r="1" gradientUnits="userSpaceOnUse" gradientTransform="translate(270.173 34.8504) rotate(90) scale(4.48499 7.76155)">
<stop stop-color="#376CAB"/>
<stop offset="0.377337" stop-color="#151515"/>
<stop offset="0.536693"/>
<stop offset="1" stop-color="#0D7BB9"/>
</radialGradient>
<radialGradient id="paint5_radial" cx="0" cy="0" r="1" gradientUnits="userSpaceOnUse" gradientTransform="translate(270.174 35.5513) rotate(90) scale(1.16867 1.16777)">
<stop stop-color="#694B8D"/>
<stop offset="1" stop-opacity="0.01"/>
</radialGradient>
<radialGradient id="paint6_radial" cx="0" cy="0" r="1" gradientUnits="userSpaceOnUse" gradientTransform="translate(271.622 38.1625) rotate(90) scale(1.16867 1.16777)">
<stop stop-color="#80C2C8"/>
<stop offset="1" stop-opacity="0.01"/>
</radialGradient>
<radialGradient id="paint7_radial" cx="0" cy="0" r="1" gradientUnits="userSpaceOnUse" gradientTransform="translate(270.173 35.7841) rotate(90) scale(1.81084 3.11979)">
<stop stop-color="#61737F"/>
<stop offset="0.387832"/>
<stop offset="1" stop-color="#227EB1"/>
</radialGradient>
<radialGradient id="paint8_radial" cx="0" cy="0" r="1" gradientUnits="userSpaceOnUse" gradientTransform="translate(269.789 37.3077) rotate(90) scale(1.89839 1.89763)">
<stop stop-color="white"/>
<stop offset="1" stop-opacity="0.01"/>
</radialGradient>
</defs>
</svg>
