<svg width="634" height="367" viewBox="0 0 634 367" fill="none" xmlns="http://www.w3.org/2000/svg">
    <path opacity="0.4" d="M127 183L238 183" stroke="url(#paint0_linear_241_3733)"
        stroke-miterlimit="10" stroke-dasharray="2 2" />
    <g clip-path="url(#clip0_241_3733)">
        <path
            d="M302.493 189.031C302.493 124.43 291.862 72.0611 278.747 72.0611C265.632 72.0611 255 124.43 255 189.031C255 253.631 265.632 306 278.747 306C291.862 306 302.493 253.631 302.493 189.031Z"
            fill="url(#paint1_linear_241_3733)" />
        <path opacity="0.8"
            d="M325.795 189.031C325.795 124.43 315.163 72.0611 302.048 72.0611C288.933 72.0611 278.301 124.43 278.301 189.031C278.301 253.631 288.933 306 302.048 306C315.163 306 325.795 253.631 325.795 189.031Z"
            fill="url(#paint2_linear_241_3733)" />
        <path opacity="0.6"
            d="M348.668 189.031C348.668 124.43 338.036 72.0611 324.921 72.0611C311.806 72.0611 301.175 124.43 301.175 189.031C301.175 253.631 311.806 306 324.921 306C338.036 306 348.668 253.631 348.668 189.031Z"
            fill="url(#paint3_linear_241_3733)" />
        <path opacity="0.4"
            d="M371.978 189.031C371.978 124.43 361.346 72.0611 348.231 72.0611C335.116 72.0611 324.485 124.43 324.485 189.031C324.485 253.631 335.116 306 348.231 306C361.346 306 371.978 253.631 371.978 189.031Z"
            fill="url(#paint4_linear_241_3733)" />
        <path opacity="0.3"
            d="M395.716 189.031C395.716 124.43 385.084 72.0611 371.969 72.0611C358.854 72.0611 348.223 124.43 348.223 189.031C348.223 253.631 358.854 306 371.969 306C385.084 306 395.716 253.631 395.716 189.031Z"
            fill="url(#paint5_linear_241_3733)" />
    </g>
    <g clip-path="url(#clip1_241_3733)">
        <path
            d="M487.126 183.5C487.126 82.1558 470.532 0 450.063 0C429.594 0 413 82.1558 413 183.5C413 284.844 429.594 367 450.063 367C470.532 367 487.126 284.844 487.126 183.5Z"
            fill="url(#paint6_linear_241_3733)" />
        <path
            d="M414.377 183.5C414.377 134.567 418.221 88.5829 425.2 54.0169C432.015 20.552 441.025 1.35925 450.063 1.35925C459.1 1.35925 468.178 20.552 474.939 54.0169C481.918 88.5829 485.763 134.58 485.763 183.5C485.763 232.42 481.918 278.417 474.939 312.983C468.124 346.448 459.114 365.641 450.063 365.641C441.012 365.641 431.961 346.448 425.2 312.983C418.221 278.417 414.377 232.433 414.377 183.5ZM413.014 183.5C413.014 284.846 429.603 367 450.063 367C470.523 367 487.126 284.846 487.126 183.5C487.126 82.1536 470.537 0 450.063 0C429.589 0 413.014 82.1536 413.014 183.5Z"
            fill="url(#paint7_linear_241_3733)" />
        <path opacity="0.8"
            d="M523.493 183.5C523.493 93.4162 506.9 20.3889 486.43 20.3889C465.961 20.3889 449.368 93.4162 449.368 183.5C449.368 273.584 465.961 346.611 486.43 346.611C506.9 346.611 523.493 273.584 523.493 183.5Z"
            fill="url(#paint8_linear_241_3733)" />
        <path
            d="M450.731 183.5C450.731 140.004 454.575 99.2259 461.554 68.4659C464.934 53.6092 468.846 41.9602 473.208 33.8454C477.461 25.9345 482.028 21.7481 486.43 21.7481C490.833 21.7481 495.4 25.9345 499.653 33.8454C504.014 42.0009 507.927 53.6092 511.307 68.4659C518.286 99.1715 522.13 140.031 522.13 183.5C522.13 226.969 518.286 267.774 511.307 298.534C507.927 313.404 504.014 325.04 499.653 333.154C495.4 341.065 490.833 345.252 486.43 345.252C482.028 345.252 477.461 341.065 473.208 333.154C468.846 324.999 464.934 313.404 461.554 298.534C454.575 267.828 450.731 226.969 450.731 183.5ZM449.367 183.5C449.367 273.578 465.97 346.611 486.43 346.611C506.891 346.611 523.493 273.578 523.493 183.5C523.493 93.4219 506.891 20.3889 486.43 20.3889C465.97 20.3889 449.367 93.4219 449.367 183.5Z"
            fill="url(#paint9_linear_241_3733)" />
        <path opacity="0.6"
            d="M559.193 183.5C559.193 104.677 542.599 40.7777 522.13 40.7777C501.661 40.7777 485.067 104.677 485.067 183.5C485.067 262.323 501.661 326.222 522.13 326.222C542.599 326.222 559.193 262.323 559.193 183.5Z"
            fill="url(#paint10_linear_241_3733)" />
        <path
            d="M486.43 183.5C486.43 145.441 490.274 109.774 497.24 82.9148C503.974 57.0073 513.038 42.137 522.13 42.137C531.222 42.137 540.287 57.0073 547.007 82.9148C553.986 109.774 557.816 145.441 557.816 183.5C557.816 221.559 553.986 257.226 547.007 284.085C540.287 309.993 531.208 324.863 522.13 324.863C513.052 324.863 503.974 309.993 497.24 284.085C490.274 257.226 486.43 221.559 486.43 183.5ZM485.067 183.5C485.067 262.337 501.656 326.222 522.13 326.222C542.604 326.222 559.179 262.337 559.179 183.5C559.179 104.663 542.59 40.7777 522.13 40.7777C501.67 40.7777 485.067 104.663 485.067 183.5Z"
            fill="url(#paint11_linear_241_3733)" />
        <path opacity="0.4"
            d="M595.574 183.5C595.574 115.937 578.98 61.1666 558.511 61.1666C538.042 61.1666 521.448 115.937 521.448 183.5C521.448 251.063 538.042 305.833 558.511 305.833C578.98 305.833 595.574 251.063 595.574 183.5Z"
            fill="url(#paint12_linear_241_3733)" />
        <path opacity="0.4"
            d="M595.574 183.5C595.574 115.937 578.98 61.1666 558.511 61.1666C538.042 61.1666 521.448 115.937 521.448 183.5C521.448 251.063 538.042 305.833 558.511 305.833C578.98 305.833 595.574 251.063 595.574 183.5Z"
            fill="url(#paint13_linear_241_3733)" />
        <path
            d="M522.812 183.5C522.812 150.959 526.642 120.376 533.607 97.3909C540.314 75.235 549.392 62.5261 558.498 62.5261C567.603 62.5261 576.695 75.235 583.401 97.3909C590.367 120.376 594.197 150.959 594.197 183.5C594.197 216.041 590.367 246.624 583.401 269.609C576.695 291.765 567.617 304.474 558.498 304.474C549.378 304.474 540.314 291.765 533.607 269.609C526.642 246.624 522.812 216.054 522.812 183.5ZM521.448 183.5C521.448 251.069 538.037 305.833 558.498 305.833C578.958 305.833 595.56 251.069 595.56 183.5C595.56 115.931 578.971 61.1668 558.498 61.1668C538.024 61.1668 521.448 115.931 521.448 183.5Z"
            fill="url(#paint14_linear_241_3733)" />
        <path opacity="0.3"
            d="M632.623 183.5C632.623 127.198 616.03 81.5555 595.56 81.5555C575.091 81.5555 558.498 127.198 558.498 183.5C558.498 239.802 575.091 285.444 595.56 285.444C616.03 285.444 632.623 239.802 632.623 183.5Z"
            fill="url(#paint15_linear_241_3733)" />
        <path
            d="M559.861 183.5C559.861 156.424 563.691 130.992 570.643 111.881C577.336 93.4763 586.414 82.9149 595.56 82.9149C604.707 82.9149 613.785 93.4763 620.478 111.881C627.43 130.992 631.26 156.424 631.26 183.5C631.26 210.577 627.43 236.008 620.478 255.119C613.785 273.524 604.707 284.085 595.56 284.085C586.414 284.085 577.336 273.524 570.643 255.119C563.691 236.008 559.861 210.577 559.861 183.5ZM558.498 183.5C558.498 239.801 575.1 285.445 595.56 285.445C616.02 285.445 632.623 239.801 632.623 183.5C632.623 127.2 616.02 81.5557 595.56 81.5557C575.1 81.5557 558.498 127.2 558.498 183.5Z"
            fill="url(#paint16_linear_241_3733)" />
        <path
            d="M456.442 2.13396C456.442 1.00792 455.527 0.0950737 454.397 0.0950737C453.268 0.0950737 452.353 1.00792 452.353 2.13396C452.353 3.26001 453.268 4.17285 454.397 4.17285C455.527 4.17285 456.442 3.26001 456.442 2.13396Z"
            fill="#B0B0BF" />
        <path
            d="M524.175 155.567C524.175 154.441 523.259 153.528 522.13 153.528C521.001 153.528 520.085 154.441 520.085 155.567C520.085 156.693 521.001 157.606 522.13 157.606C523.259 157.606 524.175 156.693 524.175 155.567Z"
            fill="#B0B0BF" />
        <path
            d="M551.941 92.1305C551.941 91.0045 551.026 90.0917 549.896 90.0917C548.767 90.0917 547.852 91.0045 547.852 92.1305C547.852 93.2566 548.767 94.1694 549.896 94.1694C551.026 94.1694 551.941 93.2566 551.941 92.1305Z"
            fill="#B0B0BF" />
        <path
            d="M558.293 232.026C558.293 230.9 557.378 229.987 556.249 229.987C555.119 229.987 554.204 230.9 554.204 232.026C554.204 233.152 555.119 234.064 556.249 234.064C557.378 234.064 558.293 233.152 558.293 232.026Z"
            fill="#B0B0BF" />
        <path
            d="M596.665 169.717C596.665 168.591 595.749 167.678 594.62 167.678C593.491 167.678 592.575 168.591 592.575 169.717C592.575 170.843 593.491 171.756 594.62 171.756C595.749 171.756 596.665 170.843 596.665 169.717Z"
            fill="#B0B0BF" />
        <path
            d="M622.046 258.082C622.046 256.956 621.13 256.044 620.001 256.044C618.872 256.044 617.956 256.956 617.956 258.082C617.956 259.208 618.872 260.121 620.001 260.121C621.13 260.121 622.046 259.208 622.046 258.082Z"
            fill="#B0B0BF" />
        <path
            d="M632.623 211.65C632.623 210.524 631.708 209.611 630.579 209.611C629.449 209.611 628.534 210.524 628.534 211.65C628.534 212.776 629.449 213.689 630.579 213.689C631.708 213.689 632.623 212.776 632.623 211.65Z"
            fill="#B0B0BF" />
        <path
            d="M580.226 81.2157C580.226 80.0897 579.31 79.1769 578.181 79.1769C577.052 79.1769 576.136 80.0897 576.136 81.2157C576.136 82.3418 577.052 83.2546 578.181 83.2546C579.31 83.2546 580.226 82.3418 580.226 81.2157Z"
            fill="#B0B0BF" />
        <path
            d="M596.665 199.444C596.665 198.318 595.749 197.405 594.62 197.405C593.491 197.405 592.575 198.318 592.575 199.444C592.575 200.57 593.491 201.483 594.62 201.483C595.749 201.483 596.665 200.57 596.665 199.444Z"
            fill="#B0B0BF" />
        <path
            d="M595.561 213.648C595.561 212.522 594.645 211.609 593.516 211.609C592.387 211.609 591.471 212.522 591.471 213.648C591.471 214.774 592.387 215.687 593.516 215.687C594.645 215.687 595.561 214.774 595.561 213.648Z"
            fill="#B0B0BF" />
        <path
            d="M555.962 252.578C555.962 251.452 555.047 250.539 553.918 250.539C552.788 250.539 551.873 251.452 551.873 252.578C551.873 253.704 552.788 254.616 553.918 254.616C555.047 254.616 555.962 253.704 555.962 252.578Z"
            fill="#B0B0BF" />
        <path
            d="M524.652 171.756C524.652 170.63 523.736 169.717 522.607 169.717C521.478 169.717 520.562 170.63 520.562 171.756C520.562 172.882 521.478 173.795 522.607 173.795C523.736 173.795 524.652 172.882 524.652 171.756Z"
            fill="#B0B0BF" />
        <path
            d="M518.095 278.281C518.095 277.155 517.18 276.242 516.051 276.242C514.921 276.242 514.006 277.155 514.006 278.281C514.006 279.407 514.921 280.32 516.051 280.32C517.18 280.32 518.095 279.407 518.095 278.281Z"
            fill="#B0B0BF" />
        <path
            d="M481.632 290.12C481.632 288.994 480.717 288.081 479.588 288.081C478.458 288.081 477.543 288.994 477.543 290.12C477.543 291.246 478.458 292.159 479.588 292.159C480.717 292.159 481.632 291.246 481.632 290.12Z"
            fill="#B0B0BF" />
        <path
            d="M466.72 350.838C466.72 349.712 465.805 348.799 464.675 348.799C463.546 348.799 462.631 349.712 462.631 350.838C462.631 351.964 463.546 352.877 464.675 352.877C465.805 352.877 466.72 351.964 466.72 350.838Z"
            fill="#B0B0BF" />
        <path
            d="M487.112 258.083C487.112 255.831 485.281 254.005 483.023 254.005C480.764 254.005 478.933 255.831 478.933 258.083C478.933 260.335 480.764 262.16 483.023 262.16C485.281 262.16 487.112 260.335 487.112 258.083Z"
            fill="#B0B0BF" />
        <path
            d="M523.493 117.821C523.493 115.569 521.662 113.743 519.404 113.743C517.145 113.743 515.314 115.569 515.314 117.821C515.314 120.073 517.145 121.898 519.404 121.898C521.662 121.898 523.493 120.073 523.493 117.821Z"
            fill="#B0B0BF" />
        <path
            d="M562.6 209.122C562.6 206.87 560.77 205.044 558.511 205.044C556.253 205.044 554.422 206.87 554.422 209.122C554.422 211.374 556.253 213.2 558.511 213.2C560.77 213.2 562.6 211.374 562.6 209.122Z"
            fill="#B0B0BF" />
        <path
            d="M634 151.489C634 149.237 632.169 147.412 629.911 147.412C627.652 147.412 625.821 149.237 625.821 151.489C625.821 153.741 627.652 155.567 629.911 155.567C632.169 155.567 634 153.741 634 151.489Z"
            fill="#B0B0BF" />
    </g>
    <path
        d="M89 231.5C89 235.09 91.9101 238 95.5 238C99.0899 238 102 235.09 102 231.5C102 227.91 99.0899 225 95.5 225C91.9101 225 89 227.91 89 231.5Z"
        fill="url(#paint17_radial_241_3733)" />
    <path opacity="0.8"
        d="M396 27C396 29.2091 397.791 31 400 31C402.209 31 404 29.2091 404 27C404 24.7909 402.209 23 400 23C397.791 23 396 24.7909 396 27Z"
        fill="url(#paint18_radial_241_3733)" />
    <path opacity="0.8"
        d="M212 24.5C212 25.3284 212.672 26 213.5 26C214.328 26 215 25.3284 215 24.5C215 23.6716 214.328 23 213.5 23C212.672 23 212 23.6716 212 24.5Z"
        fill="url(#paint19_radial_241_3733)" />
    <path opacity="0.8"
        d="M0 37C0 38.1046 0.89543 39 2 39C3.10457 39 4 38.1046 4 37C4 35.8954 3.10457 35 2 35C0.89543 35 0 35.8954 0 37Z"
        fill="url(#paint20_radial_241_3733)" />
    <defs>
        <linearGradient id="paint0_linear_241_3733" x1="182.5" y1="183" x2="182.5" y2="182"
            gradientUnits="userSpaceOnUse">
            <stop stop-color="#B0B0BF" stop-opacity="0.03" />
            <stop offset="0.04" stop-color="#B0B0BF" stop-opacity="0.25" />
            <stop offset="0.09" stop-color="#B0B0BF" stop-opacity="0.45" />
            <stop offset="0.14" stop-color="#B0B0BF" stop-opacity="0.62" />
            <stop offset="0.18" stop-color="#B0B0BF" stop-opacity="0.76" />
            <stop offset="0.24" stop-color="#B0B0BF" stop-opacity="0.87" />
            <stop offset="0.3" stop-color="#B0B0BF" stop-opacity="0.94" />
            <stop offset="0.38" stop-color="#B0B0BF" stop-opacity="0.99" />
            <stop offset="0.5" stop-color="#B0B0BF" />
            <stop offset="0.62" stop-color="#B0B0BF" stop-opacity="0.99" />
            <stop offset="0.7" stop-color="#B0B0BF" stop-opacity="0.94" />
            <stop offset="0.76" stop-color="#B0B0BF" stop-opacity="0.87" />
            <stop offset="0.82" stop-color="#B0B0BF" stop-opacity="0.76" />
            <stop offset="0.86" stop-color="#B0B0BF" stop-opacity="0.62" />
            <stop offset="0.91" stop-color="#B0B0BF" stop-opacity="0.45" />
            <stop offset="0.96" stop-color="#B0B0BF" stop-opacity="0.25" />
            <stop offset="1" stop-color="#B0B0BF" stop-opacity="0" />
        </linearGradient>
        <linearGradient id="paint1_linear_241_3733" x1="306.614" y1="182.804" x2="259.047"
            y2="182.804" gradientUnits="userSpaceOnUse">
            <stop stop-color="#B0B0BF" stop-opacity="0.5" />
            <stop offset="1" stop-color="#B0B0BF" stop-opacity="0" />
        </linearGradient>
        <linearGradient id="paint2_linear_241_3733" x1="329.967" y1="182.804" x2="282.399"
            y2="182.804" gradientUnits="userSpaceOnUse">
            <stop stop-color="#B0B0BF" stop-opacity="0.5" />
            <stop offset="1" stop-color="#B0B0BF" stop-opacity="0" />
        </linearGradient>
        <linearGradient id="paint3_linear_241_3733" x1="352.874" y1="182.804" x2="305.306"
            y2="182.804" gradientUnits="userSpaceOnUse">
            <stop stop-color="#B0B0BF" stop-opacity="0.5" />
            <stop offset="1" stop-color="#B0B0BF" stop-opacity="0" />
        </linearGradient>
        <linearGradient id="paint4_linear_241_3733" x1="376.226" y1="182.803" x2="328.65"
            y2="182.803" gradientUnits="userSpaceOnUse">
            <stop stop-color="#B0B0BF" stop-opacity="0.5" />
            <stop offset="1" stop-color="#B0B0BF" stop-opacity="0" />
        </linearGradient>
        <linearGradient id="paint5_linear_241_3733" x1="400.005" y1="182.804" x2="352.438"
            y2="182.804" gradientUnits="userSpaceOnUse">
            <stop stop-color="#B0B0BF" stop-opacity="0.5" />
            <stop offset="1" stop-color="#B0B0BF" stop-opacity="0" />
        </linearGradient>
        <linearGradient id="paint6_linear_241_3733" x1="494.24" y1="173.828" x2="419.999"
            y2="173.828" gradientUnits="userSpaceOnUse">
            <stop stop-color="#B0B0BF" stop-opacity="0.5" />
            <stop offset="1" stop-color="#B0B0BF" stop-opacity="0" />
        </linearGradient>
        <linearGradient id="paint7_linear_241_3733" x1="487.112" y1="183.5" x2="413" y2="183.5"
            gradientUnits="userSpaceOnUse">
            <stop stop-color="#B0B0BF" />
            <stop offset="0.12" stop-color="#B0B0BF" stop-opacity="0.78" />
            <stop offset="0.27" stop-color="#B0B0BF" stop-opacity="0.54" />
            <stop offset="0.42" stop-color="#B0B0BF" stop-opacity="0.35" />
            <stop offset="0.57" stop-color="#B0B0BF" stop-opacity="0.2" />
            <stop offset="0.72" stop-color="#B0B0BF" stop-opacity="0.09" />
            <stop offset="0.86" stop-color="#B0B0BF" stop-opacity="0.02" />
            <stop offset="1" stop-color="#B0B0BF" stop-opacity="0" />
        </linearGradient>
        <linearGradient id="paint8_linear_241_3733" x1="530.688" y1="173.827" x2="456.447"
            y2="173.827" gradientUnits="userSpaceOnUse">
            <stop stop-color="#B0B0BF" stop-opacity="0.5" />
            <stop offset="1" stop-color="#B0B0BF" stop-opacity="0" />
        </linearGradient>
        <linearGradient id="paint9_linear_241_3733" x1="523.493" y1="183.5" x2="449.367" y2="183.5"
            gradientUnits="userSpaceOnUse">
            <stop stop-color="#B0B0BF" />
            <stop offset="0.12" stop-color="#B0B0BF" stop-opacity="0.78" />
            <stop offset="0.27" stop-color="#B0B0BF" stop-opacity="0.54" />
            <stop offset="0.42" stop-color="#B0B0BF" stop-opacity="0.35" />
            <stop offset="0.57" stop-color="#B0B0BF" stop-opacity="0.2" />
            <stop offset="0.72" stop-color="#B0B0BF" stop-opacity="0.09" />
            <stop offset="0.86" stop-color="#B0B0BF" stop-opacity="0.02" />
            <stop offset="1" stop-color="#B0B0BF" stop-opacity="0" />
        </linearGradient>
        <linearGradient id="paint10_linear_241_3733" x1="566.44" y1="173.827" x2="492.199"
            y2="173.827" gradientUnits="userSpaceOnUse">
            <stop stop-color="#B0B0BF" stop-opacity="0.5" />
            <stop offset="1" stop-color="#B0B0BF" stop-opacity="0" />
        </linearGradient>
        <linearGradient id="paint11_linear_241_3733" x1="559.179" y1="183.5" x2="485.067" y2="183.5"
            gradientUnits="userSpaceOnUse">
            <stop stop-color="#B0B0BF" />
            <stop offset="0.12" stop-color="#B0B0BF" stop-opacity="0.78" />
            <stop offset="0.27" stop-color="#B0B0BF" stop-opacity="0.54" />
            <stop offset="0.42" stop-color="#B0B0BF" stop-opacity="0.35" />
            <stop offset="0.57" stop-color="#B0B0BF" stop-opacity="0.2" />
            <stop offset="0.72" stop-color="#B0B0BF" stop-opacity="0.09" />
            <stop offset="0.86" stop-color="#B0B0BF" stop-opacity="0.02" />
            <stop offset="1" stop-color="#B0B0BF" stop-opacity="0" />
        </linearGradient>
        <linearGradient id="paint12_linear_241_3733" x1="602.887" y1="173.827" x2="528.632"
            y2="173.827" gradientUnits="userSpaceOnUse">
            <stop stop-color="#B0B0BF" stop-opacity="0.5" />
            <stop offset="1" stop-color="#B0B0BF" stop-opacity="0" />
        </linearGradient>
        <linearGradient id="paint13_linear_241_3733" x1="602.887" y1="173.827" x2="528.632"
            y2="173.827" gradientUnits="userSpaceOnUse">
            <stop stop-color="#B0B0BF" stop-opacity="0.5" />
            <stop offset="1" stop-color="#B0B0BF" stop-opacity="0" />
        </linearGradient>
        <linearGradient id="paint14_linear_241_3733" x1="595.56" y1="183.5" x2="521.448" y2="183.5"
            gradientUnits="userSpaceOnUse">
            <stop stop-color="#B0B0BF" />
            <stop offset="0.12" stop-color="#B0B0BF" stop-opacity="0.78" />
            <stop offset="0.27" stop-color="#B0B0BF" stop-opacity="0.54" />
            <stop offset="0.42" stop-color="#B0B0BF" stop-opacity="0.35" />
            <stop offset="0.57" stop-color="#B0B0BF" stop-opacity="0.2" />
            <stop offset="0.72" stop-color="#B0B0BF" stop-opacity="0.09" />
            <stop offset="0.86" stop-color="#B0B0BF" stop-opacity="0.02" />
            <stop offset="1" stop-color="#B0B0BF" stop-opacity="0" />
        </linearGradient>
        <linearGradient id="paint15_linear_241_3733" x1="640.001" y1="173.827" x2="565.76"
            y2="173.827" gradientUnits="userSpaceOnUse">
            <stop stop-color="#B0B0BF" stop-opacity="0.5" />
            <stop offset="1" stop-color="#B0B0BF" stop-opacity="0" />
        </linearGradient>
        <linearGradient id="paint16_linear_241_3733" x1="632.623" y1="183.5" x2="558.498" y2="183.5"
            gradientUnits="userSpaceOnUse">
            <stop stop-color="#B0B0BF" />
            <stop offset="0.12" stop-color="#B0B0BF" stop-opacity="0.78" />
            <stop offset="0.27" stop-color="#B0B0BF" stop-opacity="0.54" />
            <stop offset="0.42" stop-color="#B0B0BF" stop-opacity="0.35" />
            <stop offset="0.57" stop-color="#B0B0BF" stop-opacity="0.2" />
            <stop offset="0.72" stop-color="#B0B0BF" stop-opacity="0.09" />
            <stop offset="0.86" stop-color="#B0B0BF" stop-opacity="0.02" />
            <stop offset="1" stop-color="#B0B0BF" stop-opacity="0" />
        </linearGradient>
        <radialGradient id="paint17_radial_241_3733" cx="0" cy="0" r="1"
            gradientUnits="userSpaceOnUse"
            gradientTransform="translate(95.5 231.5) rotate(180) scale(6.5)">
            <stop stop-color="#F5F5F5" stop-opacity="0.99" />
            <stop offset="1" stop-color="#F5F5F5" stop-opacity="0" />
        </radialGradient>
        <radialGradient id="paint18_radial_241_3733" cx="0" cy="0" r="1"
            gradientUnits="userSpaceOnUse"
            gradientTransform="translate(400 27) rotate(180) scale(4)">
            <stop stop-color="#F5F5F5" />
            <stop offset="1" stop-color="#F5F5F5" stop-opacity="0" />
        </radialGradient>
        <radialGradient id="paint19_radial_241_3733" cx="0" cy="0" r="1"
            gradientUnits="userSpaceOnUse"
            gradientTransform="translate(213.5 24.5) rotate(180) scale(1.5)">
            <stop stop-color="#B0B0BF" />
            <stop offset="1" stop-color="#F5F5F5" stop-opacity="0" />
        </radialGradient>
        <radialGradient id="paint20_radial_241_3733" cx="0" cy="0" r="1"
            gradientUnits="userSpaceOnUse" gradientTransform="translate(2 37) rotate(180) scale(2)">
            <stop stop-color="#F5F5F5" />
            <stop offset="1" stop-color="#F5F5F5" stop-opacity="0" />
        </radialGradient>
        <clipPath id="clip0_241_3733">
            <rect width="233.939" height="140.716" fill="white" transform="matrix(0 -1 1 0 255 306)" />
        </clipPath>
        <clipPath id="clip1_241_3733">
            <rect width="367" height="221" fill="white" transform="matrix(0 -1 1 0 413 367)" />
        </clipPath>
    </defs>
</svg>
