<svg width="524" height="242" viewBox="0 0 524 242" fill="none" xmlns="http://www.w3.org/2000/svg">
    <path
        d="M238.994 240.899C304.664 240.899 357.899 187.664 357.899 121.994C357.899 56.3242 304.664 3.08838 238.994 3.08838C173.324 3.08838 120.088 56.3242 120.088 121.994C120.088 187.664 173.324 240.899 238.994 240.899Z"
        fill="url(#paint0_linear_241_3782)" />
    <path
        d="M238.994 240.899C304.664 240.899 357.899 187.664 357.899 121.994C357.899 56.3242 304.664 3.08838 238.994 3.08838C173.324 3.08838 120.088 56.3242 120.088 121.994C120.088 187.664 173.324 240.899 238.994 240.899Z"
        fill="url(#paint1_linear_241_3782)" />
    <path
        d="M357.899 240.899C423.569 240.899 476.805 187.664 476.805 121.994C476.805 56.3242 423.569 3.08838 357.899 3.08838C292.23 3.08838 238.994 56.3242 238.994 121.994C238.994 187.664 292.23 240.899 357.899 240.899Z"
        fill="url(#paint2_linear_241_3782)" />
    <path
        d="M357.899 240.899C423.569 240.899 476.805 187.664 476.805 121.994C476.805 56.3242 423.569 3.08838 357.899 3.08838C292.23 3.08838 238.994 56.3242 238.994 121.994C238.994 187.664 292.23 240.899 357.899 240.899Z"
        fill="url(#paint3_linear_241_3782)" />
    <path
        d="M119.48 240.899C185.15 240.899 238.386 187.664 238.386 121.994C238.386 56.3242 185.15 3.08838 119.48 3.08838C53.8105 3.08838 0.574707 56.3242 0.574707 121.994C0.574707 187.664 53.8105 240.899 119.48 240.899Z"
        fill="url(#paint4_linear_241_3782)" />
    <path
        d="M119.48 240.899C185.15 240.899 238.386 187.664 238.386 121.994C238.386 56.3242 185.15 3.08838 119.48 3.08838C53.8105 3.08838 0.574707 56.3242 0.574707 121.994C0.574707 187.664 53.8105 240.899 119.48 240.899Z"
        fill="url(#paint5_linear_241_3782)" />
    <path
        d="M238.994 240.899C304.664 240.899 357.899 187.664 357.899 121.994C357.899 56.3242 304.664 3.08838 238.994 3.08838C173.324 3.08838 120.088 56.3242 120.088 121.994C120.088 187.664 173.324 240.899 238.994 240.899Z"
        stroke="url(#paint6_linear_241_3782)" stroke-width="0.99" stroke-miterlimit="10" />
    <path
        d="M358.106 240.899C423.776 240.899 477.012 187.664 477.012 121.994C477.012 56.3242 423.776 3.08838 358.106 3.08838C292.436 3.08838 239.201 56.3242 239.201 121.994C239.201 187.664 292.436 240.899 358.106 240.899Z"
        stroke="url(#paint7_linear_241_3782)" stroke-width="0.99" stroke-miterlimit="10" />
    <path
        d="M120.088 240.899C185.758 240.899 238.994 187.664 238.994 121.994C238.994 56.3242 185.758 3.08838 120.088 3.08838C54.4186 3.08838 1.18286 56.3242 1.18286 121.994C1.18286 187.664 54.4186 240.899 120.088 240.899Z"
        stroke="url(#paint8_linear_241_3782)" stroke-width="0.99" stroke-miterlimit="10" />
    <path opacity="0.8"
        d="M273 234C273 236.209 274.791 238 277 238C279.209 238 281 236.209 281 234C281 231.791 279.209 230 277 230C274.791 230 273 231.791 273 234Z"
        fill="url(#paint9_radial_241_3782)" />
    <path
        d="M115 122C115 124.761 117.239 127 120 127C122.761 127 125 124.761 125 122C125 119.239 122.761 117 120 117C117.239 117 115 119.239 115 122Z"
        fill="url(#paint10_radial_241_3782)" />
    <path opacity="0.8"
        d="M173 2.5C173 3.88071 174.119 5 175.5 5C176.881 5 178 3.88071 178 2.5C178 1.11929 176.881 0 175.5 0C174.119 0 173 1.11929 173 2.5Z"
        fill="url(#paint11_radial_241_3782)" />
    <path opacity="0.8"
        d="M1 46C1 47.1046 1.89543 48 3 48C4.10457 48 5 47.1046 5 46C5 44.8954 4.10457 44 3 44C1.89543 44 1 44.8954 1 46Z"
        fill="url(#paint12_radial_241_3782)" />
    <path opacity="0.8"
        d="M514 163C514 165.761 516.239 168 519 168C521.761 168 524 165.761 524 163C524 160.239 521.761 158 519 158C516.239 158 514 160.239 514 163Z"
        fill="url(#paint13_radial_241_3782)" />
    <defs>
        <linearGradient id="paint0_linear_241_3782" x1="120.088" y1="121.994" x2="357.899"
            y2="121.994" gradientUnits="userSpaceOnUse">
            <stop stop-color="#B0B0BF" />
            <stop offset="0.02" stop-color="#B0B0BF" stop-opacity="0.81" />
            <stop offset="0.05" stop-color="#B0B0BF" stop-opacity="0.62" />
            <stop offset="0.07" stop-color="#B0B0BF" stop-opacity="0.45" />
            <stop offset="0.1" stop-color="#B0B0BF" stop-opacity="0.31" />
            <stop offset="0.14" stop-color="#B0B0BF" stop-opacity="0.2" />
            <stop offset="0.18" stop-color="#B0B0BF" stop-opacity="0.11" />
            <stop offset="0.23" stop-color="#B0B0BF" stop-opacity="0.05" />
            <stop offset="0.3" stop-color="#B0B0BF" stop-opacity="0.01" />
            <stop offset="0.5" stop-color="#B0B0BF" stop-opacity="0" />
        </linearGradient>
        <linearGradient id="paint1_linear_241_3782" x1="120.088" y1="121.994" x2="357.899"
            y2="121.994" gradientUnits="userSpaceOnUse">
            <stop offset="0.5" stop-color="#B0B0BF" stop-opacity="0" />
            <stop offset="0.7" stop-color="#B0B0BF" stop-opacity="0.01" />
            <stop offset="0.77" stop-color="#B0B0BF" stop-opacity="0.05" />
            <stop offset="0.82" stop-color="#B0B0BF" stop-opacity="0.11" />
            <stop offset="0.86" stop-color="#B0B0BF" stop-opacity="0.2" />
            <stop offset="0.9" stop-color="#B0B0BF" stop-opacity="0.31" />
            <stop offset="0.93" stop-color="#B0B0BF" stop-opacity="0.45" />
            <stop offset="0.95" stop-color="#B0B0BF" stop-opacity="0.62" />
            <stop offset="0.98" stop-color="#B0B0BF" stop-opacity="0.81" />
            <stop offset="1" stop-color="#B0B0BF" />
        </linearGradient>
        <linearGradient id="paint2_linear_241_3782" x1="238.994" y1="121.994" x2="476.805"
            y2="121.994" gradientUnits="userSpaceOnUse">
            <stop stop-color="#B0B0BF" stop-opacity="0.5" />
            <stop offset="0.02" stop-color="#B0B0BF" stop-opacity="0.45" />
            <stop offset="0.09" stop-color="#B0B0BF" stop-opacity="0.31" />
            <stop offset="0.17" stop-color="#B0B0BF" stop-opacity="0.2" />
            <stop offset="0.27" stop-color="#B0B0BF" stop-opacity="0.11" />
            <stop offset="0.38" stop-color="#B0B0BF" stop-opacity="0.05" />
            <stop offset="0.55" stop-color="#B0B0BF" stop-opacity="0.01" />
            <stop offset="1" stop-color="#B0B0BF" stop-opacity="0" />
        </linearGradient>
        <linearGradient id="paint3_linear_241_3782" x1="357.899" y1="240.899" x2="357.899"
            y2="3.08838" gradientUnits="userSpaceOnUse">
            <stop stop-color="#B0B0BF" stop-opacity="0.1" />
            <stop offset="0.15" stop-color="#B0B0BF" stop-opacity="0.05" />
            <stop offset="0.37" stop-color="#B0B0BF" stop-opacity="0.01" />
            <stop offset="1" stop-color="#B0B0BF" stop-opacity="0" />
        </linearGradient>
        <linearGradient id="paint4_linear_241_3782" x1="238.398" y1="121.994" x2="0.586869"
            y2="121.994" gradientUnits="userSpaceOnUse">
            <stop stop-color="#B0B0BF" stop-opacity="0.5" />
            <stop offset="0.02" stop-color="#B0B0BF" stop-opacity="0.45" />
            <stop offset="0.09" stop-color="#B0B0BF" stop-opacity="0.31" />
            <stop offset="0.17" stop-color="#B0B0BF" stop-opacity="0.2" />
            <stop offset="0.27" stop-color="#B0B0BF" stop-opacity="0.11" />
            <stop offset="0.38" stop-color="#B0B0BF" stop-opacity="0.05" />
            <stop offset="0.55" stop-color="#B0B0BF" stop-opacity="0.01" />
            <stop offset="1" stop-color="#B0B0BF" stop-opacity="0" />
        </linearGradient>
        <linearGradient id="paint5_linear_241_3782" x1="119.492" y1="3.10054" x2="119.492"
            y2="240.911" gradientUnits="userSpaceOnUse">
            <stop stop-color="#B0B0BF" stop-opacity="0.1" />
            <stop offset="0.15" stop-color="#B0B0BF" stop-opacity="0.05" />
            <stop offset="0.37" stop-color="#B0B0BF" stop-opacity="0.01" />
            <stop offset="1" stop-color="#B0B0BF" stop-opacity="0" />
        </linearGradient>
        <linearGradient id="paint6_linear_241_3782" x1="119.492" y1="121.994" x2="358.508"
            y2="121.994" gradientUnits="userSpaceOnUse">
            <stop offset="0.1" stop-color="#F5F5F5" />
            <stop offset="0.5" stop-color="#B0B0BF" stop-opacity="0" />
            <stop offset="0.9" stop-color="#F5F5F5" />
        </linearGradient>
        <linearGradient id="paint7_linear_241_3782" x1="238.592" y1="121.994" x2="477.608"
            y2="121.994" gradientUnits="userSpaceOnUse">
            <stop offset="0.1" stop-color="#F5F5F5" />
            <stop offset="0.5" stop-color="#B0B0BF" stop-opacity="0" />
        </linearGradient>
        <linearGradient id="paint8_linear_241_3782" x1="0.586813" y1="121.994" x2="239.602"
            y2="121.994" gradientUnits="userSpaceOnUse">
            <stop offset="0.5" stop-color="#B0B0BF" stop-opacity="0" />
            <stop offset="0.9" stop-color="#F5F5F5" />
        </linearGradient>
        <radialGradient id="paint9_radial_241_3782" cx="0" cy="0" r="1"
            gradientUnits="userSpaceOnUse"
            gradientTransform="translate(277 234) rotate(180) scale(4)">
            <stop stop-color="#F5F5F5" stop-opacity="0.63" />
            <stop offset="1" stop-color="#F5F5F5" stop-opacity="0" />
        </radialGradient>
        <radialGradient id="paint10_radial_241_3782" cx="0" cy="0" r="1"
            gradientUnits="userSpaceOnUse"
            gradientTransform="translate(120 122) rotate(180) scale(5)">
            <stop stop-color="#F5F5F5" stop-opacity="0.99" />
            <stop offset="1" stop-color="#F5F5F5" stop-opacity="0.21" />
        </radialGradient>
        <radialGradient id="paint11_radial_241_3782" cx="0" cy="0" r="1"
            gradientUnits="userSpaceOnUse"
            gradientTransform="translate(175.5 2.5) rotate(180) scale(2.5)">
            <stop stop-color="#B0B0BF" />
            <stop offset="1" stop-color="#F5F5F5" stop-opacity="0" />
        </radialGradient>
        <radialGradient id="paint12_radial_241_3782" cx="0" cy="0" r="1"
            gradientUnits="userSpaceOnUse" gradientTransform="translate(3 46) rotate(180) scale(2)">
            <stop stop-color="#F5F5F5" />
            <stop offset="1" stop-color="#F5F5F5" stop-opacity="0" />
        </radialGradient>
        <radialGradient id="paint13_radial_241_3782" cx="0" cy="0" r="1"
            gradientUnits="userSpaceOnUse"
            gradientTransform="translate(519 163) rotate(180) scale(5)">
            <stop stop-color="#F5F5F5" />
            <stop offset="1" stop-color="#F5F5F5" stop-opacity="0" />
        </radialGradient>
    </defs>
</svg>
