<svg width="408" height="409" viewBox="0 0 408 409" fill="none" xmlns="http://www.w3.org/2000/svg">
<g clip-path="url(#clip0_54_13)" filter="url(#filter0_d_54_13)">
<path d="M225.332 373.968C218.088 374.873 210.898 375.291 203.821 375.291C116.928 375.291 41.6127 310.453 30.7737 221.985C29.8677 214.713 29.4358 207.551 29.4358 200.46C29.4358 113.581 94.3028 38.2519 182.77 27.4269C190 26.5209 197.162 26.0899 204.281 26.0899C230.473 26.0899 255.619 32.0249 278.258 42.6959L278.244 42.7379C279.707 43.3649 281.086 44.0479 282.467 44.7169C283.108 45.0509 283.748 45.3849 284.389 45.7199C286.118 46.6539 287.76 47.6289 289.321 48.6459C216.305 49.7049 157.665 75.2839 156.774 75.5899L166.792 98.6199C166.806 98.6199 170.079 97.1849 176.53 94.8579C195.853 87.8079 241.814 73.6259 293.572 73.6679C299.437 73.6539 305.386 73.9049 311.377 74.3089C315.625 84.0609 317.549 95.3179 317.744 107.997C317.799 135.22 307.699 176.151 292.318 203.793C280.851 224.495 268.773 242.718 257.976 255.173C247.415 268.004 237.021 273.299 235.851 272.532C235.699 272.476 235.642 272.504 235.628 272.504C235.56 272.504 235.628 272.532 235.142 272.17C234.165 271.459 231.337 267.308 229.47 258.739C227.507 250.283 226.267 237.8 226.281 221.291C226.281 206.815 227.215 189.206 229.248 168.224C230.404 156.229 231.799 147.159 232.912 141.155C233.65 138.634 236.326 128.992 237.594 126.443C233.024 124.91 219.803 121.706 214.076 119.992C211.931 125.426 209.896 130.762 208.49 135.206C206.623 141.628 203.335 151.966 198.153 165.577C188.986 189.986 173.758 226.027 149.378 274.51C144.195 284.848 139.264 291.702 135.487 295.395C131.6 299.17 129.594 299.323 129.539 299.282C129.455 299.226 129.246 299.505 127.574 297.93C122.196 293.457 114.952 271.975 115.342 244.891C115.315 216.861 121.57 182.505 136.561 150.851L113.866 140.11C97.0928 175.678 90.2518 213.238 90.2238 244.891C90.2798 265.385 93.0368 283.371 98.5398 297.428C101.354 304.478 104.838 310.664 109.783 315.665C114.576 320.568 121.555 324.387 129.33 324.387H129.539C138.622 324.345 146.494 319.776 153.084 313.297C159.743 306.693 165.762 297.735 171.822 285.809C183.566 262.418 193.262 241.813 201.204 223.924C201.386 246.229 203.503 262.459 208.086 274.747C210.482 281.128 213.672 286.603 218.424 290.881C223.106 295.199 229.666 297.707 235.852 297.623C252.571 296.844 264.12 285.768 276.938 271.612C289.504 257.095 302.196 237.73 314.276 215.968C331.231 185.304 342.78 141.196 342.821 107.996C342.891 103.287 342.655 98.5779 342.153 93.9109C360.766 117.943 373.36 147.102 377.317 179.424C378.221 186.641 378.639 193.816 378.655 200.921C378.652 287.813 313.771 363.129 225.332 373.968ZM402.238 176.373C394.017 109.458 353.615 54.4139 298.445 24.7389C296.523 23.6529 294.531 22.6079 292.468 21.6459C265.663 8.36886 235.64 0.984863 204.28 0.984863C196.172 0.984863 187.952 1.47286 179.676 2.50386C78.5168 14.9449 4.34375 100.988 4.34375 200.462C4.34375 208.57 4.83075 216.777 5.84775 225.066C18.2887 326.239 104.332 400.398 203.82 400.412C211.929 400.412 220.12 399.896 228.368 398.893H228.382C329.583 386.453 403.755 300.395 403.755 200.922C403.756 192.798 403.242 184.62 402.238 176.373Z" fill="black"/>
<path d="M225.332 373.968C218.088 374.873 210.898 375.291 203.821 375.291C116.928 375.291 41.6127 310.453 30.7737 221.985C29.8677 214.713 29.4358 207.551 29.4358 200.46C29.4358 113.581 94.3028 38.2519 182.77 27.4269C190 26.5209 197.162 26.0899 204.281 26.0899C230.473 26.0899 255.619 32.0249 278.258 42.6959L278.244 42.7379C279.707 43.3649 281.086 44.0479 282.467 44.7169C283.108 45.0509 283.748 45.3849 284.389 45.7199C286.118 46.6539 287.76 47.6289 289.321 48.6459C216.305 49.7049 157.665 75.2839 156.774 75.5899L166.792 98.6199C166.806 98.6199 170.079 97.1849 176.53 94.8579C195.853 87.8079 241.814 73.6259 293.572 73.6679C299.437 73.6539 305.386 73.9049 311.377 74.3089C315.625 84.0609 317.549 95.3179 317.744 107.997C317.799 135.22 307.699 176.151 292.318 203.793C280.851 224.495 268.773 242.718 257.976 255.173C247.415 268.004 237.021 273.299 235.851 272.532C235.699 272.476 235.642 272.504 235.628 272.504C235.56 272.504 235.628 272.532 235.142 272.17C234.165 271.459 231.337 267.308 229.47 258.739C227.507 250.283 226.267 237.8 226.281 221.291C226.281 206.815 227.215 189.206 229.248 168.224C230.404 156.229 231.799 147.159 232.912 141.155C233.65 138.634 236.326 128.992 237.594 126.443C233.024 124.91 219.803 121.706 214.076 119.992C211.931 125.426 209.896 130.762 208.49 135.206C206.623 141.628 203.335 151.966 198.153 165.577C188.986 189.986 173.758 226.027 149.378 274.51C144.195 284.848 139.264 291.702 135.487 295.395C131.6 299.17 129.594 299.323 129.539 299.282C129.455 299.226 129.246 299.505 127.574 297.93C122.196 293.457 114.952 271.975 115.342 244.891C115.315 216.861 121.57 182.505 136.561 150.851L113.866 140.11C97.0928 175.678 90.2518 213.238 90.2238 244.891C90.2798 265.385 93.0368 283.371 98.5398 297.428C101.354 304.478 104.838 310.664 109.783 315.665C114.576 320.568 121.555 324.387 129.33 324.387H129.539C138.622 324.345 146.494 319.776 153.084 313.297C159.743 306.693 165.762 297.735 171.822 285.809C183.566 262.418 193.262 241.813 201.204 223.924C201.386 246.229 203.503 262.459 208.086 274.747C210.482 281.128 213.672 286.603 218.424 290.881C223.106 295.199 229.666 297.707 235.852 297.623C252.571 296.844 264.12 285.768 276.938 271.612C289.504 257.095 302.196 237.73 314.276 215.968C331.231 185.304 342.78 141.196 342.821 107.996C342.891 103.287 342.655 98.5779 342.153 93.9109C360.766 117.943 373.36 147.102 377.317 179.424C378.221 186.641 378.639 193.816 378.655 200.921C378.652 287.813 313.771 363.129 225.332 373.968ZM402.238 176.373C394.017 109.458 353.615 54.4139 298.445 24.7389C296.523 23.6529 294.531 22.6079 292.468 21.6459C265.663 8.36886 235.64 0.984863 204.28 0.984863C196.172 0.984863 187.952 1.47286 179.676 2.50386C78.5168 14.9449 4.34375 100.988 4.34375 200.462C4.34375 208.57 4.83075 216.777 5.84775 225.066C18.2887 326.239 104.332 400.398 203.82 400.412C211.929 400.412 220.12 399.896 228.368 398.893H228.382C329.583 386.453 403.755 300.395 403.755 200.922C403.756 192.798 403.242 184.62 402.238 176.373Z" stroke="black" stroke-width="0.25" stroke-miterlimit="1" stroke-linejoin="round"/>
</g>
<defs>
<filter id="filter0_d_54_13" x="0" y="0" width="408" height="409" filterUnits="userSpaceOnUse" color-interpolation-filters="sRGB">
<feFlood flood-opacity="0" result="BackgroundImageFix"/>
<feColorMatrix in="SourceAlpha" type="matrix" values="0 0 0 0 0 0 0 0 0 0 0 0 0 0 0 0 0 0 127 0" result="hardAlpha"/>
<feOffset dy="4"/>
<feGaussianBlur stdDeviation="2"/>
<feComposite in2="hardAlpha" operator="out"/>
<feColorMatrix type="matrix" values="0 0 0 0 0 0 0 0 0 0 0 0 0 0 0 0 0 0 0.25 0"/>
<feBlend mode="normal" in2="BackgroundImageFix" result="effect1_dropShadow_54_13"/>
<feBlend mode="normal" in="SourceGraphic" in2="effect1_dropShadow_54_13" result="shape"/>
</filter>
<clipPath id="clip0_54_13">
<rect width="400" height="401" fill="white" transform="translate(4)"/>
</clipPath>
</defs>
</svg>
