<?xml version="1.0" encoding="utf-8"?>
<!-- Generator: Adobe Illustrator 26.4.1, SVG Export Plug-In . SVG Version: 6.00 Build 0)  -->
<svg version="1.1" id="Layer_1" xmlns="http://www.w3.org/2000/svg" xmlns:xlink="http://www.w3.org/1999/xlink" x="0px" y="0px"
	 viewBox="0 0 1354 432" style="enable-background:new 0 0 1354 432;" xml:space="preserve">
<style type="text/css">
	.st0{fill:#357C8E;}
	.st1{fill:#4DB0B2;}
	.st2{fill:#6AC2C0;}
	.st3{fill:#EEBA44;}
	.st4{fill:#E68549;}
	.st5{fill:#E1564F;}
	.st6{opacity:0;fill:none;stroke:#000000;}
</style>
<defs>
	<clipPath id="clip-path-red">
		<circle fill="red" r="0" cx="1" cy="12.5">
			<animate
				attributeName="r"
				from="0"
				to="1500"
				begin="0s"
				dur="3s"
				repeatCount="1"
				fill="freeze"
			/>
		</circle>
	</clipPath>
	<clipPath id="clip-path-orange">
		<circle fill="red" r="0" cx="50" cy="12.5">
			<animate
				attributeName="r"
				from="0"
				to="1500"
				begin="1s"
				dur="3s"
				repeatCount="1"
				fill="freeze"
			/>
		</circle>
	</clipPath>
	<clipPath id="clip-path-yellow">
		<circle fill="red" r="0" cx="100" cy="12.5">
			<animate
				attributeName="r"
				from="0"
				to="1500"
				begin="2s"
				dur="3s"
				repeatCount="1"
				fill="freeze"
			/>
		</circle>
	</clipPath>
	<clipPath id="clip-path-blue-light">
		<circle fill="red" r="0" cx="150" cy="12.5">
			<animate
				attributeName="r"
				from="0"
				to="1500"
				begin="3s"
				dur="3s"
				repeatCount="1"
				fill="freeze"
			/>
		</circle>
	</clipPath>
	<clipPath id="clip-path-blue-medium">
		<circle fill="red" r="0" cx="200" cy="12.5">
			<animate
				attributeName="r"
				from="0"
				to="1500"
				begin="3s"
				dur="4s"
				repeatCount="1"
				fill="freeze"
			/>
		</circle>
	</clipPath>
	<clipPath id="clip-path-blue">
		<circle fill="red" r="0" cx="250" cy="12.5">
			<animate
				attributeName="r"
				from="0"
				to="1500"
				begin="3s"
				dur="5s"
				repeatCount="1"
				fill="freeze"
			/>
		</circle>
	</clipPath>
</defs>

<path clip-path="url(#clip-path-blue)" class="st0"
		d="M1319.4,384.6V248.8c0-32.3,0-54.9-2.2-71.4c-2.1-16.3-5.9-23.1-10.4-26.9c-5.1-4.3-14.5-8-34.9-9.9
	c-20.1-1.9-47.2-1.9-85-1.9H227.1v-34.6h960.7c36.6,0,65.4,0,87.3,2.1c21.7,2.1,40.4,6.4,54.1,18c14.2,12.1,19.8,29.3,22.3,48.8
	c2.5,19,2.5,43.9,2.5,74.6v137.1H1319.4z" />
<path clip-path="url(#clip-path-blue-medium)" class="st1"
		d="M1274,384.6V228.4c0-32.3,0-54.9-2.2-71.4c-2.1-16.3-5.9-23.1-10.4-26.9c-5.1-4.3-14.5-8-34.9-9.9
	c-20.1-1.9-47.2-1.9-85-1.9H181.7V83.7h960.7c36.6,0,65.4,0,87.3,2.1c21.7,2.1,40.4,6.4,54.1,18c14.2,12.1,19.8,29.3,22.3,48.8
	c2.5,19,2.5,43.9,2.5,74.6v157.5H1274z" />
<path clip-path="url(#clip-path-blue-light)" class="st2"
		d="M1228.7,384.6V207.9c0-32.3,0-54.9-2.2-71.4c-2.1-16.3-5.9-23.1-10.4-26.9c-5.1-4.3-14.5-8-34.9-9.9
	c-20.1-1.9-47.2-1.9-85-1.9H136.3V63.2h960.7c36.6,0,65.4,0,87.3,2.1c21.8,2.1,40.4,6.4,54.1,18c14.2,12.1,19.8,29.3,22.3,48.7
	c2.5,19,2.5,43.9,2.5,74.6v178H1228.7z" />
<path clip-path="url(#clip-path-yellow)" class="st3"
		d="M1183.3,384.6V187.2c0-32.3,0-54.8-2.2-71.3c-2.1-16.3-6-23-10.4-26.8c-5.1-4.3-14.5-8-34.9-9.9
	c-20.1-1.9-47.2-1.9-85-1.9H91.5V42.8h960.3c36.6,0,65.4,0,87.2,2.1c21.7,2.1,40.4,6.4,54,17.9c14.2,12.1,19.8,29.2,22.3,48.7
	c2.5,19,2.5,43.8,2.5,74.5v198.7H1183.3z" />
<path clip-path="url(#clip-path-orange)" class="st4"
		d="M1137.9,384.6V165.9c0-32.3,0-54.9-2.2-71.4c-2.1-16.3-5.9-23.1-10.5-26.9c-5.1-4.3-14.5-8-34.9-9.9
	c-20.1-1.9-47.2-1.9-85.1-1.9H45V21.2h961.2c36.7,0,65.4,0,87.3,2.1c21.8,2.1,40.4,6.4,54.1,18c14.2,12.1,19.8,29.3,22.3,48.8
	c2.5,19,2.5,43.9,2.5,74.6v220.1H1137.9z" />

<path clip-path="url(#clip-path-red)" class="st5" d="M1092.6,384.6V145.4c0-32.3,0-54.9-2.2-71.4c-2.1-16.3-6-23.1-10.4-26.9c-5.1-4.3-14.5-8-34.9-9.9
	c-20.1-1.9-47.2-1.9-85-1.9H0.2V0.7H961c36.6,0,65.4,0,87.3,2.1c21.8,2.1,40.4,6.4,54.1,18c14.2,12.1,19.8,29.3,22.3,48.8
	c2.5,19,2.5,43.9,2.5,74.6v240.5H1092.6z"/>

<path clip-path="url(#clip-path-blue)" class="st0"
		d="M1336.5,431.7L1336.5,431.7c9.6,0,17.4-7.8,17.4-17.4v0c0-9.6-7.8-17.4-17.4-17.4h0c-9.6,0-17.4,7.8-17.4,17.4
	v0C1319.1,423.9,1326.9,431.7,1336.5,431.7z" />
<path clip-path="url(#clip-path-blue-medium)" class="st1"
		d="M1291.2,431.7L1291.2,431.7c9.6,0,17.4-7.8,17.4-17.4v0c0-9.6-7.8-17.4-17.4-17.4h0c-9.6,0-17.4,7.8-17.4,17.4
	v0C1273.7,423.9,1281.5,431.7,1291.2,431.7z" />
<path clip-path="url(#clip-path-blue-light)" class="st2"
		d="M1245.8,431.7L1245.8,431.7c9.6,0,17.4-7.8,17.4-17.4v0c0-9.6-7.8-17.4-17.4-17.4h0c-9.6,0-17.4,7.8-17.4,17.4
	v0C1228.4,423.9,1236.2,431.7,1245.8,431.7z" />
<path clip-path="url(#clip-path-yellow)" class="st3"
		d="M1200.4,431.7L1200.4,431.7c9.6,0,17.4-7.8,17.4-17.4v0c0-9.6-7.8-17.4-17.4-17.4h0c-9.6,0-17.4,7.8-17.4,17.4
	v0C1183,423.9,1190.8,431.7,1200.4,431.7z" />
<path clip-path="url(#clip-path-orange)" class="st4"
		d="M1155.1,431.7L1155.1,431.7c9.6,0,17.4-7.8,17.4-17.4v0c0-9.6-7.8-17.4-17.4-17.4h0c-9.6,0-17.4,7.8-17.4,17.4
	v0C1137.7,423.9,1145.5,431.7,1155.1,431.7z" />
<path clip-path="url(#clip-path-red)" class="st5"
		d="M1109.7,431.7L1109.7,431.7c9.6,0,17.4-7.8,17.4-17.4v0c0-9.6-7.8-17.4-17.4-17.4h0c-9.6,0-17.4,7.8-17.4,17.4
	v0C1092.3,423.9,1100.1,431.7,1109.7,431.7z" />

<path class="st6" d="M45.6,37.2H1068c83.9,0,87.1,29.5,87.1,75.9v318.8"/>
<path class="st6" d="M91,61.2h1022.4c83.9,0,87.1,29.5,87.1,75.9v294.6"/>
<path class="st6" d="M136.4,85.2h1022.4c83.9,0,87.1,29.5,87.1,75.9v270.6"/>
<path class="st6" d="M181.7,101.2h1022.4c83.9,0,87.1,29.5,87.1,75.9v254.8"/>
<path class="st6" d="M227.1,125.2h1022.4c83.9,0,87.1,29.5,87.1,75.9v230.7"/>

</svg>
