<?xml version="1.0" encoding="utf-8"?>
<!-- Generator: Adobe Illustrator 25.0.0, SVG Export Plug-In . SVG Version: 6.00 Build 0)  -->
<svg version="1.1" id="Layer_1" xmlns="http://www.w3.org/2000/svg" xmlns:xlink="http://www.w3.org/1999/xlink" x="0px" y="0px"
	 viewBox="0 0 221 259" style="enable-background:new 0 0 221 259;" xml:space="preserve">
<style type="text/css">
	.st0{fill:#0098AF;}
	.st1{fill:#00A9C3;}
</style>
<path class="st0" d="M71.5,251.8l2.4-0.7l57.6-67.7L71.5,251.8z M69,252.4l2.5-0.7l57.8-68.2L69,252.4z M66.5,253.1l2.5-0.7l58-68.8
	L66.5,253.1z"/>
<path class="st1" d="M105.3,0L43.8,27l-1.1,85.1L105.3,0z M42.7,112.1L0,178.9l104.8,5.6L42.7,112.1z"/>
<path class="st0" d="M63.9,253.8l2.6-0.7l58.3-69.4L63.9,253.8z M128.4,15.8l2,91.4l0-89.9L128.4,15.8z M61.3,254.5l2.6-0.7l58.5-70
	L61.3,254.5z M129.3,183.5l-57.8,68.2l60-68.3L129.3,183.5z M126.3,14.4l2,92.2l0.1-90.7L126.3,14.4z M130.4,107.2l2.1,0.6
	l-2.1-90.6L130.4,107.2z M58.7,255.2l2.7-0.7l58.8-70.6L58.7,255.2z"/>
<path class="st1" d="M0,178.9L44.6,259l60.1-74.5L0,178.9z"/>
<path class="st0" d="M127.1,183.6l-58,68.8l60.3-68.9L127.1,183.6z M124.1,12.9l1.9,93l0.2-91.5L124.1,12.9z M128.2,106.5l2.2,0.6
	l-2-91.4L128.2,106.5z M56,255.9l2.7-0.7l59-71.2L56,255.9z M124.8,183.7l-58.3,69.4l60.6-69.5L124.8,183.7z M121.9,11.4l1.8,93.8
	l0.4-92.3L121.9,11.4z M126,105.9l2.2,0.7l-2-92.2L126,105.9z M53.2,256.7l2.8-0.7l59.2-71.8L53.2,256.7z M122.5,183.8l-58.5,70
	l60.8-70.1L122.5,183.8z M119.7,9.8l1.8,94.7l0.5-93.2L119.7,9.8z M123.8,105.2l2.3,0.7l-1.9-93L123.8,105.2z M50.4,257.4l2.8-0.8
	l59.5-72.5L50.4,257.4z M120.1,183.9l-58.8,70.6l61.1-70.7L120.1,183.9z M117.4,8.3l1.7,95.6l0.6-94L117.4,8.3z M121.5,104.6
	l2.3,0.7l-1.8-93.8L121.5,104.6z M47.5,258.2l2.9-0.8l59.7-73.1L47.5,258.2z M117.7,184l-59,71.2l61.4-71.3L117.7,184z M115.1,6.7
	l1.6,96.5l0.7-94.9L115.1,6.7z M119.1,103.9l2.4,0.7l-1.8-94.7L119.1,103.9z"/>
<path class="st1" d="M106.6,100.2L105.3,0L42.7,112.1L106.6,100.2z"/>
<path class="st0" d="M44.6,259l2.9-0.8l59.9-73.8L44.6,259z M115.2,184.1L56,255.9l61.7-71.9L115.2,184.1z M112.7,5.1l1.5,97.4
	l0.8-95.8L112.7,5.1z M116.7,103.2l2.4,0.7l-1.7-95.6L116.7,103.2z M112.7,184.2l-59.5,72.5l62-72.6L112.7,184.2z M110.3,3.4
	l1.5,98.3l1-96.7L110.3,3.4z M114.3,102.4l2.4,0.7l-1.6-96.5L114.3,102.4z"/>
<path class="st1" d="M104.8,184.5l1.8-84.3l-63.9,11.9L104.8,184.5z"/>
<path class="st0" d="M110.1,184.3l-59.7,73.1l62.3-73.2L110.1,184.3z M107.8,1.7l1.4,99.2l1.1-97.6L107.8,1.7z M111.8,101.7l2.5,0.7
	l-1.5-97.4L111.8,101.7z M107.5,184.4l-59.9,73.8l62.6-73.9L107.5,184.4z M105.3,0l1.3,100.2l1.2-98.5L105.3,0z M109.2,101l2.5,0.7
	l-1.5-98.3L109.2,101z M104.8,184.5L44.6,259l62.8-74.6L104.8,184.5z M106.6,100.2l2.6,0.8l-1.4-99.2L106.6,100.2z M214.1,93.9
	l5.1,91.6l-3.5-90.7L214.1,93.9z"/>
<path class="st1" d="M104.8,184.5l95.9,2.5l-94.1-86.8L104.8,184.5z"/>
<path class="st0" d="M219.2,185.5l1.6-0.1l-5.1-90.6L219.2,185.5z M212.5,93l5.1,92.7l-3.5-91.8L212.5,93z M217.6,185.7l1.7-0.1
	l-5.1-91.6L217.6,185.7z M210.8,92l5.1,93.8L212.5,93L210.8,92z M215.9,185.8l1.7-0.1L212.5,93L215.9,185.8z M209,91.1l5.1,94.9
	L210.8,92L209,91.1z M214.2,185.9l1.7-0.1L210.8,92L214.2,185.9z M207.3,90.1l5.1,96l-3.3-95L207.3,90.1z M212.4,186.1l1.8-0.1
	L209,91.1L212.4,186.1z M205.4,89.1l5.1,97.1l-3.3-96.1L205.4,89.1z"/>
<path class="st1" d="M200.7,187l-5-103.4l-89,16.5L200.7,187z"/>
<path class="st0" d="M210.5,186.2l1.8-0.1l-5.1-96L210.5,186.2z M203.6,88.1l5.1,98.3l-3.2-97.3L203.6,88.1z M208.7,186.4l1.9-0.2
	l-5.1-97.1L208.7,186.4z M201.7,87l5.1,99.5l-3.2-98.5L201.7,87z M206.8,186.5l1.9-0.2l-5.1-98.3L206.8,186.5z M199.7,85.9
	l5.1,100.8L201.7,87L199.7,85.9z M204.8,186.7l2-0.2L201.7,87L204.8,186.7z M197.7,84.8l5.1,102.1l-3.1-100.9L197.7,84.8z
	 M202.8,186.9l2-0.2l-5.1-100.8L202.8,186.9z M195.7,83.7l5,103.4l-3-102.2L195.7,83.7z M200.7,187l2.1-0.2l-5.1-102.1L200.7,187z"
	/>
</svg>
