<?xml version="1.0" encoding="utf-8"?>
<!-- Generator: Adobe Illustrator 25.0.0, SVG Export Plug-In . SVG Version: 6.00 Build 0)  -->
<svg version="1.1" id="Layer_1" xmlns="http://www.w3.org/2000/svg" xmlns:xlink="http://www.w3.org/1999/xlink" x="0px" y="0px"
	 viewBox="0 0 175.1 144.5" style="enable-background:new 0 0 175.1 144.5;" xml:space="preserve">
<style type="text/css">
	.st0{fill:#E6E8EB;stroke:#E6E8EB;stroke-width:3;}
	.st1{fill:#E6E8EB;}
    .st0,
    .st1 {
        filter: drop-shadow( 0 0 2px #e6e8eb);
    }
</style>
<path class="st0" d="M29.3,56.5L29.3,56.5c6.6-5.4,13.6-10.2,21.1-14.2c7.6-4,15.5-7.1,23.9-8.9c4-0.8,8.1-1.3,12.2-1.5
	c11-0.3,21.5,2.1,31.7,6.4l0,0c10,4.2,19.1,10,27.7,16.7c4.9,3.9,9.7,8.1,14.1,12.6c1.1,1.1,2.1,2.2,3.2,3.4
	c-0.1,0.2-0.3,0.3-0.4,0.5l-0.1,0.1c-0.4,0.5-0.8,0.9-1.2,1.3c-7.5,7.9-15.8,15-24.8,21.1c-9.1,6.1-18.7,11.1-29.2,14.1
	c-5.6,1.6-11.3,2.6-17,2.8l0,0c-8.4,0.4-16.6-0.9-24.6-3.4C55.5,104.3,46,99.3,37,93c-8.8-6.1-16.8-13.1-24-21
	c0.2-0.2,0.3-0.3,0.4-0.5C18.3,66.1,23.6,61.1,29.3,56.5z M115.3,72.2L115.3,72.2V72c0-0.2,0-0.6-0.1-0.9c-0.1-0.8-0.1-1.7-0.3-2.6
	c-0.9-6.2-3.5-11.6-8-15.9l0,0c-6.6-6.4-14.6-9-23.7-7.7l0,0c-5.6,0.8-10.5,3.2-14.6,7.2l0,0c-5.5,5.5-8.1,12.4-7.9,20.1
	c0.1,7.8,3.1,14.4,8.8,19.7l0,0c6.3,5.9,13.9,8.3,22.5,7.2c5.6-0.7,10.6-3,14.7-6.8C112.6,87,115.2,80.2,115.3,72.2z M23.6,70
	l-1.1,1.1l1.1,1.1c10.9,10.5,22.8,19.3,36.7,25.3l1.8-2.3c-6.1-7.3-9-15.6-8.4-25.1c0.6-9.5,4.7-17.3,11.6-23.8l-1.6-2.5
	C48.4,49.6,35.4,58.9,23.6,70z M112.1,96.2l1.6,2.4c14.7-5.9,27.2-14.9,38.6-25.7l1.1-1.1l-1.1-1.1c-11.3-10.8-23.7-19.9-38.2-25.9
	l-1.7,2.4c6.5,6.9,9.9,15,9.9,24.5C122.4,81.3,118.8,89.4,112.1,96.2z"/>
<path class="st1" d="M120.8,140.3c0-3.1,0-6.1,0-9.3c0.3,0,0.5,0,0.8,0c0-0.2,0-0.5,0.1-0.8c8.1,0,16.3,0,24.6,0
	c0-8.1,0-16.2,0-24.3c0.3,0,0.5,0,0.8,0c0-0.3,0-0.5,0.1-0.8c3.1,0,6.1,0,9.2,0c0,11.5,0,22.9,0,34.4c-0.3,0-0.5,0-0.8,0
	c0,0.3,0,0.6,0,0.8C143.9,140.3,132.4,140.3,120.8,140.3z"/>
<path class="st1" d="M20.2,140.3c0-11.4,0-22.9,0-34.4c0.3,0,0.5,0,0.8-0.1c0-0.3,0-0.5,0-0.8c3.1,0,6.1,0,9.2,0
	c0,8.4,0,16.7,0,25.1c8.3,0,16.7,0,25,0c0,3.1,0,6.2,0,9.3c-0.3,0-0.5,0-0.8,0.1c0,0.3,0,0.6,0,0.8C43,140.3,31.6,140.3,20.2,140.3z
	"/>
<path class="st1" d="M156.3,3.3c0,11.6,0,23.2,0,34.8c-0.3,0-0.5,0-0.8,0.1c0.2,0.9-0.4,0.8-0.9,0.8c-2.5,0-5,0-7.6,0
	c-0.2,0-0.4,0-0.7,0c0-8.5,0-17,0-25.6c-8.5,0-16.9,0-25.4,0c0-3.1,0-6.2,0-9.3c0.2,0,0.5,0,0.7,0c0-0.3,0-0.5,0.1-0.8
	C133.2,3.3,144.7,3.3,156.3,3.3z"/>
<path class="st1" d="M20.2,4.2c0.3,0,0.5,0,0.7,0c0-0.3,0-0.5,0.1-0.8c11.4,0,22.8,0,34.2,0c0,3.1,0,6.1,0,9.3c-0.3,0-0.5,0-0.8,0.1
	c0,0.2,0,0.5,0,0.8c-8,0-16,0-24.1,0c0,8.3,0,16.5,0,24.7c-0.3,0-0.6,0-0.8,0.1c-0.2,0.8-0.2,0.8-1.1,0.8c-2.5,0-5,0-7.5,0
	c-0.2,0-0.4,0-0.6,0C20.2,27.4,20.2,15.8,20.2,4.2z"/>
<path class="st0" d="M88.6,75.9L88.6,75.9L88.6,75.9c0.7,0,1.3-0.2,1.9-0.5c0.6-0.4,1-1,1.2-1.6l0,0l0,0c0.8-2.7-1.2-5.5-4.1-5.5
	c-0.7,0-1.4,0.1-2,0.5s-1,1-1.2,1.7C83.6,73.1,85.7,76,88.6,75.9z M77.1,73.1c0-3.9,1.3-6.4,3.6-8.8c2.2-2.3,4.8-3.4,7.9-3.4
	C94.5,60.9,99.3,66,99,72c-0.2,3.3-1.7,6-4.4,8.3c-5.2,4.6-13.2,3.2-16.4-3C77.4,75.7,77.1,74.2,77.1,73.1z"/>
</svg>
