<svg width="1896" height="767" viewBox="0 0 1896 767" fill="none" xmlns="http://www.w3.org/2000/svg">
<g opacity="0.5" filter="url(#filter0_f)">
<path fill-rule="evenodd" clip-rule="evenodd" d="M684.063 604.805C871.886 580.608 1097.08 531.523 1250.39 592.008C1404.32 652.733 1306.87 782.436 1371.74 876.104C1439.49 973.929 1700.97 1049.98 1635.6 1148.23C1569.98 1246.84 1294.29 1250.55 1100.78 1283.31C964.615 1306.37 826.947 1302.83 684.063 1309.34C522.29 1316.71 348.86 1366.62 209.6 1323.92C69.5994 1280.99 79.847 1177.49 8.97635 1102.33C-77.7217 1010.4 -321.644 930.507 -251.492 834.955C-180.353 738.059 110.603 760.23 293.104 715.334C430.665 681.493 536.02 623.877 684.063 604.805Z" fill="#00A9C3"/>
</g>
<g filter="url(#filter1_d)">
<rect x="1240.79" y="324.429" width="30.4408" height="30.4408" rx="9" transform="rotate(60 1240.79 324.429)" stroke="#FC12AF" stroke-width="2"/>
</g>
<g filter="url(#filter2_d)">
<rect x="506.945" y="322.366" width="33" height="33" rx="6" transform="rotate(60 506.945 322.366)" stroke="#AC48BC" stroke-width="2"/>
</g>
<g filter="url(#filter3_d)">
<rect x="615.181" y="503.414" width="19.4687" height="19.4687" rx="6" transform="rotate(45 615.181 503.414)" stroke="#00A9C3" stroke-width="2"/>
</g>
<g filter="url(#filter4_d)">
<rect x="1266.93" y="11.4142" width="43.1593" height="43.1593" rx="9" transform="rotate(45 1266.93 11.4142)" stroke="#01042F" stroke-width="2"/>
</g>
<defs>
<filter id="filter0_f" x="-514" y="313" width="2410" height="1278" filterUnits="userSpaceOnUse" color-interpolation-filters="sRGB">
<feFlood flood-opacity="0" result="BackgroundImageFix"/>
<feBlend mode="normal" in="SourceGraphic" in2="BackgroundImageFix" result="shape"/>
<feGaussianBlur stdDeviation="125" result="effect1_foregroundBlur"/>
</filter>
<filter id="filter1_d" x="1196.72" y="306.722" width="76.9978" height="76.9978" filterUnits="userSpaceOnUse" color-interpolation-filters="sRGB">
<feFlood flood-opacity="0" result="BackgroundImageFix"/>
<feColorMatrix in="SourceAlpha" type="matrix" values="0 0 0 0 0 0 0 0 0 0 0 0 0 0 0 0 0 0 127 0"/>
<feOffset/>
<feGaussianBlur stdDeviation="10"/>
<feColorMatrix type="matrix" values="0 0 0 0 0.988235 0 0 0 0 0.0705882 0 0 0 0 0.686275 0 0 0 1 0"/>
<feBlend mode="normal" in2="BackgroundImageFix" result="effect1_dropShadow"/>
<feBlend mode="normal" in="SourceGraphic" in2="effect1_dropShadow" result="shape"/>
</filter>
<filter id="filter2_d" x="457" y="301" width="87.8109" height="87.8109" filterUnits="userSpaceOnUse" color-interpolation-filters="sRGB">
<feFlood flood-opacity="0" result="BackgroundImageFix"/>
<feColorMatrix in="SourceAlpha" type="matrix" values="0 0 0 0 0 0 0 0 0 0 0 0 0 0 0 0 0 0 127 0"/>
<feOffset/>
<feGaussianBlur stdDeviation="10"/>
<feColorMatrix type="matrix" values="0 0 0 0 0.67451 0 0 0 0 0.282353 0 0 0 0 0.737255 0 0 0 1 0"/>
<feBlend mode="normal" in2="BackgroundImageFix" result="effect1_dropShadow"/>
<feBlend mode="normal" in="SourceGraphic" in2="effect1_dropShadow" result="shape"/>
</filter>
<filter id="filter3_d" x="582.899" y="484.899" width="64.5624" height="64.5624" filterUnits="userSpaceOnUse" color-interpolation-filters="sRGB">
<feFlood flood-opacity="0" result="BackgroundImageFix"/>
<feColorMatrix in="SourceAlpha" type="matrix" values="0 0 0 0 0 0 0 0 0 0 0 0 0 0 0 0 0 0 127 0"/>
<feOffset/>
<feGaussianBlur stdDeviation="10"/>
<feColorMatrix type="matrix" values="0 0 0 0 0.67451 0 0 0 0 0.282353 0 0 0 0 0.737255 0 0 0 1 0"/>
<feBlend mode="normal" in2="BackgroundImageFix" result="effect1_dropShadow"/>
<feBlend mode="normal" in="SourceGraphic" in2="effect1_dropShadow" result="shape"/>
</filter>
<filter id="filter4_d" x="1225" y="0" width="83.8649" height="83.8649" filterUnits="userSpaceOnUse" color-interpolation-filters="sRGB">
<feFlood flood-opacity="0" result="BackgroundImageFix"/>
<feColorMatrix in="SourceAlpha" type="matrix" values="0 0 0 0 0 0 0 0 0 0 0 0 0 0 0 0 0 0 127 0"/>
<feOffset/>
<feGaussianBlur stdDeviation="5"/>
<feColorMatrix type="matrix" values="0 0 0 0 0.988235 0 0 0 0 0.0705882 0 0 0 0 0.686275 0 0 0 1 0"/>
<feBlend mode="normal" in2="BackgroundImageFix" result="effect1_dropShadow"/>
<feBlend mode="normal" in="SourceGraphic" in2="effect1_dropShadow" result="shape"/>
</filter>
</defs>
</svg>
