<svg width="745" height="709" viewBox="0 0 745 709" fill="none" xmlns="http://www.w3.org/2000/svg">
<g opacity="0.5" filter="url(#filter0_f)">
<path fill-rule="evenodd" clip-rule="evenodd" d="M157.116 -255.369C216.604 -242.488 271.468 -230.899 319.064 -192.961C393.157 -133.902 504.758 -81.073 493.865 13.0494C482.731 109.259 370.398 162.287 275.635 182.296C202.229 197.796 145.649 132.91 77.7937 100.903C8.61423 68.2715 -79.2709 66.0406 -114.624 -1.78839C-161.25 -91.2443 -199.302 -220.405 -125.549 -289.229C-52.555 -357.344 59.5385 -276.496 157.116 -255.369Z" fill="#00A9C3"/>
</g>
<g filter="url(#filter1_d)">
<rect x="667.09" y="619.414" width="54.6959" height="54.6959" rx="9" transform="rotate(45 667.09 619.414)" stroke="#01042F" stroke-width="2"/>
</g>
<defs>
<filter id="filter0_f" x="-417" y="-566" width="1161.61" height="1000.65" filterUnits="userSpaceOnUse" color-interpolation-filters="sRGB">
<feFlood flood-opacity="0" result="BackgroundImageFix"/>
<feBlend mode="normal" in="SourceGraphic" in2="BackgroundImageFix" result="shape"/>
<feGaussianBlur stdDeviation="125" result="effect1_foregroundBlur"/>
</filter>
<filter id="filter1_d" x="617" y="608" width="100.18" height="100.18" filterUnits="userSpaceOnUse" color-interpolation-filters="sRGB">
<feFlood flood-opacity="0" result="BackgroundImageFix"/>
<feColorMatrix in="SourceAlpha" type="matrix" values="0 0 0 0 0 0 0 0 0 0 0 0 0 0 0 0 0 0 127 0"/>
<feOffset/>
<feGaussianBlur stdDeviation="5"/>
<feColorMatrix type="matrix" values="0 0 0 0 0.988235 0 0 0 0 0.0705882 0 0 0 0 0.686275 0 0 0 1 0"/>
<feBlend mode="normal" in2="BackgroundImageFix" result="effect1_dropShadow"/>
<feBlend mode="normal" in="SourceGraphic" in2="effect1_dropShadow" result="shape"/>
</filter>
</defs>
</svg>
