<svg width="30" height="30" viewBox="0 0 30 30" fill="none" xmlns="http://www.w3.org/2000/svg">
<g clip-path="url(#clip0)">
<path d="M19.8867 15.1537L30.0005 21.5475V8.49L19.8867 15.1537Z" fill="#00A9C3"/>
<path d="M0 8.49V21.5475L10.1138 15.1537L0 8.49Z" fill="#00A9C3"/>
<path d="M28.1251 4.6875H1.87515C0.939521 4.6875 0.197021 5.385 0.0563965 6.28313L15.0001 16.1287L29.9439 6.28313C29.8033 5.385 29.0608 4.6875 28.1251 4.6875Z" fill="#00A9C3"/>
<path d="M18.1683 16.2863L15.5152 18.0338C15.3577 18.1369 15.1796 18.1875 14.9996 18.1875C14.8196 18.1875 14.6414 18.1369 14.4839 18.0338L11.8308 16.2844L0.0595703 23.73C0.203945 24.6206 0.942695 25.3125 1.87457 25.3125H28.1246C29.0564 25.3125 29.7952 24.6206 29.9396 23.73L18.1683 16.2863Z" fill="#00A9C3"/>
</g>
<defs>
<clipPath id="clip0">
<rect width="30" height="30" fill="white"/>
</clipPath>
</defs>
</svg>
