<svg width="375" height="6021" viewBox="0 0 375 6021" fill="none" xmlns="http://www.w3.org/2000/svg">
<g filter="url(#filter0_d)">
<rect x="278.414" y="396.874" width="26.1066" height="26.1066" rx="4" transform="rotate(-45 278.414 396.874)" stroke="#AC48BC" stroke-width="2"/>
</g>
<g filter="url(#filter1_f)">
<rect x="28" y="504" width="24" height="24" rx="4" stroke="#00728F" stroke-width="2"/>
</g>
<g filter="url(#filter2_d)">
<rect x="338.5" y="22.0944" width="43" height="43" rx="9" transform="rotate(45 338.5 22.0944)" stroke="#FC12AF" stroke-width="2"/>
</g>
<g filter="url(#filter3_d)">
<rect x="0.0900879" y="142.414" width="54.6959" height="54.6959" rx="9" transform="rotate(45 0.0900879 142.414)" stroke="#01042F" stroke-width="2"/>
</g>
<circle cx="222.5" cy="865.5" r="123.5" fill="url(#paint0_linear)"/>
<g filter="url(#filter4_d)">
<path d="M343.564 678.23C234.356 539.214 467.671 577.609 597.98 614.184C543.617 606.128 435.811 604.082 439.483 660.346C444.074 730.676 965.469 1222.02 308.288 1031.33C-217.456 878.78 -390.289 995.803 -410.987 1073.38L-461 872.786C-452.785 668.08 -76.3558 802.456 109.926 845.717C296.208 888.979 480.074 852.001 343.564 678.23Z" fill="#AC48BC"/>
</g>
<g opacity="0.5" filter="url(#filter5_f)">
<path fill-rule="evenodd" clip-rule="evenodd" d="M268.663 414.088C345.464 404.197 437.546 384.134 500.236 408.857C563.176 433.677 523.331 486.692 549.856 524.978C577.558 564.963 684.478 596.049 657.747 636.206C630.916 676.513 518.186 678.029 439.061 691.421C383.382 700.845 327.089 699.397 268.663 702.058C202.514 705.071 131.599 725.472 74.6553 708.018C17.409 690.471 21.5992 648.167 -7.37982 617.448C-42.8307 579.869 -142.571 547.215 -113.885 508.159C-84.7965 468.554 34.1755 477.616 108.8 459.265C165.049 445.433 208.129 421.883 268.663 414.088Z" fill="#FC12AF"/>
</g>
<path fill-rule="evenodd" clip-rule="evenodd" d="M95 5997C95 5983.75 105.745 5973 119 5973C132.255 5973 143 5983.75 143 5997C143 6010.25 132.255 6021 119 6021C105.745 6021 95 6010.25 95 5997ZM121.502 6011.11V5998.05H125.106L125.584 5993.55H121.502L121.508 5991.3C121.508 5990.13 121.619 5989.5 123.305 5989.5H125.558V5985H121.953C117.623 5985 116.099 5987.18 116.099 5990.85V5993.56H113.4V5998.05H116.099V6011.11H121.502Z" fill="#00A9C3"/>
<path fill-rule="evenodd" clip-rule="evenodd" d="M279 5997C279 6010.25 268.255 6021 255 6021C241.745 6021 231 6010.25 231 5997C231 5983.75 241.745 5973 255 5973C268.255 5973 279 5983.75 279 5997ZM247.072 5994.8C244.667 5995.85 242.197 5996.93 239.938 5998.17C238.759 5999.04 240.326 5999.65 241.797 6000.22C242.031 6000.31 242.262 6000.4 242.48 6000.49C242.661 6000.55 242.845 6000.61 243.031 6000.67C244.667 6001.19 246.491 6001.77 248.079 6000.89C250.687 5999.4 253.149 5997.66 255.609 5995.93C256.415 5995.37 257.221 5994.8 258.031 5994.24C258.069 5994.22 258.112 5994.19 258.159 5994.16C258.849 5993.71 260.402 5992.7 259.828 5994.09C258.469 5995.58 257.014 5996.89 255.551 5998.21C254.565 5999.1 253.576 6000 252.61 6000.95C251.769 6001.63 250.895 6003.01 251.837 6003.97C254.007 6005.49 256.211 6006.97 258.413 6008.45C259.13 6008.93 259.847 6009.41 260.562 6009.9C261.774 6010.86 263.669 6010.08 263.935 6008.57C264.054 6007.87 264.173 6007.18 264.292 6006.48C264.949 6002.64 265.607 5998.79 266.188 5994.93C266.267 5994.33 266.356 5993.72 266.446 5993.12C266.663 5991.65 266.881 5990.18 266.949 5988.71C266.774 5987.24 264.989 5987.56 263.995 5987.89C258.89 5989.83 253.836 5991.92 248.802 5994.04C248.232 5994.3 247.654 5994.55 247.072 5994.8Z" fill="#00A9C3"/>
<path fill-rule="evenodd" clip-rule="evenodd" d="M163 5997C163 5983.75 173.745 5973 187 5973C200.255 5973 211 5983.75 211 5997C211 6010.25 200.255 6021 187 6021C173.745 6021 163 6010.25 163 5997ZM186.281 5992.51L186.332 5993.34L185.492 5993.24C182.437 5992.85 179.768 5991.52 177.501 5989.3L176.393 5988.2L176.108 5989.02C175.504 5990.83 175.89 5992.74 177.149 5994.03C177.82 5994.74 177.669 5994.85 176.511 5994.42C176.108 5994.29 175.755 5994.19 175.722 5994.24C175.604 5994.35 176.007 5995.9 176.326 5996.51C176.763 5997.35 177.652 5998.19 178.626 5998.68L179.449 5999.07L178.475 5999.08C177.535 5999.08 177.501 5999.1 177.602 5999.46C177.938 6000.56 179.264 6001.73 180.741 6002.24L181.782 6002.59L180.876 6003.13C179.533 6003.91 177.955 6004.35 176.377 6004.39C175.621 6004.41 175 6004.47 175 6004.52C175 6004.69 177.048 6005.64 178.24 6006.02C181.816 6007.12 186.063 6006.64 189.253 6004.76C191.519 6003.42 193.785 6000.76 194.843 5998.19C195.414 5996.81 195.984 5994.3 195.984 5993.1C195.984 5992.32 196.035 5992.22 196.975 5991.29C197.529 5990.74 198.049 5990.15 198.15 5989.98C198.318 5989.66 198.301 5989.66 197.445 5989.95C196.018 5990.46 195.817 5990.39 196.522 5989.63C197.042 5989.08 197.663 5988.1 197.663 5987.81C197.663 5987.76 197.411 5987.85 197.126 5988C196.824 5988.17 196.152 5988.42 195.649 5988.58L194.742 5988.86L193.92 5988.3C193.466 5988 192.828 5987.66 192.493 5987.56C191.636 5987.32 190.327 5987.36 189.555 5987.63C187.456 5988.39 186.13 5990.36 186.281 5992.51Z" fill="#00A9C3"/>
<defs>
<filter id="filter0_d" x="259.071" y="359.071" width="75.6066" height="75.6066" filterUnits="userSpaceOnUse" color-interpolation-filters="sRGB">
<feFlood flood-opacity="0" result="BackgroundImageFix"/>
<feColorMatrix in="SourceAlpha" type="matrix" values="0 0 0 0 0 0 0 0 0 0 0 0 0 0 0 0 0 0 127 0"/>
<feOffset/>
<feGaussianBlur stdDeviation="10"/>
<feColorMatrix type="matrix" values="0 0 0 0 0.67451 0 0 0 0 0.282353 0 0 0 0 0.737255 0 0 0 1 0"/>
<feBlend mode="normal" in2="BackgroundImageFix" result="effect1_dropShadow"/>
<feBlend mode="normal" in="SourceGraphic" in2="effect1_dropShadow" result="shape"/>
</filter>
<filter id="filter1_f" x="22" y="498" width="36" height="36" filterUnits="userSpaceOnUse" color-interpolation-filters="sRGB">
<feFlood flood-opacity="0" result="BackgroundImageFix"/>
<feBlend mode="normal" in="SourceGraphic" in2="BackgroundImageFix" result="shape"/>
<feGaussianBlur stdDeviation="2.5" result="effect1_foregroundBlur"/>
</filter>
<filter id="filter2_d" x="286.68" y="0.680176" width="103.64" height="103.64" filterUnits="userSpaceOnUse" color-interpolation-filters="sRGB">
<feFlood flood-opacity="0" result="BackgroundImageFix"/>
<feColorMatrix in="SourceAlpha" type="matrix" values="0 0 0 0 0 0 0 0 0 0 0 0 0 0 0 0 0 0 127 0"/>
<feOffset/>
<feGaussianBlur stdDeviation="10"/>
<feColorMatrix type="matrix" values="0 0 0 0 0.988235 0 0 0 0 0.0705882 0 0 0 0 0.686275 0 0 0 1 0"/>
<feBlend mode="normal" in2="BackgroundImageFix" result="effect1_dropShadow"/>
<feBlend mode="normal" in="SourceGraphic" in2="effect1_dropShadow" result="shape"/>
</filter>
<filter id="filter3_d" x="-50" y="131" width="100.18" height="100.18" filterUnits="userSpaceOnUse" color-interpolation-filters="sRGB">
<feFlood flood-opacity="0" result="BackgroundImageFix"/>
<feColorMatrix in="SourceAlpha" type="matrix" values="0 0 0 0 0 0 0 0 0 0 0 0 0 0 0 0 0 0 127 0"/>
<feOffset/>
<feGaussianBlur stdDeviation="5"/>
<feColorMatrix type="matrix" values="0 0 0 0 0.988235 0 0 0 0 0.0705882 0 0 0 0 0.686275 0 0 0 1 0"/>
<feBlend mode="normal" in2="BackgroundImageFix" result="effect1_dropShadow"/>
<feBlend mode="normal" in="SourceGraphic" in2="effect1_dropShadow" result="shape"/>
</filter>
<filter id="filter4_d" x="-561" y="480" width="1301" height="695" filterUnits="userSpaceOnUse" color-interpolation-filters="sRGB">
<feFlood flood-opacity="0" result="BackgroundImageFix"/>
<feColorMatrix in="SourceAlpha" type="matrix" values="0 0 0 0 0 0 0 0 0 0 0 0 0 0 0 0 0 0 127 0"/>
<feOffset/>
<feGaussianBlur stdDeviation="50"/>
<feColorMatrix type="matrix" values="0 0 0 0 0.678431 0 0 0 0 0.290196 0 0 0 0 0.741176 0 0 0 1 0"/>
<feBlend mode="normal" in2="BackgroundImageFix" result="effect1_dropShadow"/>
<feBlend mode="normal" in="SourceGraphic" in2="effect1_dropShadow" result="shape"/>
</filter>
<filter id="filter5_f" x="-369" y="147" width="1281" height="818" filterUnits="userSpaceOnUse" color-interpolation-filters="sRGB">
<feFlood flood-opacity="0" result="BackgroundImageFix"/>
<feBlend mode="normal" in="SourceGraphic" in2="BackgroundImageFix" result="shape"/>
<feGaussianBlur stdDeviation="125" result="effect1_foregroundBlur"/>
</filter>
<linearGradient id="paint0_linear" x1="222.5" y1="742" x2="222.5" y2="989" gradientUnits="userSpaceOnUse">
<stop stop-color="#23275E"/>
<stop offset="0.296875" stop-color="#01042F"/>
<stop offset="1"/>
</linearGradient>
</defs>
</svg>
