<svg width="1920" height="6167" viewBox="0 0 1920 6167" fill="none" xmlns="http://www.w3.org/2000/svg">
<g filter="url(#filter0_f)">
<rect x="805.35" y="4655.41" width="56.4775" height="56.4775" rx="6" transform="rotate(45 805.35 4655.41)" stroke="#FC12AF" stroke-width="2"/>
</g>
<g filter="url(#filter1_f)">
<path d="M291.539 2799.76L-269.243 3360.54M495.955 3004.17L-64.8268 3564.96M121.192 2629.41L-439.59 3190.19M325.608 2833.83L-235.174 3394.61M530.024 3038.24L-30.7574 3599.02M155.261 2663.48L-405.521 3224.26M359.678 2867.9L-201.104 3428.68M564.094 3072.31L3.31194 3633.09M189.331 2697.55L-371.451 3258.33M393.747 2901.97L-167.035 3462.75M598.163 3106.38L37.3813 3667.16M223.4 2731.62L-337.382 3292.4M427.816 2936.03L-132.966 3496.82M632.233 3140.45L71.4507 3701.23M257.469 2765.69L-303.312 3326.47M461.886 2970.1L-98.8962 3530.89M615.879 3224.26L36.7 2645.08M411.463 3428.68L-167.716 2849.5M207.047 3633.09L-372.133 3053.91M581.81 3258.33L2.63059 2679.15M377.394 3462.75L-201.786 2883.57M172.977 3667.16L-406.202 3087.98M547.741 3292.4L-31.4388 2713.22M343.324 3496.82L-235.855 2917.64M138.908 3701.23L-440.271 3122.05M513.671 3326.47L-65.5082 2747.29M309.255 3530.89L-269.924 2951.71M479.602 3360.54L-99.5775 2781.36M275.186 3564.96L-303.994 2985.78M445.532 3394.61L-133.647 2815.43M241.116 3599.02L-338.063 3019.85" stroke="#00A9C3"/>
</g>
<g opacity="0.5" filter="url(#filter2_f)">
<path fill-rule="evenodd" clip-rule="evenodd" d="M1584.06 2826.81C1771.89 2802.61 1997.08 2753.52 2150.39 2814.01C2304.32 2874.73 2206.87 3004.44 2271.74 3098.1C2339.49 3195.93 2600.97 3271.98 2535.6 3370.23C2469.98 3468.84 2194.29 3472.55 2000.78 3505.31C1864.62 3528.37 1726.95 3524.83 1584.06 3531.34C1422.29 3538.71 1248.86 3588.62 1109.6 3545.92C969.599 3502.99 979.847 3399.49 908.976 3324.33C822.278 3232.4 578.356 3152.51 648.508 3056.95C719.647 2960.06 1010.6 2982.23 1193.1 2937.33C1330.67 2903.49 1436.02 2845.88 1584.06 2826.81Z" fill="#FC12AF"/>
</g>
<g opacity="0.5" filter="url(#filter3_f)">
<path fill-rule="evenodd" clip-rule="evenodd" d="M157.116 -255.369C216.604 -242.488 271.468 -230.899 319.064 -192.961C393.157 -133.902 504.758 -81.073 493.865 13.0494C482.731 109.259 370.398 162.287 275.635 182.296C202.229 197.796 145.649 132.91 77.7937 100.903C8.61423 68.2715 -79.2709 66.0406 -114.624 -1.78839C-161.25 -91.2443 -199.302 -220.405 -125.549 -289.229C-52.555 -357.344 59.5385 -276.496 157.116 -255.369Z" fill="#00A9C3"/>
</g>
<g opacity="0.5" filter="url(#filter4_f)">
<path fill-rule="evenodd" clip-rule="evenodd" d="M1388.13 157.357C1547.04 136.892 1737.57 95.3779 1867.29 146.534C1997.52 197.892 1915.07 307.59 1969.96 386.81C2027.28 469.547 2248.51 533.869 2193.2 616.961C2137.68 700.363 1904.43 703.501 1740.71 731.211C1625.5 750.711 1509.02 747.715 1388.13 753.221C1251.26 759.455 1104.52 801.668 986.7 765.553C868.25 729.245 876.92 641.71 816.958 578.147C743.605 500.389 537.229 432.822 596.583 352.008C656.772 270.057 902.942 288.809 1057.35 250.838C1173.74 222.217 1262.88 173.488 1388.13 157.357Z" fill="#FC12AF"/>
</g>
<g opacity="0.25" filter="url(#filter5_f)">
<path fill-rule="evenodd" clip-rule="evenodd" d="M305.063 5180.81C492.886 5156.61 718.078 5107.52 871.394 5168.01C1025.32 5228.73 927.874 5358.44 992.743 5452.1C1060.49 5549.93 1321.97 5625.98 1256.6 5724.23C1190.98 5822.84 915.291 5826.55 721.785 5859.31C585.615 5882.37 447.947 5878.83 305.063 5885.34C143.29 5892.71 -30.14 5942.62 -169.4 5899.92C-309.401 5856.99 -299.153 5753.49 -370.024 5678.33C-456.722 5586.4 -700.644 5506.51 -630.492 5410.95C-559.353 5314.06 -268.397 5336.23 -85.896 5291.33C51.665 5257.49 157.02 5199.88 305.063 5180.81Z" fill="#FC12AF"/>
</g>
<g opacity="0.5" filter="url(#filter6_f)">
<path fill-rule="evenodd" clip-rule="evenodd" d="M-536.937 2158.81C-349.114 2134.61 -123.922 2085.52 29.3937 2146.01C183.318 2206.73 85.8735 2336.44 150.743 2430.1C218.49 2527.93 479.971 2603.98 414.599 2702.23C348.983 2800.84 73.2913 2804.55 -120.215 2837.31C-256.385 2860.37 -394.053 2856.83 -536.937 2863.34C-698.71 2870.71 -872.14 2920.62 -1011.4 2877.92C-1151.4 2834.99 -1141.15 2731.49 -1212.02 2656.33C-1298.72 2564.4 -1542.64 2484.51 -1472.49 2388.95C-1401.35 2292.06 -1110.4 2314.23 -927.896 2269.33C-790.335 2235.49 -684.98 2177.88 -536.937 2158.81Z" fill="#FC12AF"/>
</g>
<g filter="url(#filter7_d)">
<rect x="667.09" y="619.414" width="54.6959" height="54.6959" rx="9" transform="rotate(45 667.09 619.414)" stroke="#01042F" stroke-width="2"/>
</g>
<g filter="url(#filter8_d)">
<rect x="651.09" y="5883.41" width="54.6959" height="54.6959" rx="9" transform="rotate(45 651.09 5883.41)" stroke="#01042F" stroke-width="2"/>
</g>
<g filter="url(#filter9_d)">
<rect x="764.09" y="2174.41" width="41.7769" height="41.7769" rx="9" transform="rotate(45 764.09 2174.41)" stroke="#01042F" stroke-width="2"/>
</g>
<g filter="url(#filter10_f)">
<rect x="457.749" y="4741.41" width="33" height="33" rx="6" transform="rotate(45 457.749 4741.41)" stroke="#FC12AF" stroke-width="2"/>
</g>
<g filter="url(#filter11_f)">
<rect x="527.366" y="1466.15" width="24" height="24" rx="4" transform="rotate(-60 527.366 1466.15)" stroke="#00728F" stroke-width="2"/>
</g>
<g filter="url(#filter12_d)">
<rect x="332.135" y="4011.41" width="43.1593" height="43.1593" rx="9" transform="rotate(45 332.135 4011.41)" stroke="#01042F" stroke-width="2"/>
</g>
<defs>
<filter id="filter0_f" x="754" y="4644" width="102.7" height="102.7" filterUnits="userSpaceOnUse" color-interpolation-filters="sRGB">
<feFlood flood-opacity="0" result="BackgroundImageFix"/>
<feBlend mode="normal" in="SourceGraphic" in2="BackgroundImageFix" result="shape"/>
<feGaussianBlur stdDeviation="5" result="effect1_foregroundBlur"/>
</filter>
<filter id="filter1_f" x="-499" y="2570" width="1189.96" height="1189.96" filterUnits="userSpaceOnUse" color-interpolation-filters="sRGB">
<feFlood flood-opacity="0" result="BackgroundImageFix"/>
<feBlend mode="normal" in="SourceGraphic" in2="BackgroundImageFix" result="shape"/>
<feGaussianBlur stdDeviation="12.5" result="effect1_foregroundBlur"/>
</filter>
<filter id="filter2_f" x="386" y="2535" width="2410" height="1278" filterUnits="userSpaceOnUse" color-interpolation-filters="sRGB">
<feFlood flood-opacity="0" result="BackgroundImageFix"/>
<feBlend mode="normal" in="SourceGraphic" in2="BackgroundImageFix" result="shape"/>
<feGaussianBlur stdDeviation="125" result="effect1_foregroundBlur"/>
</filter>
<filter id="filter3_f" x="-417" y="-566" width="1161.61" height="1000.65" filterUnits="userSpaceOnUse" color-interpolation-filters="sRGB">
<feFlood flood-opacity="0" result="BackgroundImageFix"/>
<feBlend mode="normal" in="SourceGraphic" in2="BackgroundImageFix" result="shape"/>
<feGaussianBlur stdDeviation="125" result="effect1_foregroundBlur"/>
</filter>
<filter id="filter4_f" x="336" y="-128" width="2116" height="1158" filterUnits="userSpaceOnUse" color-interpolation-filters="sRGB">
<feFlood flood-opacity="0" result="BackgroundImageFix"/>
<feBlend mode="normal" in="SourceGraphic" in2="BackgroundImageFix" result="shape"/>
<feGaussianBlur stdDeviation="125" result="effect1_foregroundBlur"/>
</filter>
<filter id="filter5_f" x="-893" y="4889" width="2410" height="1278" filterUnits="userSpaceOnUse" color-interpolation-filters="sRGB">
<feFlood flood-opacity="0" result="BackgroundImageFix"/>
<feBlend mode="normal" in="SourceGraphic" in2="BackgroundImageFix" result="shape"/>
<feGaussianBlur stdDeviation="125" result="effect1_foregroundBlur"/>
</filter>
<filter id="filter6_f" x="-1735" y="1867" width="2410" height="1278" filterUnits="userSpaceOnUse" color-interpolation-filters="sRGB">
<feFlood flood-opacity="0" result="BackgroundImageFix"/>
<feBlend mode="normal" in="SourceGraphic" in2="BackgroundImageFix" result="shape"/>
<feGaussianBlur stdDeviation="125" result="effect1_foregroundBlur"/>
</filter>
<filter id="filter7_d" x="617" y="608" width="100.18" height="100.18" filterUnits="userSpaceOnUse" color-interpolation-filters="sRGB">
<feFlood flood-opacity="0" result="BackgroundImageFix"/>
<feColorMatrix in="SourceAlpha" type="matrix" values="0 0 0 0 0 0 0 0 0 0 0 0 0 0 0 0 0 0 127 0"/>
<feOffset/>
<feGaussianBlur stdDeviation="5"/>
<feColorMatrix type="matrix" values="0 0 0 0 0.988235 0 0 0 0 0.0705882 0 0 0 0 0.686275 0 0 0 1 0"/>
<feBlend mode="normal" in2="BackgroundImageFix" result="effect1_dropShadow"/>
<feBlend mode="normal" in="SourceGraphic" in2="effect1_dropShadow" result="shape"/>
</filter>
<filter id="filter8_d" x="601" y="5872" width="100.18" height="100.18" filterUnits="userSpaceOnUse" color-interpolation-filters="sRGB">
<feFlood flood-opacity="0" result="BackgroundImageFix"/>
<feColorMatrix in="SourceAlpha" type="matrix" values="0 0 0 0 0 0 0 0 0 0 0 0 0 0 0 0 0 0 127 0"/>
<feOffset/>
<feGaussianBlur stdDeviation="5"/>
<feColorMatrix type="matrix" values="0 0 0 0 0.988235 0 0 0 0 0.0705882 0 0 0 0 0.686275 0 0 0 1 0"/>
<feBlend mode="normal" in2="BackgroundImageFix" result="effect1_dropShadow"/>
<feBlend mode="normal" in="SourceGraphic" in2="effect1_dropShadow" result="shape"/>
</filter>
<filter id="filter9_d" x="727.277" y="2167.14" width="73.6257" height="73.6257" filterUnits="userSpaceOnUse" color-interpolation-filters="sRGB">
<feFlood flood-opacity="0" result="BackgroundImageFix"/>
<feColorMatrix in="SourceAlpha" type="matrix" values="0 0 0 0 0 0 0 0 0 0 0 0 0 0 0 0 0 0 127 0"/>
<feOffset/>
<feGaussianBlur stdDeviation="5"/>
<feColorMatrix type="matrix" values="0 0 0 0 0.988235 0 0 0 0 0.0705882 0 0 0 0 0.686275 0 0 0 1 0"/>
<feBlend mode="normal" in2="BackgroundImageFix" result="effect1_dropShadow"/>
<feBlend mode="normal" in="SourceGraphic" in2="effect1_dropShadow" result="shape"/>
</filter>
<filter id="filter10_f" x="423" y="4730" width="69.4975" height="69.4975" filterUnits="userSpaceOnUse" color-interpolation-filters="sRGB">
<feFlood flood-opacity="0" result="BackgroundImageFix"/>
<feBlend mode="normal" in="SourceGraphic" in2="BackgroundImageFix" result="shape"/>
<feGaussianBlur stdDeviation="5" result="effect1_foregroundBlur"/>
</filter>
<filter id="filter11_f" x="522.829" y="1440.83" width="41.8581" height="41.8581" filterUnits="userSpaceOnUse" color-interpolation-filters="sRGB">
<feFlood flood-opacity="0" result="BackgroundImageFix"/>
<feBlend mode="normal" in="SourceGraphic" in2="BackgroundImageFix" result="shape"/>
<feGaussianBlur stdDeviation="2.5" result="effect1_foregroundBlur"/>
</filter>
<filter id="filter12_d" x="290.203" y="4000" width="83.8649" height="83.8649" filterUnits="userSpaceOnUse" color-interpolation-filters="sRGB">
<feFlood flood-opacity="0" result="BackgroundImageFix"/>
<feColorMatrix in="SourceAlpha" type="matrix" values="0 0 0 0 0 0 0 0 0 0 0 0 0 0 0 0 0 0 127 0"/>
<feOffset/>
<feGaussianBlur stdDeviation="5"/>
<feColorMatrix type="matrix" values="0 0 0 0 0.988235 0 0 0 0 0.0705882 0 0 0 0 0.686275 0 0 0 1 0"/>
<feBlend mode="normal" in2="BackgroundImageFix" result="effect1_dropShadow"/>
<feBlend mode="normal" in="SourceGraphic" in2="effect1_dropShadow" result="shape"/>
</filter>
</defs>
</svg>
