<?xml version="1.0" encoding="utf-8"?>
<!-- Generator: Adobe Illustrator 22.0.1, SVG Export Plug-In . SVG Version: 6.00 Build 0)  -->
<svg version="1.1" id="Layer_1" xmlns="http://www.w3.org/2000/svg" xmlns:xlink="http://www.w3.org/1999/xlink" x="0px" y="0px"
	 viewBox="0 0 368.3 92" style="enable-background:new 0 0 368.3 92;" xml:space="preserve">
<style type="text/css">
	.st0{fill:#FFFFFF;}
	.st1{fill:#EC1C24;}
</style>
<g id="Полноцвет">
	<g>
		<path class="st0" d="M146.6,92.9c-3.4,0-6.1-1-7.9-2.9s-2.7-4.6-2.7-8.2c0-1.8,0.3-3.3,0.8-4.7c0.6-1.4,1.3-2.5,2.3-3.5
			c1-0.9,2.1-1.7,3.4-2.2c1.3-0.5,2.8-0.7,4.3-0.7c0.9,0,1.7,0.1,2.4,0.2s1.4,0.3,1.9,0.5s1,0.4,1.4,0.5c0.4,0.2,0.6,0.3,0.8,0.4
			l-1.4,3.9c-0.7-0.3-1.4-0.6-2.3-0.9c-0.9-0.2-1.9-0.4-3-0.4c-0.7,0-1.5,0.1-2.2,0.4c-0.7,0.2-1.3,0.6-1.9,1.2
			c-0.5,0.5-1,1.2-1.3,2.1s-0.5,1.9-0.5,3.1c0,1,0.1,1.9,0.3,2.7c0.2,0.8,0.6,1.6,1,2.2c0.5,0.6,1.1,1.1,1.9,1.5
			c0.8,0.4,1.7,0.5,2.8,0.5c0.7,0,1.3,0,1.9-0.1c0.6-0.1,1-0.2,1.5-0.3c0.4-0.1,0.8-0.2,1.1-0.4c0.3-0.1,0.6-0.3,0.9-0.4l1.3,3.8
			c-0.7,0.4-1.6,0.8-2.8,1.1C149.6,92.7,148.2,92.9,146.6,92.9z"/>
		<path class="st0" d="M193.2,92.5c-0.2-0.7-0.5-1.5-0.8-2.3s-0.5-1.5-0.8-2.3h-8.3c-0.3,0.8-0.5,1.5-0.8,2.3s-0.5,1.5-0.8,2.3h-5
			c0.8-2.3,1.6-4.4,2.3-6.3s1.4-3.8,2.1-5.5c0.7-1.7,1.4-3.3,2-4.9c0.7-1.5,1.4-3,2.1-4.5h4.5c0.7,1.5,1.4,3,2.1,4.5
			c0.7,1.5,1.4,3.2,2,4.9c0.7,1.7,1.4,3.5,2.1,5.5c0.7,1.9,1.5,4,2.3,6.3H193.2z M187.5,76.1c-0.1,0.3-0.3,0.7-0.5,1.3
			c-0.2,0.5-0.4,1.1-0.7,1.8c-0.3,0.7-0.6,1.5-0.9,2.3c-0.3,0.8-0.7,1.7-1,2.6h6.1c-0.3-0.9-0.6-1.8-0.9-2.6
			c-0.3-0.8-0.6-1.6-0.9-2.3c-0.3-0.7-0.5-1.3-0.7-1.8C187.8,76.8,187.6,76.4,187.5,76.1z"/>
		<path class="st0" d="M228.8,88.8c0.7,0,1.2-0.1,1.7-0.2c0.4-0.1,0.8-0.3,1.1-0.5s0.4-0.4,0.5-0.7c0.1-0.3,0.2-0.6,0.2-0.9
			c0-0.7-0.3-1.3-1-1.7c-0.7-0.5-1.8-1-3.4-1.5c-0.7-0.2-1.4-0.5-2.1-0.8c-0.7-0.3-1.3-0.7-1.9-1.2c-0.5-0.5-1-1.1-1.3-1.7
			c-0.3-0.7-0.5-1.5-0.5-2.5s0.2-1.9,0.5-2.6c0.4-0.8,0.9-1.5,1.6-2c0.7-0.5,1.5-1,2.4-1.3c1-0.3,2-0.4,3.2-0.4
			c1.4,0,2.7,0.2,3.7,0.5s1.9,0.6,2.6,1l-1.4,3.8c-0.6-0.3-1.2-0.6-2-0.8c-0.7-0.2-1.6-0.4-2.6-0.4c-1.1,0-2,0.2-2.5,0.5
			s-0.8,0.8-0.8,1.5c0,0.4,0.1,0.7,0.3,1s0.4,0.5,0.8,0.7c0.3,0.2,0.7,0.4,1.2,0.6c0.4,0.2,0.9,0.4,1.5,0.5c1.1,0.4,2.1,0.8,2.9,1.2
			c0.8,0.4,1.5,0.9,2,1.4s0.9,1.2,1.2,1.9c0.3,0.7,0.4,1.6,0.4,2.6c0,2-0.7,3.5-2.1,4.6c-1.4,1.1-3.5,1.6-6.3,1.6
			c-0.9,0-1.8-0.1-2.5-0.2c-0.8-0.1-1.4-0.3-2-0.4c-0.6-0.2-1.1-0.3-1.5-0.5s-0.8-0.4-1.1-0.5l1.3-3.8c0.6,0.3,1.4,0.7,2.3,0.9
			C226.3,88.7,227.5,88.8,228.8,88.8z"/>
		<path class="st0" d="M262.2,71.3h4.8v21.2h-4.8V71.3z"/>
		<path class="st0" d="M307.5,92.5c-1.4-2.4-2.8-4.8-4.4-7.2c-1.6-2.4-3.3-4.6-5.1-6.7v13.9h-4.7V71.3h3.9c0.7,0.7,1.4,1.5,2.2,2.5
			c0.8,1,1.6,2,2.5,3.1c0.8,1.1,1.7,2.3,2.5,3.5s1.6,2.3,2.4,3.4V71.3h4.7v21.2H307.5z"/>
		<path class="st0" d="M358,81.9c0,1.8-0.3,3.4-0.8,4.8s-1.3,2.5-2.2,3.5c-0.9,0.9-2.1,1.6-3.3,2.1c-1.3,0.5-2.7,0.7-4.2,0.7
			c-1.4,0-2.8-0.2-4.1-0.7c-1.3-0.5-2.4-1.2-3.4-2.1s-1.7-2.1-2.3-3.5c-0.6-1.4-0.8-3-0.8-4.8s0.3-3.4,0.9-4.8s1.3-2.5,2.3-3.5
			c1-0.9,2.1-1.6,3.4-2.1s2.6-0.7,4-0.7s2.8,0.2,4.1,0.7c1.3,0.5,2.4,1.2,3.4,2.1s1.7,2.1,2.3,3.5C357.7,78.5,358,80.1,358,81.9z
			 M341.8,81.9c0,1,0.1,2,0.4,2.8s0.6,1.6,1.1,2.2s1.1,1.1,1.8,1.4c0.7,0.3,1.5,0.5,2.4,0.5s1.7-0.2,2.4-0.5
			c0.7-0.3,1.3-0.8,1.8-1.4s0.8-1.3,1.1-2.2c0.3-0.8,0.4-1.8,0.4-2.8s-0.1-2-0.4-2.8s-0.6-1.6-1.1-2.2s-1.1-1.1-1.8-1.4
			c-0.7-0.3-1.5-0.5-2.4-0.5s-1.7,0.2-2.4,0.5c-0.7,0.3-1.3,0.8-1.8,1.4s-0.8,1.3-1.1,2.2C341.9,79.9,341.8,80.9,341.8,81.9z"/>
	</g>
	<g>
		<g>
			<path class="st1" d="M358.6-0.5h-79.3H171.6H135c-5.4,0-9.8,4.4-9.8,9.8v43c0,5.4,4.4,9.8,9.8,9.8h36.6h107.7h79.3
				c5.4,0,9.8-4.4,9.8-9.8v-43C368.3,3.8,363.9-0.5,358.6-0.5z M364.4,52.2c0,3.2-2.6,5.9-5.9,5.9h-5.2H327V26.8c0-1.1-0.9-2-2-2
				s-1.9,0.9-1.9,2V58h-32.3h-4.2V26.8c0-1.1-0.9-2-2-2s-2,0.9-2,2V58h-3.4h-32.3V26.8c0-1.1-0.9-2-2-2s-2,0.9-2,2V58h-35.2V26.8
				c0-1.1-0.9-2-2-2s-2,0.9-2,2V58h-32.3H168V26.8c0-1.1-0.9-2-2-2s-2,0.9-2,2V58h-29c-3.2,0-5.9-2.6-5.9-5.9v-43
				c0-3.2,2.6-5.9,5.9-5.9h29.3v3.9c0,1.1,0.9,2,2,2s2-0.9,2-2V3.4h3.4H204v3.9c0,1.1,0.9,2,2,2s2-0.9,2-2V3.4h35v3.9
				c0,1.1,0.9,2,2,2s2-0.9,2-2V3.4h32.3h3.4v3.9c0,1.1,0.9,2,2,2s2-0.9,2-2V3.4h4.2h32.3v3.9c0,1.1,0.9,2,1.9,2c1.1,0,2-0.9,2-2V3.4
				h26.3h5.2c3.2,0,5.9,2.6,5.9,5.9L364.4,52.2L364.4,52.2z"/>
			<path d="M166.3,13.1c-1.1,0-2,0.9-2,2V19c0,1.1,0.9,2,2,2s2-0.9,2-2v-3.9C168.2,14,167.3,13.1,166.3,13.1z"/>
			<path d="M284.7,13.1c-1.1,0-2,0.9-2,2V19c0,1.1,0.9,2,2,2s2-0.9,2-2v-3.9C286.6,14,285.7,13.1,284.7,13.1z"/>
			<path d="M205.9,13.1c-1.1,0-2,0.9-2,2V19c0,1.1,0.9,2,2,2s2-0.9,2-2v-3.9C207.9,14,207,13.1,205.9,13.1z"/>
			<path d="M245,13.1c-1.1,0-2,0.9-2,2V19c0,1.1,0.9,2,2,2s2-0.9,2-2v-3.9C246.9,14,246,13.1,245,13.1z"/>
			<path d="M325.1,13.1c-1.1,0-1.9,0.9-1.9,2V19c0,1.1,0.9,2,1.9,2c1.1,0,2-0.9,2-2v-3.9C327.1,14,326.2,13.1,325.1,13.1z"/>
		</g>
		<g>
			<polygon class="st0" points="149.9,8.9 139,8.9 139,50.7 156.5,50.7 156.5,42.4 149.9,42.4 			"/>
			<path class="st0" d="M187.7,39.7c0,2.1-0.1,3.4-0.3,4s-0.6,0.8-1.3,0.8c-0.6,0-1-0.3-1.2-0.8s-0.3-1.7-0.3-3.5V8.9h-10.9v24.8
				c0,4.7,0.1,7.8,0.3,9.3s0.7,2.9,1.7,4.2c0.9,1.3,2.4,2.4,4.3,3.2c1.9,0.8,4.1,1.2,6.6,1.2c2.3,0,4.2-0.4,5.9-1
				c1.7-0.7,3-1.7,4-3.1c1-1.4,1.6-2.7,1.8-4s0.3-3.5,0.3-6.7v-28h-10.9L187.7,39.7L187.7,39.7z"/>
			<path class="st0" d="M233.4,10.7c-2.1-1.2-4.7-1.9-7.9-1.9c-2.4,0-4.5,0.4-6.3,1.2s-3.2,1.9-4.3,3.3c-1,1.4-1.6,2.8-1.8,4.4
				c-0.2,1.5-0.3,3.8-0.3,6.8v12.2c0,4.1,0.3,7.2,1,9.2s2,3.6,4.1,4.8s4.7,1.7,7.9,1.7c3.1,0,5.6-0.7,7.7-2c2.1-1.4,3.4-3,4.1-4.8
				c0.6-1.8,0.9-4.9,0.9-9.2v-1.6h-10.9v5.3c0,2.3-0.1,3.8-0.4,4.4c-0.3,0.6-0.8,0.9-1.6,0.9s-1.4-0.3-1.6-0.9
				c-0.2-0.6-0.4-1.9-0.4-4V21.1c0-2.1,0.1-3.5,0.4-4.1c0.2-0.6,0.8-1,1.7-1c0.8,0,1.3,0.3,1.5,0.8s0.3,1.8,0.3,4V28h10.9v-4
				c0-3.9-0.3-6.8-1-8.6C236.9,13.5,235.5,12,233.4,10.7z"/>
			<polygon class="st0" points="278.4,8.9 268.2,8.9 263.4,25.1 263.4,8.9 252.5,8.9 252.5,50.7 263.4,50.7 263.4,32.8 267.8,50.7 
				279,50.7 272.2,27.8 			"/>
			<path class="st0" d="M304.5,25.4c-0.2-2.8-1.1-8.3-2.6-16.5h-10l7.7,26.7v15.2h10.1V35.6l7.9-26.7h-10
				C306.1,15.4,305.1,20.9,304.5,25.4z"/>
			<path class="st0" d="M357.4,9h-26.7v10h14C346.7,15.4,354.7,10,357.4,9z"/>
			<path class="st0" d="M342.8,26.5L342.8,26.5c0,0.1-2.9,7.9-2.8,24.4h11.6c0-3.8-0.3-19,2.2-24.4c1.3-2.6,4.3-5.6,7.3-6.5V8.8
				C351.5,13.1,345,19.3,342.8,26.5z"/>
		</g>
	</g>
	<g>
		<path class="st1" d="M52,47.1l1.6,1.6l1.7-1.6c1.7-1.7,16.9-16.6,19.9-21.5c2-3.2,2.9-6.5,2.9-10.5c0-9.8-7.4-15-14.7-15
			c-4,0-7.4,1.4-9.7,4c-1.8-2-4.8-4-9.7-4c-8.6,0-14.7,6.2-14.7,15c0,4,0.9,7.3,2.9,10.5C35.3,30.5,50.3,45.4,52,47.1z M54.2,8.9
			c0,2.7,12.2,14.9,14.9,14.9c-2.7,0-14.9,12.1-14.9,14.8c0-2.7-12.2-14.9-14.9-14.9C41.9,23.7,54.2,11.6,54.2,8.9z"/>
		<path class="st0" d="M106.1,42.7c0-8.6-6.2-14.7-15-14.7c-4,0-7.3,0.9-10.5,2.9C75.6,34,60.7,49,59,50.7l-1.6,1.7L59,54
			c1.7,1.7,16.6,16.9,21.5,19.9c3.2,2,6.5,2.9,10.5,2.9c9.8,0,15-7.4,15-14.7c0-4-1.4-7.4-4-9.7C104.1,50.6,106.1,47.6,106.1,42.7z
			 M97.8,52.8v6.6c0,0-0.9-4.4-7.9-5.7c1.8,1.2,2.9,3.3,2.9,5.6c0,3.7-3.1,6.8-6.8,6.7c-3.7,0-6.8-3-6.7-6.8c0-0.5,0.1-1,0.2-1.5
			c-1.2,1.1-2.8,1.9-4.7,1.9c-3.7,0-6.8-3-6.7-6.8c0-3.7,3-6.8,6.8-6.7c1.8,0,3.4,0.7,4.6,1.9c-0.1-0.5-0.2-1-0.2-1.5
			c0-3.7,3-6.8,6.8-6.7c3.7,0,6.8,3,6.7,6.8c0,2.3-1.2,4.4-3,5.6c7-1.3,7.9-5.7,7.9-5.7L97.8,52.8z"/>
		<path class="st0" d="M48.3,54.1l1.6-1.6l-1.6-1.7C46.7,49.1,31.8,34,26.8,30.9c-3.2-2-6.5-2.9-10.5-2.9c-9.8,0-15,7.4-15,14.7
			c0,4,1.4,7.4,4,9.7c-2,1.8-4,4.8-4,9.7c0,8.6,6.2,14.7,15,14.7c4,0,7.3-0.9,10.5-2.9C31.8,70.9,46.7,55.8,48.3,54.1z M31.2,60.2
			c-4.4,6.2-12.5,8.8-16.5,3.4c-2.7-3.7-0.6-7.5,1-9.5c-5.4,1.7-6.1,5.4-6.1,5.4v-6.8v-6.8c0,0,0.7,3.7,6.1,5.4
			c-1.6-2-3.7-5.8-1-9.5c4-5.4,12.1-2.8,16.5,3.4c4.4,6.3,7.9,7.5,7.9,7.5S35.6,54,31.2,60.2z"/>
		<path class="st1" d="M63.3,79.7c-5.8-8-9.2-17-9.2-23.3L54,56.3c0,6.3-3.4,15.3-9.2,23.4c-4.7,6.4-9.9,11-14.3,12.8h47.2l0,0
			C73.1,90.6,67.9,86.1,63.3,79.7z"/>
	</g>
</g>
</svg>
